<?xml version="1.0" encoding="UTF-8"?>
<svg width="19px" height="16px" viewBox="0 0 19 16" version="1.1" xmlns="http://www.w3.org/2000/svg" xmlns:xlink="http://www.w3.org/1999/xlink">
    <!-- Generator: Sketch 54.1 (76490) - https://sketchapp.com -->
    <title>telegram</title>
    <desc>Created with Sketch.</desc>
    <g id="InProgress" stroke="none" stroke-width="1" fill="none" fill-rule="evenodd" opacity="0.3">
        <g id="StreamexMain" transform="translate(-1150.000000, -4714.000000)" fill="#627791" fill-rule="nonzero">
            <g id="09-Footer" transform="translate(270.000000, 4657.000000)">
                <g id="telegram" transform="translate(880.000000, 57.000000)">
                    <path d="M19,1.01784586 C18.7502275,2.21023969 18.500872,3.40137837 18.2498485,4.59335382 C18.2323352,4.68205118 18.2094012,4.77033016 18.19022,4.85819076 C18.1109933,5.22846043 18.0330176,5.59831171 17.9533739,5.96858137 C17.7086052,7.12875965 17.4630025,8.2897747 17.2169829,9.44953459 C17.1244127,9.86080587 17.0318426,10.2737507 16.9380216,10.6854403 C16.7920777,11.4347657 16.6461338,12.1836727 16.498522,12.9346717 C16.3375668,13.6856706 16.1761945,14.4400166 16.0139884,15.192689 C15.6328664,16.0851017 15.0824495,16.2365566 14.2951865,15.6524928 C13.2402208,14.8692783 12.1906759,14.0781146 11.139463,13.2907163 C11.0739967,13.2459492 11.0089475,13.2011821 10.9438982,13.1559967 L10.4818816,13.6132902 C10.092003,13.99904 9.70379225,14.3843715 9.31474759,14.7709582 C9.27013046,14.8153068 9.21967558,14.8717886 9.16588484,14.9320359 C9.13294322,14.9663434 9.1025035,15.0023244 9.0691449,15.0370502 C9.02661268,15.0851644 8.97699177,15.1282579 8.92403499,15.1680044 C8.89151035,15.1931074 8.84647624,15.2311803 8.79935722,15.2726003 C8.54332997,15.4939254 8.11342102,15.8637766 7.44416411,15.8637766 C7.40455078,15.8637766 7.36452046,15.8625215 7.32449014,15.860848 C7.28362585,15.8625215 7.24234459,15.8650318 7.20356521,15.8650318 C6.94295115,15.8650318 6.06812188,15.7809366 5.7437095,14.6935571 C5.59484675,14.1923334 5.43097263,13.6802316 5.27335324,13.1844468 C5.20913794,12.9815306 5.14367169,12.7786145 5.07862242,12.5719329 L4.52445268,10.7917098 L4.10288338,9.43489116 C4.06493797,9.3123047 4.05117755,9.1884631 4.05743229,9.0671318 C2.89780397,8.7081585 1.73900962,8.34834843 0.580215262,7.98853836 C0.536849083,7.97515008 0.485560236,7.96594563 0.455537496,7.93707715 C0.290412428,7.77892808 0.0206247539,7.62747314 0.0014435591,7.45049679 C-0.0185716007,7.27519398 0.173240347,6.99906067 0.34753903,6.89404634 C0.741170505,6.65640434 1.1773342,6.48486698 1.60474125,6.30789063 C2.09094284,6.10497449 2.58631805,5.92465107 3.07752343,5.73428644 C5.26501359,4.88873278 7.45125282,4.0435975 9.63707506,3.19804384 C10.6991295,2.78635418 11.7616009,2.37842998 12.8219874,1.96255648 C13.2452246,1.79645811 13.6617901,1.613206 14.0812745,1.43790319 C14.7692956,1.18896483 15.4581507,0.947557378 16.140334,0.689414573 C16.5518958,0.53503095 16.9534499,0.355125916 17.3591739,0.186935628 C17.4675893,0.157230378 17.5768387,0.133800885 17.6835863,0.0978198785 C18.4108037,-0.151955251 18.8169447,0.0727168504 18.9708112,0.816603248 C18.9841547,0.882289505 18.9908264,0.950904448 19,1.01784586 Z M8.62964535,11.4824615 C8.57001685,12.265676 8.51289025,13.0501456 8.45618063,13.8333601 L8.43241263,14.1571891 C8.47744674,14.109075 8.52039593,14.0597057 8.56626401,14.0124283 C9.05913732,13.5233377 9.55451252,13.0334102 10.0490538,12.5439012 C9.57536165,12.1899485 9.10208651,11.8355774 8.62964535,11.4824615 Z M12.5163392,4.57745523 C10.1132691,6.09828035 7.71019895,7.6232893 5.30587788,9.14327765 C5.25709093,9.17381967 5.20371717,9.19766754 5.14950944,9.22235219 C5.46433123,10.2323307 5.77915301,11.2427276 6.09314083,12.2535428 C6.31747741,12.9647953 6.55015364,13.6743742 6.76239773,14.3885554 C6.84996406,14.6847711 7.00174569,14.8433385 7.32198824,14.7872751 C7.41080551,13.5785643 7.49586994,12.3706903 7.58677213,11.1615611 C7.59719669,11.0205658 7.61387599,10.8774785 7.63097227,10.7364832 C7.49503598,10.6582454 7.55466448,10.508464 7.6017835,10.4590947 C7.68476301,10.373326 7.76774253,10.2858838 7.85072205,10.19886 C7.8803278,10.1712466 7.91118451,10.1432149 7.9399563,10.1156016 C7.98165455,10.0720897 8.02210185,10.0285778 8.06338312,9.98548424 C8.26228377,9.79972183 8.46035045,9.61061235 8.6592511,9.42401318 C8.77267034,9.31648854 8.88734053,9.20854552 9.00117675,9.10143927 C9.3097438,8.8114993 9.61789386,8.52197771 9.93188168,8.23663995 C10.7299862,7.50865214 11.544353,6.79739968 12.3441254,6.07234055 C13.3636476,5.14687559 14.3806679,4.21806355 15.3905995,3.28213899 C15.4648224,3.17879819 15.5127754,3.04575214 15.5778247,2.93195174 C15.3968543,2.956218 15.1846102,2.92609437 15.0407512,3.01102628 C14.1905239,3.5193626 13.354057,4.04778134 12.5163392,4.57745523 Z" id="Combined-Shape"></path>
                </g>
            </g>
        </g>
    </g>
</svg>