<?xml version="1.0" encoding="UTF-8"?>
<svg width="30px" height="30px" viewBox="0 0 30 30" version="1.1" xmlns="http://www.w3.org/2000/svg" xmlns:xlink="http://www.w3.org/1999/xlink">
    <!-- Generator: Sketch 54.1 (76490) - https://sketchapp.com -->
    <title>btc</title>
    <desc>Created with Sketch.</desc>
    <g id="InProgress" stroke="none" stroke-width="1" fill="none" fill-rule="evenodd">
        <g id="StreamexMain" transform="translate(-522.000000, -748.000000)">
            <g id="02-Cards" transform="translate(270.000000, 723.000000)">
                <g id="Bitcoin" transform="translate(232.000000, 0.000000)">
                    <g id="btc" transform="translate(20.000000, 25.000000)">
                        <circle id="Oval" fill="#F7931A" cx="15" cy="15" r="15"></circle>
                        <g id="bitcoin" transform="translate(6.750000, 5.250000)" fill="#FFFFFF" fill-rule="nonzero">
                            <path d="M14.8640625,8.08171875 C15.1621875,6.08578125 13.6425,5.0128125 11.5645312,4.29703125 L12.2385937,1.59328125 L10.5923437,1.183125 L9.93609375,3.815625 C9.50390625,3.7078125 9.05953125,3.60609375 8.61796875,3.5053125 L9.27890625,0.85546875 L7.6340625,0.4453125 L6.95953125,3.148125 C6.60140625,3.0665625 6.24984375,2.9859375 5.90859375,2.90109375 L5.91046875,2.89265625 L3.64078125,2.3259375 L3.20296875,4.08375 C3.20296875,4.08375 4.4240625,4.36359375 4.39828125,4.3809375 C5.06484375,4.54734375 5.18578125,4.9884375 5.16515625,5.338125 L4.39734375,8.41828125 C4.44328125,8.43 4.5028125,8.446875 4.5684375,8.473125 L4.395,8.43 L3.31828125,12.7448437 C3.23671875,12.9473437 3.03,13.2510937 2.5640625,13.1357812 C2.58046875,13.1596875 1.3678125,12.8371875 1.3678125,12.8371875 L0.55078125,14.7215625 L2.69296875,15.2554688 C3.09140625,15.3553125 3.481875,15.4598437 3.86578125,15.5582813 L3.1846875,18.2934375 L4.82859375,18.7035937 L5.50359375,15.9979688 C5.9521875,16.1198438 6.388125,16.2323438 6.8146875,16.3382813 L6.1425,19.03125 L7.78828125,19.4414062 L8.469375,16.711875 C11.2757813,17.2429687 13.3865625,17.02875 14.2739062,14.4909375 C14.9896875,12.4471875 14.23875,11.2682812 12.7621875,10.4990625 C13.8375,10.2501562 14.6475,9.5428125 14.8635937,8.08171875 L14.8640625,8.08171875 Z M11.1032813,13.3546875 C10.5942188,15.3984375 7.15359375,14.2940625 6.0375,14.0165625 L6.94125,10.3935938 C8.056875,10.6720313 11.6339063,11.2232813 11.10375,13.3546875 L11.1032813,13.3546875 Z M11.611875,8.0521875 C11.1478125,9.91125 8.28375,8.96671875 7.35421875,8.73515625 L8.17359375,5.44921875 C9.103125,5.68078125 12.095625,6.11296875 11.611875,8.0521875 L11.611875,8.0521875 Z" id="Shape"></path>
                        </g>
                    </g>
                </g>
            </g>
        </g>
    </g>
</svg>