<?xml version="1.0" encoding="UTF-8"?>
<svg width="434px" height="359px" viewBox="0 0 434 359" version="1.1" xmlns="http://www.w3.org/2000/svg" xmlns:xlink="http://www.w3.org/1999/xlink">
    <!-- Generator: Sketch 54.1 (76490) - https://sketchapp.com -->
    <title>Illustration</title>
    <desc>Created with Sketch.</desc>
    <defs>
        <linearGradient x1="108.582111%" y1="26.8954%" x2="-6.83802524%" y2="73.0369757%" id="linearGradient-1">
            <stop stop-color="#E4F2FF" offset="0%"></stop>
            <stop stop-color="#E1EFFF" offset="5.554383%"></stop>
            <stop stop-color="#C7D7FB" offset="64.78%"></stop>
            <stop stop-color="#BDCEFA" offset="99.93%"></stop>
        </linearGradient>
        <linearGradient x1="48.65625%" y1="100%" x2="48.65625%" y2="0.0236641221%" id="linearGradient-2">
            <stop stop-color="#4C68EF" stop-opacity="0" offset="0%"></stop>
            <stop stop-color="#4C68EF" offset="100%"></stop>
        </linearGradient>
    </defs>
    <g id="InProgress" stroke="none" stroke-width="1" fill="none" fill-rule="evenodd">
        <g id="StreamexMain" transform="translate(-292.000000, -3174.000000)">
            <g id="06-Competitive" transform="translate(291.000000, 3174.000000)">
                <g id="Illustration">
                    <g id="Group" opacity="0.3" transform="translate(0.000000, 114.000000)" fill="#BEDAFF" fill-rule="nonzero">
                        <g transform="translate(0.000000, 15.000000)" id="Path">
                            <path d="M31.6,1 L27.9,3.1 C26,4.2 26,6 27.9,7.1 L31.6,9.2 C33.5,10.3 36.7,10.3 38.6,9.2 L42.3,7.1 C44.2,6 44.2,4.2 42.3,3.1 L38.6,1 C36.7,-0.1 33.6,-0.1 31.6,1 Z"></path>
                            <path d="M29.8,38.5 L29.8,38.5 C31.7,39.6 31.7,41.4 29.8,42.5 L27.2,44 C25.3,45.1 25.3,46.9 27.2,48 L30.9,50.1 C32.8,51.2 36,51.2 37.9,50.1 L41.6,48 C43.5,46.9 43.5,45.1 41.6,44 L38.8,42.4 C36.9,41.3 36.9,39.5 38.8,38.4 L52.1,30.7 C54,29.6 57.2,29.6 59.1,30.7 L60,31.2 C61.9,32.3 65.1,32.3 67,31.2 L70.7,29.1 C72.6,28 72.6,26.2 70.7,25.1 L67,23 C65.1,21.9 61.9,21.9 60,23 L57.6,24.4 C55.7,25.5 52.5,25.5 50.6,24.4 L37.6,16.9 C35.7,15.8 32.5,15.8 30.6,16.9 L25.5,19.8 C23.6,20.9 20.4,20.9 18.5,19.8 L15.1,17.8 C13.2,16.7 10,16.7 8.1,17.8 L4.4,19.9 C2.5,21 2.5,22.8 4.4,23.9 L7.8,25.9 C9.7,27 9.7,28.8 7.8,29.9 L2.4,33 C0.5,34.1 0.5,35.9 2.4,37 L10.3,41.6 C12.2,42.7 15.4,42.7 17.3,41.6 L22.7,38.5 C24.7,37.4 27.8,37.4 29.8,38.5 Z"></path>
                        </g>
                        <g id="Group-Copy" transform="translate(331.000000, 0.000000)">
                            <path d="M31.6,1 L27.9,3.1 C26,4.2 26,6 27.9,7.1 L31.6,9.2 C33.5,10.3 36.7,10.3 38.6,9.2 L42.3,7.1 C44.2,6 44.2,4.2 42.3,3.1 L38.6,1 C36.7,-0.1 33.6,-0.1 31.6,1 Z" id="Path"></path>
                            <path d="M29.8,38.5 L29.8,38.5 C31.7,39.6 31.7,41.4 29.8,42.5 L27.2,44 C25.3,45.1 25.3,46.9 27.2,48 L30.9,50.1 C32.8,51.2 36,51.2 37.9,50.1 L41.6,48 C43.5,46.9 43.5,45.1 41.6,44 L38.8,42.4 C36.9,41.3 36.9,39.5 38.8,38.4 L52.1,30.7 C54,29.6 57.2,29.6 59.1,30.7 L60,31.2 C61.9,32.3 65.1,32.3 67,31.2 L70.7,29.1 C72.6,28 72.6,26.2 70.7,25.1 L67,23 C65.1,21.9 61.9,21.9 60,23 L57.6,24.4 C55.7,25.5 52.5,25.5 50.6,24.4 L37.6,16.9 C35.7,15.8 32.5,15.8 30.6,16.9 L25.5,19.8 C23.6,20.9 20.4,20.9 18.5,19.8 L15.1,17.8 C13.2,16.7 10,16.7 8.1,17.8 L4.4,19.9 C2.5,21 2.5,22.8 4.4,23.9 L7.8,25.9 C9.7,27 9.7,28.8 7.8,29.9 L2.4,33 C0.5,34.1 0.5,35.9 2.4,37 L10.3,41.6 C12.2,42.7 15.4,42.7 17.3,41.6 L22.7,38.5 C24.7,37.4 27.8,37.4 29.8,38.5 Z" id="Path"></path>
                        </g>
                        <g transform="translate(49.000000, 158.000000)" id="Path">
                            <path d="M43.9,55.3 L47.9,53 C50,51.8 50,49.8 47.9,48.6 L43.9,46.3 C41.8,45.1 38.4,45.1 36.3,46.3 L32.3,48.6 C30.2,49.8 30.2,51.8 32.3,53 L36.3,55.3 C38.4,56.5 41.8,56.5 43.9,55.3 Z"></path>
                            <path d="M46,14.3 L46,14.3 C43.9,13.1 43.9,11.1 46,9.9 L48.9,8.3 C51,7.1 51,5.1 48.9,3.9 L44.9,1.6 C42.8,0.4 39.4,0.4 37.3,1.6 L33.3,3.9 C31.2,5.1 31.2,7.1 33.3,8.3 L36.4,10.1 C38.5,11.3 38.5,13.3 36.4,14.5 L21.8,22.9 C19.7,24.1 16.3,24.1 14.2,22.9 L13.2,22.3 C11.1,21.1 7.7,21.1 5.6,22.3 L1.6,24.6 C-0.5,25.8 -0.5,27.8 1.6,29 L5.6,31.3 C7.7,32.5 11.1,32.5 13.2,31.3 L15.8,29.8 C17.9,28.6 21.3,28.6 23.4,29.8 L37.6,38 C39.7,39.2 43.1,39.2 45.2,38 L50.7,34.8 C52.8,33.6 56.2,33.6 58.3,34.8 L62.1,37 C64.2,38.2 67.6,38.2 69.7,37 L73.7,34.7 C75.8,33.5 75.8,31.5 73.7,30.3 L69.9,28.1 C67.8,26.9 67.8,24.9 69.9,23.7 L75.8,20.3 C77.9,19.1 77.9,17.1 75.8,15.9 L67.2,10.9 C65.1,9.7 61.7,9.7 59.6,10.9 L53.7,14.3 C51.5,15.5 48.1,15.5 46,14.3 Z"></path>
                        </g>
                    </g>
                    <g id="Group-4" transform="translate(379.151249, 189.758619)">
                        <path d="M27.2535638,49.2683815 C26.0365638,49.2683815 24.8745638,49.0233815 24.0055638,48.5213815 L1.29356383,35.3073815 C-0.622436174,34.2013815 -0.382436174,32.2673815 1.83056383,30.9903815 L23.4785638,18.3783815 C24.6885638,17.6783815 26.2385638,17.3203815 27.7085638,17.3203815 C28.9255638,17.3203815 30.0875638,17.5663815 30.9555638,18.0673815 L53.6675638,31.2813815 C55.5835638,32.3883815 55.3435638,34.3213815 53.1305638,35.5983815 L31.4825638,48.2123815 C30.2725638,48.9103815 28.7235638,49.2683815 27.2535638,49.2683815" id="Fill-1" fill="#EAF2FF"></path>
                        <path d="M54.9505638,20.5143815 L54.9505638,15.9653815 L30.7885638,15.9513815 L30.9555638,15.9453815 C29.0395638,14.8393815 25.6915638,14.9773815 23.4785638,16.2563815 L24.1945638,15.9573815 L0.010563826,15.9433815 L0.010563826,20.8003815 C-0.044436174,21.5493815 0.372563826,22.2713815 1.29356383,22.8033815 L24.0055638,36.0173815 C25.9225638,37.1243815 29.2705638,36.9853815 31.4835638,35.7073815 L53.1305638,23.0953815 C54.4065638,22.3573815 55.0235638,21.4033815 54.9505638,20.5143815" id="Fill-2" fill="#CDDCFC"></path>
                        <path d="M27.4865638,15.2043815 C26.0835638,15.2383815 24.6275638,15.5923815 23.4785638,16.2563815 L24.1945638,15.9573815 L0.010563826,15.9433815 L0.010563826,20.8003815 C-0.044436174,21.5493815 0.372563826,22.2713815 1.29356383,22.8033815 L24.0055638,36.0173815 C24.9265638,36.5493815 26.1785638,36.7903815 27.4755638,36.7593815 L27.4865638,15.2043815" id="Fill-3" fill="#C3D4FA"></path>
                        <path d="M2.74656383,15.9443815 L0.010563826,15.9433815 L0.010563826,20.8003815 C-0.044436174,21.5493815 0.372563826,22.2713815 1.29356383,22.8033815 L2.74656383,23.6413815 L2.74656383,15.9443815" id="Fill-4" fill="#C3D4FA"></path>
                        <path d="M24.4875638,36.2533815 C26.1395638,36.9613815 28.5305638,36.9223815 30.4645638,36.1843815 L30.4645638,29.8273815 L24.4875638,29.8273815 L24.4875638,36.2533815" id="Fill-5" fill="#C3D4FA"></path>
                        <path d="M24.0055638,31.2013815 L1.29356383,17.9863815 C-0.622436174,16.8803815 -0.382436174,14.9473815 1.83056383,13.6703815 L23.4785638,1.05638145 C25.6915638,-0.220618545 29.0395638,-0.359618545 30.9555638,0.747381455 L53.6675638,13.9613815 C55.5835638,15.0673815 55.3435638,17.0013815 53.1305638,18.2783815 L31.4835638,30.8903815 C29.2705638,32.1693815 25.9225638,32.3073815 24.0055638,31.2013815" id="Fill-6" fill="#E8F2FE"></path>
                    </g>
                    <path d="M213.872812,303.749 C211.365812,303.749 208.971812,303.243 207.182812,302.21 L67.6048125,221.625 C63.6568125,219.345 64.1518125,215.363 68.7108125,212.73 L163.753812,157.876 C166.246812,156.437 169.439812,155.699 172.467812,155.699 C174.974812,155.699 177.368812,156.205 179.157812,157.238 L318.735812,237.823 C322.683812,240.103 322.188812,244.085 317.629812,246.717 L222.587812,301.571 C220.093812,303.011 216.900812,303.749 213.872812,303.749" id="Fill-9" fill="#EAF2FF"></path>
                    <path d="M354.532812,90.038 L212.215812,7.871 C210.562812,6.917 208.883812,6.77 207.392812,7.28 L207.401812,7.265 L207.142812,7.362 L207.080812,7.386 L201.936812,9.354 L206.553812,11.615 L206.486812,11.866 L183.305812,117.385 C182.145812,122.666 184.469812,128.831 188.494812,131.155 L327.389812,211.346 L326.893812,217.231 L332.514812,215.053 C334.403812,214.17 335.915812,212.173 336.540812,209.327 L359.720812,103.808 C360.881812,98.527 358.557812,92.362 354.532812,90.038" id="Fill-10" fill="#CCDCFC"></path>
                    <path d="M354.532812,90.038 L212.215812,7.871 C210.562812,6.917 208.883812,6.77 207.392812,7.28 L207.401812,7.265 L207.142812,7.362 L207.080812,7.386 L201.936812,9.354 L206.553812,11.615 L206.486812,11.866 L191.209812,81.409 L260.843812,135.661 L359.027812,95.709 C358.084812,93.264 356.516812,91.183 354.532812,90.038" id="Fill-11" fill="#D2E1FD"></path>
                    <path d="M349.166812,106.258 L360.000812,101.646 C360.198812,97.45 358.461812,93.115 355.610812,90.797 L338.462812,98.011 L349.166812,106.258" id="Fill-12" fill="#D2E1FD"></path>
                    <path d="M321.949812,216.672 L179.632812,134.505 C175.606812,132.181 173.283812,126.016 174.443812,120.735 L197.624812,15.216 C198.784812,9.935 202.988812,7.539 207.015812,9.863 L349.331812,92.03 C353.357812,94.354 355.680812,100.52 354.520812,105.8 L331.340812,211.319 C330.179812,216.601 325.975812,218.997 321.949812,216.672" id="Fill-13" fill="#E8F2FE"></path>
                    <path d="M318.864812,208.823 L185.017812,131.585 C181.334812,129.458 179.208812,123.816 180.269812,118.984 L201.481812,22.425 C202.543812,17.593 206.390812,15.4 210.074812,17.527 L343.921812,94.765 C347.605812,96.892 349.731812,102.534 348.670812,107.366 L327.457812,203.925 C326.395812,208.758 322.548812,210.95 318.864812,208.823" id="Fill-14" fill="#FFFFFE"></path>
                    <path d="M318.864812,208.823 L185.017812,131.585 C181.334812,129.458 179.208812,123.816 180.269812,118.984 L201.481812,22.425 C202.543812,17.593 206.390812,15.4 210.074812,17.527 L343.921812,94.765 C347.605812,96.892 349.731812,102.534 348.670812,107.366 L327.457812,203.925 C326.395812,208.758 322.548812,210.95 318.864812,208.823" id="Fill-15" fill="#FFFFFE"></path>
                    <path d="M323.914812,220.251 L304.460812,217.682 L178.882812,145.179 C174.856812,142.855 167.824812,143.146 163.175812,145.831 L74.1918125,197.187 L62.4288125,195.634 L62.4288125,202.308 L62.4398125,202.31 C62.3628125,203.852 63.2418125,205.336 65.1408125,206.433 L207.457812,288.599 C211.483812,290.924 218.515812,290.632 223.164812,287.948 L320.071812,232.018 C322.686812,230.508 323.990812,228.563 323.914812,226.735 L323.914812,220.251" id="Fill-16" fill="url(#linearGradient-1)" fill-rule="nonzero"></path>
                    <path d="M229.558812,174.438 L220.637812,169.287 L122.548812,169.287 L74.1918125,197.187 L62.4288125,195.634 L62.4288125,202.308 L62.4398125,202.31 C62.3628125,203.852 63.2418125,205.336 65.1408125,206.433 L207.457812,288.599 C209.585812,289.827 212.552812,290.318 215.563812,290.118 L229.558812,174.438" id="Fill-17" fill="#C3D4FA"></path>
                    <path d="M208.890812,289.265 C212.706812,290.712 218.162812,290.397 222.236812,288.437 L222.236812,273.549 L208.890812,273.549 L208.890812,289.265" id="Fill-19" fill="#CBDBFB"></path>
                    <path d="M67.6488125,196.323 L62.4288125,195.634 L62.4288125,202.308 L62.4398125,202.31 C62.3628125,203.852 63.2418125,205.336 65.1408125,206.433 L67.6488125,207.88 L67.6488125,196.323" id="Fill-18" fill="#C3D4FA"></path>
                    <path d="M207.457812,281.933 L65.1408125,199.766 C61.1148125,197.441 61.6198125,193.381 66.2688125,190.697 L163.175812,134.767 C167.824812,132.083 174.856812,131.791 178.882812,134.115 L321.199812,216.282 C325.225812,218.606 324.721812,222.667 320.071812,225.351 L223.164812,281.281 C218.515812,283.966 211.483812,284.257 207.457812,281.933" id="Fill-20" fill="#E8F2FE" fill-rule="nonzero"></path>
                    <path d="M125.670812,172.563 L119.230812,168.846 C118.713812,168.547 118.778812,168.026 119.375812,167.681 L126.975812,163.293 C127.572812,162.949 128.475812,162.911 128.993812,163.209 L135.431812,166.927 C135.949812,167.226 135.884812,167.747 135.287812,168.092 L127.686812,172.48 C127.090812,172.825 126.186812,172.862 125.670812,172.563" id="Fill-21" fill="#B8D0F6"></path>
                    <path d="M135.613812,178.305 L129.175812,174.587 C128.657812,174.289 128.722812,173.768 129.319812,173.423 L136.920812,169.035 C137.516812,168.69 138.420812,168.652 138.936812,168.951 L145.376812,172.669 C145.893812,172.967 145.828812,173.488 145.231812,173.833 L137.631812,178.222 C137.034812,178.566 136.131812,178.604 135.613812,178.305" id="Fill-22" fill="#B8D0F6"></path>
                    <path d="M145.557812,184.046 L139.118812,180.328 C138.601812,180.03 138.666812,179.509 139.264812,179.164 L146.864812,174.775 C147.461812,174.431 148.364812,174.394 148.881812,174.692 L155.320812,178.41 C155.838812,178.708 155.772812,179.229 155.176812,179.574 L147.575812,183.963 C146.977812,184.308 146.075812,184.345 145.557812,184.046" id="Fill-23" fill="#B8D0F6"></path>
                    <path d="M159.311812,179.305 L152.872812,175.587 C152.354812,175.289 152.420812,174.768 153.016812,174.423 L159.397812,170.739 C159.994812,170.394 160.897812,170.357 161.414812,170.655 L167.853812,174.373 C168.370812,174.672 168.305812,175.193 167.709812,175.537 L161.328812,179.222 C160.731812,179.566 159.828812,179.604 159.311812,179.305" id="Fill-24" fill="#B8D0F6"></path>
                    <path d="M169.256812,185.046 L162.816812,181.328 C162.299812,181.03 162.364812,180.509 162.961812,180.164 L169.341812,176.48 C169.938812,176.136 170.841812,176.098 171.358812,176.396 L177.798812,180.114 C178.314812,180.413 178.250812,180.935 177.652812,181.279 L171.272812,184.963 C170.676812,185.308 169.772812,185.345 169.256812,185.046" id="Fill-25" fill="#B8D0F6"></path>
                    <path d="M179.199812,190.787 L172.761812,187.069 C172.243812,186.771 172.308812,186.25 172.905812,185.905 L179.285812,182.222 C179.883812,181.877 180.785812,181.84 181.303812,182.138 L187.742812,185.855 C188.259812,186.154 188.194812,186.676 187.597812,187.021 L181.217812,190.704 C180.620812,191.049 179.717812,191.086 179.199812,190.787" id="Fill-26" fill="#B8D0F6"></path>
                    <path d="M189.143812,196.528 L182.704812,192.811 C182.187812,192.513 182.252812,191.991 182.849812,191.646 L189.229812,187.963 C189.826812,187.618 190.729812,187.581 191.247812,187.879 L197.685812,191.597 C198.203812,191.896 198.138812,192.417 197.541812,192.762 L191.161812,196.445 C190.563812,196.79 189.661812,196.827 189.143812,196.528" id="Fill-27" fill="#B8D0F6"></path>
                    <path d="M199.088812,202.27 L192.648812,198.552 C192.132812,198.254 192.196812,197.732 192.794812,197.388 L199.174812,193.704 C199.770812,193.359 200.674812,193.322 201.190812,193.62 L207.630812,197.338 C208.147812,197.637 208.082812,198.158 207.485812,198.503 L201.105812,202.187 C200.508812,202.531 199.604812,202.568 199.088812,202.27" id="Fill-28" fill="#B8D0F6"></path>
                    <path d="M209.032812,208.012 L202.593812,204.294 C202.076812,203.995 202.140812,203.474 202.737812,203.129 L209.118812,199.445 C209.715812,199.101 210.618812,199.063 211.135812,199.361 L217.574812,203.079 C218.092812,203.378 218.026812,203.899 217.430812,204.244 L211.049812,207.928 C210.452812,208.272 209.549812,208.31 209.032812,208.012" id="Fill-29" fill="#B8D0F6"></path>
                    <path d="M218.976812,213.753 L212.537812,210.035 C212.020812,209.736 212.085812,209.215 212.681812,208.87 L219.062812,205.187 C219.659812,204.842 220.562812,204.805 221.079812,205.103 L227.518812,208.82 C228.035812,209.119 227.971812,209.641 227.374812,209.985 L220.993812,213.669 C220.396812,214.014 219.493812,214.051 218.976812,213.753" id="Fill-30" fill="#B8D0F6"></path>
                    <path d="M228.921812,219.494 L222.481812,215.776 C221.964812,215.478 222.029812,214.956 222.626812,214.611 L229.006812,210.928 C229.603812,210.583 230.507812,210.546 231.023812,210.844 L237.463812,214.562 C237.979812,214.86 237.915812,215.382 237.317812,215.727 L230.937812,219.41 C230.341812,219.755 229.437812,219.792 228.921812,219.494" id="Fill-31" fill="#B8D0F6"></path>
                    <path d="M238.864812,225.235 L232.426812,221.518 C231.908812,221.219 231.973812,220.697 232.570812,220.353 L238.950812,216.669 C239.548812,216.324 240.450812,216.287 240.968812,216.586 L247.407812,220.304 C247.924812,220.602 247.859812,221.123 247.262812,221.468 L240.882812,225.151 C240.285812,225.496 239.382812,225.533 238.864812,225.235" id="Fill-32" fill="#B8D0F6"></path>
                    <path d="M248.808812,230.977 L242.369812,227.259 C241.852812,226.96 241.917812,226.438 242.514812,226.094 L248.894812,222.41 C249.491812,222.065 250.394812,222.028 250.912812,222.327 L257.350812,226.045 C257.868812,226.343 257.804812,226.864 257.206812,227.209 L250.826812,230.893 C250.228812,231.237 249.326812,231.274 248.808812,230.977" id="Fill-33" fill="#B8D0F6"></path>
                    <path d="M173.963812,176.587 L167.524812,172.869 C167.007812,172.57 167.072812,172.049 167.669812,171.704 L174.049812,168.021 C174.646812,167.676 175.549812,167.639 176.066812,167.937 L182.506812,171.655 C183.022812,171.953 182.958812,172.475 182.360812,172.819 L175.980812,176.503 C175.384812,176.848 174.480812,176.885 173.963812,176.587" id="Fill-34" fill="#B8D0F6"></path>
                    <path d="M163.871812,170.76 L157.431812,167.042 C156.914812,166.744 156.979812,166.222 157.576812,165.877 L163.957812,162.194 C164.554812,161.849 165.457812,161.812 165.973812,162.11 L172.413812,165.828 C172.930812,166.126 172.865812,166.648 172.268812,166.993 L165.888812,170.676 C165.291812,171.021 164.388812,171.058 163.871812,170.76" id="Fill-35" fill="#B8D0F6"></path>
                    <path d="M153.762812,164.923 L139.893812,156.916 C139.376812,156.618 139.441812,156.096 140.038812,155.751 L146.418812,152.068 C147.015812,151.723 147.918812,151.686 148.435812,151.984 L162.304812,159.991 C162.821812,160.29 162.756812,160.812 162.159812,161.156 L155.778812,164.84 C155.181812,165.185 154.278812,165.222 153.762812,164.923" id="Fill-36" fill="#B8D0F6"></path>
                    <path d="M160.828812,157.825 L149.573812,151.328 C149.055812,151.029 149.121812,150.508 149.718812,150.163 L156.098812,146.479 C156.695812,146.135 157.598812,146.097 158.115812,146.396 L169.370812,152.894 C169.887812,153.192 169.822812,153.713 169.225812,154.058 L162.845812,157.742 C162.248812,158.086 161.345812,158.124 160.828812,157.825" id="Fill-37" fill="#B8D0F6"></path>
                    <path d="M183.907812,182.328 L177.469812,178.61 C176.951812,178.312 177.015812,177.79 177.613812,177.445 L183.993812,173.762 C184.591812,173.417 185.493812,173.38 186.011812,173.679 L192.450812,177.396 C192.967812,177.694 192.902812,178.216 192.305812,178.561 L185.925812,182.244 C185.328812,182.589 184.425812,182.627 183.907812,182.328" id="Fill-38" fill="#B8D0F6"></path>
                    <path d="M193.851812,188.069 L187.412812,184.352 C186.895812,184.053 186.960812,183.531 187.557812,183.187 L193.937812,179.503 C194.534812,179.158 195.437812,179.121 195.955812,179.42 L202.393812,183.138 C202.911812,183.436 202.846812,183.957 202.249812,184.302 L195.869812,187.985 C195.271812,188.33 194.369812,188.368 193.851812,188.069" id="Fill-39" fill="#B8D0F6"></path>
                    <path d="M203.796812,193.811 L197.356812,190.093 C196.840812,189.794 196.904812,189.272 197.501812,188.929 L203.882812,185.244 C204.478812,184.9 205.382812,184.862 205.898812,185.161 L212.338812,188.879 C212.855812,189.177 212.790812,189.698 212.193812,190.043 L205.813812,193.727 C205.216812,194.071 204.312812,194.109 203.796812,193.811" id="Fill-40" fill="#B8D0F6"></path>
                    <path d="M213.740812,199.552 L207.301812,195.834 C206.784812,195.535 206.848812,195.015 207.445812,194.67 L213.826812,190.986 C214.423812,190.642 215.326812,190.604 215.843812,190.902 L222.282812,194.62 C222.799812,194.919 222.734812,195.439 222.138812,195.784 L215.757812,199.468 C215.160812,199.813 214.257812,199.851 213.740812,199.552" id="Fill-41" fill="#B8D0F6"></path>
                    <path d="M223.684812,205.293 L217.245812,201.575 C216.727812,201.277 216.793812,200.756 217.389812,200.411 L223.770812,196.728 C224.367812,196.383 225.270812,196.345 225.787812,196.644 L232.226812,200.361 C232.743812,200.66 232.679812,201.182 232.082812,201.525 L225.701812,205.21 C225.104812,205.554 224.201812,205.592 223.684812,205.293" id="Fill-42" fill="#B8D0F6"></path>
                    <path d="M233.629812,211.034 L227.189812,207.316 C226.672812,207.019 226.737812,206.497 227.334812,206.152 L233.714812,202.469 C234.311812,202.124 235.214812,202.086 235.731812,202.385 L242.171812,206.103 C242.687812,206.401 242.623812,206.923 242.025812,207.268 L235.645812,210.951 C235.049812,211.296 234.145812,211.333 233.629812,211.034" id="Fill-43" fill="#B8D0F6"></path>
                    <path d="M243.572812,216.775 L237.134812,213.058 C236.616812,212.76 236.681812,212.238 237.278812,211.894 L243.658812,208.21 C244.256812,207.865 245.158812,207.827 245.676812,208.126 L252.115812,211.844 C252.632812,212.143 252.567812,212.664 251.970812,213.009 L245.590812,216.692 C244.993812,217.037 244.090812,217.074 243.572812,216.775" id="Fill-44" fill="#B8D0F6"></path>
                    <path d="M253.516812,222.517 L247.077812,218.799 C246.560812,218.501 246.625812,217.979 247.222812,217.635 L253.602812,213.951 C254.199812,213.606 255.102812,213.569 255.620812,213.867 L262.058812,217.585 C262.576812,217.884 262.511812,218.405 261.914812,218.75 L255.534812,222.434 C254.936812,222.778 254.034812,222.815 253.516812,222.517" id="Fill-45" fill="#B8D0F6"></path>
                    <path d="M263.461812,228.258 L257.021812,224.54 C256.505812,224.242 256.569812,223.721 257.167812,223.376 L263.547812,219.692 C264.143812,219.348 265.047812,219.311 265.563812,219.608 L272.003812,223.326 C272.520812,223.625 272.455812,224.146 271.858812,224.491 L265.478812,228.175 C264.881812,228.52 263.977812,228.557 263.461812,228.258" id="Fill-46" fill="#B8D0F6"></path>
                    <path d="M281.139812,238.465 L267.090812,230.354 C266.572812,230.055 266.638812,229.533 267.234812,229.188 L273.614812,225.505 C274.212812,225.16 275.115812,225.123 275.632812,225.421 L289.681812,233.533 C290.199812,233.832 290.134812,234.353 289.537812,234.697 L283.156812,238.381 C282.559812,238.726 281.656812,238.764 281.139812,238.465" id="Fill-47" fill="#B8D0F6"></path>
                    <path d="M300.500812,227.287 L288.640812,220.44 C288.124812,220.143 288.188812,219.621 288.786812,219.276 L295.166812,215.593 C295.763812,215.248 296.666812,215.21 297.183812,215.509 L309.042812,222.355 C309.558812,222.654 309.494812,223.176 308.897812,223.521 L302.516812,227.204 C301.920812,227.549 301.016812,227.586 300.500812,227.287" id="Fill-48" fill="#B8D0F6"></path>
                    <path d="M201.322812,181.205 L194.883812,177.487 C194.365812,177.188 194.430812,176.667 195.027812,176.322 L201.408812,172.639 C202.005812,172.294 202.908812,172.257 203.425812,172.555 L209.864812,176.272 C210.381812,176.571 210.316812,177.093 209.720812,177.438 L203.339812,181.121 C202.742812,181.466 201.839812,181.503 201.322812,181.205" id="Fill-49" fill="#B8D0F6"></path>
                    <path d="M191.131812,175.32 L184.691812,171.603 C184.174812,171.304 184.239812,170.783 184.836812,170.438 L191.216812,166.754 C191.813812,166.41 192.716812,166.373 193.233812,166.671 L199.673812,170.389 C200.189812,170.687 200.125812,171.208 199.527812,171.553 L193.147812,175.237 C192.551812,175.582 191.647812,175.619 191.131812,175.32" id="Fill-50" fill="#B8D0F6"></path>
                    <path d="M180.938812,169.437 L174.500812,165.719 C173.982812,165.42 174.048812,164.899 174.644812,164.554 L181.024812,160.871 C181.622812,160.526 182.524812,160.488 183.042812,160.787 L189.481812,164.505 C189.998812,164.803 189.933812,165.325 189.336812,165.669 L182.956812,169.353 C182.359812,169.698 181.456812,169.735 180.938812,169.437" id="Fill-51" fill="#B8D0F6"></path>
                    <path d="M170.747812,163.552 L164.307812,159.834 C163.791812,159.536 163.855812,159.015 164.453812,158.67 L170.833812,154.986 C171.430812,154.642 172.333812,154.604 172.850812,154.903 L179.289812,158.621 C179.806812,158.919 179.741812,159.44 179.144812,159.785 L172.764812,163.469 C172.167812,163.813 171.264812,163.851 170.747812,163.552" id="Fill-52" fill="#B8D0F6"></path>
                    <path d="M211.266812,186.946 L204.827812,183.229 C204.309812,182.93 204.375812,182.408 204.972812,182.063 L211.351812,178.38 C211.949812,178.035 212.851812,177.998 213.369812,178.296 L219.808812,182.014 C220.325812,182.313 220.261812,182.834 219.663812,183.179 L213.283812,186.862 C212.686812,187.207 211.783812,187.244 211.266812,186.946" id="Fill-53" fill="#B8D0F6"></path>
                    <path d="M221.210812,192.688 L214.771812,188.97 C214.254812,188.671 214.319812,188.149 214.916812,187.805 L221.296812,184.121 C221.893812,183.776 222.796812,183.739 223.313812,184.038 L229.753812,187.756 C230.269812,188.054 230.205812,188.575 229.607812,188.92 L223.227812,192.604 C222.631812,192.948 221.727812,192.985 221.210812,192.688" id="Fill-54" fill="#B8D0F6"></path>
                    <path d="M231.154812,198.429 L224.715812,194.711 C224.198812,194.412 224.263812,193.891 224.860812,193.546 L231.240812,189.862 C231.837812,189.518 232.740812,189.48 233.258812,189.779 L239.696812,193.497 C240.214812,193.795 240.148812,194.316 239.552812,194.661 L233.172812,198.345 C232.574812,198.689 231.672812,198.727 231.154812,198.429" id="Fill-55" fill="#B8D0F6"></path>
                    <path d="M241.098812,204.17 L234.659812,200.452 C234.142812,200.153 234.207812,199.632 234.805812,199.287 L241.184812,195.604 C241.781812,195.259 242.684812,195.222 243.201812,195.521 L249.640812,199.238 C250.158812,199.536 250.093812,200.058 249.496812,200.402 L243.116812,204.086 C242.518812,204.431 241.615812,204.468 241.098812,204.17" id="Fill-56" fill="#B8D0F6"></path>
                    <path d="M251.043812,209.911 L244.603812,206.193 C244.087812,205.895 244.151812,205.373 244.748812,205.028 L251.129812,201.345 C251.725812,201 252.629812,200.963 253.145812,201.262 L259.585812,204.979 C260.102812,205.277 260.037812,205.799 259.440812,206.144 L253.059812,209.827 C252.463812,210.172 251.559812,210.21 251.043812,209.911" id="Fill-57" fill="#B8D0F6"></path>
                    <path d="M260.987812,215.652 L254.548812,211.935 C254.030812,211.636 254.096812,211.114 254.692812,210.771 L261.073812,207.086 C261.670812,206.742 262.573812,206.704 263.090812,207.003 L269.529812,210.721 C270.046812,211.019 269.981812,211.54 269.385812,211.885 L263.004812,215.568 C262.407812,215.913 261.504812,215.951 260.987812,215.652" id="Fill-58" fill="#B8D0F6"></path>
                    <path d="M270.931812,221.394 L264.492812,217.676 C263.974812,217.377 264.040812,216.856 264.637812,216.512 L271.016812,212.828 C271.614812,212.483 272.517812,212.445 273.034812,212.744 L279.473812,216.462 C279.990812,216.761 279.926812,217.281 279.328812,217.626 L272.948812,221.31 C272.351812,221.654 271.448812,221.692 270.931812,221.394" id="Fill-59" fill="#B8D0F6"></path>
                    <path d="M280.875812,227.135 L274.436812,223.417 C273.919812,223.118 273.984812,222.598 274.581812,222.253 L280.961812,218.569 C281.558812,218.225 282.461812,218.187 282.978812,218.485 L289.418812,222.203 C289.934812,222.502 289.870812,223.022 289.272812,223.367 L282.892812,227.051 C282.296812,227.396 281.392812,227.434 280.875812,227.135" id="Fill-60" fill="#B8D0F6"></path>
                    <path d="M290.819812,232.876 L284.380812,229.158 C283.863812,228.86 283.928812,228.339 284.525812,227.994 L290.905812,224.311 C291.502812,223.966 292.405812,223.928 292.923812,224.227 L299.361812,227.944 C299.879812,228.243 299.813812,228.765 299.217812,229.108 L292.837812,232.793 C292.239812,233.137 291.337812,233.175 290.819812,232.876" id="Fill-61" fill="#B8D0F6"></path>
                    <path d="M196.086812,167.004 L189.646812,163.286 C189.130812,162.988 189.194812,162.466 189.791812,162.122 L196.172812,158.438 C196.768812,158.093 197.672812,158.056 198.188812,158.354 L204.628812,162.072 C205.144812,162.371 205.080812,162.892 204.483812,163.237 L198.102812,166.92 C197.506812,167.265 196.602812,167.302 196.086812,167.004" id="Fill-62" fill="#B8D0F6"></path>
                    <path d="M186.191812,161.291 L179.752812,157.574 C179.234812,157.275 179.300812,156.753 179.896812,156.409 L186.276812,152.725 C186.874812,152.381 187.777812,152.343 188.294812,152.642 L194.733812,156.359 C195.250812,156.658 195.185812,157.179 194.588812,157.524 L188.208812,161.208 C187.611812,161.552 186.708812,161.59 186.191812,161.291" id="Fill-63" fill="#B8D0F6"></path>
                    <path d="M176.296812,155.579 L169.857812,151.861 C169.340812,151.563 169.405812,151.041 170.002812,150.696 L176.382812,147.013 C176.979812,146.668 177.882812,146.63 178.399812,146.929 L184.839812,150.646 C185.355812,150.945 185.291812,151.467 184.693812,151.812 L178.313812,155.495 C177.717812,155.84 176.813812,155.877 176.296812,155.579" id="Fill-64" fill="#B8D0F6"></path>
                    <path d="M166.401812,149.866 L159.962812,146.148 C159.445812,145.85 159.510812,145.328 160.107812,144.983 L166.487812,141.3 C167.084812,140.955 167.987812,140.918 168.505812,141.216 L174.943812,144.934 C175.461812,145.232 175.395812,145.754 174.799812,146.099 L168.419812,149.782 C167.821812,150.127 166.919812,150.165 166.401812,149.866" id="Fill-65" fill="#B8D0F6"></path>
                    <path d="M176.576812,143.991 L170.137812,140.274 C169.620812,139.975 169.684812,139.454 170.282812,139.109 L172.390812,137.892 C172.988812,137.547 173.891812,137.509 174.408812,137.808 L180.847812,141.525 C181.364812,141.824 181.300812,142.345 180.702812,142.69 L178.594812,143.908 C177.996812,144.252 177.094812,144.29 176.576812,143.991" id="Fill-66" fill="#B8D0F6"></path>
                    <path d="M189.489812,151.446 L183.050812,147.729 C182.532812,147.43 182.597812,146.909 183.194812,146.564 L185.304812,145.347 C185.900812,145.002 186.804812,144.964 187.320812,145.263 L193.760812,148.98 C194.277812,149.279 194.212812,149.8 193.615812,150.145 L191.506812,151.363 C190.909812,151.708 190.006812,151.745 189.489812,151.446" id="Fill-67" fill="#B8D0F6"></path>
                    <path d="M199.343812,157.135 L192.903812,153.417 C192.386812,153.119 192.451812,152.598 193.048812,152.253 L195.157812,151.036 C195.754812,150.691 196.657812,150.653 197.174812,150.952 L203.613812,154.669 C204.131812,154.968 204.065812,155.489 203.469812,155.834 L201.359812,157.052 C200.763812,157.396 199.859812,157.434 199.343812,157.135" id="Fill-68" fill="#B8D0F6"></path>
                    <path d="M209.196812,162.824 L202.757812,159.106 C202.239812,158.808 202.305812,158.287 202.901812,157.942 L205.011812,156.724 C205.607812,156.38 206.511812,156.342 207.027812,156.641 L213.467812,160.358 C213.984812,160.657 213.919812,161.178 213.322812,161.523 L211.213812,162.741 C210.616812,163.085 209.713812,163.123 209.196812,162.824" id="Fill-69" fill="#B8D0F6"></path>
                    <path d="M219.050812,168.513 L212.610812,164.795 C212.093812,164.497 212.158812,163.976 212.755812,163.631 L214.864812,162.413 C215.461812,162.068 216.364812,162.031 216.881812,162.33 L223.320812,166.047 C223.838812,166.346 223.772812,166.867 223.176812,167.212 L221.066812,168.43 C220.470812,168.774 219.566812,168.812 219.050812,168.513" id="Fill-70" fill="#B8D0F6"></path>
                    <path d="M274.059812,200.273 L267.620812,196.556 C267.103812,196.258 267.168812,195.736 267.765812,195.392 L269.875812,194.174 C270.472812,193.829 271.375812,193.791 271.891812,194.09 L278.331812,197.808 C278.847812,198.106 278.783812,198.628 278.186812,198.973 L276.077812,200.189 C275.479812,200.534 274.577812,200.572 274.059812,200.273" id="Fill-71" fill="#B8D0F6"></path>
                    <path d="M283.913812,205.963 L277.473812,202.245 C276.957812,201.946 277.021812,201.425 277.619812,201.08 L279.728812,199.862 C280.325812,199.518 281.228812,199.48 281.745812,199.779 L288.184812,203.496 C288.701812,203.795 288.637812,204.316 288.040812,204.661 L285.930812,205.879 C285.333812,206.224 284.430812,206.261 283.913812,205.963" id="Fill-72" fill="#B8D0F6"></path>
                    <path d="M293.766812,211.651 L287.327812,207.934 C286.810812,207.635 286.875812,207.113 287.472812,206.77 L289.581812,205.552 C290.179812,205.207 291.082812,205.169 291.598812,205.468 L298.038812,209.186 C298.555812,209.484 298.490812,210.005 297.893812,210.35 L295.784812,211.567 C295.186812,211.912 294.284812,211.95 293.766812,211.651" id="Fill-73" fill="#B8D0F6"></path>
                    <path d="M303.620812,217.34 L297.180812,213.623 C296.664812,213.324 296.728812,212.803 297.326812,212.458 L299.434812,211.24 C300.032812,210.896 300.935812,210.858 301.452812,211.156 L307.891812,214.874 C308.408812,215.173 308.344812,215.694 307.746812,216.039 L305.638812,217.257 C305.040812,217.602 304.138812,217.639 303.620812,217.34" id="Fill-74" fill="#B8D0F6"></path>
                    <path d="M206.030812,172.745 L199.591812,169.027 C199.073812,168.729 199.139812,168.208 199.735812,167.863 L206.115812,164.179 C206.713812,163.834 207.616812,163.797 208.133812,164.096 L214.572812,167.813 C215.089812,168.112 215.024812,168.633 214.428812,168.978 L208.047812,172.662 C207.450812,173.006 206.547812,173.044 206.030812,172.745" id="Fill-75" fill="#B8D0F6"></path>
                    <path d="M215.973812,178.486 L209.535812,174.769 C209.017812,174.471 209.083812,173.949 209.680812,173.604 L216.059812,169.92 C216.657812,169.576 217.559812,169.539 218.077812,169.837 L224.516812,173.555 C225.033812,173.854 224.969812,174.375 224.371812,174.72 L217.991812,178.403 C217.394812,178.748 216.491812,178.785 215.973812,178.486" id="Fill-76" fill="#B8D0F6"></path>
                    <path d="M225.918812,184.228 L219.478812,180.51 C218.962812,180.212 219.026812,179.69 219.624812,179.346 L226.004812,175.662 C226.600812,175.317 227.504812,175.279 228.021812,175.578 L234.460812,179.296 C234.977812,179.595 234.913812,180.116 234.315812,180.461 L227.935812,184.145 C227.338812,184.489 226.435812,184.526 225.918812,184.228" id="Fill-77" fill="#B8D0F6"></path>
                    <path d="M235.862812,189.969 L229.423812,186.251 C228.906812,185.953 228.971812,185.432 229.568812,185.087 L235.948812,181.403 C236.545812,181.059 237.448812,181.021 237.966812,181.319 L244.404812,185.037 C244.922812,185.336 244.856812,185.857 244.260812,186.202 L237.880812,189.886 C237.282812,190.23 236.380812,190.268 235.862812,189.969" id="Fill-78" fill="#B8D0F6"></path>
                    <path d="M245.806812,195.71 L239.367812,191.992 C238.850812,191.694 238.915812,191.173 239.512812,190.828 L245.892812,187.145 C246.489812,186.8 247.392812,186.763 247.909812,187.061 L254.348812,190.778 C254.866812,191.077 254.801812,191.599 254.204812,191.943 L247.823812,195.627 C247.226812,195.972 246.323812,196.009 245.806812,195.71" id="Fill-79" fill="#B8D0F6"></path>
                    <path d="M255.751812,201.451 L249.311812,197.734 C248.795812,197.436 248.859812,196.914 249.456812,196.569 L255.837812,192.886 C256.433812,192.541 257.337812,192.504 257.853812,192.802 L264.293812,196.52 C264.809812,196.818 264.745812,197.34 264.148812,197.685 L257.767812,201.368 C257.171812,201.713 256.267812,201.75 255.751812,201.451" id="Fill-80" fill="#B8D0F6"></path>
                    <path d="M265.695812,207.193 L259.256812,203.476 C258.738812,203.177 258.804812,202.655 259.400812,202.311 L265.781812,198.627 C266.378812,198.282 267.281812,198.245 267.798812,198.543 L274.237812,202.261 C274.754812,202.56 274.689812,203.081 274.093812,203.426 L267.712812,207.109 C267.115812,207.454 266.212812,207.491 265.695812,207.193" id="Fill-81" fill="#B8D0F6"></path>
                    <path d="M275.639812,212.935 L269.200812,209.217 C268.682812,208.918 268.748812,208.396 269.345812,208.052 L275.724812,204.368 C276.322812,204.023 277.224812,203.986 277.742812,204.284 L284.181812,208.002 C284.698812,208.301 284.634812,208.822 284.036812,209.167 L277.656812,212.851 C277.059812,213.195 276.156812,213.232 275.639812,212.935" id="Fill-82" fill="#B8D0F6"></path>
                    <path d="M285.583812,218.676 L279.144812,214.958 C278.627812,214.659 278.692812,214.138 279.289812,213.793 L285.669812,210.109 C286.266812,209.765 287.169812,209.728 287.686812,210.026 L294.126812,213.743 C294.642812,214.042 294.578812,214.563 293.980812,214.908 L287.600812,218.592 C287.004812,218.937 286.100812,218.974 285.583812,218.676" id="Fill-83" fill="#B8D0F6"></path>
                    <path d="M149.178812,173.454 L130.213812,162.505 C129.696812,162.207 129.761812,161.685 130.357812,161.34 L136.738812,157.657 C137.335812,157.312 138.238812,157.275 138.755812,157.573 L157.720812,168.522 C158.236812,168.821 158.172812,169.342 157.575812,169.687 L151.194812,173.37 C150.597812,173.715 149.694812,173.753 149.178812,173.454" id="Fill-84" fill="#B8D0F6"></path>
                    <path d="M271.344812,243.987 L252.380812,233.038 C251.862812,232.739 251.928812,232.218 252.524812,231.873 L258.905812,228.189 C259.502812,227.845 260.405812,227.808 260.922812,228.106 L279.887812,239.056 C280.403812,239.354 280.339812,239.875 279.741812,240.22 L273.361812,243.903 C272.764812,244.248 271.861812,244.285 271.344812,243.987" id="Fill-85" fill="#B8D0F6"></path>
                    <path d="M231.576812,233.709 L225.137812,229.991 C224.619812,229.692 224.684812,229.171 225.281812,228.826 L232.882812,224.438 C233.479812,224.094 234.382812,224.056 234.899812,224.354 L241.339812,228.072 C241.855812,228.371 241.791812,228.893 241.193812,229.237 L233.593812,233.625 C232.996812,233.97 232.093812,234.007 231.576812,233.709" id="Fill-86" fill="#B8D0F6"></path>
                    <path d="M159.361812,192.016 L149.062812,186.069 C148.546812,185.771 148.610812,185.25 149.208812,184.905 L156.808812,180.517 C157.405812,180.172 158.308812,180.135 158.825812,180.434 L169.123812,186.379 C169.640812,186.678 169.576812,187.199 168.978812,187.544 L161.378812,191.932 C160.781812,192.276 159.878812,192.313 159.361812,192.016" id="Fill-87" fill="#B8D0F6"></path>
                    <path d="M221.994812,228.177 L211.696812,222.231 C211.180812,221.933 211.244812,221.411 211.841812,221.066 L219.441812,216.679 C220.039812,216.334 220.941812,216.296 221.459812,216.595 L231.757812,222.541 C232.274812,222.839 232.209812,223.36 231.612812,223.705 L224.012812,228.094 C223.415812,228.438 222.512812,228.476 221.994812,228.177" id="Fill-88" fill="#B8D0F6"></path>
                    <path d="M173.708812,200.299 L163.410812,194.354 C162.893812,194.055 162.958812,193.533 163.555812,193.188 L171.155812,188.801 C171.753812,188.456 172.655812,188.418 173.173812,188.717 L183.471812,194.662 C183.988812,194.961 183.923812,195.482 183.326812,195.827 L175.725812,200.215 C175.129812,200.56 174.225812,200.598 173.708812,200.299" id="Fill-89" fill="#B8D0F6"></path>
                    <path d="M173.242812,188.757 L218.015812,214.607 C218.571812,214.928 218.571812,215.448 218.015812,215.769 L210.265812,220.243 C209.710812,220.564 208.809812,220.564 208.254812,220.243 L163.479812,194.394 L173.242812,188.757" id="Fill-90" fill="#B8D0F6"></path>
                    <path d="M259.368812,244.118 L266.541812,248.26 C266.965812,248.504 266.911812,248.932 266.422812,249.214 L263.313812,251.009 C262.824812,251.292 262.084812,251.322 261.660812,251.077 L254.487812,246.937 C254.063812,246.691 254.116812,246.265 254.605812,245.981 L257.715812,244.187 C258.204812,243.904 258.944812,243.874 259.368812,244.118" id="Fill-91" fill="#B8D0F6"></path>
                    <path d="M249.342812,238.329 L256.514812,242.471 C256.938812,242.715 256.885812,243.143 256.395812,243.425 L253.286812,245.22 C252.797812,245.503 252.056812,245.533 251.633812,245.289 L244.460812,241.147 C244.036812,240.903 244.090812,240.476 244.579812,240.193 L247.688812,238.397 C248.178812,238.115 248.918812,238.085 249.342812,238.329" id="Fill-92" fill="#B8D0F6"></path>
                    <path d="M239.397812,232.588 L246.570812,236.729 C246.994812,236.974 246.940812,237.401 246.451812,237.684 L243.342812,239.479 C242.852812,239.762 242.112812,239.792 241.688812,239.548 L234.516812,235.406 C234.093812,235.162 234.145812,234.734 234.635812,234.452 L237.744812,232.656 C238.233812,232.374 238.973812,232.344 239.397812,232.588" id="Fill-93" fill="#B8D0F6"></path>
                    <path d="M254.833812,235.159 L262.006812,239.3 C262.430812,239.545 262.376812,239.972 261.887812,240.255 L258.778812,242.05 C258.288812,242.332 257.548812,242.363 257.124812,242.118 L249.952812,237.978 C249.528812,237.732 249.581812,237.305 250.070812,237.022 L253.180812,235.228 C253.669812,234.945 254.409812,234.914 254.833812,235.159" id="Fill-94" fill="#B8D0F6"></path>
                    <path d="M336.207812,84.453 L290.093812,57.829 L248.480812,39.689 L240.531812,72.954 C240.531812,72.954 229.217812,113.878 268.479812,161.93 C318.403812,165.37 327.021812,122.889 327.021812,122.889 L336.207812,84.453" id="Fill-95" fill="#F1F7FF"></path>
                    <polyline id="Fill-96" fill="#ACC1EE" points="324.353812 77.611 336.204812 84.454 341.605812 82.577 325.402812 73.222 248.477812 39.691 247.085812 45.52 324.353812 77.611"></polyline>
                    <polyline id="Fill-97" fill="#D8E7FA" points="336.204812 84.454 324.353812 77.611 323.122812 82.765 334.973812 89.604 336.204812 84.454"></polyline>
                    <path d="M238.330812,59.482 C238.113812,59.482 237.883812,59.42 237.655812,59.288 L229.011812,54.297 C228.209812,53.834 227.736812,52.688 227.956812,51.737 C228.113812,51.056 228.582812,50.66 229.130812,50.66 C229.348812,50.66 229.578812,50.723 229.806812,50.854 L238.450812,55.845 C239.252812,56.308 239.724812,57.455 239.505812,58.405 C239.347812,59.086 238.878812,59.482 238.330812,59.482" id="Fill-98" fill="#EBF5F8"></path>
                    <path d="M258.922812,71.371 C258.704812,71.371 258.475812,71.308 258.247812,71.177 L245.500812,63.817 C244.698812,63.354 244.225812,62.208 244.445812,61.258 C244.602812,60.577 245.072812,60.181 245.620812,60.181 C245.837812,60.181 246.067812,60.243 246.295812,60.375 L259.042812,67.734 C259.844812,68.197 260.315812,69.343 260.097812,70.294 C259.939812,70.975 259.470812,71.371 258.922812,71.371" id="Fill-99" fill="#D4EAF2"></path>
                    <path d="M223.261812,99.833 C223.044812,99.833 222.814812,99.771 222.586812,99.64 L213.941812,94.648 C213.140812,94.186 212.667812,93.04 212.887812,92.088 C213.044812,91.408 213.513812,91.012 214.061812,91.012 C214.279812,91.012 214.508812,91.074 214.736812,91.206 L223.381812,96.197 C224.183812,96.66 224.655812,97.806 224.435812,98.756 C224.279812,99.437 223.810812,99.833 223.261812,99.833" id="Fill-100" fill="#F1F7FF"></path>
                    <path d="M241.617812,110.431 C241.400812,110.431 241.170812,110.369 240.942812,110.237 L228.195812,102.878 C227.393812,102.415 226.921812,101.269 227.140812,100.318 C227.298812,99.637 227.767812,99.241 228.315812,99.241 C228.533812,99.241 228.762812,99.304 228.990812,99.435 L240.911812,106.318 C241.178812,107.653 241.478812,109.019 241.814812,110.414 C241.750812,110.425 241.684812,110.431 241.617812,110.431" id="Fill-101" fill="#EBF5F8"></path>
                    <path d="M241.814812,110.414 C241.478812,109.019 241.178812,107.653 240.911812,106.318 L241.737812,106.794 C242.539812,107.258 243.011812,108.404 242.792812,109.355 C242.654812,109.952 242.275812,110.33 241.814812,110.414" id="Fill-102" fill="#D4EAF2"></path>
                    <path d="M212.829812,52.934 C212.611812,52.934 212.382812,52.872 212.154812,52.74 L206.754812,49.622 C205.952812,49.159 205.479812,48.013 205.699812,47.062 C205.856812,46.381 206.325812,45.986 206.873812,45.986 C207.091812,45.986 207.321812,46.048 207.549812,46.179 L212.948812,49.297 C213.751812,49.76 214.222812,50.906 214.004812,51.857 C213.846812,52.538 213.377812,52.934 212.829812,52.934" id="Fill-103" fill="#D8E7FA"></path>
                    <path d="M229.473812,70.718 C229.255812,70.718 229.025812,70.656 228.798812,70.524 L212.298812,60.998 C211.496812,60.535 211.023812,59.389 211.243812,58.438 C211.400812,57.758 211.869812,57.362 212.417812,57.362 C212.635812,57.362 212.865812,57.424 213.093812,57.555 L229.592812,67.081 C230.394812,67.545 230.866812,68.691 230.647812,69.642 C230.490812,70.322 230.021812,70.718 229.473812,70.718" id="Fill-104" fill="#F1F7FF"></path>
                    <path d="M215.042812,78.738 C214.825812,78.738 214.595812,78.675 214.367812,78.544 L208.968812,75.426 C208.165812,74.963 207.693812,73.817 207.912812,72.866 C208.069812,72.185 208.539812,71.789 209.087812,71.789 C209.304812,71.789 209.534812,71.852 209.762812,71.983 L215.162812,75.101 C215.965812,75.564 216.436812,76.71 216.217812,77.661 C216.060812,78.342 215.591812,78.738 215.042812,78.738" id="Fill-105" fill="#F1F7FF"></path>
                    <path d="M244.395812,128.386 C244.178812,128.386 243.948812,128.324 243.721812,128.192 L229.297812,119.865 C228.495812,119.401 228.022812,118.255 228.242812,117.305 C228.399812,116.624 228.868812,116.228 229.417812,116.228 C229.634812,116.228 229.864812,116.29 230.092812,116.421 L244.515812,124.749 C245.317812,125.212 245.789812,126.358 245.570812,127.309 C245.413812,127.99 244.943812,128.386 244.395812,128.386" id="Fill-106" fill="#F1F7FF"></path>
                    <path d="M209.778812,92.049 C209.561812,92.049 209.331812,91.987 209.103812,91.855 L205.637812,89.854 C204.835812,89.391 204.362812,88.245 204.582812,87.294 C204.739812,86.613 205.209812,86.217 205.757812,86.217 C205.974812,86.217 206.204812,86.279 206.431812,86.411 L209.898812,88.412 C210.700812,88.875 211.172812,90.021 210.953812,90.972 C210.796812,91.653 210.326812,92.049 209.778812,92.049" id="Fill-107" fill="#F1F7FF"></path>
                    <path d="M207.286812,106.961 C207.068812,106.961 206.839812,106.899 206.611812,106.767 L202.307812,104.281 C201.505812,103.818 201.032812,102.672 201.252812,101.722 C201.409812,101.041 201.879812,100.645 202.427812,100.645 C202.644812,100.645 202.874812,100.707 203.101812,100.838 L207.406812,103.324 C208.208812,103.787 208.680812,104.933 208.461812,105.884 C208.303812,106.565 207.834812,106.961 207.286812,106.961" id="Fill-108" fill="#F1F7FF"></path>
                    <path d="M224.033812,116.63 C223.816812,116.63 223.586812,116.567 223.358812,116.436 L212.009812,109.883 C211.207812,109.42 210.734812,108.274 210.954812,107.323 C211.111812,106.642 211.580812,106.246 212.128812,106.246 C212.346812,106.246 212.576812,106.309 212.804812,106.44 L224.152812,112.993 C224.955812,113.456 225.427812,114.602 225.208812,115.553 C225.050812,116.233 224.581812,116.63 224.033812,116.63" id="Fill-109" fill="#F1F7FF"></path>
                    <path d="M209.477812,116.4 C209.259812,116.4 209.029812,116.338 208.802812,116.207 L200.641812,111.495 C199.840812,111.032 199.367812,109.886 199.587812,108.936 C199.743812,108.255 200.213812,107.859 200.761812,107.859 C200.979812,107.859 201.209812,107.921 201.436812,108.052 L209.597812,112.764 C210.398812,113.227 210.871812,114.373 210.651812,115.324 C210.494812,116.004 210.025812,116.4 209.477812,116.4" id="Fill-110" fill="#F1F7FF"></path>
                    <path d="M256.771812,135.566 C256.554812,135.566 256.324812,135.504 256.096812,135.373 L250.855812,132.347 C250.054812,131.884 249.582812,130.738 249.801812,129.787 C249.958812,129.106 250.427812,128.71 250.975812,128.71 C251.193812,128.71 251.422812,128.773 251.650812,128.904 L256.891812,131.93 C257.693812,132.393 258.165812,133.539 257.946812,134.49 C257.789812,135.17 257.320812,135.566 256.771812,135.566" id="Fill-111" fill="#D4EAF2"></path>
                    <path d="M235.130812,90.336 C234.913812,90.336 234.683812,90.274 234.455812,90.142 L220.032812,81.815 C219.229812,81.351 218.758812,80.205 218.977812,79.254 C219.134812,78.574 219.603812,78.177 220.151812,78.177 C220.369812,78.177 220.598812,78.24 220.826812,78.371 L235.250812,86.699 C236.053812,87.162 236.524812,88.308 236.305812,89.259 C236.148812,89.94 235.679812,90.336 235.130812,90.336" id="Fill-112" fill="#EBF5F8"></path>
                    <path d="M235.771812,82.726 L210.633812,68.212 C209.830812,67.749 209.358812,66.603 209.578812,65.652 C209.797812,64.702 210.625812,64.306 211.428812,64.769 L236.566812,79.283 C237.368812,79.746 237.840812,80.893 237.621812,81.843 C237.401812,82.794 236.573812,83.189 235.771812,82.726" id="Fill-113" fill="#D8E7FA"></path>
                    <path d="M221.725812,90.967 L207.302812,82.64 C206.500812,82.177 206.028812,81.031 206.247812,80.08 C206.467812,79.129 207.295812,78.734 208.097812,79.197 L222.520812,87.524 C223.322812,87.988 223.795812,89.134 223.575812,90.084 C223.355812,91.035 222.527812,91.431 221.725812,90.967" id="Fill-114" fill="#D8E7FA"></path>
                    <path d="M245.395812,96.458 L240.154812,93.433 C239.352812,92.969 238.881812,91.823 239.099812,90.873 C239.319812,89.922 240.147812,89.526 240.949812,89.989 L246.190812,93.015 C246.992812,93.478 247.465812,94.625 247.245812,95.575 C247.025812,96.526 246.197812,96.921 245.395812,96.458" id="Fill-115" fill="#D4EAF2"></path>
                    <path d="M297.125812,93.624 L266.092812,75.707 C265.290812,75.243 264.817812,74.097 265.037812,73.146 C265.257812,72.196 266.085812,71.8 266.887812,72.263 L297.920812,90.181 C298.722812,90.644 299.194812,91.79 298.974812,92.741 C298.756812,93.692 297.928812,94.087 297.125812,93.624" id="Fill-116" fill="#D4EAF2"></path>
                    <path d="M221.309812,107.078 L203.972812,97.067 C203.170812,96.604 202.697812,95.458 202.917812,94.508 C203.137812,93.557 203.965812,93.162 204.766812,93.625 L222.104812,103.635 C222.907812,104.098 223.379812,105.244 223.159812,106.195 C222.940812,107.146 222.112812,107.541 221.309812,107.078" id="Fill-117" fill="#D8E7FA"></path>
                    <path d="M221.166812,49.768 L208.419812,42.408 C207.617812,41.945 207.144812,40.799 207.364812,39.848 C207.584812,38.897 208.411812,38.502 209.214812,38.965 L221.960812,46.325 C222.763812,46.788 223.234812,47.934 223.015812,48.885 C222.796812,49.835 221.968812,50.231 221.166812,49.768" id="Fill-118" fill="#D8E7FA"></path>
                    <path d="M206.530812,123.07 L191.766812,114.547 C190.965812,114.084 190.493812,112.938 190.712812,111.987 C190.931812,111.036 191.760812,110.641 192.561812,111.104 L207.325812,119.627 C208.127812,120.09 208.598812,121.237 208.380812,122.188 C208.160812,123.138 207.332812,123.534 206.530812,123.07" id="Fill-119" fill="#D8E7FA"></path>
                    <path d="M307.094812,32.793 C295.042812,24.14 282.528812,16.915 269.764812,11.241 L244.478812,0 L236.377812,3.156 C236.377812,3.156 239.933812,5.057 242.891812,6.643 L230.887812,56.878 C230.887812,56.878 219.572812,97.802 258.835812,145.854 C266.370812,146.373 272.958812,145.841 278.722812,144.572 C278.603812,145.043 278.524812,145.367 278.524812,145.367 L285.815812,142.514 C286.493812,142.265 287.156812,142.004 287.806812,141.734 L287.961812,141.674 L287.950812,141.673 C312.375812,131.44 317.377812,106.813 317.377812,106.813 L330.970812,49.935 L307.094812,32.793" id="Fill-120" fill="#3A55CA"></path>
                    <path d="M269.764812,11.241 L244.478812,0 L236.377812,3.156 C236.377812,3.156 239.933812,5.057 242.891812,6.643 L238.535812,24.871 L283.609812,54.18 L322.867812,53.091 L330.970812,49.935 L307.094812,32.793 C295.042812,24.14 282.528812,16.915 269.764812,11.241" id="Fill-121" fill="#4863DA"></path>
                    <path d="M281.683812,24.69 L289.835812,21.577 C283.235812,17.711 276.536812,14.251 269.764812,11.241 L244.478812,0 L236.377812,3.156 C236.377812,3.156 239.933812,5.057 242.891812,6.643 L242.634812,7.72 C258.404812,14.631 281.683812,24.69 281.683812,24.69" id="Fill-122" fill="#4863DA"></path>
                    <path d="M283.409812,17.957 L268.231812,23.644 L280.944812,30.984 L296.011812,25.339 C291.851812,22.713 287.650812,20.245 283.409812,17.957" id="Fill-123" fill="#4863DA"></path>
                    <path d="M309.275812,109.969 L322.867812,53.091 L298.992812,35.949 C286.940812,27.296 274.426812,20.071 261.663812,14.397 L236.377812,3.156 L222.784812,60.034 C222.784812,60.034 211.470812,100.958 250.733812,149.01 C300.657812,152.45 309.275812,109.969 309.275812,109.969" id="Fill-124" fill="#0382FF"></path>
                    <path d="M253.899812,142.827 C236.160812,120.304 230.236812,99.799 228.415812,86.395 C226.380812,71.415 228.877812,61.79 228.894812,61.723 L240.770812,12.046 L259.087812,20.189 C271.433812,25.678 283.616812,32.712 295.295812,41.098 L315.713812,55.758 L303.109812,108.496 L303.062812,108.708 C303.044812,108.799 301.021812,118.023 293.833812,126.749 C284.553812,138.014 271.121812,143.417 253.899812,142.827" id="Fill-125" fill="#57ACFF"></path>
                    <path d="M317.496812,180.453 C317.098812,181.674 317.633812,183.157 318.689812,183.768 C319.746812,184.378 320.926812,183.884 321.324812,182.663 C321.722812,181.442 321.187812,179.959 320.131812,179.349 C319.074812,178.738 317.894812,179.232 317.496812,180.453" id="Fill-129" fill="#F1F7FF"></path>
                    <path d="M311.339812,176.898 C310.941812,178.119 311.475812,179.603 312.532812,180.213 C313.589812,180.823 314.768812,180.328 315.167812,179.108 C315.564812,177.888 315.030812,176.403 313.973812,175.794 C312.917812,175.184 311.737812,175.678 311.339812,176.898" id="Fill-130" fill="#F1F7FF"></path>
                    <path d="M305.181812,173.344 C304.784812,174.563 305.318812,176.048 306.375812,176.658 C307.431812,177.269 308.611812,176.773 309.010812,175.554 C309.407812,174.333 308.873812,172.849 307.816812,172.238 C306.760812,171.629 305.580812,172.123 305.181812,173.344" id="Fill-131" fill="#F1F7FF"></path>
                    <path d="M138.727812,212.406 C136.012812,213.975 131.608812,213.975 128.892812,212.406 C126.177812,210.839 126.177812,208.297 128.892812,206.729 C131.608812,205.161 136.012812,205.161 138.726812,206.729 C141.442812,208.297 141.442812,210.839 138.727812,212.406 Z M158.502812,201.159 C147.942812,195.063 130.822812,195.063 120.262812,201.159 C109.702812,207.256 109.703812,217.14 120.263812,223.236 C130.822812,229.334 147.943812,229.334 158.503812,223.237 C169.062812,217.141 169.062812,207.256 158.502812,201.159 L158.502812,201.159 Z" id="Fill-270" fill="#D4E4F7"></path>
                    <path d="M164.208812,218.339 C162.797812,219.742 161.055812,221.065 158.974812,222.267 C156.893812,223.469 154.601812,224.474 152.171812,225.288 L157.341812,228.272 L165.131812,228.673 L168.984812,230.898 L167.411812,231.807 L170.328812,233.49 L173.473812,231.674 L178.571812,234.617 L173.450812,237.574 L180.864812,241.854 L185.413812,239.228 L192.154812,243.12 L189.581812,244.605 L193.912812,247.106 L196.485812,245.62 L198.517812,246.794 L196.471812,250.865 L203.021812,254.647 L227.096812,254.647 L164.208812,218.339" id="Fill-271" fill="#D4E4F7"></path>
                    <path d="M138.635812,205.287 C135.919812,206.854 131.516812,206.854 128.801812,205.287 C126.085812,203.719 126.085812,201.177 128.801812,199.609 C131.515812,198.041 135.919812,198.041 138.635812,199.609 C141.350812,201.177 141.350812,203.719 138.635812,205.287 Z M166.422812,210.052 L166.422812,202.741 L164.267812,203.957 C162.950812,202.165 161.033812,200.485 158.502812,199.024 C147.942812,192.928 130.822812,192.928 120.262812,199.024 C117.334812,200.715 115.221812,202.697 113.916812,204.81 L112.343812,202.741 L112.343812,210.051 C112.338812,214.051 114.977812,218.051 120.263812,221.103 C130.822812,227.199 147.943812,227.199 158.503812,221.103 C163.788812,218.051 166.428812,214.051 166.422812,210.052 L166.422812,210.052 Z" id="Fill-272" fill="#4AC9EA"></path>
                    <path d="M137.119812,215.814 L125.450812,210.063 L115.081812,203.214 C114.640812,203.735 114.251812,204.269 113.916812,204.81 L112.343805,202.741 L112.343812,210.051 C112.338812,214.051 114.977812,218.051 120.263812,221.103 C124.966812,223.817 130.972812,225.32 137.119812,225.617 L137.119812,215.814" id="Fill-273" fill="#2FB7DA"></path>
                    <path d="M138.727812,202.949 C136.012812,204.518 131.608812,204.518 128.892812,202.949 C126.177812,201.382 126.177812,198.84 128.892812,197.271 C131.608812,195.704 136.012812,195.704 138.726812,197.271 C141.442812,198.84 141.442812,201.382 138.727812,202.949 Z M158.502812,191.702 C147.942812,185.605 130.822812,185.605 120.262812,191.702 C109.702812,197.799 109.703812,207.683 120.263812,213.779 C130.822812,219.877 147.943812,219.877 158.503812,213.78 C169.062812,207.684 169.062812,197.799 158.502812,191.702 L158.502812,191.702 Z" id="Fill-274" fill="#5FD9F9"></path>
                    <path d="M138.635812,205.287 C135.919812,206.854 131.516812,206.854 128.801812,205.287 C126.085812,203.719 126.085812,201.177 128.801812,199.609 C131.515812,198.041 135.919812,198.041 138.635812,199.609 C141.350812,201.177 141.350812,203.719 138.635812,205.287 Z M144.032812,195.563 L129.356812,195.563 C128.015812,195.871 126.709812,196.244 125.450812,196.683 L125.450812,209.119 L144.032812,209.119 L144.032812,195.563 L144.032812,195.563 Z" id="Fill-275" fill="#2FB7DA"></path>
                    <path d="M138.727812,202.949 C136.012812,204.518 131.608812,204.518 128.892812,202.949 C126.177812,201.382 126.177812,198.84 128.892812,197.271 C131.608812,195.704 136.012812,195.704 138.726812,197.271 C141.442812,198.84 141.442812,201.382 138.727812,202.949 Z M156.235812,193.011 C146.928812,187.638 131.837812,187.637 122.529812,193.011 C113.222812,198.385 113.222812,207.097 122.530812,212.471 C131.838812,217.845 146.929812,217.845 156.235812,212.471 C165.543812,207.098 165.543812,198.385 156.235812,193.011 L156.235812,193.011 Z" id="Fill-276" fill="#86E6FF"></path>
                    <path d="M122.529812,195.029 C131.837812,189.655 146.928812,189.655 156.235812,195.029 C160.444812,197.46 162.743812,200.572 163.145812,203.751 C163.633812,199.9 161.334812,195.955 156.235812,193.011 C146.928812,187.638 131.837812,187.637 122.529812,193.011 C117.430812,195.954 115.132812,199.899 115.620812,203.75 C116.022812,200.572 118.321812,197.459 122.529812,195.029" id="Fill-277" fill="#2FB7DA"></path>
                    <path d="M164.208812,216.15 C162.797812,217.554 161.055812,218.877 158.974812,220.078 C156.893812,221.279 154.601812,222.285 152.171812,223.1 L157.341812,226.084 L165.131812,226.484 L168.984812,228.709 L167.411812,229.617 L170.328812,231.302 L173.473812,229.485 L178.571812,232.429 L173.450812,235.385 L177.214812,237.558 L180.864812,239.666 L185.413812,237.039 L192.154812,240.931 L189.581812,242.417 L193.912812,244.917 L196.485812,243.432 L198.517812,244.604 L196.471812,248.676 L203.021812,252.458 L227.096812,252.458 L164.208812,216.15" id="Fill-278" fill="#2FB7DA"></path>
                    <path d="M164.208812,210.867 C162.797812,212.271 161.055812,213.593 158.974812,214.795 C156.893812,215.996 154.601812,217.002 152.171812,217.816 L157.341812,220.801 L165.131812,221.201 L168.984812,223.426 L167.411812,224.334 L170.328812,226.019 L173.473812,224.202 L178.571812,227.145 L173.450812,230.102 L177.214812,232.274 L180.864812,234.382 L185.413812,231.756 L192.154812,235.647 L189.581812,237.134 L193.912812,239.634 L196.485812,238.148 L198.517812,239.321 L196.471812,243.393 L203.021812,247.175 L227.096812,247.175 L164.208812,210.867" id="Fill-279" fill="#5FD9F9"></path>
                    <polygon id="Fill-280" fill="#2FB7DA" points="203.021812 252.458 227.096812 252.458 227.096812 247.175 203.021812 247.175"></polygon>
                    <polyline id="Fill-281" fill="#3CC0E2" points="193.912812 244.917 193.912812 239.634 196.485812 238.148 196.485812 243.432 193.912812 244.917"></polyline>
                    <polyline id="Fill-282" fill="#4AC9EA" points="189.581812 237.134 189.581812 242.417 193.912812 244.917 193.912812 239.634 189.581812 237.134"></polyline>
                    <polyline id="Fill-283" fill="#3CC0E2" points="185.413812 231.756 185.413812 237.039 180.864812 239.666 180.864812 234.382 185.413812 231.756"></polyline>
                    <polyline id="Fill-284" fill="#4AC9EA" points="173.450812 230.102 173.450812 235.385 180.864812 239.666 180.864812 234.382 173.450812 230.102"></polyline>
                    <polyline id="Fill-285" fill="#4AC9EA" points="196.485812 243.432 196.471812 248.676 203.021812 252.458 203.021812 247.175 196.485812 243.432"></polyline>
                    <polyline id="Fill-286" fill="#4AC9EA" points="170.328812 226.019 170.328812 231.302 167.411812 229.617 167.411812 224.334 170.328812 226.019"></polyline>
                    <polyline id="Fill-287" fill="#4AC9EA" points="157.341812 220.801 157.341812 226.084 165.131812 226.484 165.131812 221.201 157.341812 220.801"></polyline>
                    <polyline id="Fill-288" fill="#86E6FF" points="210.667812 243.432 164.625812 216.825 167.183812 215.349 215.756812 243.415 210.667812 243.432"></polyline>
                    <polyline id="Fill-289" fill="#2FB7DA" points="167.183812 216.628 213.554812 243.422 215.756812 243.415 167.183812 215.349 164.625812 216.825 165.732812 217.466 167.183812 216.628"></polyline>
                    <polyline id="Fill-290" fill="#4AC9EA" points="157.341812 226.084 157.341812 220.801 152.171812 217.816 152.171812 223.1 157.341812 226.084"></polyline>
                    <polyline id="Fill-291" fill="#3CC0E2" points="173.473812 224.202 173.473812 229.485 170.328812 231.302 170.328812 226.019 173.473812 224.202"></polyline>
                    <path d="M156.235812,193.011 C151.005812,189.991 143.949812,188.669 137.119812,189.043 L137.119812,191.062 C143.949812,190.688 151.005812,192.01 156.235812,195.029 C160.444812,197.46 162.743812,200.572 163.145812,203.75 C163.633812,199.9 161.334812,195.955 156.235812,193.011" id="Fill-292" fill="#2FB7DA"></path>
                    <path d="M178.156812,358.137 C176.938812,358.137 175.776812,357.891 174.908812,357.39 L152.197812,344.176 C150.280812,343.068 150.520812,341.136 152.734812,339.858 L174.381812,327.245 C175.591812,326.547 177.142812,326.189 178.611812,326.189 C179.829812,326.189 180.991812,326.434 181.859812,326.936 L204.570812,340.149 C206.487812,341.256 206.247812,343.189 204.033812,344.467 L182.387812,357.079 C181.176812,357.778 179.625812,358.137 178.156812,358.137" id="Fill-379" fill="#EAF2FF"></path>
                    <path d="M205.854812,329.382 L205.854812,324.832 L181.692812,324.819 L181.859812,324.813 C179.942812,323.707 176.595812,323.846 174.381812,325.123 L175.097812,324.825 L150.913812,324.812 L150.913812,329.668 C150.858812,330.417 151.276812,331.14 152.197812,331.671 L174.908812,344.885 C176.825812,345.992 180.173812,345.854 182.387812,344.575 L204.033812,331.963 C205.310812,331.226 205.926812,330.271 205.854812,329.382" id="Fill-380" fill="#CDDCFC"></path>
                    <path d="M178.389812,324.072 C176.986812,324.106 175.531812,324.46 174.381812,325.123 L175.097812,324.825 L150.913812,324.812 L150.913812,329.668 C150.858812,330.417 151.276812,331.14 152.197812,331.671 L174.908812,344.885 C175.829812,345.417 177.081812,345.658 178.379812,345.627 L178.389812,324.072" id="Fill-381" fill="#C3D4FA"></path>
                    <path d="M153.650812,324.813 L150.913812,324.812 L150.913812,329.668 C150.858812,330.417 151.276812,331.14 152.197812,331.671 L153.650812,332.51 L153.650812,324.813" id="Fill-382" fill="#C3D4FA"></path>
                    <path d="M175.389812,345.121 C177.043812,345.829 179.433812,345.79 181.367812,345.053 L181.367812,338.695 L175.389812,338.695 L175.389812,345.121" id="Fill-383" fill="#C3D4FA"></path>
                    <path d="M174.908812,340.069 L152.197812,326.854 C150.280812,325.748 150.520812,323.815 152.734812,322.537 L174.381812,309.925 C176.595812,308.647 179.942812,308.508 181.859812,309.615 L204.570812,322.829 C206.487812,323.936 206.247812,325.868 204.033812,327.146 L182.387812,339.759 C180.173812,341.037 176.825812,341.176 174.908812,340.069" id="Fill-384" fill="#E8F2FE"></path>
                    <path d="M72.2628125,91.012 C71.0458125,91.012 69.8828125,90.766 69.0148125,90.265 L46.3038125,77.051 C44.3868125,75.944 44.6268125,74.011 46.8408125,72.733 L68.4878125,60.121 C69.6978125,59.422 71.2478125,59.064 72.7178125,59.064 C73.9348125,59.064 75.0968125,59.309 75.9658125,59.811 L98.6768125,73.025 C100.593812,74.131 100.352812,76.064 98.1398125,77.342 L76.4928125,89.955 C75.2818125,90.654 73.7318125,91.012 72.2628125,91.012" id="Fill-387" fill="#EAF2FF"></path>
                    <path d="M99.9608125,63.341 L99.9608125,58.791 L75.7988125,58.777 L75.9658125,58.772 C74.0488125,57.665 70.7008125,57.804 68.4878125,59.082 L69.2028125,58.783 L45.0198125,58.77 L45.0198125,63.626 C44.9648125,64.375 45.3828125,65.098 46.3038125,65.629 L69.0148125,78.844 C70.9318125,79.95 74.2798125,79.812 76.4928125,78.534 L98.1398125,65.921 C99.4168125,65.184 100.032812,64.229 99.9608125,63.341" id="Fill-388" fill="#CDDCFC"></path>
                    <path d="M72.4958125,58.031 C71.0938125,58.064 69.6378125,58.418 68.4878125,59.082 L69.2028125,58.783 L45.0198125,58.77 L45.0198125,63.626 C44.9648125,64.375 45.3828125,65.098 46.3038125,65.629 L69.0148125,78.844 C69.9358125,79.375 71.1878125,79.617 72.4858125,79.585 L72.4958125,58.031" id="Fill-389" fill="#C3D4FA"></path>
                    <path d="M47.7568125,58.771 L45.0198125,58.77 L45.0198125,63.626 C44.9648125,64.375 45.3828125,65.098 46.3038125,65.629 L47.7568125,66.468 L47.7568125,58.771" id="Fill-390" fill="#C3D4FA"></path>
                    <path d="M69.4958125,79.079 C71.1488125,79.788 73.5408125,79.748 75.4738125,79.011 L75.4738125,72.654 L69.4958125,72.654 L69.4958125,79.079" id="Fill-391" fill="#C3D4FA"></path>
                    <path d="M69.0148125,74.027 L46.3038125,60.813 C44.3868125,59.706 44.6268125,57.774 46.8408125,56.496 L68.4878125,43.883 C70.7008125,42.605 74.0488125,42.467 75.9658125,43.573 L98.6768125,56.788 C100.593812,57.894 100.352812,59.827 98.1398125,61.105 L76.4928125,73.717 C74.2798125,74.995 70.9318125,75.134 69.0148125,74.027" id="Fill-392" fill="#E8F2FE"></path>
                    <g id="Group-9-Copy-2" transform="translate(369.000000, 273.000000)">
                        <path d="M1,60 L1,60 C0.5,60 0,59.379845 0,58.4496124 L0,1.5503876 C0,0.775193798 0.4,0 1,0 L1,0 C1.5,0 2,0.620155039 2,1.5503876 L2,58.4496124 C2,59.2248062 1.6,60 1,60 Z" id="Path" fill="url(#linearGradient-2)" opacity="0.1"></path>
                        <circle id="Oval" fill="#4C68EF" fill-rule="nonzero" cx="1" cy="1" r="1"></circle>
                    </g>
                    <g id="Group-9-Copy-3" transform="translate(34.000000, 220.000000)">
                        <path d="M1,60 L1,60 C0.5,60 0,59.379845 0,58.4496124 L0,1.5503876 C0,0.775193798 0.4,0 1,0 L1,0 C1.5,0 2,0.620155039 2,1.5503876 L2,58.4496124 C2,59.2248062 1.6,60 1,60 Z" id="Path" fill="url(#linearGradient-2)" opacity="0.1"></path>
                        <circle id="Oval" fill="#4C68EF" fill-rule="nonzero" cx="1" cy="1" r="1"></circle>
                    </g>
                    <g id="Group-9-Copy-4" transform="translate(143.000000, 16.000000)">
                        <path d="M1,60 L1,60 C0.5,60 0,59.379845 0,58.4496124 L0,1.5503876 C0,0.775193798 0.4,0 1,0 L1,0 C1.5,0 2,0.620155039 2,1.5503876 L2,58.4496124 C2,59.2248062 1.6,60 1,60 Z" id="Path" fill="url(#linearGradient-2)" opacity="0.1"></path>
                        <circle id="Oval" fill="#4C68EF" fill-rule="nonzero" cx="1" cy="1" r="1"></circle>
                    </g>
                    <g id="XMLID_6_" transform="translate(275.000000, 212.000000)" fill-rule="nonzero">
                        <path d="M40,101.4 C40.7,100.6 41.4,97.2 41.4,97.2 C41.4,97.2 41.8,95.9 41.7,95.4 C41.6,94.9 41.1,91.2 41.1,91.2 L44.7,90.9 C44.7,90.9 44.5,93.9 44.5,94.9 C44.5,95.9 44.6,97.2 44.9,98.2 C44.7,98.7 42.8,102.3 42.8,102.3 C42.8,102.3 40.7,102.8 40.7,102.8 L39.7,102.4 L40,101.4 Z" id="XMLID_3081_" fill="#FFA8A7"></path>
                        <path d="M39.5,103.4 C39,103.3 37.4,102.2 38.4,101.7 C39.2,101.3 39.9,101.5 39.9,101.5 C39.9,101.5 39.7,101.9 40,101.9 C40.6,101.8 41.1,99 41.1,98.1 L42.9,98.7 L42.2,102.6 L41.4,103.1 L40,103.4 L39.5,103.4 L39.5,103.4 Z" id="XMLID_3073_" fill="#2D2979"></path>
                        <path d="M41.8,99.4 C41.8,101.6 41.4,101.9 41.2,102.4 C40.8,103.1 40.3,103.2 39.7,103.3 C40.4,103.7 43.9,103.6 44.6,103 C45,102.7 44.7,101.9 44.7,100.9 C44.7,99.9 45,98.8 45,98.3 C45,97.8 41.8,99.4 41.8,99.4 Z" id="XMLID_3060_" fill="#291D51"></path>
                        <path d="M43,96.1 C41.9,96.1 41.2,97.2 41.1,98.1 C41,99 42,99.1 42.7,100.9 C43.1,101.8 43.2,103.3 43.2,104.6 C43.2,104.6 43.5,104.9 43.8,104.6 C43.8,104.6 43.8,103.5 43.9,102.5 C43.9,101.9 44.1,100.7 44.2,100.4 C44.5,99.4 45.1,99 45,98 C45,97.5 44.7,96.8 44.4,96.5 C44.2,96.3 43.6,96.1 43,96.1 Z" id="XMLID_2557_" fill="#2D2979"></path>
                        <g id="XMLID_467_" transform="translate(31.000000, 96.000000)">
                            <path d="M5,12.8 C5,12.8 5.3,13.4 7.1,12.6 C7.8,12.3 8.2,12 8.5,11.7 C8.7,10.9 9.2,9.8 9.2,9.8 C9.2,9.8 8.9,7.5 7.8,8.4 C6.7,9.3 5,12.8 5,12.8 Z" id="XMLID_2544_" fill="#291D51"></path>
                            <path d="M9,0.5 C9.2,1.8 9.3,2.7 9.4,3.5 C9.5,4 9.6,4.5 9.9,4.9 C10.6,5.9 10.7,6.5 10.7,6.5 C10.7,6.5 8.6,6.8 7.6,8.2 C6.6,9.6 6.6,11 5.6,11.3 C4.6,11.5 3,10.4 3,10.4 C3,10.4 4,10.4 4.4,9.1 C4.8,7.8 5.8,5 5.9,4.3 C6,3.3 5.1,1.2 5.1,1.2 L9,0.5 Z" id="XMLID_2536_" fill="#FFA8A7"></path>
                            <path d="M9.3,4.9 C8.4,5 7,6.4 6.6,7.4 C6.1,8.4 5.4,9.9 4.8,10.2 C4.2,10.5 3.2,10.1 2.3,10 C1.4,10 0.8,10.4 0.7,11 C0.7,11 3.5,12.3 4.4,12.7 C5.2,13.1 6,13.1 6.6,11.4 C7.3,9.6 7.9,8.1 8.7,9.4 C9.4,10.5 9.7,12.6 9.7,12.6 C9.7,12.6 10,12.9 10.4,12.4 C10.4,12.4 10.2,11.7 10.2,10.6 C10.2,8.2 11,7.7 10.8,6.7 C10.6,5.4 10.3,4.8 9.3,4.9 Z" id="XMLID_2470_" fill="#2D2979"></path>
                        </g>
                        <g id="XMLID_9_">
                            <path d="M30.5,8.8 C30.5,8.8 28.2,7.4 28.4,5.4 C28.6,3.4 31.7,-1.6 37.3,0.8 C42.4,1.9 30.5,8.8 30.5,8.8 Z" id="XMLID_375_" fill="#543354"></path>
                            <path d="M43.7,17.7 C45.3,18.2 46.2,19.9 47.6,23.7 C49,27.5 50.5,33 50.3,34.4 C49.8,38 47.6,41 43.8,43.5 L42.1,40.4 C42.1,40.4 45.8,37.4 46.2,33.8 C46.4,31.8 43.8,25 43.8,24.8 C43.8,24.7 43.7,17.7 43.7,17.7 Z" id="XMLID_324_" fill="#FFA8A7"></path>
                            <path d="M45.4,79.1 C44.9,75.1 45,73.3 45,73.3 C45,73.3 45.6,67.3 46.1,62.1 C46.8,54.5 48.3,52.7 47.5,48.1 C46.8,44.1 44.1,41 42.9,38.1 L30.5,39.1 C30.5,39.1 29.4,42.6 28,49.7 C26.6,56.7 27.1,66.3 28.2,76.1 C28.5,78.9 30.3,82.7 32.3,87.6 C34.1,92 36.9,99.3 36.9,99.3 C38.8,100.4 40.4,98.5 40.4,98.5 C40.4,98.5 39,88.9 38.4,85.7 C37.4,80.2 34.9,77.5 34.9,77.5 C34.9,77.5 35.5,73.5 35.9,70 C36.3,66.2 37.6,59.8 37.6,59.8 C37.6,59.8 37.7,69.7 37.9,72.5 C38.1,75.3 38.2,75.7 39.2,81.2 C40,85.8 41.8,94.8 41.8,94.8 C43.5,95.4 44.7,94.7 44.7,94.7 C44.7,94.7 45.9,83.1 45.4,79.1 Z" id="XMLID_323_" fill="#7FA8E6"></path>
                            <path d="M44.9,52.7 C42.4,55.2 38.1,55.8 38.1,55.8 L37.5,59.7 C37.3,62.9 37.7,66.7 37.7,70.3 C37.7,70.3 38.6,60.8 39.8,59.2 C40.9,57.6 44.1,54.9 44.9,52.7 Z" id="XMLID_322_" fill="#597BC6"></path>
                            <path d="M43,17.7 C40.4,17.5 40.1,18 39.9,17 C39.8,16.7 39.7,14.3 39.7,14.3 C39.9,14.1 40.4,13.3 40.4,13.3 C42.1,12.2 43.4,10.4 43.6,8.2 C44,4.5 41.3,1.1 37.5,0.7 C34,0.3 31.4,2.8 30.7,6.2 C30.3,7.9 29.9,11.3 31,14 C31.6,15.6 32.1,16.6 33.5,16.6 C33.8,16.6 34.3,16.5 34.9,16.4 C35,16.9 35,17.7 35,18.3 C35,19 35.1,19.3 33.8,20.1 C32.5,20.9 35.8,22.6 38,22.4 C40.2,22.2 42.6,20.9 43.3,19.5 C43.9,18.1 44.2,17.7 43,17.7 Z" id="XMLID_305_" fill="#FFA8A7"></path>
                            <path d="M41.1,12.8 L38.8,12.9 L36.3,12.9 L35.5,12 C35.5,12 35.3,14.9 34.6,15.6 C33.8,16.3 32.9,16.7 32.8,16.7 C33,16.8 33.2,16.8 33.5,16.8 C33.8,16.8 34.3,16.7 34.9,16.6 C35,17.1 35,17.9 35,18.5 C35,19.2 35.1,19.5 33.8,20.3 C32.5,21.1 35.8,22.8 38,22.6 C40.2,22.4 42.6,21.1 43.3,19.7 C44,18.1 44.4,17.7 43.1,17.7 C40.5,17.5 40.2,18 40,17 C39.9,16.7 39.8,14.3 39.8,14.3 C40,14.1 40.5,13.3 40.5,13.3 C40.6,13.2 40.9,13 41.1,12.8 Z" id="XMLID_294_" fill="#F28F8F"></path>
                            <path d="M41.1,13.6 C42.8,12 43.3,10.5 43.6,8.3 C44,4.6 41.3,1.2 37.5,0.8 C35.1,0.5 32.5,1.4 31.3,4.4 C31.3,4.4 31.5,4.8 32.1,4.9 C32.1,4.9 31.9,5.7 32.5,6.3 C32.9,6.7 33.3,7.4 33.3,8.2 C33.3,8.8 33.2,9.8 33.4,10.5 C33.6,11.4 34.6,11.3 34.6,11.3 C34.6,11.3 34.7,9.9 34.8,8.5 C35.2,7.5 36.9,7.3 37.2,8.6 C37.5,9.7 37.2,10.4 36.8,11.2 C36.5,11.8 36,12.1 35.5,11.9 C35.5,13.6 36.1,14.3 37.6,14.7 C39.1,15.1 39.2,14.6 40,14.2 C40.5,14.1 41.1,13.6 41.1,13.6 Z" id="XMLID_272_" fill="#543354"></path>
                            <path d="M40.4,17.6 C40.9,18.2 40.9,19 39.1,19.5 C36.6,20.1 35,19.2 35,19.2 C35,19.2 32.5,20.3 30.7,21.5 C26.5,24.4 25.5,29.5 29.7,31.3 C30,33.2 30.3,38.1 30.4,39.3 C34,41.8 41.3,41 43,38.3 C43,37.4 43.2,35.9 43.3,35.6 C45,29.2 46.4,27.5 45.9,22.7 C45.6,19.9 45.4,18.6 43.9,17.8 C42.8,17.5 40.9,17.6 40.4,17.6 Z" id="XMLID_15_" fill="#F5FBFB"></path>
                            <path d="M35.6,12 L35.6,28.7 C35.6,28.7 37.3,29.9 40.4,28.5 C43.4,27.1 43.6,26.2 43.6,24.6 L43.6,7.5 C43.6,7.5 40.1,11.6 37.7,12.4 C35.7,13.1 35.6,12 35.6,12 Z" id="XMLID_12_" fill="#543354"></path>
                            <path d="M4.7,38.2 C5.5,38.5 6.3,38.5 7.5,39 C8.5,39.5 9.1,39.7 10.1,39.9 C11.1,40.1 12.7,39.5 15.3,38.3 C18.5,36.8 21.9,33.9 23.2,32.4 C26,29.2 29.1,24.3 30.1,22.6 C31.3,20.5 32.7,19.9 34,20.4 C35.5,20.9 35.7,22.4 34,25.3 C32.3,28.2 29.4,32.4 26.1,35.6 C24.5,37.1 22,39.4 17.9,41.4 C15.1,42.8 14.1,43.1 11,43.8 C10.2,44 9.6,44.3 8,44.9 C6.4,45.4 4.5,45.7 3.2,45.4 C1.8,45.1 1.4,44.8 1.3,44.5 C1.2,44.1 1.5,43.9 2.2,44 C2.8,44.1 3.9,44.2 5.2,43.9 C5.2,43.9 3.8,43.9 3,43.8 C2.2,43.7 1.4,43.5 0.8,43.3 C0.1,43 -0.1,42 0.6,42 C1.2,42 1.7,42.2 3,42.4 C4.1,42.5 5,42.4 5,42.4 C5,42.4 3.7,42.2 2.6,41.8 C1.5,41.4 1.2,41 0.9,40.8 C0.7,40.5 0.7,39.9 1.5,40.1 C2.2,40.2 3,40.7 4.4,40.7 C5.4,40.7 6.1,40.6 6,40.5 C5.9,40.3 5.3,40.4 4.5,39.9 C3.8,39.5 3.3,38.7 3.6,38.3 C3.8,37.6 3.9,37.9 4.7,38.2 Z" id="XMLID_11_" fill="#FFA8A7"></path>
                        </g>
                    </g>
                    <g id="XMLID_129_" transform="translate(100.000000, 38.000000)" fill-rule="nonzero">
                        <path d="M40.1,46.6 C39.3,46.4 38.6,45.9 37.4,45.8 C36.3,45.6 35.7,45.5 34.8,45.1 C33.9,44.7 31.9,41.9 30.4,39.4 C28.6,36.5 27.4,32.5 27.3,30.6 C27.1,27.3 27.2,20.8 27.1,18.6 C26.9,16.3 26,15.6 24.8,15.1 C23.4,14.4 22.3,14.7 22.1,18 C22,21.3 21.9,27.6 22.8,31.9 C23.3,34 24.3,37.3 26.6,41.1 C28.2,43.7 29.9,45.5 32,47.7 C32.6,48.3 32.9,48.9 33.9,50.2 C34.9,51.5 36.3,52.7 37.6,53.2 C38.9,53.7 39.4,53.7 39.6,53.5 C39.9,53.2 39.7,52.9 39.2,52.6 C38.7,52.3 37.7,51.9 36.8,50.9 C36.8,50.9 38,51.6 38.7,52 C39.4,52.4 40.2,52.6 40.8,52.7 C41.5,52.8 42.2,52.1 41.7,51.8 C41.2,51.5 40.7,51.4 39.6,50.8 C38.6,50.3 38,49.7 38,49.7 C38,49.7 39.2,50.2 40.3,50.5 C41.4,50.8 41.9,50.6 42.2,50.6 C42.5,50.5 42.8,50 42.1,49.7 C41.4,49.4 40.5,49.4 39.4,48.7 C38.6,48.2 38,47.7 38.2,47.6 C38.4,47.5 38.9,47.9 39.7,47.9 C40.5,48 41.4,47.5 41.4,47.1 C41.1,46.5 41,46.8 40.1,46.6 Z" id="XMLID_525_" fill="#FFA8A7"></path>
                        <path d="M22.8,14.7 C21.5,15.7 20.9,17.5 21.3,23 C21.7,28.5 22.4,32.6 23.8,36.1 C25.1,39.6 27.5,43.6 31,46.8 C31,46.8 31.5,45 33.7,43.8 C33.7,43.8 29.9,38.6 28.6,35.2 C27.3,31.9 27.3,26.5 27.3,23.5 C27.3,20.5 27.6,17.7 26.4,16 C25.2,14.4 23.3,14.4 22.8,14.7 Z" id="XMLID_385_" fill="#E4F2F2"></path>
                        <g id="XMLID_2503_" transform="translate(8.000000, 13.000000)">
                            <path d="M12.9,82.8 C12.9,82.8 12.8,83.7 12.7,84.4 C12.5,85.1 12.4,86.3 12.6,86.9 C12.8,87.5 14.2,88.2 15.1,88.3 C16,88.4 17.5,89.3 18,89.9 C18.8,90.8 20.8,91.4 22.1,91.2 C23.4,91 24.8,90.6 25.1,90.1 C25.4,89.6 24.9,89 22.2,87.2 C19.4,85.4 17.6,84.4 16.7,82.6 L12.9,82.8 Z" id="XMLID_2524_" fill="#2D2979"></path>
                            <path d="M1.4,87 C1.1,87.7 0.6,88.1 0.7,90 C0.8,91.9 0.7,92.6 0.5,94.2 C0.3,95.7 1.1,97.9 1.8,98.8 C2.5,99.8 4.6,100 5.2,98.2 C5.8,96.4 6,95 5.5,93.2 C5.1,91.4 5.6,90.1 5.4,88.9 C5.1,87.7 4.7,86.9 4.7,86.9 L1.4,86.9 L1.4,87 Z" id="XMLID_2521_" fill="#2D2979"></path>
                            <path d="M1.4,38.3 C1.5,40.3 2.1,48.9 2.4,53.4 C2.7,58 2.7,63.5 2.7,63.5 C2.7,63.5 1.9,66.8 1.4,70.7 C0.9,74.6 1.4,86.9 1.4,86.9 C1.4,86.9 2.9,88 4.8,86.9 C4.8,86.9 6.9,77.1 7.9,72.6 C8.9,68.2 9,65.6 9.5,62.9 C10.1,59.6 11.4,44 11.4,44 L11.9,44 L13.3,61.5 C13.3,61.5 12.8,62.9 12.4,65.5 C12,68.4 12.8,82.7 12.8,82.7 C12.8,82.7 14.4,83.8 16.4,82.6 C16.4,82.6 19.9,63.6 19.9,60.7 C19.9,58.8 19.6,33.5 19.6,33.5 L1.4,38.3 Z" id="XMLID_2520_" fill="#7FA8E6"></path>
                            <path d="M11.4,44.1 C11.4,44.1 14.4,42.9 16,41.7 C16,41.7 14.4,43.4 13.6,43.9 C12.8,44.4 13,58.1 13,58.1 L11.9,44.2 L11.4,44.1 Z" id="XMLID_2519_" fill="#6795D6"></path>
                            <path d="M6.2,0 C6.2,0 6.4,4.3 6.3,4.7 C6.2,5.1 4.3,6.3 3.8,6.8 C3.3,7.3 6.8,10.7 8.5,11.5 C10.2,12.3 15.7,10.2 15.8,7.5 C15.9,4.8 14.9,2.6 14,2.5 C13.1,2.4 6.2,0 6.2,0 Z" id="XMLID_2518_" fill="#FFA8A7"></path>
                            <path d="M13.3,4.9 C13.9,4.4 13.2,3.3 12.8,2.5 C11,2 6.2,0 6.2,0 C6.2,0 6.2,1 6.3,1.7 L6.3,1.7 C6.3,2.5 6.8,3.3 7.5,3.8 C8,4.2 8.6,4.6 9.4,4.9 C10.1,5.2 12,6.1 13.3,4.9 Z" id="XMLID_2517_" fill="#F28F8F"></path>
                        </g>
                        <path d="M13.7,18.4 C13.7,18.4 16.8,23.1 21.2,23.5 C22.6,22.1 22.7,17.3 20.8,15.8 C20.8,15.8 22.6,14.4 23.8,14.7 C23.8,14.7 25.7,15.7 26.5,18.1 C27.3,20.6 28.1,23.5 28,28.1 C27.9,32.7 28,46.7 28,46.7 C28,46.7 27.4,49.7 23.4,51.9 C19.4,54.1 16.5,54.3 13.8,53.7 C11.6,53.2 9.8,52.4 9,50.8 C9.2,47.6 10.6,39.2 10.1,35.2 C9.6,31.2 8.7,28.1 8.5,24.9 C8.3,21.6 8.9,21.7 10.6,20.5 C12.8,18.9 13.7,18.4 13.7,18.4 Z" id="XMLID_524_" fill="#F5FBFB"></path>
                        <path d="M11.5,57.3 C10.8,56.8 10.4,56.1 9.4,55.4 C8.5,54.8 7.9,54.5 7.3,53.7 C6.7,52.8 6.3,49.8 6,46.9 C5.6,43.5 6.4,39.1 7,37.2 C8.2,33.5 10.7,28.4 11.5,26.3 C12.3,24.2 11.8,23.2 10.9,22.1 C9.9,20.9 8.2,21 6.6,23.9 C5.1,26.8 2.9,32.2 1.9,36.5 C1.4,38.6 0.9,42 1.4,46.4 C1.7,49.5 2.5,51.8 3.5,54.7 C3.8,55.5 3.8,56.2 4.1,57.7 C4.4,59.3 5.2,61 6.1,62 C7,63 7.5,63.2 7.8,63.1 C8.2,63 8.2,62.6 7.8,62.1 C7.4,61.6 6.7,60.8 6.3,59.5 C6.3,59.5 7,60.6 7.5,61.3 C8,61.9 8.6,62.5 9.1,62.8 C9.7,63.2 10.7,62.9 10.3,62.3 C9.9,61.8 9.5,61.5 8.8,60.5 C8.1,59.6 7.8,58.8 7.8,58.8 C7.8,58.8 8.6,59.8 9.5,60.5 C10.4,61.2 10.9,61.3 11.2,61.4 C11.5,61.5 12,61.1 11.5,60.5 C11,60 10.2,59.5 9.5,58.4 C9,57.6 8.7,56.9 8.9,56.9 C9.1,56.9 9.4,57.4 10.1,57.9 C10.8,58.3 11.8,58.3 12,57.9 C12.2,57.8 12.2,57.9 11.5,57.3 Z" id="XMLID_382_" fill="#FFA8A7"></path>
                        <path d="M9.7,21 C8.1,21.3 6.5,23.1 4.4,28.1 C2.4,33.2 1.2,37.3 0.9,41 C0.6,44.7 1.1,49.9 3,53.9 C3,53.9 4.4,52.2 6.9,52 C6.9,52 6,45.6 6.3,42.1 C6.6,38.6 8.4,34 9.7,31.3 C11,28.6 12.4,26.4 12.1,24 C11.8,21.8 10.3,20.9 9.7,21 Z" id="XMLID_529_" fill="#E4F2F2"></path>
                        <g id="XMLID_384_" transform="translate(20.000000, 15.000000)" fill="#E4F2F2">
                            <path d="M1.2,8.5 C1.2,8.5 1.6,6.4 1.6,5.3 C1.5,3.8 0.4,1.8 0.4,1.8 L0.4,0.6 C0.4,0.6 1.3,0.7 2,1.6 C2.7,2.5 3.9,4.4 3.6,6.4 C3.5,6.5 3,7.6 1.2,8.5 Z" id="XMLID_523_"></path>
                        </g>
                        <path d="M21.2,23.5 C21.5,22.9 22.1,20.8 22.4,20.5 C23,20.3 23.5,21.4 23.5,21.4 C23.5,21.4 23.5,22.6 22.8,23.3 C22.1,24.1 21.2,23.5 21.2,23.5 Z" id="XMLID_519_" fill="#F5FBFB"></path>
                        <path d="M22.4,20.5 C22.1,20.8 21.5,22.9 21.2,23.5 C21.2,23.5 21.5,22.9 21.9,22.5 C22.2,22.1 22.6,21.3 23.6,21.4 C23.5,21.5 23,20.4 22.4,20.5 Z" id="XMLID_393_" fill="#C8DBDA"></path>
                        <path d="M14.3,16.9 C14.4,17.6 17.9,20.2 18.7,20.5 C19.5,20.8 21.1,23.5 21.1,23.5 C19.8,23.3 18.8,23.8 17.9,24.7 C17.9,24.7 12.9,22.6 12.1,19.2 C12.1,19.2 13,17.4 13.2,16.9 C13.3,16.4 13.7,15.9 14.2,15.9 L14.3,16.9 Z" id="XMLID_356_" fill="#E4F2F2"></path>
                        <path d="M18,24.8 C18,24.8 18.4,22.2 18.9,22 C19.4,21.8 21.2,23.6 21.2,23.6 C20.5,24.2 19.6,24.7 18,24.8 Z" id="XMLID_353_" fill="#F5FBFB"></path>
                        <path d="M18.9,22 C18.4,22.2 18,24.8 18,24.8 C18,24.8 19.4,23.5 19.8,23.4 C20.2,23.3 21.2,23.6 21.2,23.6 C21.2,23.6 19.5,21.8 18.9,22 Z" id="XMLID_350_" fill="#C8DBDA"></path>
                        <path d="M24,6.6 L24,6.6 C23.5,3.2 21.1,0.7 17.6,0.9 C13.9,1.1 11.1,4.3 11.3,7.9 C11.4,10.1 12.6,11.9 14.2,13 C14.2,13 14.5,14.2 14.7,14.5 C15.9,15.9 19.6,16.8 20.7,16.7 C22.1,16.5 22.8,15.9 23.5,14.4 C24.6,11.7 24.2,8.2 24,6.6 Z" id="XMLID_2511_" fill="#FFA8A7"></path>
                        <path d="M23.5,3.9 C22.1,1.7 19.4,0.4 16.6,1 C14.9,1.4 13.4,2.4 12.4,3.9 C11.1,4.4 11.1,6.3 11.1,6.9 C11.2,9.5 12.3,11.7 14.2,13 C14.1,12.8 12.4,10.2 14.2,9.6 C14.5,9.9 14.6,10.4 14.6,11 C14.6,11 15.5,10.9 15.3,9.9 C15.2,9.6 15.2,9.3 15.1,9.1 C14.9,8.3 15.1,7.5 15.6,6.8 C16,6.2 16.3,5.5 16.1,4.6 C16.1,4.6 18.3,5.6 21.2,5 C22.3,4.7 23.1,4.2 23.5,3.9 Z" id="XMLID_2510_" fill="#3A2C6D"></path>
                        <path d="M12.4,3.9 C12.4,3.9 12,2.6 13.7,1.3 C15.7,-0.2 18.6,0.1 21.6,1.3 C23.5,2.1 26.5,1.1 25.9,3.3 C25.1,6.5 18.8,6.8 16.1,4.6 C15.9,4.5 13.9,3.5 12.4,3.9 Z" id="XMLID_2509_" fill="#3A2C6D"></path>
                        <path d="M14.2,13 C14.2,13 14,13.4 13.4,13.4 C12.2,13.5 10.8,11.2 11.7,9.7 C12.3,8.7 13.7,9.1 14.1,9.7 L14.2,13 Z" id="XMLID_2504_" fill="#FFA8A7"></path>
                    </g>
                    <path d="M266.175166,61.3976793 L266.247242,61.44069 C267.77016,62.3556555 269.291417,63.6745573 270.655897,65.3048099 L278.629201,74.8308808 C281.379754,78.1163059 283.074067,82.167478 283.074067,85.456988 L283.074067,86.2072991 C283.074067,86.7721914 282.483502,86.7727438 282.010857,86.2086044 L267.04175,68.3245962 C266.204064,67.3231453 265.120251,67.0179948 264.703732,67.6976145 C264.334712,68.2992748 264.698418,69.4971117 265.456721,70.40339 L282.38219,90.6248368 C282.810341,91.1362802 283.074067,91.7666844 283.074067,92.2782436 L283.074067,95.0021995 C283.074067,95.6014851 283.01727,96.1579318 282.907982,96.6679184 C282.786084,97.2378073 282.074953,97.1282313 281.52757,96.4740816 L252.339374,61.6029231 C251.899271,61.0767841 251.832509,60.4066954 252.205848,60.2720374 C252.682155,60.1007714 253.210277,60.0106753 253.784898,60.0098879 L261.766181,60.0000076 C263.130993,59.998419 264.65225,60.4950906 266.175166,61.3976793 Z M249.230485,63.2372478 C249.310204,62.9317288 249.613069,62.8865919 249.933612,63.0761709 C250.053691,63.147189 250.175771,63.250545 250.289846,63.3858025 L279.643104,98.1424938 C280.210811,98.8148333 280.270854,99.6553248 279.774842,99.8016103 C279.356583,99.9254006 278.90128,99.9892766 278.412291,99.9897446 L270.389362,99.9999919 C269.021799,100.001634 267.496465,99.5079889 265.970464,98.6119719 L265.897416,98.5687693 C264.371415,97.6597412 262.846083,96.3491315 261.478517,94.7298524 L253.455255,85.2294095 C250.698114,81.9648221 249,77.9408838 249,74.6730197 L249,73.9639112 C249,73.3804617 249.615404,73.3794317 250.10806,73.96287 L265.100226,91.7149564 C265.362732,92.026344 265.649921,92.2698138 265.932439,92.436903 C266.583533,92.8219793 267.213947,92.8034625 267.484458,92.2745418 C267.798663,91.6612116 267.443431,90.5355405 266.716621,89.6752863 L249.740819,69.5742179 C249.282519,69.0316411 249,68.3622514 249,67.8188624 L249,65.1625227 C249,64.459918 249.079385,63.8162431 249.230485,63.2372478 Z" id="Clip-5" fill="#FFFFFF" fill-rule="nonzero" transform="translate(266.037034, 80.000000) rotate(14.000000) translate(-266.037034, -80.000000) "></path>
                    <g id="Group-5" transform="translate(157.000000, 284.000000)" fill-rule="nonzero">
                        <path d="M22.4347826,1.57436402 C13.3913043,-3.12128815 4.86956522,4.18305968 4.86956522,4.18305968 C4.86956522,14.9656684 16.3478261,40.3569727 25.3913043,45.0526249 C25.3913043,45.0526249 38.6086957,40.5308858 38.6086957,29.7482771 C38.7826087,18.7917553 31.4782609,6.2700162 22.4347826,1.57436402" id="Path" fill="#51ADE6"></path>
                        <path d="M16.3478261,4.53088576 C7.30434783,-0.164766412 -2.14761542e-12,4.87871185 -2.14761542e-12,15.6613205 C-2.14761542e-12,26.4439292 7.30434783,38.9656684 16.173913,43.6613205 C25.2173913,48.3569727 32.5217391,43.3134945 32.5217391,32.5308858 C32.6956522,21.7482771 25.3913043,9.05262489 16.3478261,4.53088576" id="Path" fill="#5FD9F9"></path>
                        <path d="M18.0169641,14.7337818 L18.0548044,14.7563624 C18.8543363,15.2367194 19.6529962,15.929143 20.3693487,16.7850259 L24.5553345,21.7862143 C25.9993748,23.5110628 26.8888896,25.6379287 26.8888896,27.3649219 L26.8888896,27.7588353 C26.8888896,28.0554038 26.5788427,28.0556939 26.3307042,27.7595206 L18.471921,18.3704141 C18.032136,17.8446522 17.4631338,17.6844482 17.2444615,18.0412486 C17.0507257,18.3571203 17.2416712,18.9859848 17.6397805,19.461781 L26.5256538,30.0780432 C26.7504332,30.346551 26.8888896,30.6775133 26.8888896,30.9460819 L26.8888896,32.3761591 C26.8888896,32.6907841 26.8590713,32.9829187 26.8016947,33.2506617 C26.7376982,33.5498535 26.3643546,33.4923261 26.0769783,33.1488974 L10.7531717,14.8415348 C10.5221177,14.5653118 10.4870676,14.2135151 10.6830704,14.1428196 C10.9331318,14.052905 11.2103957,14.0056045 11.5120719,14.0051911 L15.7022465,14.000004 C16.4187734,13.99917 17.2174333,14.2599226 18.0169641,14.7337818 Z M9.12100443,15.6995555 C9.16285689,15.539158 9.32186117,15.5154611 9.49014662,15.6149901 C9.55318794,15.6522746 9.61728,15.7065365 9.6771693,15.7775467 L25.0876332,34.024814 C25.3856799,34.3777923 25.4172024,34.8190505 25.1567961,34.8958504 C24.9372101,34.9608403 24.698176,34.9943752 24.4414565,34.9946209 L20.2294179,35.0000007 C19.5114469,35.0008628 18.7106463,34.7416991 17.9094955,34.2712901 L17.8711454,34.2486087 C17.0699946,33.7713688 16.2691952,33.0832986 15.551223,32.2331769 L11.3390093,27.2454431 C9.89150998,25.5315344 9,23.4189662 9,21.7033372 L9,21.3310552 C9,21.0247441 9.32308693,21.0242033 9.5817317,21.3305085 L17.4526209,30.6503561 C17.5904362,30.8138346 17.7412107,30.9416563 17.8895324,31.0293781 C18.2313568,31.2315433 18.5623246,31.2218219 18.704343,30.9441385 C18.8693003,30.62214 18.6828037,30.0311626 18.3012282,29.579529 L9.38893025,19.0264656 C9.14832232,18.7416127 9,18.390183 9,18.1049037 L9,16.7103251 C9,16.3414575 9.0416773,16.0035281 9.12100443,15.6995555 Z" id="Clip-5" fill="#51ADE6"></path>
                        <path d="M16.0169641,15.7337818 L16.0548044,15.7563624 C16.8543363,16.2367194 17.6529962,16.929143 18.3693487,17.7850259 L22.5553345,22.7862143 C23.9993748,24.5110628 24.8888896,26.6379287 24.8888896,28.3649219 L24.8888896,28.7588353 C24.8888896,29.0554038 24.5788427,29.0556939 24.3307042,28.7595206 L16.471921,19.3704141 C16.032136,18.8446522 15.4631338,18.6844482 15.2444615,19.0412486 C15.0507257,19.3571203 15.2416712,19.9859848 15.6397805,20.461781 L24.5256538,31.0780432 C24.7504332,31.346551 24.8888896,31.6775133 24.8888896,31.9460819 L24.8888896,33.3761591 C24.8888896,33.6907841 24.8590713,33.9829187 24.8016947,34.2506617 C24.7376982,34.5498535 24.3643546,34.4923261 24.0769783,34.1488974 L8.75317173,15.8415348 C8.5221177,15.5653118 8.48706762,15.2135151 8.68307042,15.1428196 C8.9331318,15.052905 9.21039572,15.0056045 9.51207193,15.0051911 L13.7022465,15.000004 C14.4187734,14.99917 15.2174333,15.2599226 16.0169641,15.7337818 Z M7.12100443,16.6995555 C7.16285689,16.539158 7.32186117,16.5154611 7.49014662,16.6149901 C7.55318794,16.6522746 7.61728,16.7065365 7.6771693,16.7775467 L23.0876332,35.024814 C23.3856799,35.3777923 23.4172024,35.8190505 23.1567961,35.8958504 C22.9372101,35.9608403 22.698176,35.9943752 22.4414565,35.9946209 L18.2294179,36.0000007 C17.5114469,36.0008628 16.7106463,35.7416991 15.9094955,35.2712901 L15.8711454,35.2486087 C15.0699946,34.7713688 14.2691952,34.0832986 13.551223,33.2331769 L9.33900927,28.2454431 C7.89150998,26.5315344 7,24.4189662 7,22.7033372 L7,22.3310552 C7,22.0247441 7.32308693,22.0242033 7.5817317,22.3305085 L15.4526209,31.6503561 C15.5904362,31.8138346 15.7412107,31.9416563 15.8895324,32.0293781 C16.2313568,32.2315433 16.5623246,32.2218219 16.704343,31.9441385 C16.8693003,31.62214 16.6828037,31.0311626 16.3012282,30.579529 L7.38893025,20.0264656 C7.14832232,19.7416127 7,19.390183 7,19.1049037 L7,17.7103251 C7,17.3414575 7.0416773,17.0035281 7.12100443,16.6995555 Z" id="Clip-5" fill="#FFFFFF"></path>
                    </g>
                    <g id="Group-17" transform="translate(389.000000, 146.000000)" fill-rule="nonzero">
                        <polygon id="Path" fill="#7AD9E9" points="16.8 38.675 33.425 31.5 16.8 2.66453526e-14"></polygon>
                        <polygon id="Path" fill="#42BCDC" points="16.8 38.675 16.8 38.675 16.8 62.65 33.425 31.5 33.425 31.5"></polygon>
                        <polygon id="Path" fill="#5FD9F9" points="0.175 32.025 16.8 62.65 16.8 38.675"></polygon>
                        <polygon id="Path" fill="#ABF3FF" points="16.8 2.66453526e-14 2.92743607e-12 31.5 0.175 32.025 16.8 38.675"></polygon>
                    </g>
                    <g id="Group-5" transform="translate(51.000000, 18.000000)" fill-rule="nonzero">
                        <path d="M22.4347826,1.57436402 C13.3913043,-3.12128815 4.86956522,4.18305968 4.86956522,4.18305968 C4.86956522,14.9656684 16.3478261,40.3569727 25.3913043,45.0526249 C25.3913043,45.0526249 38.6086957,40.5308858 38.6086957,29.7482771 C38.7826087,18.7917553 31.4782609,6.2700162 22.4347826,1.57436402" id="Path" fill="#51ADE6"></path>
                        <path d="M16.3478261,4.53088576 C7.30434783,-0.164766412 -2.14761542e-12,4.87871185 -2.14761542e-12,15.6613205 C-2.14761542e-12,26.4439292 7.30434783,38.9656684 16.173913,43.6613205 C25.2173913,48.3569727 32.5217391,43.3134945 32.5217391,32.5308858 C32.6956522,21.7482771 25.3913043,9.05262489 16.3478261,4.53088576" id="Path" fill="#5FD9F9"></path>
                        <g id="Group" transform="translate(6.956522, 6.965668)">
                            <path d="M16.3478261,21.5652174 C15.826087,20.3478261 14.7826087,19.1304348 13.7391304,18.2608696 C15.6521739,18.9565217 16.6956522,18.0869565 16.6956522,15.3043478 C16.6956522,15.3043478 16.6956522,15.1304348 16.6956522,15.1304348 C16.6956522,14.2608696 16.6956522,13.3913043 16.3478261,12.5217391 C16.173913,11.6521739 15.826087,10.7826087 15.4782609,10.2608696 C15.1304348,9.56521739 14.6086957,9.04347826 14.0869565,8.34782609 C13.7391304,8 13.3913043,7.65217391 13.2173913,7.47826087 L13.2173913,5.73913043 L10.9565217,4.52173913 L10.9565217,5.91304348 C10.7826087,5.73913043 10.6086957,5.56521739 10.2608696,5.56521739 L9.39130435,5.04347826 L9.39130435,3.65217391 L7.13043478,2.43478261 L7.13043478,3.82608696 L5.56521739,2.95652174 L5.04347826,2.60869565 L4.86956522,2.43478261 L2.43478261,1.04347826 L2.43478261,3.65217391 L4.86956522,5.04347826 L4.69565217,23.3043478 L2.26086957,21.9130435 L2.26086957,24.5217391 L4.69565217,25.9130435 L5.39130435,26.4347826 L6.95652174,27.3043478 L6.95652174,28.6956522 L9.2173913,29.9130435 L9.2173913,29.0434783 L9.2173913,28.5217391 L10.6086957,29.3913043 L10.6086957,30.7826087 L12.8695652,32 L12.8695652,31.1304348 L12.8695652,30.4347826 C13.9130435,30.7826087 14.7826087,30.7826087 15.4782609,30.4347826 C16.5217391,29.9130435 17.0434783,28.5217391 17.0434783,26.2608696 C17.0434783,26.2608696 17.0434783,26.0869565 17.0434783,26.0869565 C17.3913043,24.3478261 17.0434783,22.7826087 16.3478261,21.5652174 Z M9.56521739,8.52173913 L10.2608696,8.86956522 C12,9.91304348 12.8695652,11.3043478 12.8695652,13.2173913 C12.8695652,14.2608696 12.6956522,14.9565217 12.3478261,15.3043478 C12,15.6521739 11.3043478,15.4782609 10.4347826,14.9565217 L9.56521739,14.4347826 L9.56521739,8.52173913 Z M9.39130435,24.6956522 L9.39130435,17.7391304 L10.2608696,18.2608696 C11.3043478,18.7826087 12,19.4782609 12.3478261,20.3478261 C12.6956522,21.0434783 12.8695652,22.0869565 12.8695652,23.4782609 C12.8695652,24.6956522 12.6956522,25.3913043 12.3478261,25.7391304 C12,26.0869565 11.3043478,25.9130435 10.2608696,25.3913043 L9.39130435,24.6956522 Z" id="Shape" fill="#51ADE6"></path>
                            <path d="M14.4347826,22.9565217 C13.9130435,21.7391304 12.8695652,20.5217391 11.826087,19.6521739 C13.7391304,20.3478261 14.7826087,19.4782609 14.7826087,16.6956522 C14.7826087,16.6956522 14.7826087,16.5217391 14.7826087,16.5217391 C14.7826087,15.6521739 14.7826087,14.7826087 14.4347826,13.9130435 C14.2608696,13.0434783 13.9130435,12.173913 13.5652174,11.6521739 C13.2173913,10.9565217 12.6956522,10.4347826 12.173913,9.73913043 C11.826087,9.39130435 11.4782609,9.04347826 11.3043478,8.86956522 L11.3043478,7.13043478 L9.04347826,5.91304348 L9.04347826,7.30434783 C8.86956522,7.13043478 8.69565217,6.95652174 8.34782609,6.95652174 L7.65217391,6.43478261 L7.65217391,5.04347826 L5.39130435,3.82608696 L5.39130435,5.2173913 L3.82608696,4.34782609 L3.30434783,4 L3.13043478,3.82608696 L0.695652174,2.43478261 L0.695652174,5.04347826 L3.13043478,6.43478261 L2.95652174,24.6956522 L0.52173913,23.3043478 L0.52173913,25.9130435 L2.95652174,27.3043478 L3.65217391,27.826087 L5.2173913,28.6956522 L5.2173913,30.0869565 L7.47826087,31.3043478 L7.47826087,30.4347826 L7.47826087,29.9130435 L8.86956522,30.7826087 L8.86956522,32.173913 L11.1304348,33.3913043 L11.1304348,32.5217391 L11.1304348,31.826087 C12.173913,32.173913 13.0434783,32.173913 13.7391304,31.826087 C14.7826087,31.3043478 15.3043478,29.9130435 15.3043478,27.6521739 C15.3043478,27.6521739 15.3043478,27.4782609 15.3043478,27.4782609 C15.4782609,25.7391304 15.1304348,24.173913 14.4347826,22.9565217 Z M7.65217391,9.91304348 L8.34782609,10.2608696 C10.0869565,11.3043478 10.9565217,12.6956522 10.9565217,14.6086957 C10.9565217,15.6521739 10.7826087,16.3478261 10.4347826,16.6956522 C10.0869565,17.0434783 9.39130435,16.8695652 8.52173913,16.3478261 L7.65217391,15.826087 L7.65217391,9.91304348 Z M7.47826087,26.0869565 L7.47826087,19.1304348 L8.34782609,19.6521739 C9.39130435,20.173913 10.0869565,20.8695652 10.4347826,21.7391304 C10.7826087,22.4347826 10.9565217,23.4782609 10.9565217,24.8695652 C10.9565217,26.0869565 10.7826087,26.7826087 10.4347826,27.1304348 C10.0869565,27.4782609 9.39130435,27.3043478 8.34782609,26.7826087 L7.47826087,26.0869565 Z" id="Shape" fill="#FFFFFF"></path>
                        </g>
                    </g>
                </g>
            </g>
        </g>
    </g>
</svg>