<?xml version="1.0" encoding="UTF-8"?>
<svg width="148px" height="39px" viewBox="0 0 148 39" version="1.1" xmlns="http://www.w3.org/2000/svg" xmlns:xlink="http://www.w3.org/1999/xlink">
    <!-- Generator: Sketch 54.1 (76490) - https://sketchapp.com -->
    <title>Logo</title>
    <desc>Created with Sketch.</desc>
    <defs>
        <linearGradient x1="96.8055139%" y1="29.0137134%" x2="7.83484901%" y2="68.8976964%" id="linearGradient-1">
            <stop stop-color="#83E8FE" offset="0%"></stop>
            <stop stop-color="#76D0FD" offset="18.38%"></stop>
            <stop stop-color="#5EA5FC" offset="54.7%"></stop>
            <stop stop-color="#4F8BFC" offset="83.12%"></stop>
            <stop stop-color="#4981FB" offset="99.93%"></stop>
        </linearGradient>
    </defs>
    <g id="InProgress" stroke="none" stroke-width="1" fill="none" fill-rule="evenodd">
        <g id="StreamexMain" transform="translate(-60.000000, -33.000000)">
            <g id="01-Header">
                <g id="Logo" transform="translate(60.000000, 33.000000)">
                    <path d="M18.0313539,0 L18.1085903,0 C19.7405245,0.00641385542 21.3706789,0.43254759 22.8328346,1.27837771 L31.3769003,6.22068795 C34.3243484,7.92482349 36.1399478,11.076 36.1399478,14.4856807 L36.1399478,15.2634018 C36.1399478,15.8489304 35.5071073,16.214788 35.0006288,15.9223867 L18.959972,6.64395542 C18.0623215,6.12405723 16.9009243,6.47813494 16.4545896,7.44021325 C16.0591533,8.29210482 16.4488944,9.30873614 17.26148,9.77908554 L35.3985427,20.2702688 C35.8573427,20.5355698 36.1399478,21.0258797 36.1399478,21.556127 L36.1399478,24.3795931 C36.1399478,25.0007714 36.0790852,25.6126767 35.9619731,26.2088928 C35.8313491,26.8749987 35.069313,27.2012783 34.4827459,26.8618068 L3.20514015,8.77065361 C2.733533,8.49751265 2.66199186,7.84423916 3.06205553,7.47373916 C3.57245882,7.00160422 4.13838553,6.58155542 4.75414047,6.22531627 L13.306756,1.27837771 C14.7692677,0.43254759 16.3994221,0.00641385542 18.0313539,0 Z M0.245946892,12.3279705 C0.331013873,11.9606892 0.654197164,11.7271355 0.996244835,11.7271355 C1.12437911,11.7271355 1.25464909,11.7595807 1.37637675,11.8301801 L32.6988307,29.9473646 C33.3046238,30.2978924 33.3686946,31.1362303 32.8394073,31.5940903 C32.3930889,31.980632 31.9072415,32.3275934 31.3854478,32.6292678 L22.8242918,37.5815667 C21.3649837,38.4256113 19.7373209,38.8510214 18.1089462,38.8577965 L18.030998,38.8577965 C16.4026233,38.8510214 14.7749629,38.4256113 13.3156524,37.5815667 L4.75414047,32.6292678 C1.81203371,30.9276273 0,27.782874 0,24.3795931 L0,23.6410999 C0,23.0334728 0.656688575,22.6533497 1.18239558,22.9575192 L17.1803282,32.2109881 C17.4604439,32.3735922 17.7669,32.4502601 18.0683703,32.4502601 C18.7631437,32.4502601 19.4358505,32.0426796 19.7245091,31.3252229 C20.0597923,30.4929464 19.6807296,29.5394293 18.9051605,29.0911972 L0.790518044,18.6132034 C0.301471715,18.3304276 0,17.8073131 0,17.2414066 L0,14.474991 C0,13.7432711 0.0847109614,13.0240265 0.245946892,12.3279705 Z" id="Clip-5" fill="url(#linearGradient-1)" fill-rule="nonzero"></path>
                    <path d="M103.537161,12.4239434 L105.641203,12.4239434 C105.896471,12.432038 106.051941,12.5502093 106.104208,12.7773398 L109.667495,25.4378698 C109.678781,25.4870438 109.684464,25.531083 109.684543,25.5699933 L109.684543,25.5716377 C109.684253,25.7141041 109.608276,25.7872988 109.456594,25.7915082 L107.968616,25.7915082 C107.856809,25.7891673 107.77692,25.765464 107.7327,25.7187591 C107.68481,25.6701313 107.646359,25.5767145 107.619264,25.4378698 L106.853552,22.7799681 C106.845988,22.7537348 106.822031,22.7351792 106.794937,22.7351792 L104.426375,22.7351792 C104.249899,22.7351792 104.121968,22.5649818 104.168616,22.3922259 L104.476161,21.2597058 C104.506393,21.149014 104.604724,21.0728723 104.71816,21.0728723 L106.37206,21.0728723 C106.412385,21.0728723 106.441376,21.0332028 106.430042,20.9941722 L104.6295,14.4191693 L104.548194,14.4191693 L101.55843,25.4378698 C101.504272,25.6684562 101.38699,25.7861372 101.202462,25.7915082 L99.7024032,25.7915082 C99.5203697,25.7861372 99.457276,25.6684562 99.5101991,25.4378698 L103.073486,12.7773398 C103.139125,12.5502093 103.293326,12.432038 103.537161,12.4239434 L103.537161,12.4239434 Z" id="Clip-30" fill="#000000"></path>
                    <path d="M77.653107,12.4239434 L82.5148018,12.4239434 C83.4866393,12.4337317 84.2509529,12.7215653 84.8083427,13.2861958 C85.3742788,13.8620566 85.6572586,14.6554482 85.6572586,15.6670471 L85.6572586,17.4138125 C85.6572586,19.0070165 85.0093839,20.0115672 83.7130257,20.4281037 L83.7130257,20.5106451 L85.9855984,25.375357 C86.1349567,25.6530488 86.0467187,25.7912545 85.7190111,25.7912545 L84.4491149,25.7912545 C84.1220396,25.7912545 83.9102731,25.6741628 83.8151269,25.4380601 L81.623837,20.6565286 L79.5554434,20.6565286 C79.3915896,20.6565286 79.3096744,20.7256314 79.3096744,20.863837 L79.3096744,25.4380601 C79.3096744,25.6741628 79.1937098,25.7912545 78.9617807,25.7912545 L77.6717219,25.7912545 C77.4391605,25.7912545 77.3238282,25.6741628 77.3238282,25.4380601 L77.3238282,18.9929413 L82.1362168,18.9929413 C83.145825,18.9929413 83.6512497,18.487466 83.6512497,17.4758765 L83.6512497,15.7291111 C83.6512497,14.7040807 83.145825,14.1909253 82.1362168,14.1909253 L77.3238282,14.1909253 L77.3238282,12.7775277 C77.3238282,12.5478001 77.4330054,12.4301406 77.653107,12.4239434 L77.653107,12.4239434 Z" id="Clip-27" fill="#000000"></path>
                    <path d="M138.505204,12.4239434 L140.016928,12.4239434 C140.27114,12.4335245 140.451307,12.5516243 140.556336,12.7771283 L142.910848,17.600263 L142.992763,17.600263 L145.347907,12.7771283 C145.465608,12.5516243 145.633014,12.4335245 145.8507,12.4239434 L147.418194,12.4239434 C147.515431,12.4294921 147.586097,12.4714172 147.631205,12.5487199 C147.678462,12.6318886 147.682255,12.7221054 147.641274,12.8187361 L144.36476,18.8684279 L147.743376,25.3967272 C147.772581,25.456706 147.788242,25.5114849 147.790071,25.5610639 L147.790071,25.5804424 C147.788745,25.6153468 147.780148,25.6475253 147.764171,25.6769774 C147.723213,25.753119 147.641274,25.7915082 147.518378,25.7915082 L145.98255,25.7915082 C145.764485,25.7915082 145.60693,25.6801773 145.511128,25.4587912 L142.992763,20.3867707 L142.910848,20.3867707 L140.39185,25.4587912 C140.296681,25.6801773 140.132827,25.7915082 139.900898,25.7915082 L138.385841,25.7915082 C138.2762,25.7915082 138.198055,25.756958 138.150142,25.6878551 C138.127928,25.6555044 138.116699,25.6188856 138.116514,25.5778072 L138.116514,25.5757479 C138.116724,25.5287847 138.131268,25.4760306 138.160235,25.4172022 L141.539483,18.8684279 L138.303926,12.7982494 C138.249105,12.7010078 138.245312,12.6146205 138.293201,12.5384765 C138.337585,12.4679408 138.407911,12.4292589 138.505204,12.4239434 L138.505204,12.4239434 Z" id="Clip-24" fill="#000000"></path>
                    <path d="M128.527742,12.4239434 L135.136168,12.4239434 C135.336773,12.4335245 135.437363,12.5516243 135.437363,12.7771283 L135.437363,13.8373645 C135.437363,14.0734554 135.327698,14.1905494 135.109023,14.1905494 L130.440326,14.1905494 C130.276472,14.1905494 130.194557,14.2609373 130.194557,14.3984946 L130.194557,17.912505 C130.194557,18.0507107 130.276472,18.1204525 130.440326,18.1204525 L134.392464,18.1204525 C134.638233,18.1204525 134.761129,18.2381832 134.761129,18.4730055 L134.761129,19.5345033 C134.761129,19.7693232 134.638233,19.8870539 134.392464,19.8870539 L130.440326,19.8870539 C130.276472,19.8870539 130.194557,19.9567981 130.194557,20.0956428 L130.194557,23.7958453 C130.194557,23.9481262 130.276472,24.0242678 130.440326,24.0242678 L135.109023,24.0242678 C135.327698,24.0242678 135.437363,24.1419985 135.437363,24.3781012 L135.437363,25.4376772 C135.437363,25.6737775 135.327698,25.7915082 135.109023,25.7915082 L128.556604,25.7915082 C128.324043,25.7915082 128.208734,25.6737775 128.208734,25.4376772 L128.208734,12.7771283 C128.208734,12.5516243 128.314501,12.4335245 128.527742,12.4239434 Z" id="Clip-21" fill="#000000"></path>
                    <path d="M112.869048,12.4239434 L115.203371,12.4239434 C115.344088,12.4298704 115.447104,12.5058882 115.512418,12.6519759 L118.317533,20.6768743 L118.420243,20.6768743 L121.246154,12.6519759 C121.272171,12.5058882 121.367773,12.4298704 121.531903,12.4239434 L123.869359,12.4239434 C124.086402,12.4313941 124.194351,12.5495915 124.194351,12.7773867 L124.194351,25.4379333 C124.194351,25.6676763 124.085146,25.7853384 123.865571,25.7915082 L122.558661,25.7915082 C122.338472,25.7853384 122.228691,25.6676763 122.228691,25.4379333 L122.228691,14.9394199 L122.146752,14.9394199 L119.485328,22.5484115 C119.40339,22.7697952 119.252767,22.8811285 119.034724,22.8811285 L117.724479,22.8811285 C117.519668,22.8811285 117.375977,22.7697952 117.294038,22.5484115 L114.570862,14.9182988 L114.488923,14.9182988 L114.488923,25.4379333 C114.488923,25.576778 114.46499,25.6701947 114.417078,25.7188225 C114.372026,25.7645691 114.287369,25.7887976 114.16416,25.7915082 L112.872837,25.7915082 C112.653231,25.7853384 112.543449,25.6676763 112.543449,25.4379333 L112.543449,12.7773867 C112.543449,12.5495915 112.651968,12.4313941 112.869048,12.4239434 L112.869048,12.4239434 Z" id="Clip-18" fill="#000000"></path>
                    <path d="M89.7654177,12.4239434 L96.3738444,12.4239434 C96.5744488,12.4335245 96.6750389,12.5516243 96.6750389,12.7771283 L96.6750389,13.8373645 C96.6750389,14.0734554 96.5653738,14.1905494 96.3466991,14.1905494 L91.6780016,14.1905494 C91.5141478,14.1905494 91.4322326,14.2609373 91.4322326,14.3984946 L91.4322326,17.912505 C91.4322326,18.0507107 91.5141478,18.1204525 91.6780016,18.1204525 L95.6301168,18.1204525 C95.8759092,18.1204525 95.9988054,18.2381832 95.9988054,18.4730055 L95.9988054,19.5345033 C95.9988054,19.7693232 95.8759092,19.8870539 95.6301168,19.8870539 L91.6780016,19.8870539 C91.5141478,19.8870539 91.4322326,19.9567981 91.4322326,20.0956428 L91.4322326,23.7958453 C91.4322326,23.9481262 91.5141478,24.0242678 91.6780016,24.0242678 L96.3466991,24.0242678 C96.5653738,24.0242678 96.6750389,24.1419985 96.6750389,24.3781012 L96.6750389,25.4376772 C96.6750389,25.6737775 96.5653738,25.7915082 96.3466991,25.7915082 L89.7942801,25.7915082 C89.5617187,25.7915082 89.4463864,25.6737775 89.4463864,25.4376772 L89.4463864,12.7771283 C89.4463864,12.5516243 89.5521747,12.4335245 89.7654177,12.4239434 L89.7654177,12.4239434 Z" id="Clip-15" fill="#000000"></path>
                    <path d="M66.5430153,12.4239434 L74.2007937,12.4239434 C74.4267527,12.4335245 74.5388991,12.5516243 74.5388991,12.7771283 L74.5388991,13.8373645 C74.5388991,14.0734554 74.4166352,14.1905494 74.1702105,14.1905494 L71.5900927,14.1905494 C71.4400788,14.1905494 71.3650953,14.2609373 71.3650953,14.3984946 L71.3650953,25.4376772 C71.3650953,25.6737775 71.2491307,25.7915082 71.0172016,25.7915082 L69.7265105,25.7915082 C69.4807415,25.7915082 69.3584776,25.6737775 69.3584776,25.4376772 L69.3584776,14.3984946 C69.3584776,14.2609373 69.28977,14.1905494 69.1536427,14.1905494 L66.573525,14.1905494 C66.3277326,14.1905494 66.2048364,14.0734554 66.2048364,13.8373645 L66.2048364,12.7771283 C66.2048364,12.5516243 66.3175627,12.4335245 66.5430153,12.4239434 L66.5430153,12.4239434 Z" id="Clip-12" fill="#000000"></path>
                    <path d="M58.0650091,12.4239434 L60.3398149,12.4239434 C61.3244624,12.4337317 62.09547,12.7215653 62.6528598,13.2861958 C63.2187959,13.8620566 63.5017522,14.6554482 63.5017522,15.6670471 L63.5017522,16.1245336 C63.5017522,16.3599949 63.38642,16.4777255 63.1545143,16.4777255 L61.8430282,16.4777255 C61.6110991,16.4777255 61.4957668,16.3599949 61.4957668,16.1245336 L61.4957668,15.8538806 C61.4957668,15.2581861 61.3691003,14.8314181 61.1163763,14.5754747 C60.8636522,14.3195313 60.4439364,14.190291 59.857182,14.190291 L58.5671231,14.190291 C57.9803921,14.190291 57.5606529,14.3259452 57.3079522,14.5965958 C57.0552282,14.866612 56.9291706,15.3279398 56.9291706,15.9786501 L56.9291706,16.623609 C56.9291706,17.247454 57.3728662,17.6697488 58.2602105,17.8917739 C58.6559934,17.9883905 59.0889402,18.07221 59.5603624,18.1406714 C60.0311288,18.2110547 60.5050567,18.3147101 60.983387,18.4529158 C61.4611086,18.5911214 61.8978491,18.7753941 62.293632,19.003819 C62.6894149,19.2322415 63.0108231,19.5790361 63.2565921,20.0429199 C63.5017522,20.5080842 63.6252807,21.0724236 63.6252807,21.7372186 L63.6252807,22.5485384 C63.6252807,23.5601279 63.3410598,24.3535312 62.7751238,24.9287483 C62.2085554,25.5039654 61.4264503,25.7912545 60.430682,25.7912545 L58.1373143,25.7912545 C57.140937,25.7912545 56.3556706,25.5039654 55.7821706,24.9287483 C55.2086706,24.3535312 54.9225529,23.5601279 54.9225529,22.5485384 L54.9225529,22.0072325 C54.9225529,21.7724102 55.0385174,21.6546795 55.2704465,21.6546795 L56.5813003,21.6546795 C56.8125972,21.6546795 56.9291706,21.7724102 56.9291706,22.0072325 L56.9291706,22.3821799 C56.9291706,22.9637944 57.0552282,23.3835307 57.3079522,23.639467 C57.5606529,23.8960448 57.9803921,24.0246508 58.5671231,24.0246508 L59.9800782,24.0246508 C60.5668092,24.0246508 60.9903187,23.889645 61.2493421,23.618992 C61.5089978,23.3483391 61.6388257,22.9081301 61.6388257,22.2983604 L61.6388257,21.820399 C61.6388257,21.3776292 61.4718105,21.0276347 61.1365389,20.7710593 C60.802532,20.514484 60.3897244,20.3481255 59.8987953,20.2713425 C59.4065782,20.1958422 58.8677364,20.0877089 58.2803731,19.9495032 C57.6930098,19.8112975 57.1541681,19.6519778 56.6632389,19.4715417 C56.1710219,19.291747 55.7582377,18.9519913 55.4242073,18.4529158 C55.0895681,17.9531989 54.9225529,17.3159178 54.9225529,16.5397896 L54.9225529,15.6670471 C54.9225529,14.6554482 55.2055326,13.8620566 55.772101,13.2861958 C56.3282481,12.7215653 57.0931509,12.4337317 58.0650091,12.4239434 L58.0650091,12.4239434 Z" id="Clip-9" fill="#000000"></path>
                </g>
            </g>
        </g>
    </g>
</svg>