<?xml version="1.0" encoding="UTF-8"?>
<svg width="60px" height="60px" viewBox="0 0 60 60" version="1.1" xmlns="http://www.w3.org/2000/svg" xmlns:xlink="http://www.w3.org/1999/xlink">
    <!-- Generator: Sketch 54.1 (76490) - https://sketchapp.com -->
    <title>pie-chart</title>
    <desc>Created with Sketch.</desc>
    <g id="InProgress" stroke="none" stroke-width="1" fill="none" fill-rule="evenodd">
        <g id="StreamexMain" transform="translate(-419.000000, -2719.000000)" fill="#3852CE" fill-rule="nonzero">
            <g id="05-Features" transform="translate(-214.000000, 2278.000000)">
                <g id="01" transform="translate(586.000000, 407.000000)">
                    <g id="pie-chart" transform="translate(47.000000, 34.000000)">
                        <path d="M53.268,11.0971 L52.569,10.2371 L41.917,20.8881 L42.384,21.5721 C44.08,24.0631 44.977,26.9781 44.977,30.0011 C44.977,33.0241 44.081,35.9391 42.384,38.4301 L41.917,39.1141 L52.568,49.7651 L53.267,48.9051 C57.593,43.5811 59.976,36.8671 59.976,30.0021 C59.976,23.1371 57.594,16.4211 53.268,11.0971 Z M52.399,46.7661 L44.489,38.8561 C46.119,36.1921 46.977,33.1481 46.977,30.0011 C46.977,26.8541 46.119,23.8101 44.489,21.1461 L52.399,13.2361 C56.003,18.0551 57.977,23.9651 57.977,30.0021 C57.977,36.0391 56.003,41.9461 52.399,46.7661 Z" id="Shape"></path>
                        <path d="M38.406,42.407 C35.915,44.104 33,45 29.977,45 C22.785,45 16.591,39.875 15.25,32.813 L15.096,32 L0.0229988,32 L0.135999,33.103 C1.712,48.437 14.541,60 29.977,60 C36.842,60 43.556,57.617 48.88,53.291 L49.74,52.592 L39.089,41.94 L38.406,42.407 Z M29.977,58 C15.942,58 4.216,47.76 2.261,34 L13.46,34 C15.286,41.581 22.104,47 29.977,47 C33.124,47 36.168,46.142 38.832,44.512 L46.742,52.422 C41.923,56.026 36.013,58 29.977,58 Z" id="Shape"></path>
                        <path d="M15.25,27.187 C16.591,20.125 22.785,15 29.977,15 C32.999,15 35.914,15.896 38.406,17.593 L39.09,18.06 L49.741,7.408 L48.881,6.709 C43.556,2.383 36.842,0 29.977,0 C14.541,0 1.712,11.563 0.135999,26.897 L0.0229988,28 L15.096,28 L15.25,27.187 Z M8.977,26 C8.977,25.448 8.529,25 7.977,25 C7.425,25 6.977,25.448 6.977,26 L2.977,26 C2.977,25.604 2.742,25.269 2.409,25.107 C2.851,22.577 3.626,20.174 4.685,17.941 C4.779,17.97 4.873,18 4.977,18 C5.529,18 5.977,17.552 5.977,17 C5.977,16.676 5.813,16.401 5.574,16.219 C6.008,15.448 6.479,14.701 6.981,13.979 C6.981,13.987 6.977,13.993 6.977,14.001 C6.977,14.553 7.425,15.001 7.977,15.001 C8.529,15.001 8.977,14.553 8.977,14.001 C8.977,13.449 8.529,13.001 7.977,13.001 C7.858,13.001 7.747,13.031 7.641,13.069 C9.188,11.027 11.007,9.212 13.043,7.67 C13.007,7.773 12.977,7.883 12.977,8 C12.977,8.552 13.425,9 13.977,9 C14.529,9 14.977,8.552 14.977,8 C14.977,7.448 14.529,7 13.977,7 C13.971,7 13.966,7.003 13.961,7.003 C14.683,6.501 15.429,6.033 16.198,5.6 C16.381,5.837 16.654,6 16.977,6 C17.529,6 17.977,5.552 17.977,5 C17.977,4.896 17.947,4.801 17.918,4.706 C20.16,3.642 22.564,2.868 25.082,2.427 C25.243,2.764 25.579,3 25.977,3 C26.47,3 26.861,2.637 26.943,2.168 C27.941,2.061 28.952,2 29.977,2 C30.314,2 30.649,2.029 30.985,2.041 C31.008,2.573 31.439,3 31.977,3 C32.466,3 32.854,2.642 32.941,2.178 C35.564,2.459 38.13,3.103 40.561,4.096 C40.218,4.255 39.977,4.597 39.977,5 C39.977,5.552 40.425,6 40.977,6 C41.529,6 41.977,5.552 41.977,5 C41.977,4.895 41.947,4.799 41.917,4.704 C43.61,5.502 45.234,6.45 46.742,7.578 L38.832,15.488 C38.548,15.314 38.257,15.154 37.965,14.997 C37.969,14.997 37.973,14.999 37.977,14.999 C38.529,14.999 38.977,14.551 38.977,13.999 C38.977,13.447 38.529,12.999 37.977,12.999 C37.425,12.999 36.977,13.447 36.977,13.999 C36.977,14.24 37.073,14.452 37.215,14.625 C35.735,13.926 34.167,13.445 32.546,13.199 C32.382,13.083 32.193,12.999 31.977,12.999 C31.835,12.999 31.702,13.03 31.58,13.083 C31.049,13.034 30.515,13 29.977,13 C28.861,13 27.77,13.12 26.708,13.329 C26.525,13.129 26.269,13 25.977,13 C25.513,13 25.14,13.323 25.027,13.752 C19.683,15.384 15.392,19.584 13.733,25.049 C13.302,25.16 12.977,25.534 12.977,26 L8.977,26 Z" id="Shape"></path>
                        <path d="M22.977,6 C23.5293,6 23.977,5.55228 23.977,5 C23.977,4.44772 23.5293,4 22.977,4 C22.4247,4 21.977,4.44772 21.977,5 C21.977,5.55228 22.4247,6 22.977,6 Z" id="Path"></path>
                        <path d="M28.977,6 C29.5293,6 29.977,5.55228 29.977,5 C29.977,4.44772 29.5293,4 28.977,4 C28.4247,4 27.977,4.44772 27.977,5 C27.977,5.55228 28.4247,6 28.977,6 Z" id="Path"></path>
                        <path d="M34.977,6 C35.5293,6 35.977,5.55228 35.977,5 C35.977,4.44772 35.5293,4 34.977,4 C34.4247,4 33.977,4.44772 33.977,5 C33.977,5.55228 34.4247,6 34.977,6 Z" id="Path"></path>
                        <path d="M22.977,12 C23.5293,12 23.977,11.5523 23.977,11 C23.977,10.4477 23.5293,10 22.977,10 C22.4247,10 21.977,10.4477 21.977,11 C21.977,11.5523 22.4247,12 22.977,12 Z" id="Path"></path>
                        <path d="M25.977,9 C26.5293,9 26.977,8.55229 26.977,8 C26.977,7.44772 26.5293,7 25.977,7 C25.4247,7 24.977,7.44772 24.977,8 C24.977,8.55229 25.4247,9 25.977,9 Z" id="Path"></path>
                        <path d="M28.977,12 C29.5293,12 29.977,11.5523 29.977,11 C29.977,10.4477 29.5293,10 28.977,10 C28.4247,10 27.977,10.4477 27.977,11 C27.977,11.5523 28.4247,12 28.977,12 Z" id="Path"></path>
                        <path d="M16.977,12 C17.5293,12 17.977,11.5523 17.977,11 C17.977,10.4477 17.5293,10 16.977,10 C16.4247,10 15.977,10.4477 15.977,11 C15.977,11.5523 16.4247,12 16.977,12 Z" id="Path"></path>
                        <path d="M19.977,9 C20.5293,9 20.977,8.55229 20.977,8 C20.977,7.44772 20.5293,7 19.977,7 C19.4247,7 18.977,7.44772 18.977,8 C18.977,8.55229 19.4247,9 19.977,9 Z" id="Path"></path>
                        <path d="M19.977,15 C20.5293,15 20.977,14.5523 20.977,14 C20.977,13.4477 20.5293,13 19.977,13 C19.4247,13 18.977,13.4477 18.977,14 C18.977,14.5523 19.4247,15 19.977,15 Z" id="Path"></path>
                        <path d="M10.977,12 C11.5293,12 11.977,11.5523 11.977,11 C11.977,10.4477 11.5293,10 10.977,10 C10.4247,10 9.977,10.4477 9.977,11 C9.977,11.5523 10.4247,12 10.977,12 Z" id="Path"></path>
                        <path d="M13.977,15 C14.5293,15 14.977,14.5523 14.977,14 C14.977,13.4477 14.5293,13 13.977,13 C13.4247,13 12.977,13.4477 12.977,14 C12.977,14.5523 13.4247,15 13.977,15 Z" id="Path"></path>
                        <path d="M31.977,9 C32.5293,9 32.977,8.55229 32.977,8 C32.977,7.44772 32.5293,7 31.977,7 C31.4247,7 30.977,7.44772 30.977,8 C30.977,8.55229 31.4247,9 31.977,9 Z" id="Path"></path>
                        <path d="M34.977,12 C35.5293,12 35.977,11.5523 35.977,11 C35.977,10.4477 35.5293,10 34.977,10 C34.4247,10 33.977,10.4477 33.977,11 C33.977,11.5523 34.4247,12 34.977,12 Z" id="Path"></path>
                        <path d="M40.977,12 C41.5293,12 41.977,11.5523 41.977,11 C41.977,10.4477 41.5293,10 40.977,10 C40.4247,10 39.977,10.4477 39.977,11 C39.977,11.5523 40.4247,12 40.977,12 Z" id="Path"></path>
                        <path d="M16.977,18 C17.5293,18 17.977,17.5523 17.977,17 C17.977,16.4477 17.5293,16 16.977,16 C16.4247,16 15.977,16.4477 15.977,17 C15.977,17.5523 16.4247,18 16.977,18 Z" id="Path"></path>
                        <path d="M10.977,18 C11.5293,18 11.977,17.5523 11.977,17 C11.977,16.4477 11.5293,16 10.977,16 C10.4247,16 9.977,16.4477 9.977,17 C9.977,17.5523 10.4247,18 10.977,18 Z" id="Path"></path>
                        <path d="M37.977,9 C38.5293,9 38.977,8.55229 38.977,8 C38.977,7.44772 38.5293,7 37.977,7 C37.4247,7 36.977,7.44772 36.977,8 C36.977,8.55229 37.4247,9 37.977,9 Z" id="Path"></path>
                        <path d="M43.977,9 C44.5293,9 44.977,8.55229 44.977,8 C44.977,7.44772 44.5293,7 43.977,7 C43.4247,7 42.977,7.44772 42.977,8 C42.977,8.55229 43.4247,9 43.977,9 Z" id="Path"></path>
                        <path d="M4.977,24 C5.52929,24 5.977,23.5523 5.977,23 C5.977,22.4477 5.52929,22 4.977,22 C4.42472,22 3.977,22.4477 3.977,23 C3.977,23.5523 4.42472,24 4.977,24 Z" id="Path"></path>
                        <path d="M10.977,24 C11.5293,24 11.977,23.5523 11.977,23 C11.977,22.4477 11.5293,22 10.977,22 C10.4247,22 9.977,22.4477 9.977,23 C9.977,23.5523 10.4247,24 10.977,24 Z" id="Path"></path>
                        <path d="M7.977,21 C8.52928,21 8.977,20.5523 8.977,20 C8.977,19.4477 8.52928,19 7.977,19 C7.42471,19 6.977,19.4477 6.977,20 C6.977,20.5523 7.42471,21 7.977,21 Z" id="Path"></path>
                        <path d="M13.977,21 C14.5293,21 14.977,20.5523 14.977,20 C14.977,19.4477 14.5293,19 13.977,19 C13.4247,19 12.977,19.4477 12.977,20 C12.977,20.5523 13.4247,21 13.977,21 Z" id="Path"></path>
                    </g>
                </g>
            </g>
        </g>
    </g>
</svg>