<?xml version="1.0" encoding="UTF-8"?>
<svg width="82px" height="82px" viewBox="0 0 82 82" version="1.1" xmlns="http://www.w3.org/2000/svg" xmlns:xlink="http://www.w3.org/1999/xlink">
    <!-- Generator: Sketch 54.1 (76490) - https://sketchapp.com -->
    <title>piggy-bank</title>
    <desc>Created with Sketch.</desc>
    <g id="InProgress" stroke="none" stroke-width="1" fill="none" fill-rule="evenodd">
        <g id="StreamexMain" transform="translate(-799.000000, -2708.000000)" fill="#3852CE" fill-rule="nonzero">
            <g id="05-Features" transform="translate(-214.000000, 2278.000000)">
                <g id="02" transform="translate(990.000000, 407.000000)">
                    <g id="piggy-bank" transform="translate(23.000000, 23.000000)">
                        <path d="M67.6665,43.3403 C67.0074,43.3403 66.4732,43.8746 66.4732,44.5337 C66.4732,45.3692 65.7935,46.0489 64.9579,46.0489 C64.1225,46.0489 63.4427,45.3692 63.4427,44.5337 C63.4427,43.8745 62.9084,43.3403 62.2494,43.3403 C61.5903,43.3403 61.056,43.8746 61.056,44.5337 C61.056,46.6852 62.8065,48.4355 64.9579,48.4355 C67.1093,48.4355 68.8598,46.685 68.8598,44.5337 C68.8598,43.8743 68.3255,43.3403 67.6665,43.3403 Z" id="Path"></path>
                        <path d="M78.868,43.5352 L75.5092,42.4592 C75.079,42.3213 74.74,41.978 74.6024,41.5406 C73.8945,39.2899 72.8262,37.177 71.4273,35.2602 C70.7897,34.3866 70.0807,33.5523 69.3062,32.7581 C69.8017,30.5843 70.0711,28.1241 70.0362,25.9987 C69.9862,22.9581 69.3786,21.1748 68.1787,20.5463 C67.5324,20.2074 65.5657,19.178 54.9206,24.0509 C54.6685,24.1662 54.4331,24.3082 54.2151,24.471 C53.4975,24.2781 52.764,24.0997 52.026,23.9396 C51.9371,23.9202 51.8455,23.9031 51.7559,23.8842 C52.6185,21.9998 53.1222,19.9531 53.2169,17.8403 C53.2463,17.1818 52.7366,16.6241 52.078,16.5948 C51.4212,16.5621 50.8618,17.075 50.8325,17.7335 C50.677,21.2075 49.2359,24.4761 46.7749,26.9372 C45.3045,28.4076 43.5828,29.4757 41.7479,30.1483 C38.5658,29.7018 35.3245,29.7018 32.1424,30.1483 C30.3073,29.4757 28.5858,28.4076 27.1154,26.9372 C24.4898,24.3116 23.0438,20.8207 23.0438,17.1075 C23.0438,13.3941 24.4898,9.90331 27.1154,7.27771 C29.741,4.65195 33.2321,3.2059 36.9452,3.2059 C40.6582,3.2059 44.1493,4.65195 46.7749,7.27771 C47.83,8.33282 48.7019,9.53688 49.3664,10.8561 C49.6629,11.4448 50.3805,11.6818 50.9691,11.3852 C51.5578,11.089 51.7947,10.3713 51.4982,9.78272 C50.7194,8.23577 49.6981,6.82527 48.4628,5.58983 C45.3864,2.51338 41.296,0.819092 36.9453,0.819092 C32.5947,0.819092 28.5043,2.51338 25.4278,5.58983 C22.3514,8.66643 20.6571,12.7567 20.6571,17.1073 C20.6571,21.4579 22.3514,25.5483 25.4278,28.6248 C26.3153,29.5122 27.2807,30.2754 28.3019,30.9147 C28.3022,30.9147 28.3025,30.9145 28.3028,30.9145 C27.5608,31.1074 26.8244,31.3239 26.0962,31.5673 C25.4711,31.7763 25.1338,32.4524 25.3428,33.0776 C25.5516,33.7027 26.228,34.04 26.8529,33.8311 C33.361,31.6554 40.5296,31.6554 47.0377,33.8311 C47.1633,33.8731 47.2908,33.893 47.4162,33.893 C47.9154,33.893 48.3808,33.5771 48.5478,33.0776 C48.7568,32.4525 48.4196,31.7763 47.7945,31.5673 C47.0662,31.3239 46.3298,31.1072 45.5878,30.9145 C45.5882,30.9145 45.5885,30.9147 45.5888,30.9147 C46.6101,30.2754 47.5754,29.5122 48.4628,28.6248 C49.2479,27.8397 49.9409,26.9824 50.5426,26.0712 C50.8716,26.1351 51.1981,26.2021 51.5199,26.2719 C51.9484,26.365 52.3751,26.4649 52.7979,26.5698 C52.7846,26.6217 52.771,26.6734 52.76,26.7261 C52.1779,29.488 52.2157,31.9307 52.8722,33.986 C53.4622,35.8334 54.5271,37.3301 56.0369,38.4347 C57.8164,39.7364 59.9647,40.2987 61.9108,40.2987 C63.3754,40.2987 64.7257,39.98 65.7174,39.4184 C66.8391,38.783 67.7789,37.4443 68.5229,35.4343 C68.8667,35.8357 69.1926,36.2468 69.4998,36.6677 C70.7453,38.374 71.6962,40.2545 72.3259,42.2568 C72.6957,43.4328 73.6137,44.3582 74.7814,44.7325 L78.1402,45.8084 C79.0216,46.0908 79.6137,46.902 79.6137,47.8274 L79.6137,53.3968 C79.6137,54.3222 79.0216,55.1334 78.1402,55.4157 L72.7287,57.1491 C71.8629,57.4266 71.1302,58.0216 70.6656,58.8246 C68.5395,62.4989 65.1969,65.5395 60.73,67.8619 C60.2139,68.1305 59.8565,68.6108 59.7489,69.18 L58.0156,78.3575 C57.9678,78.6103 57.7463,78.7937 57.4889,78.7937 L51.8535,78.7937 C51.5961,78.7937 51.3746,78.6102 51.3267,78.3575 L50.3667,73.2855 C50.1778,72.2875 49.2418,71.6246 48.2344,71.7773 C45.8069,72.1444 43.3056,72.3303 40.8003,72.3303 C38.9364,72.3303 37.0964,72.2264 35.3309,72.0212 C34.3548,71.9089 33.4454,72.5744 33.263,73.5382 L32.3508,78.3575 C32.3029,78.6103 32.0814,78.7937 31.824,78.7937 L26.1886,78.7937 C25.9312,78.7937 25.7097,78.6102 25.6612,78.3536 L23.9924,69.6856 C23.8849,69.1272 23.5342,68.6523 23.0295,68.3828 C15.415,64.3178 11.3903,57.5266 11.3903,48.7436 C11.3903,44.306 12.3612,40.382 14.2758,37.0802 C16.0626,33.999 18.6721,31.4514 22.0321,29.5079 C22.6025,29.1778 22.7974,28.4478 22.4675,27.8772 C22.1376,27.3067 21.4076,27.1121 20.837,27.4417 C14.322,31.2105 10.3925,37.0248 9.31068,44.4096 L9.31068,44.4095 C9.19585,44.3991 9.08086,44.3891 8.96635,44.3773 C8.98717,43.5805 8.84303,42.7765 8.52912,41.9962 C7.83677,40.2752 6.41458,39.033 4.90575,38.8317 C3.71675,38.6725 2.58524,39.1773 1.8,40.2148 C0.661445,41.7193 0.847066,42.9099 1.20309,43.6438 C1.80416,44.8822 3.34919,45.7583 5.91313,46.3091 C5.84266,46.4146 5.76514,46.5206 5.68026,46.6271 C4.16534,48.5271 2.38056,48.9472 1.22167,48.9867 C0.54325,49.0096 0,49.5543 0,50.2332 L0,50.239 C0,50.9086 0.528355,51.4547 1.19733,51.4853 C1.28301,51.4893 1.37254,51.4914 1.46575,51.4914 C2.93214,51.4914 5.28564,50.9506 7.54672,48.1153 C7.90371,47.6678 8.19455,47.1957 8.41813,46.7079 C8.64331,46.7333 8.85968,46.7551 9.06693,46.7743 C9.06693,46.7738 9.06693,46.7735 9.06709,46.773 C9.02641,47.4198 9.00382,48.0759 9.00382,48.7436 C9.00382,53.7129 10.1885,58.1437 12.5247,61.9133 C14.6788,65.3886 17.7629,68.2343 21.6944,70.3743 L23.3168,78.8011 C23.5777,80.1797 24.7855,81.1804 26.1886,81.1804 L31.824,81.1804 C33.2271,81.1804 34.4349,80.1797 34.6958,78.8011 L35.5206,74.4436 C37.2336,74.625 39.0072,74.7169 40.8001,74.7169 C43.2601,74.7169 45.7172,74.5456 48.1119,74.2073 L48.9814,78.8014 C49.2424,80.18 50.4502,81.1805 51.8531,81.1805 L57.4886,81.1805 C58.8917,81.1805 60.0994,80.1799 60.3605,78.8008 L62.0481,69.8655 C66.8156,67.3445 70.4092,64.0328 72.7311,60.0199 C72.8985,59.7306 73.1562,59.5184 73.4566,59.4222 L78.868,57.6888 C80.7413,57.0884 82,55.3637 82,53.3965 L82,47.827 C82,45.86 80.7413,44.1353 78.868,43.5352 Z M67.4703,29.3522 C67.011,33.2802 65.7789,36.6403 64.5409,37.3414 C63.1338,38.1385 59.885,38.2924 57.4458,36.5081 C55.0037,34.7218 54.1909,31.5094 55.095,27.2181 C55.095,27.218 55.095,27.218 55.095,27.218 C55.1858,26.787 55.4921,26.4141 55.9141,26.221 C61.8885,23.4862 65.333,22.5917 66.6127,22.5917 C66.8058,22.5917 66.9496,22.612 67.0454,22.6495 C67.4298,23.0592 67.934,25.388 67.4703,29.3522 Z M3.35063,42.6016 C3.22715,42.347 3.51863,41.8993 3.70345,41.6549 C3.99638,41.268 4.26624,41.1889 4.47012,41.1889 C4.5132,41.1889 4.5534,41.1924 4.59024,41.1974 C5.13893,41.2706 5.90768,41.8743 6.31496,42.8867 C6.41089,43.125 6.5355,43.5198 6.56464,44.0121 C4.91263,43.6699 3.62914,43.1764 3.35063,42.6016 Z" id="Shape"></path>
                        <path d="M38.1041,15.7397 L38.1041,11.4692 C39.5767,11.5745 40.1238,12.2476 40.6286,12.2476 C41.2598,12.2476 41.5543,11.4483 41.5543,11.0485 C41.5543,10.0176 39.5346,9.57588 38.1041,9.53376 L38.1041,8.96552 C38.1041,8.71312 37.7884,8.48169 37.4729,8.48169 C37.1151,8.48169 36.8627,8.71312 36.8627,8.96552 L36.8627,9.57556 C34.8641,9.786 32.8655,10.8379 32.8655,13.4887 C32.8655,16.1815 34.9693,16.9389 36.8627,17.612 L36.8627,22.5559 C34.7168,22.3876 34.1488,20.9149 33.4546,20.9149 C32.9286,20.9149 32.4869,21.6092 32.4869,22.1142 C32.4869,23.145 34.2541,24.5545 36.8627,24.5966 L36.8627,25.2488 C36.8627,25.5012 37.1153,25.7326 37.4729,25.7326 C37.7886,25.7326 38.1041,25.5012 38.1041,25.2488 L38.1041,24.5335 C40.3762,24.2178 41.9329,22.7873 41.9329,20.1997 C41.9329,17.3387 39.9343,16.4128 38.1041,15.7397 Z M36.9889,15.3401 C35.8739,14.9193 34.9693,14.4776 34.9693,13.2785 C34.9693,12.1845 35.8108,11.6585 36.9889,11.5114 L36.9889,15.3401 Z M37.9777,22.5138 L37.9777,18.0749 C39.0085,18.5166 39.8289,19.1057 39.8289,20.4309 C39.8289,21.6304 39.1137,22.3035 37.9777,22.5138 Z" id="Shape"></path>
                    </g>
                </g>
            </g>
        </g>
    </g>
</svg>