<?xml version="1.0" encoding="UTF-8"?>
<svg width="30px" height="30px" viewBox="0 0 30 30" version="1.1" xmlns="http://www.w3.org/2000/svg" xmlns:xlink="http://www.w3.org/1999/xlink">
    <!-- Generator: Sketch 54.1 (76490) - https://sketchapp.com -->
    <title>XRP</title>
    <desc>Created with Sketch.</desc>
    <g id="InProgress" stroke="none" stroke-width="1" fill="none" fill-rule="evenodd">
        <g id="StreamexMain" transform="translate(-986.000000, -748.000000)">
            <g id="02-Cards" transform="translate(270.000000, 723.000000)">
                <g id="Ripple" transform="translate(696.000000, 0.000000)">
                    <g id="XRP" transform="translate(20.000000, 25.000000)">
                        <circle id="Oval" fill="#0D98CF" cx="15" cy="15" r="15"></circle>
                        <path d="M16.5766919,7.46536126 C15.440173,8.13303693 14.7672216,9.33874504 14.7672216,10.6101829 C14.7672216,11.2778586 15.0353297,11.9507234 15.3709838,12.5510261 C15.6390919,13.0872423 15.7705514,14.0231126 14.8347676,14.4918694 C14.1670054,14.8914369 13.2934054,14.6250586 12.8938378,13.9556531 C12.4941838,13.4194369 12.025427,12.8832207 11.4216649,12.4835667 C10.2851459,11.815891 8.94443243,11.815891 7.80782703,12.4835667 C6.67122162,13.1512423 6,14.3599775 6,15.6317613 C6,16.903545 6.66776216,18.1088207 7.80756757,18.7783126 C8.94408649,19.4459883 10.2848,19.4459883 11.4214054,18.7783126 C12.0251676,18.442745 12.4938378,17.9099883 12.8261189,17.3062261 C13.094227,16.8374694 13.8311784,16.2337937 14.7670486,16.7700099 C15.4348108,17.1695775 15.6354595,18.0431775 15.3032649,18.7108531 C14.9676973,19.3145288 14.7670486,19.9840207 14.7670486,20.6516964 C14.7670486,21.924864 15.4348108,23.1287559 16.5765189,23.796518 C17.7130378,24.4641937 19.0537514,24.4641937 20.1903568,23.796518 C21.3269622,23.1288423 22,21.9231342 22,20.6516964 C22,19.3802586 21.3305081,18.1746369 20.1905297,17.505145 C19.5867676,17.1695775 18.9172757,17.0363883 18.1820541,17.0363883 C17.5782919,17.0363883 16.7773405,16.6368207 16.7773405,15.6317613 C16.7773405,14.8274369 17.3811027,14.2271342 18.1820541,14.2271342 C18.8498162,14.2271342 19.5867676,14.093945 20.1905297,13.7583775 C21.3270486,13.0907018 22,11.8849937 22,10.6136423 C22,9.34229099 21.3305081,8.13658288 20.1905297,7.46882072 C19.6543135,7.13325315 18.9864649,7.00006396 18.3829622,7.00006396 C17.7826595,6.9966045 17.1097081,7.13325315 16.5769514,7.46536126" id="Path" fill="#FFFFFF" fill-rule="nonzero"></path>
                    </g>
                </g>
            </g>
        </g>
    </g>
</svg>