<?xml version="1.0" encoding="UTF-8"?>
<svg width="60px" height="60px" viewBox="0 0 60 60" version="1.1" xmlns="http://www.w3.org/2000/svg" xmlns:xlink="http://www.w3.org/1999/xlink">
    <!-- Generator: Sketch 54.1 (76490) - https://sketchapp.com -->
    <title>Smile</title>
    <desc>Created with Sketch.</desc>
    <g id="InProgress" stroke="none" stroke-width="1" fill="none" fill-rule="evenodd">
        <g id="StreamexMain" transform="translate(-1200.000000, -2719.000000)" fill="#3852CE" fill-rule="nonzero">
            <g id="05-Features" transform="translate(-214.000000, 2278.000000)">
                <g id="03" transform="translate(1380.000000, 407.000000)">
                    <g id="Smile" transform="translate(34.000000, 34.000000)">
                        <path d="M42.6092,36.8544 C42.0718,36.3731 41.2461,36.4201 40.7674,36.9562 C38.0465,39.9966 34.1231,41.7392 30,41.7392 C25.8783,41.7392 21.9535,39.9966 19.2326,36.9562 C18.7513,36.4201 17.9283,36.3731 17.3909,36.8544 C16.8535,37.3344 16.8092,38.1588 17.2892,38.6962 C20.5044,42.2883 25.1374,44.3479 30,44.3479 C34.8639,44.3479 39.497,42.287 42.7109,38.6962 C43.1909,38.1588 43.1452,37.3344 42.6092,36.8544 Z" id="Path"></path>
                        <path d="M30,0 C13.4583,0 0,13.4583 0,30 C0,46.5417 13.4583,60 30,60 C46.5417,60 60,46.5417 60,30 C60,13.4583 46.5417,0 30,0 Z M30,57.3913 C14.8957,57.3913 2.6087,45.1044 2.6087,30 C2.6087,14.8957 14.8957,2.6087 30,2.6087 C45.1044,2.6087 57.3913,14.8957 57.3913,30 C57.3913,45.1044 45.1044,57.3913 30,57.3913 Z" id="Shape"></path>
                        <path d="M40.4348,20.8696 C36.8387,20.8696 33.913,23.7953 33.913,27.3914 C33.913,28.1114 34.4974,28.6957 35.2174,28.6957 C35.9374,28.6957 36.5217,28.1114 36.5217,27.3914 C36.5217,25.234 38.2774,23.4783 40.4348,23.4783 C42.5922,23.4783 44.3478,25.234 44.3478,27.3914 C44.3478,28.1114 44.9322,28.6957 45.6522,28.6957 C46.3722,28.6957 46.9565,28.1114 46.9565,27.3914 C46.9565,23.7953 44.0309,20.8696 40.4348,20.8696 Z" id="Path"></path>
                        <path d="M23.4783,27.3914 C23.4783,28.1114 24.0626,28.6957 24.7826,28.6957 C25.5026,28.6957 26.087,28.1114 26.087,27.3914 C26.087,23.7953 23.1613,20.8696 19.5653,20.8696 C15.9692,20.8696 13.0435,23.7953 13.0435,27.3914 C13.0435,28.1114 13.6279,28.6957 14.3479,28.6957 C15.0679,28.6957 15.6522,28.1114 15.6522,27.3914 C15.6522,25.234 17.4079,23.4783 19.5653,23.4783 C21.7226,23.4783 23.4783,25.234 23.4783,27.3914 Z" id="Path"></path>
                    </g>
                </g>
            </g>
        </g>
    </g>
</svg>