<?xml version="1.0" encoding="UTF-8"?>
<svg width="30px" height="30px" viewBox="0 0 30 30" version="1.1" xmlns="http://www.w3.org/2000/svg" xmlns:xlink="http://www.w3.org/1999/xlink">
    <!-- Generator: Sketch 54.1 (76490) - https://sketchapp.com -->
    <title>btc</title>
    <desc>Created with Sketch.</desc>
    <g id="InProgress" stroke="none" stroke-width="1" fill="none" fill-rule="evenodd">
        <g id="StreamexMain" transform="translate(-290.000000, -748.000000)">
            <g id="02-Cards" transform="translate(270.000000, 723.000000)">
                <g id="Streamex">
                    <g id="btc" transform="translate(20.000000, 25.000000)">
                        <circle id="Oval" fill="#4C68EF" cx="15" cy="15" r="15"></circle>
                        <path d="M14.982902,6 L15.0170964,6 C15.7395918,6.00283956 16.4612993,6.19149893 17.1086298,6.56596771 L20.8912875,8.75404402 C22.1961917,9.50850468 23,10.9036042 23,12.4131496 L23,12.7574649 C23,13.0166921 22.7198267,13.1786658 22.4955968,13.0492129 L15.394023,8.94143443 C14.9966121,8.71126334 14.4824344,8.86802182 14.2848316,9.29395639 C14.1097627,9.67110871 14.2823102,10.1211952 14.6420608,10.3294298 L22.6717626,14.974122 C22.8748841,15.091577 23,15.3086486 23,15.5434015 L23,16.793416 C23,17.0684261 22.9730547,17.3393309 22.9212064,17.6032897 C22.8633761,17.8981904 22.5260049,18.042642 22.266318,17.89235 L8.41899049,9.88297345 C8.21019898,9.76204756 8.17852605,9.47282811 8.35564359,9.30879909 C8.58161106,9.09977391 8.83216005,8.91380849 9.10476916,8.75609308 L12.8912121,6.56596771 C13.5387002,6.19149893 14.2604077,6.00283956 14.982902,6 Z M7.10888644,11.4578808 C7.14654758,11.2952768 7.28962838,11.1918771 7.44106088,11.1918771 C7.49778893,11.1918771 7.55546249,11.2062414 7.60935417,11.2374974 L21.476537,19.2583986 C21.7447357,19.4135855 21.7731014,19.7847373 21.5387735,19.9874426 C21.341178,20.1585736 21.1260819,20.3121815 20.8950717,20.4457399 L17.1048477,22.6382384 C16.4587779,23.0119167 15.7381735,23.2002557 15.017254,23.2032552 L14.9827445,23.2032552 C14.2618249,23.2002557 13.5412216,23.0119167 12.8951507,22.6382384 L9.10476916,20.4457399 C7.8022297,19.6923838 7,18.300128 7,16.793416 L7,16.4664677 C7,16.197457 7.29073139,16.0291676 7.52347417,16.1638306 L14.606133,20.2605576 C14.7301468,20.3325463 14.8658221,20.366489 14.9992901,20.366489 C15.3068825,20.366489 15.6047055,20.1860435 15.7325014,19.8684087 C15.8809391,19.4999404 15.7131192,19.0777961 15.3697566,18.8793533 L7.34998082,14.2405004 C7.13346858,14.1153089 7,13.8837139 7,13.6331739 L7,12.408417 C7,12.0844675 7.03750352,11.7660411 7.10888644,11.4578808 Z" id="Clip-5" fill="#FFFFFF" fill-rule="nonzero"></path>
                    </g>
                </g>
            </g>
        </g>
    </g>
</svg>