<?xml version="1.0" encoding="UTF-8"?>
<svg width="477px" height="540px" viewBox="0 0 477 540" version="1.1" xmlns="http://www.w3.org/2000/svg" xmlns:xlink="http://www.w3.org/1999/xlink">
    <!-- Generator: Sketch 54.1 (76490) - https://sketchapp.com -->
    <title>Illustration01</title>
    <desc>Created with Sketch.</desc>
    <defs>
        <linearGradient x1="72.2469221%" y1="-15.4917411%" x2="34.1857509%" y2="96.3821429%" id="linearGradient-1">
            <stop stop-color="#E4F2FF" offset="0%"></stop>
            <stop stop-color="#D7E6FD" stop-opacity="0.6923" offset="30.75%"></stop>
            <stop stop-color="#BDCEFA" stop-opacity="0" offset="99.93%"></stop>
        </linearGradient>
        <linearGradient x1="42.4501488%" y1="7.68081335%" x2="55.9326687%" y2="83.1763295%" id="linearGradient-2">
            <stop stop-color="#E4F2FF" offset="0%"></stop>
            <stop stop-color="#D7E6FD" stop-opacity="0.6923" offset="30.75%"></stop>
            <stop stop-color="#BDCEFA" stop-opacity="0" offset="99.93%"></stop>
        </linearGradient>
        <linearGradient x1="51.1678771%" y1="-31.5900629%" x2="49.7203354%" y2="71.4810063%" id="linearGradient-3">
            <stop stop-color="#E4F2FF" offset="0%"></stop>
            <stop stop-color="#D7E6FD" stop-opacity="0.6923" offset="30.75%"></stop>
            <stop stop-color="#BDCEFA" stop-opacity="0" offset="99.93%"></stop>
        </linearGradient>
        <linearGradient x1="59.0915771%" y1="-42.5275819%" x2="46.0309571%" y2="90.7313602%" id="linearGradient-4">
            <stop stop-color="#E4F2FF" offset="0%"></stop>
            <stop stop-color="#D7E6FD" stop-opacity="0.6923" offset="30.75%"></stop>
            <stop stop-color="#BDCEFA" stop-opacity="0" offset="99.93%"></stop>
        </linearGradient>
        <linearGradient x1="55.784668%" y1="8.19217447%" x2="43.2707454%" y2="98.6347659%" id="linearGradient-5">
            <stop stop-color="#E4F2FF" offset="0%"></stop>
            <stop stop-color="#E1EFFF" offset="5.554383%"></stop>
            <stop stop-color="#C7D7FB" offset="64.78%"></stop>
            <stop stop-color="#BDCEFA" offset="99.93%"></stop>
        </linearGradient>
        <linearGradient x1="65.9464769%" y1="-36.4019194%" x2="45.7837636%" y2="72.7894434%" id="linearGradient-6">
            <stop stop-color="#E4F2FF" offset="0%"></stop>
            <stop stop-color="#E1EFFF" offset="5.554383%"></stop>
            <stop stop-color="#C7D7FB" offset="64.78%"></stop>
            <stop stop-color="#BDCEFA" offset="99.93%"></stop>
        </linearGradient>
        <linearGradient x1="54.68%" y1="9366.36%" x2="54.68%" y2="-7642.59%" id="linearGradient-7">
            <stop stop-color="#DEEBFE" offset="0%"></stop>
            <stop stop-color="#C7D7FB" offset="60.04%"></stop>
            <stop stop-color="#BDCEFA" offset="99.93%"></stop>
        </linearGradient>
        <linearGradient x1="99.8682144%" y1="25.1964904%" x2="-105.161744%" y2="128.630795%" id="linearGradient-8">
            <stop stop-color="#E4F2FF" offset="0%"></stop>
            <stop stop-color="#E1EFFF" offset="5.554383%"></stop>
            <stop stop-color="#C7D7FB" offset="64.78%"></stop>
            <stop stop-color="#BDCEFA" offset="99.93%"></stop>
        </linearGradient>
        <linearGradient x1="192.473514%" y1="-56.0713642%" x2="20.3451816%" y2="72.101926%" id="linearGradient-9">
            <stop stop-color="#E4F2FF" offset="0%"></stop>
            <stop stop-color="#E1EFFF" offset="5.554383%"></stop>
            <stop stop-color="#C7D7FB" offset="64.78%"></stop>
            <stop stop-color="#BDCEFA" offset="99.93%"></stop>
        </linearGradient>
        <linearGradient x1="94.8863155%" y1="29.7037066%" x2="-97.4579152%" y2="118.517997%" id="linearGradient-10">
            <stop stop-color="#E4F2FF" offset="0%"></stop>
            <stop stop-color="#E1EFFF" offset="5.554383%"></stop>
            <stop stop-color="#C7D7FB" offset="64.78%"></stop>
            <stop stop-color="#BDCEFA" offset="99.93%"></stop>
        </linearGradient>
        <linearGradient x1="252.080545%" y1="-54.6973452%" x2="37.5678363%" y2="56.7601206%" id="linearGradient-11">
            <stop stop-color="#E4F2FF" offset="0%"></stop>
            <stop stop-color="#E1EFFF" offset="5.554383%"></stop>
            <stop stop-color="#C7D7FB" offset="64.78%"></stop>
            <stop stop-color="#BDCEFA" offset="99.93%"></stop>
        </linearGradient>
        <linearGradient x1="108.582111%" y1="23.0765949%" x2="-6.83802524%" y2="76.8446036%" id="linearGradient-12">
            <stop stop-color="#E4F2FF" offset="0%"></stop>
            <stop stop-color="#E1EFFF" offset="5.554383%"></stop>
            <stop stop-color="#C7D7FB" offset="64.78%"></stop>
            <stop stop-color="#BDCEFA" offset="99.93%"></stop>
        </linearGradient>
        <linearGradient x1="162.80738%" y1="60.0144247%" x2="94.7226049%" y2="53.9755446%" id="linearGradient-13">
            <stop stop-color="#E4F2FF" offset="0%"></stop>
            <stop stop-color="#E1EFFF" offset="5.554383%"></stop>
            <stop stop-color="#C7D7FB" offset="64.78%"></stop>
            <stop stop-color="#BDCEFA" offset="99.93%"></stop>
        </linearGradient>
        <linearGradient x1="96.2216019%" y1="4.7021609%" x2="-203.53568%" y2="298.662237%" id="linearGradient-14">
            <stop stop-color="#E4F2FF" offset="0%"></stop>
            <stop stop-color="#E1EFFF" offset="5.554383%"></stop>
            <stop stop-color="#C7D7FB" offset="64.78%"></stop>
            <stop stop-color="#BDCEFA" offset="99.93%"></stop>
        </linearGradient>
        <linearGradient x1="197.325024%" y1="81.7036791%" x2="19.6747851%" y2="43.4774628%" id="linearGradient-15">
            <stop stop-color="#E4F2FF" offset="0%"></stop>
            <stop stop-color="#E1EFFF" offset="5.554383%"></stop>
            <stop stop-color="#C7D7FB" offset="64.78%"></stop>
            <stop stop-color="#BDCEFA" offset="99.93%"></stop>
        </linearGradient>
        <linearGradient x1="136.48405%" y1="47.7534361%" x2="1.17939068%" y2="50.4451136%" id="linearGradient-16">
            <stop stop-color="#E4F2FF" offset="0%"></stop>
            <stop stop-color="#E1EFFF" offset="5.554383%"></stop>
            <stop stop-color="#C7D7FB" offset="64.78%"></stop>
            <stop stop-color="#BDCEFA" offset="99.93%"></stop>
        </linearGradient>
        <linearGradient x1="100.738533%" y1="65.2911163%" x2="11.5680758%" y2="33.5923106%" id="linearGradient-17">
            <stop stop-color="#E4F2FF" offset="0%"></stop>
            <stop stop-color="#E1EFFF" offset="5.554383%"></stop>
            <stop stop-color="#C7D7FB" offset="64.78%"></stop>
            <stop stop-color="#BDCEFA" offset="99.93%"></stop>
        </linearGradient>
        <linearGradient x1="7.77660853%" y1="145.280651%" x2="86.7828775%" y2="-33.0344189%" id="linearGradient-18">
            <stop stop-color="#0F123B" offset="0%"></stop>
            <stop stop-color="#141754" offset="7.442091%"></stop>
            <stop stop-color="#1B1F7A" offset="20.81%"></stop>
            <stop stop-color="#212599" offset="34.74%"></stop>
            <stop stop-color="#262AB2" offset="49.15%"></stop>
            <stop stop-color="#292DC3" offset="64.26%"></stop>
            <stop stop-color="#2B2FCE" offset="80.51%"></stop>
            <stop stop-color="#2C30D1" offset="99.93%"></stop>
        </linearGradient>
        <linearGradient x1="71.5571238%" y1="-6.26976378%" x2="18.7939166%" y2="80.2410415%" id="linearGradient-19">
            <stop stop-color="#E4F2FF" offset="0%"></stop>
            <stop stop-color="#E1EFFF" offset="5.554383%"></stop>
            <stop stop-color="#C7D7FB" offset="64.78%"></stop>
            <stop stop-color="#BDCEFA" offset="99.93%"></stop>
        </linearGradient>
        <linearGradient x1="115.372441%" y1="47.0662533%" x2="21.8072906%" y2="51.6313507%" id="linearGradient-20">
            <stop stop-color="#E4F2FF" offset="0%"></stop>
            <stop stop-color="#E1EFFF" offset="5.554383%"></stop>
            <stop stop-color="#C7D7FB" offset="64.78%"></stop>
            <stop stop-color="#BDCEFA" offset="99.93%"></stop>
        </linearGradient>
        <linearGradient x1="-0.123853211%" y1="49.9046512%" x2="99.7183189%" y2="49.9046512%" id="linearGradient-21">
            <stop stop-color="#FCFDFF" stop-opacity="0" offset="0%"></stop>
            <stop stop-color="#FCFAD7" stop-opacity="0.121" offset="12.09%"></stop>
            <stop stop-color="#FDF58C" stop-opacity="0.3663" offset="36.61%"></stop>
            <stop stop-color="#FEF150" stop-opacity="0.5857" offset="58.53%"></stop>
            <stop stop-color="#FFEE24" stop-opacity="0.771" offset="77.04%"></stop>
            <stop stop-color="#FFED0A" stop-opacity="0.9149" offset="91.43%"></stop>
            <stop stop-color="#FFEC00" offset="99.93%"></stop>
        </linearGradient>
        <linearGradient x1="-0.123853211%" y1="49.9046512%" x2="99.8582448%" y2="49.9046512%" id="linearGradient-22">
            <stop stop-color="#FCFDFF" stop-opacity="0" offset="0%"></stop>
            <stop stop-color="#FCFAD7" stop-opacity="0.121" offset="12.09%"></stop>
            <stop stop-color="#FDF58C" stop-opacity="0.3663" offset="36.61%"></stop>
            <stop stop-color="#FEF150" stop-opacity="0.5857" offset="58.53%"></stop>
            <stop stop-color="#FFEE24" stop-opacity="0.771" offset="77.04%"></stop>
            <stop stop-color="#FFED0A" stop-opacity="0.9149" offset="91.43%"></stop>
            <stop stop-color="#FFEC00" offset="99.93%"></stop>
        </linearGradient>
        <linearGradient x1="-0.123853211%" y1="50.0934884%" x2="100.068502%" y2="50.0934884%" id="linearGradient-23">
            <stop stop-color="#FCFDFF" stop-opacity="0" offset="0%"></stop>
            <stop stop-color="#FCFAD7" stop-opacity="0.121" offset="12.09%"></stop>
            <stop stop-color="#FDF58C" stop-opacity="0.3663" offset="36.61%"></stop>
            <stop stop-color="#FEF150" stop-opacity="0.5857" offset="58.53%"></stop>
            <stop stop-color="#FFEE24" stop-opacity="0.771" offset="77.04%"></stop>
            <stop stop-color="#FFED0A" stop-opacity="0.9149" offset="91.43%"></stop>
            <stop stop-color="#FFEC00" offset="99.93%"></stop>
        </linearGradient>
        <linearGradient x1="-249.510054%" y1="320.4%" x2="165.782748%" y2="-53.3341463%" id="linearGradient-24">
            <stop stop-color="#FCFDFF" stop-opacity="0" offset="0%"></stop>
            <stop stop-color="#FDB2C9" stop-opacity="0.277" offset="27.68%"></stop>
            <stop stop-color="#FE779D" stop-opacity="0.5272" offset="52.68%"></stop>
            <stop stop-color="#FE4B7E" stop-opacity="0.7386" offset="73.81%"></stop>
            <stop stop-color="#FF316A" stop-opacity="0.9029" offset="90.23%"></stop>
            <stop stop-color="#FF2763" offset="99.93%"></stop>
        </linearGradient>
        <linearGradient x1="-284.875669%" y1="350.77561%" x2="130.418798%" y2="-22.9585366%" id="linearGradient-25">
            <stop stop-color="#FCFDFF" stop-opacity="0" offset="0%"></stop>
            <stop stop-color="#FDB2C9" stop-opacity="0.277" offset="27.68%"></stop>
            <stop stop-color="#FE779D" stop-opacity="0.5272" offset="52.68%"></stop>
            <stop stop-color="#FE4B7E" stop-opacity="0.7386" offset="73.81%"></stop>
            <stop stop-color="#FF316A" stop-opacity="0.9029" offset="90.23%"></stop>
            <stop stop-color="#FF2763" offset="99.93%"></stop>
        </linearGradient>
        <linearGradient x1="-320.239619%" y1="383.587805%" x2="95.0531826%" y2="9.85365854%" id="linearGradient-26">
            <stop stop-color="#FCFDFF" stop-opacity="0" offset="0%"></stop>
            <stop stop-color="#FDB2C9" stop-opacity="0.277" offset="27.68%"></stop>
            <stop stop-color="#FE779D" stop-opacity="0.5272" offset="52.68%"></stop>
            <stop stop-color="#FE4B7E" stop-opacity="0.7386" offset="73.81%"></stop>
            <stop stop-color="#FF316A" stop-opacity="0.9029" offset="90.23%"></stop>
            <stop stop-color="#FF2763" offset="99.93%"></stop>
        </linearGradient>
        <linearGradient x1="-9.52907801%" y1="77.5688748%" x2="167.297163%" y2="-4.90040239%" id="linearGradient-27">
            <stop stop-color="#FCFDFF" stop-opacity="0" offset="0%"></stop>
            <stop stop-color="#FDB2C9" stop-opacity="0.277" offset="27.68%"></stop>
            <stop stop-color="#FE779D" stop-opacity="0.5272" offset="52.68%"></stop>
            <stop stop-color="#FE4B7E" stop-opacity="0.7386" offset="73.81%"></stop>
            <stop stop-color="#FF316A" stop-opacity="0.9029" offset="90.23%"></stop>
            <stop stop-color="#FF2763" offset="99.93%"></stop>
        </linearGradient>
        <linearGradient x1="-24.5865248%" y1="84.8098486%" x2="152.239716%" y2="2.3405714%" id="linearGradient-28">
            <stop stop-color="#FCFDFF" stop-opacity="0" offset="0%"></stop>
            <stop stop-color="#FDB2C9" stop-opacity="0.277" offset="27.68%"></stop>
            <stop stop-color="#FE779D" stop-opacity="0.5272" offset="52.68%"></stop>
            <stop stop-color="#FE4B7E" stop-opacity="0.7386" offset="73.81%"></stop>
            <stop stop-color="#FF316A" stop-opacity="0.9029" offset="90.23%"></stop>
            <stop stop-color="#FF2763" offset="99.93%"></stop>
        </linearGradient>
        <linearGradient x1="-39.6446809%" y1="92.0508224%" x2="137.18156%" y2="9.58154519%" id="linearGradient-29">
            <stop stop-color="#FCFDFF" stop-opacity="0" offset="0%"></stop>
            <stop stop-color="#FDB2C9" stop-opacity="0.277" offset="27.68%"></stop>
            <stop stop-color="#FE779D" stop-opacity="0.5272" offset="52.68%"></stop>
            <stop stop-color="#FE4B7E" stop-opacity="0.7386" offset="73.81%"></stop>
            <stop stop-color="#FF316A" stop-opacity="0.9029" offset="90.23%"></stop>
            <stop stop-color="#FF2763" offset="99.93%"></stop>
        </linearGradient>
        <linearGradient x1="364.650387%" y1="-274.268293%" x2="-88.3167757%" y2="192.060976%" id="linearGradient-30">
            <stop stop-color="#FCFDFF" stop-opacity="0" offset="0%"></stop>
            <stop stop-color="#FCFAD7" stop-opacity="0.121" offset="12.09%"></stop>
            <stop stop-color="#FDF58C" stop-opacity="0.3663" offset="36.61%"></stop>
            <stop stop-color="#FEF150" stop-opacity="0.5857" offset="58.53%"></stop>
            <stop stop-color="#FFEE24" stop-opacity="0.771" offset="77.04%"></stop>
            <stop stop-color="#FFED0A" stop-opacity="0.9149" offset="91.43%"></stop>
            <stop stop-color="#FFEC00" offset="99.93%"></stop>
        </linearGradient>
        <linearGradient x1="400.156752%" y1="-311.812195%" x2="-52.8088043%" y2="154.517073%" id="linearGradient-31">
            <stop stop-color="#FCFDFF" stop-opacity="0" offset="0%"></stop>
            <stop stop-color="#FCFAD7" stop-opacity="0.121" offset="12.09%"></stop>
            <stop stop-color="#FDF58C" stop-opacity="0.3663" offset="36.61%"></stop>
            <stop stop-color="#FEF150" stop-opacity="0.5857" offset="58.53%"></stop>
            <stop stop-color="#FFEE24" stop-opacity="0.771" offset="77.04%"></stop>
            <stop stop-color="#FFED0A" stop-opacity="0.9149" offset="91.43%"></stop>
            <stop stop-color="#FFEC00" offset="99.93%"></stop>
        </linearGradient>
        <linearGradient x1="435.664723%" y1="-346.917073%" x2="-17.3008328%" y2="119.414634%" id="linearGradient-32">
            <stop stop-color="#FCFDFF" stop-opacity="0" offset="0%"></stop>
            <stop stop-color="#FCFAD7" stop-opacity="0.121" offset="12.09%"></stop>
            <stop stop-color="#FDF58C" stop-opacity="0.3663" offset="36.61%"></stop>
            <stop stop-color="#FEF150" stop-opacity="0.5857" offset="58.53%"></stop>
            <stop stop-color="#FFEE24" stop-opacity="0.771" offset="77.04%"></stop>
            <stop stop-color="#FFED0A" stop-opacity="0.9149" offset="91.43%"></stop>
            <stop stop-color="#FFEC00" offset="99.93%"></stop>
        </linearGradient>
        <linearGradient x1="122.509155%" y1="12.7389109%" x2="-76.0915493%" y2="114.196285%" id="linearGradient-33">
            <stop stop-color="#FCFDFF" stop-opacity="0" offset="0%"></stop>
            <stop stop-color="#FCFAD7" stop-opacity="0.121" offset="12.09%"></stop>
            <stop stop-color="#FDF58C" stop-opacity="0.3663" offset="36.61%"></stop>
            <stop stop-color="#FEF150" stop-opacity="0.5857" offset="58.53%"></stop>
            <stop stop-color="#FFEE24" stop-opacity="0.771" offset="77.04%"></stop>
            <stop stop-color="#FFED0A" stop-opacity="0.9149" offset="91.43%"></stop>
            <stop stop-color="#FFEC00" offset="99.93%"></stop>
        </linearGradient>
        <linearGradient x1="138.077465%" y1="5.10181512%" x2="-60.5232394%" y2="106.55919%" id="linearGradient-34">
            <stop stop-color="#FCFDFF" stop-opacity="0" offset="0%"></stop>
            <stop stop-color="#FCFAD7" stop-opacity="0.121" offset="12.09%"></stop>
            <stop stop-color="#FDF58C" stop-opacity="0.3663" offset="36.61%"></stop>
            <stop stop-color="#FEF150" stop-opacity="0.5857" offset="58.53%"></stop>
            <stop stop-color="#FFEE24" stop-opacity="0.771" offset="77.04%"></stop>
            <stop stop-color="#FFED0A" stop-opacity="0.9149" offset="91.43%"></stop>
            <stop stop-color="#FFEC00" offset="99.93%"></stop>
        </linearGradient>
        <linearGradient x1="153.645775%" y1="-3.06646003%" x2="-44.9556338%" y2="98.3909145%" id="linearGradient-35">
            <stop stop-color="#FCFDFF" stop-opacity="0" offset="0%"></stop>
            <stop stop-color="#FCFAD7" stop-opacity="0.121" offset="12.09%"></stop>
            <stop stop-color="#FDF58C" stop-opacity="0.3663" offset="36.61%"></stop>
            <stop stop-color="#FEF150" stop-opacity="0.5857" offset="58.53%"></stop>
            <stop stop-color="#FFEE24" stop-opacity="0.771" offset="77.04%"></stop>
            <stop stop-color="#FFED0A" stop-opacity="0.9149" offset="91.43%"></stop>
            <stop stop-color="#FFEC00" offset="99.93%"></stop>
        </linearGradient>
        <linearGradient x1="73.4311222%" y1="-12.467315%" x2="29.3983833%" y2="104.933751%" id="linearGradient-36">
            <stop stop-color="#E4F2FF" offset="0%"></stop>
            <stop stop-color="#D7E6FD" stop-opacity="0.6923" offset="30.75%"></stop>
            <stop stop-color="#BDCEFA" stop-opacity="0" offset="99.93%"></stop>
        </linearGradient>
        <linearGradient x1="123.089764%" y1="-31.7343652%" x2="38.2730709%" y2="63.1639115%" id="linearGradient-37">
            <stop stop-color="#E4F2FF" offset="0%"></stop>
            <stop stop-color="#E1EFFF" offset="5.554383%"></stop>
            <stop stop-color="#C7D7FB" offset="64.78%"></stop>
            <stop stop-color="#BDCEFA" offset="99.93%"></stop>
        </linearGradient>
        <linearGradient x1="98.4575711%" y1="-57.7873179%" x2="16.3385663%" y2="124.500107%" id="linearGradient-38">
            <stop stop-color="#E4F2FF" offset="0%"></stop>
            <stop stop-color="#E1EFFF" offset="5.554383%"></stop>
            <stop stop-color="#C7D7FB" offset="64.78%"></stop>
            <stop stop-color="#BDCEFA" offset="99.93%"></stop>
        </linearGradient>
        <linearGradient x1="76.5218631%" y1="-23.2517019%" x2="30.0499959%" y2="105.3192%" id="linearGradient-39">
            <stop stop-color="#E4F2FF" offset="0%"></stop>
            <stop stop-color="#D7E6FD" stop-opacity="0.6923" offset="30.75%"></stop>
            <stop stop-color="#BDCEFA" stop-opacity="0" offset="99.93%"></stop>
        </linearGradient>
        <linearGradient x1="125.116404%" y1="6.653987%" x2="-4.86104101%" y2="81.5967046%" id="linearGradient-40">
            <stop stop-color="#E4F2FF" offset="0%"></stop>
            <stop stop-color="#E1EFFF" offset="5.554383%"></stop>
            <stop stop-color="#C7D7FB" offset="64.78%"></stop>
            <stop stop-color="#BDCEFA" offset="99.93%"></stop>
        </linearGradient>
        <linearGradient x1="117.487066%" y1="11.1054892%" x2="-12.4903785%" y2="86.0482068%" id="linearGradient-41">
            <stop stop-color="#E4F2FF" offset="0%"></stop>
            <stop stop-color="#E1EFFF" offset="5.554383%"></stop>
            <stop stop-color="#C7D7FB" offset="64.78%"></stop>
            <stop stop-color="#BDCEFA" offset="99.93%"></stop>
        </linearGradient>
        <linearGradient x1="151.605596%" y1="-105.818305%" x2="-9.37038782%" y2="140.833559%" id="linearGradient-42">
            <stop stop-color="#E4F2FF" offset="0%"></stop>
            <stop stop-color="#E1EFFF" offset="5.554383%"></stop>
            <stop stop-color="#C7D7FB" offset="64.78%"></stop>
            <stop stop-color="#BDCEFA" offset="99.93%"></stop>
        </linearGradient>
        <linearGradient x1="115.319069%" y1="-50.0044068%" x2="-45.6569147%" y2="196.647119%" id="linearGradient-43">
            <stop stop-color="#E4F2FF" offset="0%"></stop>
            <stop stop-color="#E1EFFF" offset="5.554383%"></stop>
            <stop stop-color="#C7D7FB" offset="64.78%"></stop>
            <stop stop-color="#BDCEFA" offset="99.93%"></stop>
        </linearGradient>
        <linearGradient x1="78.9087507%" y1="5.78952703%" x2="-81.9223156%" y2="251.608446%" id="linearGradient-44">
            <stop stop-color="#E4F2FF" offset="0%"></stop>
            <stop stop-color="#E1EFFF" offset="5.554383%"></stop>
            <stop stop-color="#C7D7FB" offset="64.78%"></stop>
            <stop stop-color="#BDCEFA" offset="99.93%"></stop>
        </linearGradient>
        <linearGradient x1="62.1227543%" y1="-1.84017563%" x2="19.034127%" y2="182.707464%" id="linearGradient-45">
            <stop stop-color="#E4F2FF" offset="0%"></stop>
            <stop stop-color="#E1EFFF" offset="5.554383%"></stop>
            <stop stop-color="#C7D7FB" offset="64.78%"></stop>
            <stop stop-color="#BDCEFA" offset="99.93%"></stop>
        </linearGradient>
        <linearGradient x1="78.8040157%" y1="-37.0663388%" x2="40.0363891%" y2="79.9181421%" id="linearGradient-46">
            <stop stop-color="#E4F2FF" offset="0%"></stop>
            <stop stop-color="#E1EFFF" offset="5.554383%"></stop>
            <stop stop-color="#C7D7FB" offset="64.78%"></stop>
            <stop stop-color="#BDCEFA" offset="99.93%"></stop>
        </linearGradient>
        <linearGradient x1="48.65625%" y1="100%" x2="48.65625%" y2="0.0236641221%" id="linearGradient-47">
            <stop stop-color="#4C68EF" stop-opacity="0" offset="0%"></stop>
            <stop stop-color="#4C68EF" offset="100%"></stop>
        </linearGradient>
        <linearGradient x1="48.65625%" y1="100%" x2="48.65625%" y2="0.0236641221%" id="linearGradient-48">
            <stop stop-color="#4C68EF" stop-opacity="0" offset="0%"></stop>
            <stop stop-color="#4C68EF" offset="100%"></stop>
        </linearGradient>
        <linearGradient x1="48.65625%" y1="100%" x2="48.65625%" y2="0.0236641221%" id="linearGradient-49">
            <stop stop-color="#4C68EF" stop-opacity="0" offset="0%"></stop>
            <stop stop-color="#4C68EF" offset="100%"></stop>
        </linearGradient>
    </defs>
    <g id="InProgress" stroke="none" stroke-width="1" fill="none" fill-rule="evenodd">
        <g id="StreamexMain" transform="translate(-308.000000, -1235.000000)">
            <g id="03-Streamex" transform="translate(308.000000, 1235.000000)">
                <g id="Illustration01">
                    <g id="Group" opacity="0.15" transform="translate(64.000000, 219.000000)" fill="#BDCEFA" fill-rule="nonzero">
                        <path d="M372.8,180.1 L306.3,217.3 C303.4,219 298.2,218.8 294.8,216.8 L272.7,203.6 C269.3,201.6 268.9,198.6 271.9,196.9 L338.1,158.9 C341,157.2 346.2,157.4 349.6,159.4 L372,173.3 C375.4,175.4 375.8,178.4 372.8,180.1 Z" id="Path"></path>
                        <path d="M345.2,147.6 L278.7,184.8 C275.8,186.5 270.6,186.3 267.2,184.3 L245.1,171.1 C241.7,169.1 241.3,166.1 244.3,164.4 L310.5,126.4 C313.4,124.7 318.6,124.9 322,126.9 L344.4,140.8 C347.7,142.9 348.1,145.9 345.2,147.6 Z" id="Path"></path>
                        <path d="M361.1,92.6 L160.5,204.5 C151.6,209.6 136,209 125.7,203.1 L8.8,135.6 C-1.5,129.7 -2.6,120.6 6.3,115.5 L206.9,3.6 C215.8,-1.5 231.4,-0.9 241.7,5 L358.6,72.5 C368.8,78.5 370,87.5 361.1,92.6 Z" id="Path"></path>
                    </g>
                    <g id="Group" transform="translate(35.000000, 11.000000)" fill-rule="nonzero">
                        <g id="Path">
                            <path d="M3.1,150.3 C2,150.3 0.7,149.4 0.7,147.9 L0.7,97.8 C0.7,97 1.2,96.2 1.9,95.8 L62.2,61 C62.6,60.8 63,60.7 63.4,60.7 C64.5,60.7 65.8,61.6 65.8,63.1 L65.8,113.2 C65.8,114 65.3,114.8 64.6,115.2 L4.3,150 C3.9,150.2 3.5,150.3 3.1,150.3 Z" fill="url(#linearGradient-1)"></path>
                            <path d="M48.1,223.1 C45.7,223.1 43,221.2 43,218 L43,110.8 C43,109 44,107.3 45.5,106.4 L174.5,32 C175.3,31.5 176.1,31.3 177,31.3 C179.4,31.3 182.1,33.2 182.1,36.4 L182.1,143.7 C182.1,145.5 181.1,147.2 179.6,148.1 L50.6,222.4 C49.8,222.9 49,223.1 48.1,223.1 Z" fill="url(#linearGradient-2)"></path>
                            <path d="M149.7,79.8 C148.7,79.8 147.6,79 147.6,77.7 L147.6,33.3 C147.6,32.6 148,31.9 148.6,31.5 L202,0.6 C202.3,0.4 202.7,0.3 203,0.3 C204,0.3 205.1,1.1 205.1,2.4 L205.1,46.8 C205.1,47.5 204.7,48.2 204.1,48.6 L150.7,79.4 C150.4,79.7 150,79.8 149.7,79.8 Z" fill="url(#linearGradient-3)"></path>
                            <path d="M25.1,256.4 C24.1,256.4 23,255.6 23,254.3 L23,209.9 C23,209.2 23.4,208.5 24,208.1 L77.4,177.3 C77.7,177.1 78.1,177 78.4,177 C79.4,177 80.5,177.8 80.5,179.1 L80.5,223.5 C80.5,224.2 80.1,224.9 79.5,225.3 L26.1,256.1 C25.8,256.3 25.4,256.4 25.1,256.4 Z" fill="url(#linearGradient-4)"></path>
                        </g>
                        <g transform="translate(64.000000, 64.000000)" fill="#BDCEFA">
                            <g transform="translate(101.000000, 6.000000)">
                                <ellipse id="Oval" transform="translate(5.120210, 18.727380) rotate(-58.956654) translate(-5.120210, -18.727380) " cx="5.12021" cy="18.72738" rx="4.80012655" ry="2.80007382"></ellipse>
                                <path d="M20.5,9.8 C20.5,11.9 19,14.6 17.1,15.6 C15.2,16.7 13.7,15.8 13.7,13.7 C13.7,11.6 15.2,8.9 17.1,7.9 C19,6.8 20.5,7.7 20.5,9.8 Z" id="Path"></path>
                                <path d="M32.6,2.9 C32.6,5 31.1,7.7 29.2,8.7 C27.3,9.7 25.8,8.9 25.8,6.8 C25.8,4.7 27.3,2 29.2,1 C31,-0.1 32.6,0.7 32.6,2.9 Z" id="Path"></path>
                            </g>
                            <path d="M21.7,80.4 C19.2,83.2 17,84.9 14,86.6 C7,90.7 0.8,88.4 0.8,78.8 C0.8,68.8 7.1,56.6 16.6,51 C24,46.7 29.4,49.5 29.4,57.7 C29.4,64.8 25.9,71.3 21.4,74 C19.4,75.1 18,74.8 17.8,72.3 L17.7,72.3 C16.4,75.5 14.5,77.9 12.2,79.2 C9.4,80.8 7.5,79.6 7.5,75.6 C7.5,69.6 11.3,62 17.4,58.5 C19.3,57.4 21.4,56.7 22.4,56.8 L21.1,66.6 C20.7,69.7 21,70.9 22.2,70.2 C24,69.2 26.3,65.2 26.3,59.6 C26.3,53.2 22.7,50.4 16.2,54.2 C9.7,57.9 4.1,67.1 4.1,76.4 C4.1,84.6 8.6,86.6 14.9,82.9 C17.1,81.7 19.3,79.8 21,77.8 L21.7,80.4 Z M17.9,62.4 C17.6,62.5 17.1,62.6 16.6,63 C13.8,64.6 11.6,69.1 11.6,72.8 C11.6,74.7 12.3,75.4 13.7,74.6 C15.3,73.7 16.9,70.4 17.3,67.4 L17.9,62.4 Z" id="Shape"></path>
                            <g transform="translate(39.000000, 0.000000)" id="Path">
                                <path d="M1,18.8 L15.8,22.9 C16.3,23 17,22.6 17.4,22 L32.2,0.9 L1,18.8 Z"></path>
                                <path d="M11.5,23.2 L1.2,40.2 C1,40 0.9,39.7 0.9,39.3 L0.9,20.3 L11.5,23.2 Z"></path>
                                <path d="M20.8,18.7 L31.2,23.9 C30.9,24.2 30.6,24.5 30.2,24.7 L3.2,40.3 C2.9,40.5 2.6,40.6 2.3,40.6 L12.6,23.5 L16.7,24.6 L20.8,18.7 Z"></path>
                                <path d="M32.3,2.2 L32.3,21.2 C32.3,21.6 32.2,22 32,22.4 L21.8,17.2 L32.3,2.2 Z"></path>
                            </g>
                        </g>
                        <g transform="translate(36.000000, 17.000000)" fill="#BDCEFA">
                            <path d="M202.8,74.8 C202.7,74.8 202.6,74.7 202.6,74.6 L202.6,1.1 L102.5,59 C102.4,59.1 102.2,59 102.2,58.9 C102.1,58.8 102.2,58.6 102.3,58.6 L203.1,0.3 L203.1,74.7 C203.1,74.7 203,74.8 202.8,74.8 Z" id="Path"></path>
                            <g transform="translate(0.000000, 43.000000)">
                                <g transform="translate(62.000000, 0.000000)">
                                    <path d="M147.5,32.1 C147.2,32.1 147,31.9 147,31.6 L147,31.5 C147,31.2 147.2,31 147.5,31 C147.8,31 148,31.2 148,31.5 C148,31.9 147.8,32.1 147.5,32.1 Z" id="Path"></path>
                                    <path d="M147.5,28.3 C147.2,28.3 147,28.1 147,27.8 L147,27.7 C147,27.4 147.2,27.2 147.5,27.2 C147.8,27.2 148,27.4 148,27.7 C148,28 147.8,28.3 147.5,28.3 Z M147.5,24.4 C147.2,24.4 147,24.2 147,23.9 L147,23.8 C147,23.5 147.2,23.3 147.5,23.3 C147.8,23.3 148,23.5 148,23.8 C148,24.1 147.8,24.4 147.5,24.4 Z M147.5,20.5 C147.2,20.5 147,20.3 147,20 L147,20 C147,19.7 147.2,19.5 147.5,19.5 C147.8,19.5 148,19.7 148,20 C148,20.2 147.8,20.5 147.5,20.5 Z M147.5,16.6 C147.2,16.6 147,16.4 147,16.1 L147,16 C147,15.7 147.2,15.5 147.5,15.5 C147.8,15.5 148,15.7 148,16 C148,16.4 147.8,16.6 147.5,16.6 Z M147.5,12.8 C147.2,12.8 147,12.6 147,12.3 L147,12.2 C147,11.9 147.2,11.7 147.5,11.7 C147.8,11.7 148,11.9 148,12.2 C148,12.5 147.8,12.8 147.5,12.8 Z M147.5,8.9 C147.2,8.9 147,8.7 147,8.4 L147,8.3 C147,8 147.2,7.8 147.5,7.8 C147.8,7.8 148,8 148,8.3 C148,8.6 147.8,8.9 147.5,8.9 Z M147.5,5 C147.2,5 147,4.8 147,4.5 L147,4.4 C147,4.1 147.2,3.9 147.5,3.9 C147.8,3.9 148,4.1 148,4.4 C148,4.7 147.8,5 147.5,5 Z" id="Shape"></path>
                                    <path d="M147.5,1.2 C147.3,1.2 147.2,1.1 147.1,1 C147.1,1 147.1,1 147.1,0.9 C147,0.7 147,0.4 147.3,0.2 C147.5,0.1 147.7,0.1 147.8,0.2 C148,0.3 148.1,0.4 148.1,0.6 C148,0.9 147.8,1.2 147.5,1.2 Z" id="Path"></path>
                                    <path d="M4.4,81 C4.2,81 4.1,80.9 4,80.7 C3.9,80.5 4,80.2 4.2,80 L4.3,80 C4.5,79.9 4.8,80 5,80.2 C5.1,80.4 5,80.7 4.8,80.9 L4.7,80.9 C4.6,81 4.5,81 4.4,81 Z M8,79 C7.8,79 7.7,78.9 7.6,78.7 C7.5,78.5 7.6,78.2 7.8,78 L7.9,78 C8.1,77.9 8.4,78 8.6,78.2 C8.7,78.4 8.6,78.7 8.4,78.9 L8.3,78.9 C8.2,79 8.1,79 8,79 Z M11.6,77 C11.4,77 11.3,76.9 11.2,76.7 C11.1,76.5 11.2,76.2 11.4,76 C11.6,75.9 12,75.9 12.1,76.2 C12.2,76.4 12.2,76.7 12,76.9 L11.9,76.9 C11.8,77 11.7,77 11.6,77 Z M15.2,75 C15,75 14.9,74.9 14.8,74.7 C14.7,74.5 14.8,74.2 15,74 L15.1,74 C15.3,73.9 15.6,74 15.8,74.2 C15.9,74.4 15.8,74.7 15.6,74.9 L15.5,74.9 C15.3,75 15.3,75 15.2,75 Z M18.8,73 C18.6,73 18.5,72.9 18.4,72.7 C18.3,72.5 18.4,72.2 18.6,72 L18.7,72 C18.9,71.9 19.2,72 19.4,72.2 C19.5,72.4 19.4,72.7 19.2,72.9 L19.1,72.9 C18.9,73 18.8,73 18.8,73 Z M22.3,71 C22.1,71 22,70.9 21.9,70.7 C21.8,70.5 21.9,70.2 22.1,70 C22.3,69.9 22.7,69.9 22.8,70.2 C22.9,70.4 22.9,70.7 22.7,70.9 L22.6,70.9 C22.5,71 22.4,71 22.3,71 Z M25.9,69 C25.7,69 25.6,68.9 25.5,68.7 C25.4,68.5 25.5,68.2 25.7,68 C25.9,67.9 26.3,67.9 26.4,68.2 C26.5,68.4 26.5,68.7 26.3,68.9 L26.2,68.9 C26.1,69 26,69 25.9,69 Z M29.5,67 C29.3,67 29.2,66.9 29.1,66.7 C29,66.5 29.1,66.2 29.3,66 L29.4,66 C29.6,65.9 29.9,66 30.1,66.2 C30.2,66.4 30.1,66.7 29.9,66.9 L29.8,66.9 C29.6,67 29.6,67 29.5,67 Z M33.1,65 C32.9,65 32.8,64.9 32.7,64.7 C32.6,64.5 32.7,64.2 32.9,64 L33,64 C33.2,63.9 33.5,64 33.7,64.2 C33.8,64.4 33.7,64.7 33.5,64.9 L33.4,64.9 C33.2,65 33.1,65 33.1,65 Z M36.6,63 C36.4,63 36.3,62.9 36.2,62.7 C36.1,62.5 36.2,62.2 36.4,62 C36.6,61.9 37,61.9 37.1,62.2 C37.2,62.4 37.2,62.7 36.9,62.9 L36.8,62.9 C36.8,63 36.7,63 36.6,63 Z M40.2,61 C40,61 39.9,60.9 39.8,60.7 C39.7,60.5 39.8,60.2 40,60 C40.2,59.9 40.6,59.9 40.7,60.2 C40.8,60.4 40.8,60.7 40.5,60.9 L40.4,60.9 C40.4,61 40.3,61 40.2,61 Z M43.8,59 C43.6,59 43.5,58.9 43.4,58.7 C43.3,58.5 43.4,58.2 43.6,58 C43.8,57.9 44.2,57.9 44.3,58.2 C44.4,58.4 44.4,58.7 44.1,58.9 L44,58.9 C43.9,59 43.9,59 43.8,59 Z M47.4,57 C47.2,57 47.1,56.9 47,56.7 C46.9,56.5 47,56.2 47.2,56 C47.4,55.9 47.8,55.9 47.9,56.2 C48,56.4 48,56.7 47.7,56.9 L47.6,56.9 C47.5,57 47.4,57 47.4,57 Z M50.9,55.1 C50.7,55.1 50.6,55 50.5,54.8 C50.4,54.6 50.5,54.3 50.7,54.1 C50.9,54 51.3,54 51.4,54.3 C51.5,54.5 51.5,54.8 51.2,55 L51.1,55 C51.1,55 51,55.1 50.9,55.1 Z M54.5,53.1 C54.3,53.1 54.2,53 54.1,52.8 C54,52.6 54.1,52.3 54.3,52.1 C54.5,52 54.9,52 55,52.3 C55.1,52.5 55.1,52.8 54.8,53 L54.7,53 C54.7,53 54.6,53.1 54.5,53.1 Z M58.1,51.1 C57.9,51.1 57.8,51 57.7,50.8 C57.6,50.6 57.7,50.3 57.9,50.1 L58,50.1 C58.2,50 58.5,50.1 58.7,50.3 C58.8,50.5 58.7,50.8 58.5,51 L58.4,51 C58.2,51 58.2,51.1 58.1,51.1 Z M61.7,49.1 C61.5,49.1 61.4,49 61.3,48.8 C61.2,48.6 61.3,48.3 61.5,48.1 C61.7,48 62.1,48 62.2,48.3 C62.3,48.5 62.3,48.8 62.1,49 L62,49 C61.8,49 61.7,49.1 61.7,49.1 Z M65.2,47.1 C65,47.1 64.9,47 64.8,46.8 C64.7,46.6 64.8,46.3 65,46.1 L65.1,46.1 C65.3,46 65.6,46.1 65.8,46.3 C65.9,46.5 65.8,46.8 65.6,47 L65.5,47 C65.4,47 65.3,47.1 65.2,47.1 Z M68.8,45.1 C68.6,45.1 68.5,45 68.4,44.8 C68.3,44.6 68.4,44.3 68.6,44.1 L68.7,44.1 C68.9,44 69.2,44.1 69.4,44.3 C69.5,44.5 69.4,44.8 69.2,45 L69.1,45 C69,45.1 68.9,45.1 68.8,45.1 Z M72.4,43.1 C72.2,43.1 72.1,43 72,42.8 C71.9,42.6 72,42.3 72.2,42.1 C72.4,42 72.8,42 72.9,42.3 C73,42.5 73,42.8 72.8,43 L72.7,43 C72.6,43.1 72.5,43.1 72.4,43.1 Z M76,41.1 C75.8,41.1 75.7,41 75.6,40.8 C75.5,40.6 75.6,40.3 75.8,40.1 C76,40 76.4,40 76.5,40.3 C76.6,40.5 76.6,40.8 76.4,41 L76.3,41 C76.1,41.1 76,41.1 76,41.1 Z M79.5,39.1 C79.3,39.1 79.2,39 79.1,38.8 C79,38.6 79.1,38.3 79.3,38.1 L79.4,38.1 C79.6,38 79.9,38.1 80.1,38.3 C80.2,38.5 80.1,38.8 79.9,39 L79.8,39 C79.7,39.1 79.6,39.1 79.5,39.1 Z M83.1,37.1 C82.9,37.1 82.8,37 82.7,36.8 C82.6,36.6 82.7,36.3 82.9,36.1 L83,36.1 C83.2,36 83.5,36.1 83.7,36.3 C83.8,36.5 83.7,36.8 83.5,37 L83.4,37 C83.3,37.1 83.2,37.1 83.1,37.1 Z M86.7,35.1 C86.5,35.1 86.4,35 86.3,34.8 C86.2,34.6 86.3,34.3 86.5,34.1 C86.7,34 87.1,34 87.2,34.3 C87.3,34.5 87.3,34.8 87.1,35 L87,35 C86.9,35.1 86.8,35.1 86.7,35.1 Z M90.3,33.1 C90.1,33.1 90,33 89.9,32.8 C89.8,32.6 89.9,32.3 90.1,32.1 C90.3,32 90.7,32 90.8,32.3 C90.9,32.5 90.9,32.8 90.7,33 L90.6,33 C90.4,33.1 90.3,33.1 90.3,33.1 Z M93.8,31.1 C93.6,31.1 93.5,31 93.4,30.8 C93.3,30.6 93.4,30.3 93.6,30.1 L93.7,30.1 C93.9,30 94.2,30.1 94.4,30.3 C94.5,30.5 94.4,30.8 94.2,31 L94.1,31 C94,31.1 93.9,31.1 93.8,31.1 Z M97.4,29.1 C97.2,29.1 97.1,29 97,28.8 C96.9,28.6 97,28.3 97.2,28.1 L97.3,28.1 C97.5,28 97.8,28.1 98,28.3 C98.1,28.5 98,28.8 97.8,29 L97.7,29 C97.6,29.1 97.5,29.1 97.4,29.1 Z M101,27.1 C100.8,27.1 100.7,27 100.6,26.8 C100.5,26.6 100.6,26.3 100.8,26.1 C101,26 101.4,26 101.5,26.3 C101.6,26.5 101.6,26.8 101.4,27 L101.3,27 C101.2,27.1 101.1,27.1 101,27.1 Z M104.6,25.1 C104.4,25.1 104.3,25 104.2,24.8 C104.1,24.6 104.2,24.3 104.4,24.1 C104.6,24 105,24 105.1,24.3 C105.2,24.5 105.2,24.8 105,25 L104.9,25 C104.7,25.1 104.6,25.1 104.6,25.1 Z M108.1,23.1 C107.9,23.1 107.8,23 107.7,22.8 C107.6,22.6 107.7,22.3 107.9,22.1 C108.1,22 108.5,22 108.6,22.3 C108.7,22.5 108.7,22.8 108.4,23 L108.3,23 C108.3,23.1 108.2,23.1 108.1,23.1 Z M111.7,21.1 C111.5,21.1 111.4,21 111.3,20.8 C111.2,20.6 111.3,20.3 111.5,20.1 L111.6,20.1 C111.8,20 112.1,20.1 112.3,20.3 C112.4,20.5 112.3,20.8 112.1,21 L112,21 C111.9,21.1 111.8,21.1 111.7,21.1 Z M115.3,19.1 C115.1,19.1 115,19 114.9,18.8 C114.8,18.6 114.9,18.3 115.1,18.1 C115.3,18 115.7,18 115.8,18.3 C115.9,18.5 115.9,18.8 115.6,19 L115.5,19 C115.5,19.1 115.4,19.1 115.3,19.1 Z M118.9,17.1 C118.7,17.1 118.6,17 118.5,16.8 C118.4,16.6 118.5,16.3 118.7,16.1 C118.9,16 119.3,16 119.4,16.3 C119.5,16.5 119.5,16.8 119.2,17 L119.1,17 C119,17.1 118.9,17.1 118.9,17.1 Z M122.4,15.1 C122.2,15.1 122.1,15 122,14.8 C121.9,14.6 122,14.3 122.2,14.1 C122.4,14 122.8,14 122.9,14.3 C123,14.5 123,14.8 122.7,15 L122.6,15 C122.6,15.1 122.5,15.1 122.4,15.1 Z M126,13.1 C125.8,13.1 125.7,13 125.6,12.8 C125.5,12.6 125.6,12.3 125.8,12.1 C126,12 126.4,12 126.5,12.3 C126.6,12.5 126.6,12.8 126.3,13 L126.2,13 C126.2,13.1 126.1,13.1 126,13.1 Z M129.6,11.1 C129.4,11.1 129.3,11 129.2,10.8 C129.1,10.6 129.2,10.3 129.4,10.1 L129.5,10.1 C129.7,10 130,10.1 130.2,10.3 C130.3,10.5 130.2,10.8 130,11 L129.9,11 C129.8,11.1 129.7,11.1 129.6,11.1 Z M133.2,9.1 C133,9.1 132.9,9 132.8,8.8 C132.7,8.6 132.8,8.3 133,8.1 C133.2,8 133.6,8 133.7,8.3 C133.8,8.5 133.8,8.8 133.6,9 L133.5,9 C133.3,9.1 133.3,9.1 133.2,9.1 Z M136.7,7.1 C136.5,7.1 136.4,7 136.3,6.8 C136.2,6.6 136.3,6.3 136.5,6.1 C136.7,6 137.1,6 137.2,6.3 C137.3,6.5 137.3,6.8 137.1,7 L137,7 C136.9,7.1 136.8,7.1 136.7,7.1 Z M140.3,5.2 C140.1,5.2 140,5.1 139.9,4.9 C139.8,4.7 139.9,4.4 140.1,4.2 L140.2,4.2 C140.4,4.1 140.7,4.2 140.9,4.4 C141,4.6 140.9,4.9 140.7,5.1 L140.6,5.1 C140.5,5.1 140.4,5.2 140.3,5.2 Z M143.9,3.2 C143.7,3.2 143.6,3.1 143.5,2.9 C143.4,2.7 143.5,2.4 143.7,2.2 C143.9,2.1 144.3,2.1 144.4,2.4 C144.5,2.6 144.5,2.9 144.3,3.1 L144.2,3.1 C144.1,3.1 144,3.2 143.9,3.2 Z" id="Shape"></path>
                                    <path d="M0.9,83 C0.6,83 0.4,82.8 0.4,82.5 C0.4,82.3 0.5,82.1 0.7,82 C0.9,81.9 1.3,81.9 1.4,82.2 C1.5,82.4 1.5,82.7 1.3,82.8 C1.2,82.9 1.1,83 0.9,83 Z" id="Path"></path>
                                    <path d="M0.9,112.8 C0.6,112.8 0.4,112.6 0.4,112.3 L0.4,112.2 C0.4,111.9 0.6,111.7 0.9,111.7 C1.2,111.7 1.4,111.9 1.4,112.2 L1.4,112.3 C1.4,112.5 1.2,112.8 0.9,112.8 Z M0.9,108.5 C0.6,108.5 0.4,108.3 0.4,108 L0.4,107.9 C0.4,107.6 0.6,107.4 0.9,107.4 C1.2,107.4 1.4,107.6 1.4,107.9 L1.4,108 C1.4,108.3 1.2,108.5 0.9,108.5 Z M0.9,104.3 C0.6,104.3 0.4,104.1 0.4,103.8 L0.4,103.7 C0.4,103.4 0.6,103.2 0.9,103.2 C1.2,103.2 1.4,103.4 1.4,103.7 L1.4,103.8 C1.4,104 1.2,104.3 0.9,104.3 Z M0.9,100 C0.6,100 0.4,99.8 0.4,99.5 L0.4,99.4 C0.4,99.1 0.6,98.9 0.9,98.9 C1.2,98.9 1.4,99.1 1.4,99.4 L1.4,99.5 C1.4,99.8 1.2,100 0.9,100 Z M0.9,95.8 C0.6,95.8 0.4,95.6 0.4,95.3 L0.4,95.2 C0.4,94.9 0.6,94.7 0.9,94.7 C1.2,94.7 1.4,94.9 1.4,95.2 L1.4,95.3 C1.4,95.5 1.2,95.8 0.9,95.8 Z M0.9,91.5 C0.6,91.5 0.4,91.3 0.4,91 L0.4,90.9 C0.4,90.6 0.6,90.4 0.9,90.4 C1.2,90.4 1.4,90.6 1.4,90.9 L1.4,91 C1.4,91.3 1.2,91.5 0.9,91.5 Z M0.9,87.3 C0.6,87.3 0.4,87.1 0.4,86.8 L0.4,86.7 C0.4,86.4 0.6,86.2 0.9,86.2 C1.2,86.2 1.4,86.4 1.4,86.7 L1.4,86.8 C1.4,87 1.2,87.3 0.9,87.3 Z" id="Shape"></path>
                                    <path d="M0.9,117 C0.6,117 0.4,116.8 0.4,116.5 C0.4,116.2 0.6,116 0.9,116 C1.2,116 1.4,116.2 1.4,116.5 L1.4,116.5 C1.4,116.7 1.2,117 0.9,117 Z" id="Path"></path>
                                </g>
                                <path d="M0.3,136.7 C0.2,136.7 0.1,136.6 0.1,136.5 L0.1,96.5 L0.2,96.4 L23.7,84 C23.8,83.9 24,84 24,84.1 C24.1,84.2 24,84.4 23.9,84.4 L0.6,96.8 L0.6,136.5 C0.5,136.6 0.4,136.7 0.3,136.7 Z" id="Path"></path>
                                <path d="M17.2,201 C16.9,201 16.7,200.8 16.7,200.5 L16.7,200.4 C16.7,200.1 16.9,199.9 17.2,199.9 C17.5,199.9 17.7,200.1 17.7,200.4 C17.7,200.7 17.4,201 17.2,201 Z M17.2,196.9 C16.9,196.9 16.7,196.7 16.7,196.4 L16.7,196.3 C16.7,196 16.9,195.8 17.2,195.8 C17.5,195.8 17.7,196 17.7,196.3 L17.7,196.4 C17.7,196.7 17.4,196.9 17.2,196.9 Z M17.2,192.8 C16.9,192.8 16.7,192.6 16.7,192.3 L16.7,192.2 C16.7,191.9 16.9,191.7 17.2,191.7 C17.5,191.7 17.7,191.9 17.7,192.2 C17.7,192.5 17.4,192.8 17.2,192.8 Z M17.2,188.7 C16.9,188.7 16.7,188.5 16.7,188.2 L16.7,188.1 C16.7,187.8 16.9,187.6 17.2,187.6 C17.5,187.6 17.7,187.8 17.7,188.1 L17.7,188.2 C17.7,188.5 17.4,188.7 17.2,188.7 Z M17.2,184.6 C16.9,184.6 16.7,184.4 16.7,184.1 L16.7,184 C16.7,183.7 16.9,183.5 17.2,183.5 C17.5,183.5 17.7,183.7 17.7,184 C17.7,184.3 17.4,184.6 17.2,184.6 Z M17.2,180.5 C16.9,180.5 16.7,180.3 16.7,180 L16.7,179.9 C16.7,179.6 16.9,179.4 17.2,179.4 C17.5,179.4 17.7,179.6 17.7,179.9 C17.7,180.2 17.4,180.5 17.2,180.5 Z M17.2,176.4 C16.9,176.4 16.7,176.2 16.7,175.9 L16.7,175.8 C16.7,175.5 16.9,175.3 17.2,175.3 C17.5,175.3 17.7,175.5 17.7,175.8 L17.7,175.9 C17.7,176.2 17.4,176.4 17.2,176.4 Z M17.2,172.3 C16.9,172.3 16.7,172.1 16.7,171.8 L16.7,171.7 C16.7,171.4 16.9,171.2 17.2,171.2 C17.5,171.2 17.7,171.4 17.7,171.7 C17.7,172 17.4,172.3 17.2,172.3 Z M17.2,168.2 C16.9,168.2 16.7,168 16.7,167.7 L16.7,167.6 C16.7,167.3 16.9,167.1 17.2,167.1 C17.5,167.1 17.7,167.3 17.7,167.6 L17.7,167.7 C17.7,168 17.4,168.2 17.2,168.2 Z M17.2,164.1 C16.9,164.1 16.7,163.9 16.7,163.6 L16.7,163.5 C16.7,163.2 16.9,163 17.2,163 C17.5,163 17.7,163.2 17.7,163.5 C17.7,163.8 17.4,164.1 17.2,164.1 Z M17.2,160 C16.9,160 16.7,159.8 16.7,159.5 L16.7,159.4 C16.7,159.1 16.9,158.9 17.2,158.9 C17.5,158.9 17.7,159.1 17.7,159.4 L17.7,159.5 C17.7,159.8 17.4,160 17.2,160 Z M17.2,155.9 C16.9,155.9 16.7,155.7 16.7,155.4 L16.7,155.3 C16.7,155 16.9,154.8 17.2,154.8 C17.5,154.8 17.7,155 17.7,155.3 L17.7,155.4 C17.7,155.7 17.4,155.9 17.2,155.9 Z M17.2,151.8 C16.9,151.8 16.7,151.6 16.7,151.3 L16.7,151.2 C16.7,150.9 16.9,150.7 17.2,150.7 C17.5,150.7 17.7,150.9 17.7,151.2 C17.7,151.5 17.4,151.8 17.2,151.8 Z M17.2,147.7 C16.9,147.7 16.7,147.5 16.7,147.2 L16.7,147.1 C16.7,146.8 16.9,146.6 17.2,146.6 C17.5,146.6 17.7,146.8 17.7,147.1 L17.7,147.2 C17.7,147.5 17.4,147.7 17.2,147.7 Z M17.2,143.6 C16.9,143.6 16.7,143.4 16.7,143.1 L16.7,143 C16.7,142.7 16.9,142.5 17.2,142.5 C17.5,142.5 17.7,142.7 17.7,143 L17.7,143.1 C17.7,143.4 17.4,143.6 17.2,143.6 Z M17.2,139.5 C16.9,139.5 16.7,139.3 16.7,139 L16.7,138.9 C16.7,138.6 16.9,138.4 17.2,138.4 C17.5,138.4 17.7,138.6 17.7,138.9 L17.7,139 C17.7,139.3 17.4,139.5 17.2,139.5 Z M17.2,135.4 C16.9,135.4 16.7,135.2 16.7,134.9 L16.7,134.8 C16.7,134.5 16.9,134.3 17.2,134.3 C17.5,134.3 17.7,134.5 17.7,134.8 L17.7,134.9 C17.7,135.2 17.4,135.4 17.2,135.4 Z M17.2,131.3 C16.9,131.3 16.7,131.1 16.7,130.8 L16.7,130.7 C16.7,130.4 16.9,130.2 17.2,130.2 C17.5,130.2 17.7,130.4 17.7,130.7 C17.7,131 17.4,131.3 17.2,131.3 Z M17.2,127.2 C16.9,127.2 16.7,127 16.7,126.7 L16.7,126.6 C16.7,126.3 16.9,126.1 17.2,126.1 C17.5,126.1 17.7,126.3 17.7,126.6 L17.7,126.7 C17.7,127 17.4,127.2 17.2,127.2 Z M17.2,123.1 C16.9,123.1 16.7,122.9 16.7,122.6 L16.7,122.5 C16.7,122.2 16.9,122 17.2,122 C17.5,122 17.7,122.2 17.7,122.5 L17.7,122.6 C17.7,122.9 17.4,123.1 17.2,123.1 Z M17.2,119 C16.9,119 16.7,118.8 16.7,118.5 L16.7,118.4 C16.7,118.1 16.9,117.9 17.2,117.9 C17.5,117.9 17.7,118.1 17.7,118.4 L17.7,118.5 C17.7,118.8 17.4,119 17.2,119 Z M17.2,114.9 C16.9,114.9 16.7,114.7 16.7,114.4 L16.7,114.3 C16.7,114 16.9,113.8 17.2,113.8 C17.5,113.8 17.7,114 17.7,114.3 L17.7,114.4 C17.7,114.7 17.4,114.9 17.2,114.9 Z M17.2,110.8 C16.9,110.8 16.7,110.6 16.7,110.3 L16.7,110.2 C16.7,109.9 16.9,109.7 17.2,109.7 C17.5,109.7 17.7,109.9 17.7,110.2 C17.7,110.5 17.4,110.8 17.2,110.8 Z M17.2,106.7 C16.9,106.7 16.7,106.5 16.7,106.2 L16.7,106.1 C16.7,105.8 16.9,105.6 17.2,105.6 C17.5,105.6 17.7,105.8 17.7,106.1 L17.7,106.2 C17.7,106.5 17.4,106.7 17.2,106.7 Z M17.2,102.6 C16.9,102.6 16.7,102.4 16.7,102.1 L16.7,102 C16.7,101.7 16.9,101.5 17.2,101.5 C17.5,101.5 17.7,101.7 17.7,102 L17.7,102.1 C17.7,102.4 17.4,102.6 17.2,102.6 Z M17.2,98.5 C16.9,98.5 16.7,98.3 16.7,98 L16.7,97.9 C16.7,97.6 16.9,97.4 17.2,97.4 C17.5,97.4 17.7,97.6 17.7,97.9 L17.7,98 C17.7,98.3 17.4,98.5 17.2,98.5 Z M17.2,94.4 C16.9,94.4 16.7,94.2 16.7,93.9 L16.7,93.8 C16.7,93.5 16.9,93.3 17.2,93.3 C17.5,93.3 17.7,93.5 17.7,93.8 L17.7,93.9 C17.7,94.2 17.4,94.4 17.2,94.4 Z M17.2,90.3 C16.9,90.3 16.7,90.1 16.7,89.8 L16.7,89.7 C16.7,89.4 16.9,89.2 17.2,89.2 C17.5,89.2 17.7,89.4 17.7,89.7 C17.7,90 17.4,90.3 17.2,90.3 Z M17.2,86.2 C16.9,86.2 16.7,86 16.7,85.7 L16.7,85.6 C16.7,85.3 16.9,85.1 17.2,85.1 C17.5,85.1 17.7,85.3 17.7,85.6 L17.7,85.7 C17.7,86 17.4,86.2 17.2,86.2 Z M17.2,82.1 C16.9,82.1 16.7,81.9 16.7,81.6 L16.7,81.5 C16.7,81.2 16.9,81 17.2,81 C17.5,81 17.7,81.2 17.7,81.5 L17.7,81.6 C17.7,81.9 17.4,82.1 17.2,82.1 Z M17.2,78 C16.9,78 16.7,77.8 16.7,77.5 L16.7,77.4 C16.7,77.1 16.9,76.9 17.2,76.9 C17.5,76.9 17.7,77.1 17.7,77.4 L17.7,77.5 C17.7,77.8 17.4,78 17.2,78 Z M17.2,73.9 C16.9,73.9 16.7,73.7 16.7,73.4 L16.7,73.3 C16.7,73 16.9,72.8 17.2,72.8 C17.5,72.8 17.7,73 17.7,73.3 L17.7,73.4 C17.7,73.7 17.4,73.9 17.2,73.9 Z M17.2,69.8 C16.9,69.8 16.7,69.6 16.7,69.3 L16.7,69.2 C16.7,68.9 16.9,68.7 17.2,68.7 C17.5,68.7 17.7,68.9 17.7,69.2 C17.7,69.5 17.4,69.8 17.2,69.8 Z M17.2,65.7 C16.9,65.7 16.7,65.5 16.7,65.2 L16.7,65.1 C16.7,64.8 16.9,64.6 17.2,64.6 C17.5,64.6 17.7,64.8 17.7,65.1 L17.7,65.2 C17.7,65.5 17.4,65.7 17.2,65.7 Z M17.2,61.6 C16.9,61.6 16.7,61.4 16.7,61.1 L16.7,61 C16.7,60.7 16.9,60.5 17.2,60.5 C17.5,60.5 17.7,60.7 17.7,61 L17.7,61.1 C17.7,61.4 17.4,61.6 17.2,61.6 Z M17.2,57.5 C16.9,57.5 16.7,57.3 16.7,57 L16.7,56.9 C16.7,56.6 16.9,56.4 17.2,56.4 C17.5,56.4 17.7,56.6 17.7,56.9 L17.7,57 C17.7,57.3 17.4,57.5 17.2,57.5 Z M17.2,53.4 C16.9,53.4 16.7,53.2 16.7,52.9 L16.7,52.8 C16.7,52.5 16.9,52.3 17.2,52.3 C17.5,52.3 17.7,52.5 17.7,52.8 L17.7,52.9 C17.7,53.2 17.4,53.4 17.2,53.4 Z M19.1,50.5 C18.9,50.5 18.8,50.4 18.7,50.2 C18.6,50 18.6,49.7 18.9,49.5 L19,49.5 C19.2,49.4 19.5,49.4 19.7,49.7 C19.8,49.9 19.8,50.2 19.5,50.4 L19.4,50.4 C19.3,50.4 19.2,50.5 19.1,50.5 Z M22.7,48.4 C22.5,48.4 22.3,48.3 22.3,48.2 C22.2,48 22.2,47.7 22.4,47.5 L22.5,47.5 C22.7,47.4 23,47.4 23.2,47.7 C23.3,47.9 23.3,48.2 23,48.4 C22.9,48.4 22.8,48.4 22.7,48.4 Z M26.3,46.4 C26.1,46.4 25.9,46.3 25.9,46.2 C25.8,46 25.8,45.7 26,45.5 L26.1,45.5 C26.3,45.4 26.6,45.4 26.8,45.7 C26.9,45.9 26.9,46.2 26.6,46.4 C26.5,46.3 26.4,46.4 26.3,46.4 Z M29.8,44.4 C29.6,44.4 29.5,44.3 29.4,44.1 C29.3,43.9 29.3,43.6 29.6,43.4 L29.7,43.4 C29.9,43.3 30.2,43.3 30.4,43.6 C30.5,43.8 30.5,44.1 30.2,44.3 L30.1,44.3 C29.9,44.3 29.9,44.4 29.8,44.4 Z M33.4,42.3 C33.2,42.3 33,42.2 33,42.1 C32.9,41.9 32.9,41.6 33.1,41.4 L33.2,41.4 C33.4,41.3 33.7,41.3 33.9,41.6 C34,41.8 34,42.1 33.7,42.3 C33.6,42.3 33.5,42.3 33.4,42.3 Z M36.9,40.3 C36.7,40.3 36.5,40.2 36.5,40.1 C36.4,39.9 36.4,39.6 36.6,39.4 L36.7,39.4 C36.9,39.3 37.2,39.3 37.4,39.6 C37.5,39.8 37.5,40.1 37.2,40.3 C37.1,40.2 37,40.3 36.9,40.3 Z M40.5,38.3 C40.3,38.3 40.2,38.2 40.1,38 C40,37.8 40,37.5 40.3,37.3 L40.4,37.3 C40.6,37.2 40.9,37.2 41.1,37.5 C41.2,37.7 41.2,38 40.9,38.2 L40.8,38.2 C40.6,38.3 40.5,38.3 40.5,38.3 Z M44.1,36.2 C43.9,36.2 43.7,36.1 43.7,36 C43.6,35.8 43.6,35.5 43.8,35.3 L43.9,35.3 C44.1,35.2 44.4,35.2 44.6,35.5 C44.7,35.7 44.7,36 44.4,36.2 C44.3,36.2 44.2,36.2 44.1,36.2 Z M47.6,34.2 C47.4,34.2 47.2,34.1 47.2,34 C47.1,33.8 47.1,33.5 47.3,33.3 L47.4,33.3 C47.6,33.2 47.9,33.2 48.1,33.5 C48.2,33.7 48.2,34 47.9,34.2 C47.8,34.1 47.7,34.2 47.6,34.2 Z M51.1,32.2 C50.9,32.2 50.8,32.1 50.7,31.9 C50.6,31.7 50.6,31.4 50.9,31.2 L51,31.2 C51.2,31.1 51.5,31.1 51.7,31.4 C51.8,31.6 51.8,31.9 51.5,32.1 L51.4,32.1 C51.3,32.2 51.2,32.2 51.1,32.2 Z M54.8,30.1 C54.6,30.1 54.4,30 54.4,29.9 C54.3,29.7 54.3,29.4 54.5,29.2 L54.6,29.2 C54.8,29.1 55.1,29.1 55.3,29.4 C55.4,29.6 55.4,29.9 55.1,30.1 C54.9,30.1 54.8,30.1 54.8,30.1 Z M58.3,28.1 C58.1,28.1 57.9,28 57.9,27.9 C57.8,27.7 57.8,27.4 58,27.2 L58.1,27.2 C58.3,27.1 58.6,27.1 58.8,27.4 C58.9,27.6 58.9,27.9 58.6,28.1 C58.5,28 58.4,28.1 58.3,28.1 Z M61.8,26.1 C61.6,26.1 61.5,26 61.4,25.8 C61.3,25.6 61.3,25.3 61.6,25.1 L61.7,25.1 C61.9,25 62.2,25 62.4,25.3 C62.5,25.5 62.5,25.8 62.2,26 L62.1,26 C62,26.1 61.9,26.1 61.8,26.1 Z" id="Shape"></path>
                                <path d="M88.5,55.3 C88.3,55.3 88.1,55.2 88.1,55.1 C88,54.9 88,54.6 88.2,54.4 L88.3,54.4 C88.5,54.3 88.8,54.3 89,54.6 C89.1,54.8 89.1,55.1 88.8,55.3 C88.7,55.3 88.6,55.3 88.5,55.3 Z M86.8,54.1 C86.5,54.1 86.3,53.9 86.3,53.6 L86.3,53.5 C86.3,53.2 86.5,53 86.8,53 C87.1,53 87.3,53.2 87.3,53.5 L87.3,53.6 C87.3,53.9 87.1,54.1 86.8,54.1 Z M92,53.2 C91.8,53.2 91.6,53.1 91.6,53 C91.5,52.8 91.5,52.5 91.7,52.3 L91.8,52.3 C92,52.2 92.3,52.2 92.5,52.5 C92.6,52.7 92.6,53 92.3,53.2 C92.2,53.2 92.1,53.2 92,53.2 Z M95.6,51.2 C95.4,51.2 95.2,51.1 95.2,51 C95.1,50.8 95.1,50.5 95.3,50.3 L95.4,50.3 C95.6,50.2 95.9,50.2 96.1,50.5 C96.2,50.7 96.2,51 95.9,51.2 C95.8,51.2 95.7,51.2 95.6,51.2 Z M86.8,50 C86.5,50 86.3,49.8 86.3,49.5 L86.3,49.4 C86.3,49.1 86.5,48.9 86.8,48.9 C87.1,48.9 87.3,49.1 87.3,49.4 L87.3,49.5 C87.3,49.8 87.1,50 86.8,50 Z M99.1,49.1 C98.9,49.1 98.7,49 98.7,48.9 C98.6,48.7 98.6,48.4 98.8,48.2 L98.9,48.2 C99.1,48.1 99.4,48.1 99.6,48.4 C99.7,48.6 99.7,48.9 99.4,49.1 C99.3,49.1 99.2,49.1 99.1,49.1 Z M102.6,47.1 C102.4,47.1 102.3,47 102.2,46.9 C102.1,46.7 102.1,46.4 102.4,46.2 L102.5,46.1 C102.7,46 103,46 103.2,46.3 C103.3,46.5 103.3,46.8 103,47 L102.9,47.1 C102.8,47.1 102.7,47.1 102.6,47.1 Z M86.8,45.9 C86.5,45.9 86.3,45.7 86.3,45.4 C86.3,45.1 86.5,44.9 86.8,44.9 C87.1,44.9 87.3,45.1 87.3,45.4 L87.3,45.5 C87.3,45.7 87.1,45.9 86.8,45.9 Z M106.2,45 C106,45 105.8,44.9 105.8,44.8 C105.7,44.6 105.7,44.3 105.9,44.1 L106,44 C106.2,43.9 106.5,43.9 106.7,44.2 C106.8,44.4 106.8,44.7 106.5,44.9 C106.4,45 106.3,45 106.2,45 Z M109.8,43 C109.6,43 109.4,42.9 109.4,42.8 C109.3,42.6 109.3,42.3 109.5,42.1 L109.6,42 C109.8,41.9 110.1,41.9 110.3,42.2 C110.4,42.4 110.4,42.7 110.1,42.9 C110,42.9 109.9,43 109.8,43 Z M86.8,41.8 C86.5,41.8 86.3,41.6 86.3,41.3 L86.3,41.2 C86.3,40.9 86.5,40.7 86.8,40.7 C87.1,40.7 87.3,40.9 87.3,41.2 L87.3,41.3 C87.3,41.6 87.1,41.8 86.8,41.8 Z M113.3,41 C113.1,41 113,40.9 112.9,40.8 C112.8,40.6 112.8,40.3 113.1,40.1 L113.2,40 C113.4,39.9 113.7,39.9 113.9,40.2 C114,40.4 114,40.7 113.7,40.9 L113.6,41 C113.5,40.9 113.4,41 113.3,41 Z M116.9,38.9 C116.7,38.9 116.5,38.8 116.5,38.7 C116.4,38.5 116.4,38.2 116.6,38 L116.7,37.9 C116.9,37.8 117.2,37.8 117.4,38.1 C117.5,38.3 117.5,38.6 117.2,38.8 C117.1,38.8 117,38.9 116.9,38.9 Z M86.8,37.7 C86.5,37.7 86.3,37.5 86.3,37.2 L86.3,37.1 C86.3,36.8 86.5,36.6 86.8,36.6 C87.1,36.6 87.3,36.8 87.3,37.1 L87.3,37.2 C87.3,37.5 87.1,37.7 86.8,37.7 Z M120.4,36.8 C120.2,36.8 120,36.7 120,36.6 C119.9,36.4 119.9,36.1 120.1,35.9 L120.2,35.9 C120.4,35.8 120.7,35.8 120.9,36.1 C121,36.3 121,36.6 120.7,36.8 C120.6,36.8 120.5,36.8 120.4,36.8 Z M123.9,34.8 C123.7,34.8 123.6,34.7 123.5,34.5 C123.4,34.3 123.4,34 123.7,33.8 L123.8,33.8 C124,33.7 124.3,33.7 124.5,34 C124.6,34.2 124.6,34.5 124.3,34.7 L124.2,34.7 C124.1,34.8 124,34.8 123.9,34.8 Z M127.5,32.7 C127.3,32.7 127.1,32.6 127.1,32.5 C127,32.3 127,32 127.2,31.8 L127.3,31.8 C127.5,31.7 127.8,31.7 128,32 C128.1,32.2 128.1,32.5 127.8,32.7 C127.7,32.7 127.6,32.7 127.5,32.7 Z" id="Shape"></path>
                            </g>
                        </g>
                    </g>
                    <g id="Group" transform="translate(322.000000, 49.000000)" fill-rule="nonzero">
                        <g transform="translate(2.000000, 26.000000)" id="Path">
                            <path d="M84.7,28.2 L48.4,49.2 C45.8,50.7 41.1,50.5 38,48.8 L3.2,28.7 C0.1,26.9 -0.2,24.2 2.5,22.7 L38.8,1.7 C41.4,0.2 46.1,0.4 49.2,2.1 L84,22.2 C87.1,24 87.4,26.7 84.7,28.2 Z" fill="#E8F2FE"></path>
                            <g transform="translate(0.000000, 25.000000)">
                                <path d="M86.5,132 L86.5,1.1 L86.5,1.1 C86.5,1.1 86.5,1.1 86.5,1.1 C86.3,1.9 85.8,2.6 84.8,3.2 L48.5,24.2 C47.2,24.9 45.5,25.3 43.7,25.2 L43.7,157 C45.5,157 47.2,156.7 48.5,156 L84.8,135 C86.1,134.3 86.7,133.2 86.5,132 Z" fill="url(#linearGradient-5)"></path>
                                <path d="M38.1,23.8 L3.3,3.7 C1.8,2.9 1,1.8 0.8,0.8 L0.8,131.7 C0.5,133 1.4,134.5 3.3,135.6 L38.1,155.7 C39.7,156.6 41.7,157.1 43.7,157.1 L43.7,25.2 C41.7,25.2 39.7,24.7 38.1,23.8 Z" fill="#DDDDDD"></path>
                                <path d="M38.1,23.8 L3.3,3.7 C1.8,2.9 1,1.8 0.8,0.8 L0.8,131.7 C0.5,133 1.4,134.5 3.3,135.6 L38.1,155.7 C39.7,156.6 41.7,157.1 43.7,157.1 L43.7,25.2 C41.7,25.2 39.7,24.7 38.1,23.8 Z" fill="url(#linearGradient-6)"></path>
                            </g>
                        </g>
                        <g id="Path">
                            <g>
                                <path d="M75.8,66.5 C75.8,73.9 71.9,78 66.3,77.5 C65,77.6 63.6,77.3 62,76.4 L15.6,49.6 C15.2,49.4 14.8,49.1 14.5,48.9 C6.7,43.5 0.6,32.3 0.6,23.1 C0.6,14.1 6.4,10 13.9,13.1 C15,6.7 20.4,4.4 26.8,8.2 C28.9,9.4 31,11.2 32.8,13.3 C36.2,10.4 41.4,10.3 47.3,13.7 C56.1,18.8 63.4,30 65.4,40.6 C68.1,42.5 70.1,46.3 70.2,49.5 C73.6,54.6 75.8,60.9 75.8,66.5 Z" fill="#5FD9F9"></path>
                                <path d="M80.1,43.6 C80,40.4 78,36.6 75.3,34.7 C73.3,24.1 66,12.8 57.2,7.8 C52.1,4.8 47.4,4.6 44,6.5 L42.6,7.3 C40.8,5.3 38.9,3.5 36.7,2.3 C33.1,0.2 29.8,-1.42108547e-14 27.4,1.4 L19,6.2 C17.6,6.2 16.4,6.5 15.3,7.1 L5.4,12.8 C7.7,11.6 10.6,11.6 13.9,12.9 C15,6.5 20.4,4.2 26.8,8 C28.9,9.2 31,11 32.8,13.1 C36.2,10.2 41.4,10.1 47.3,13.5 C56.1,18.6 63.4,29.8 65.4,40.4 C68.1,42.3 70.1,46.1 70.2,49.3 C73.7,54.6 75.9,60.8 75.9,66.4 C75.9,71.5 74.1,75 71.1,76.5 L81,70.8 C84,69.3 85.9,65.7 85.9,60.6 C85.8,55.2 83.6,48.9 80.1,43.6 Z" fill="#51ADE6"></path>
                            </g>
                        </g>
                    </g>
                    <path d="M288.9,467.2 C288.9,467.2 288.8,467.2 288.8,467.2 L288.9,467.2 C288.9,467.2 288.9,467.2 288.9,467.2 Z" id="Path" fill="url(#linearGradient-7)" fill-rule="nonzero"></path>
                    <g id="Group" transform="translate(306.000000, 306.000000)" fill-rule="nonzero">
                        <path d="M103.2,23.3 L36.7,60.5 C33.8,62.2 28.6,62 25.2,60 L3.1,46.8 C-0.3,44.8 -0.7,41.8 2.3,40.1 L68.5,2.1 C71.4,0.4 76.6,0.6 80,2.6 L102.4,16.5 C105.7,18.6 106.1,21.6 103.2,23.3 Z" id="Path" fill="#E8F2FE"></path>
                        <g transform="translate(0.000000, 21.000000)" id="Path">
                            <path d="M105.1,6.5 L105.1,0 C105.1,0 105.1,0 105.1,0 L105.1,0 C104.9,0.9 104.3,1.7 103.2,2.4 L36.7,39.6 C35.3,40.4 33.3,40.8 31.3,40.7 L31.3,48.3 C33.3,48.3 35.2,48 36.7,47.2 L103.2,10 C104.7,9 105.3,7.7 105.1,6.5 Z" fill="url(#linearGradient-8)"></path>
                            <path d="M25.2,39.1 L3.1,25.9 C1.5,25 0.6,23.8 0.3,22.6 L0.3,29.1 C-5.69266856e-14,30.6 0.9,32.2 3.1,33.4 L25.2,46.6 C27,47.6 29.2,48.2 31.4,48.2 L31.4,40.6 C29.2,40.6 26.9,40.1 25.2,39.1 Z" fill="url(#linearGradient-9)"></path>
                        </g>
                    </g>
                    <g id="Group" transform="translate(333.000000, 347.000000)" fill-rule="nonzero">
                        <path d="M103.8,23.3 L37.3,60.5 C34.4,62.2 29.2,62 25.8,60 L3.7,46.8 C0.3,44.8 -0.1,41.8 2.9,40.1 L69.1,2.1 C72,0.4 77.2,0.6 80.6,2.6 L103,16.5 C106.4,18.6 106.8,21.6 103.8,23.3 Z" id="Path" fill="#E8F2FE"></path>
                        <g transform="translate(0.000000, 20.000000)" id="Path">
                            <path d="M105.8,7.4 L105.8,0.9 L105.8,0.9 L105.8,0.9 C105.6,1.8 105,2.6 103.9,3.3 L37.4,40.5 C36,41.3 34,41.7 32,41.6 L32,49.2 C34,49.2 35.9,48.9 37.4,48.1 L103.9,10.9 C105.4,9.9 106,8.7 105.8,7.4 Z" fill="url(#linearGradient-10)"></path>
                            <path d="M25.8,40 L3.7,26.8 C2.1,25.9 1.2,24.7 0.9,23.5 L0.9,30 C0.6,31.5 1.5,33.1 3.7,34.3 L25.8,47.5 C27.6,48.5 29.8,49.1 32,49.1 L32,41.5 C29.8,41.6 27.6,41 25.8,40 Z" fill="url(#linearGradient-11)"></path>
                        </g>
                    </g>
                    <g id="Group" transform="translate(64.000000, 171.000000)" fill-rule="nonzero">
                        <g transform="translate(0.000000, 1.000000)" id="Path">
                            <path d="M361.1,92.9 L163.9,206.5 C155,211.6 139.4,211 129.1,205.1 L8.8,135.9 C-1.5,130 -2.6,120.9 6.3,115.8 L206.9,3.9 C215.8,-1.2 231.4,-0.6 241.7,5.3 L358.6,72.8 C368.8,78.7 370,87.8 361.1,92.9 Z" fill="#E8F2FE"></path>
                            <g transform="translate(0.000000, 85.000000)">
                                <path d="M366.9,6.2 L366.9,0.8 L366.9,0.8 C366.9,0.8 366.9,0.8 366.9,0.8 C366.4,3.5 364.4,6 361.1,7.9 L163.9,121.5 C159.6,124 153.8,125.1 147.7,124.9 L147.7,133.5 C153.7,133.6 159.6,132.6 163.9,130.1 L361.1,16.5 C365.7,13.8 367.6,10 366.9,6.2 Z" fill="url(#linearGradient-12)"></path>
                                <path d="M129.1,120 L8.8,50.9 C3.9,48.1 1.1,44.5 0.5,41.1 L0.5,46.5 C-0.4,50.9 2.4,55.8 8.8,59.5 L129.1,128.7 C134.4,131.8 141.2,133.4 147.7,133.6 L147.7,125 C141.2,124.7 134.4,123.1 129.1,120 Z" fill="#C9C9C9"></path>
                                <path d="M129.1,120 L8.8,50.9 C3.9,48.1 1.1,44.5 0.5,41.1 L0.5,46.5 C-0.4,50.9 2.4,55.8 8.8,59.5 L129.1,128.7 C134.4,131.8 141.2,133.4 147.7,133.6 L147.7,125 C141.2,124.7 134.4,123.1 129.1,120 Z" fill="url(#linearGradient-13)"></path>
                            </g>
                        </g>
                        <g transform="translate(30.000000, 95.000000)" id="Path">
                            <g>
                                <polygon fill="#FFFFFF" points="145.9 61.4 104.7 85.2 0 24.7 41.1 0.9"></polygon>
                                <polygon fill="url(#linearGradient-14)" points="145.9 61.4 145.9 78.5 104.7 102.3 104.7 85.2"></polygon>
                                <polygon fill="url(#linearGradient-15)" points="0 24.7 0 41.8 104.7 102.3 104.7 85.2"></polygon>
                            </g>
                            <g transform="translate(18.000000, 5.000000)">
                                <g>
                                    <path d="M42.4,14.2 L24.3,24.6 C23,25.4 20.7,25.3 19.1,24.4 L1.8,14.4 C0.3,13.5 0.1,12.2 1.4,11.4 L19.5,1 C20.8,0.2 23.1,0.3 24.7,1.2 L42,11.2 C43.5,12.1 43.7,13.5 42.4,14.2 Z" fill="#5FD9F9"></path>
                                    <g transform="translate(0.000000, 13.000000)">
                                        <path d="M43.2,8.1 L43.2,0.1 L43.2,0.1 L43.2,0.1 C43.1,0.5 42.8,0.9 42.3,1.2 L24.2,11.6 C23.6,12 22.7,12.1 21.8,12.1 L21.8,20.5 C22.7,20.5 23.6,20.4 24.2,20 L42.3,9.6 C43.1,9.3 43.3,8.7 43.2,8.1 Z" fill="#63C1FB"></path>
                                        <path d="M19.2,11.5 L1.9,1.5 C1.2,1.1 0.8,0.6 0.7,0 L0.7,8 C0.6,8.7 1,9.4 1.9,9.9 L19.2,19.9 C20,20.4 21,20.6 22,20.6 L22,12.2 C20.9,12.2 19.9,11.9 19.2,11.5 Z" fill="#51ADE6"></path>
                                    </g>
                                </g>
                                <g transform="translate(32.000000, 18.000000)">
                                    <path d="M42.2,14.7 L24.1,25.1 C22.8,25.9 20.5,25.8 18.9,24.9 L1.6,14.9 C0.1,14 -0.1,12.7 1.2,11.9 L19.3,1.5 C20.6,0.7 22.9,0.8 24.5,1.7 L41.8,11.7 C43.4,12.6 43.6,13.9 42.2,14.7 Z" fill="#52A3F6"></path>
                                    <g transform="translate(0.000000, 13.000000)">
                                        <path d="M43.1,8.6 L43.1,0.6 L43.1,0.6 L43.1,0.6 C43,1 42.7,1.4 42.2,1.7 L24.1,12.1 C23.5,12.5 22.6,12.6 21.7,12.6 L21.7,21 C22.6,21 23.5,20.9 24.1,20.5 L42.2,10.1 C42.9,9.7 43.2,9.2 43.1,8.6 Z" fill="#1F98F5"></path>
                                        <path d="M19,11.9 L1.7,1.9 C1,1.5 0.6,1 0.5,0.4 L0.5,8.4 C0.4,9.1 0.8,9.8 1.7,10.3 L19,20.3 C19.8,20.8 20.8,21 21.8,21 L21.8,12.6 C20.8,12.6 19.8,12.4 19,11.9 Z" fill="#0084E9"></path>
                                    </g>
                                </g>
                                <g transform="translate(64.000000, 37.000000)">
                                    <path d="M42.8,14.4 L24.7,24.8 C23.4,25.6 21.1,25.5 19.5,24.6 L2.2,14.6 C0.7,13.7 0.5,12.4 1.8,11.6 L19.9,1.2 C21.2,0.4 23.5,0.5 25.1,1.4 L42.4,11.4 C43.9,12.3 44.1,13.7 42.8,14.4 Z" fill="#5FD9F9"></path>
                                    <g transform="translate(0.000000, 13.000000)">
                                        <path d="M43.6,8.3 L43.6,0.3 L43.6,0.3 L43.6,0.3 C43.5,0.7 43.2,1.1 42.7,1.4 L24.6,11.8 C24,12.2 23.1,12.3 22.2,12.3 L22.2,20.7 C23.1,20.7 24,20.6 24.6,20.2 L42.7,9.8 C43.5,9.4 43.7,8.9 43.6,8.3 Z" fill="#63C1FB"></path>
                                        <path d="M19.5,11.6 L2.2,1.6 C1.5,1.2 1.1,0.7 1,0.1 L1,8.1 C0.9,8.8 1.3,9.5 2.2,10 L19.5,20 C20.3,20.5 21.3,20.7 22.3,20.7 L22.3,12.3 C21.3,12.3 20.3,12.1 19.5,11.6 Z" fill="#51ADE6"></path>
                                    </g>
                                </g>
                            </g>
                        </g>
                        <g transform="translate(297.000000, 28.000000)">
                            <g transform="translate(0.000000, 20.000000)">
                                <ellipse id="Oval" fill="#FFFFFF" cx="28.5" cy="16.2" rx="27.9" ry="16.1"></ellipse>
                                <path d="M48.2,27.6 C37.3,33.9 19.7,33.9 8.8,27.6 C3.4,24.5 0.7,20.4 0.6,16.3 L0.6,33.6 C0.6,37.7 3.3,41.9 8.8,45.1 C19.7,51.4 37.3,51.4 48.2,45.1 C53.7,41.9 56.4,37.8 56.4,33.6 L56.4,16.3 C56.3,20.4 53.6,24.5 48.2,27.6 Z" id="Path" fill="url(#linearGradient-16)"></path>
                            </g>
                            <g transform="translate(4.000000, 0.000000)" id="Path">
                                <path d="M24.5,24 L41.5,33.8 C32.2,39.2 16.8,39.2 7.5,33.8 C-1.8,28.4 -1.8,19.5 7.5,14.2 C12.7,11.2 20,9.7 27.4,10.2 L24.5,24 Z" fill="#76B5CE"></path>
                                <path d="M7.4,33.8 C2.8,31.1 0.4,27.6 0.4,24 L0.4,33.9 C0.4,37.5 2.7,41.1 7.4,43.8 C16.7,49.2 32.1,49.2 41.4,43.8 L41.4,33.8 C32.1,39.2 16.8,39.2 7.4,33.8 Z" fill="#51ADE6"></path>
                                <path d="M24.5,24 L41.5,33.8 C32.2,39.2 16.8,39.2 7.5,33.8 C-1.8,28.4 -1.8,19.5 7.5,14.2 C12.7,11.2 20,9.7 27.4,10.2 L24.5,24 Z" fill="#5FD9F9"></path>
                                <path d="M24.5,13.8 L27.3,0 C32.7,0.4 37.6,1.8 41.5,4 C50.8,9.4 50.8,18.3 41.5,23.6 L24.5,13.8 Z" fill="#52A3F6"></path>
                                <polygon fill="#0084E9" points="24.5 13.8 24.5 24 41.5 33.8 41.5 23.6"></polygon>
                                <path d="M48.5,33.8 L48.5,13.8 C48.5,17.3 46.1,20.9 41.5,23.5 L41.5,33.7 L41.5,43.7 C46.2,41.1 48.5,37.4 48.5,33.8 Z" fill="#3E99F8"></path>
                            </g>
                        </g>
                        <g transform="translate(225.000000, 0.000000)" id="Path">
                            <g>
                                <path d="M43.2,36.6 L3.6,13.7 C-1.1,11 -0.5,6.3 4.9,3.2 L4.9,3.2 C10.3,0.1 18.5,-0.3 23.2,2.4 L62.8,25.3 C67.5,28 66.9,32.7 61.5,35.8 L61.5,35.8 C56,38.9 47.8,39.3 43.2,36.6 Z" fill="#FFFFFF"></path>
                                <path d="M61.4,35.8 C56,38.9 47.8,39.3 43.1,36.6 L3.5,13.7 C1.5,12.5 0.4,11 0.3,9.3 L0.3,9.3 L0.3,21 C0.3,21 0.3,21.1 0.3,21.1 C0.3,22.8 1.4,24.4 3.5,25.6 L43.1,48.5 C47.8,51.2 56,50.9 61.4,47.7 C64.5,45.9 66,43.7 65.9,41.5 L65.9,29.7 C65.9,31.9 64.4,34.1 61.4,35.8 Z" fill="url(#linearGradient-17)"></path>
                            </g>
                            <g transform="translate(11.000000, 5.000000)" fill="#BDCEFA">
                                <path d="M9.4,5.3 C7.4,6.5 4.1,6.5 2,5.3 C1.66533454e-16,4.1 0,2.2 2,1.1 C4,-0.1 7.3,-0.1 9.4,1.1 C11.5,2.2 11.5,4.1 9.4,5.3 Z"></path>
                                <path d="M20.9,11.9 C18.9,13.1 15.6,13.1 13.5,11.9 C11.5,10.7 11.5,8.8 13.5,7.7 C15.5,6.5 18.8,6.5 20.9,7.7 C22.9,8.8 22.9,10.7 20.9,11.9 Z"></path>
                                <path d="M32.4,18.5 C30.4,19.7 27.1,19.7 25,18.5 C23,17.3 23,15.4 25,14.3 C27,13.1 30.3,13.1 32.4,14.3 C34.4,15.5 34.4,17.4 32.4,18.5 Z"></path>
                                <path d="M43.9,25.2 C41.9,26.4 38.6,26.4 36.5,25.2 C34.5,24 34.5,22.1 36.5,21 C38.5,19.8 41.8,19.8 43.9,21 C45.9,22.1 45.9,24 43.9,25.2 Z"></path>
                            </g>
                        </g>
                    </g>
                    <g id="Group" transform="translate(150.000000, 96.000000)" fill-rule="nonzero">
                        <g id="Path">
                            <path d="M4.6,156.9 L4.6,69.3 C4.6,67.1 5.8,65 7.7,63.9 L113,3.2 C117.1,0.8 122.3,3.8 122.3,8.6 L122.3,96.2 C122.3,98.4 121.1,100.5 119.2,101.6 L14,162.3 C9.8,164.6 4.6,161.7 4.6,156.9 Z" fill="#FFFFFF"></path>
                            <path d="M10.9,161 C8.9,161 6.8,159.4 6.8,156.9 L6.8,69.3 C6.8,67.8 7.6,66.5 8.9,65.7 L114,5 C114.6,4.6 115.3,4.4 116.1,4.4 C118.1,4.4 120.2,6 120.2,8.5 L120.2,96.1 C120.2,97.6 119.4,98.9 118.1,99.7 L12.9,160.5 C12.3,160.8 11.6,161 10.9,161 Z" fill="url(#linearGradient-18)"></path>
                            <g fill="url(#linearGradient-19)">
                                <path d="M4.6,156.9 L4.6,69.3 C4.6,67.1 5.8,65 7.7,63.9 L113,3.2 C114.7,2.2 116.7,2.1 118.3,2.8 L118.3,2.8 L115.8,1.5 C113.9,0.1 111.3,-0.2 109,1.1 L3.8,61.9 C1.9,63 0.7,65.1 0.7,67.3 L0.7,154.9 C0.7,157 1.7,158.8 3.3,159.9 L3.3,159.9 L3.4,159.9 C3.8,160.2 4.3,160.4 4.7,160.6 L7.5,162.1 C5.8,160.9 4.6,159.1 4.6,156.9 Z"></path>
                            </g>
                        </g>
                        <g transform="translate(10.000000, 100.000000)">
                            <path d="M4,73 L79.8,116.8 C81.7,117.9 84.1,117.9 86,116.8 L191.3,56 C195.4,53.6 195.4,47.6 191.3,45.2 L115.5,1.4 C113.6,0.3 111.2,0.3 109.3,1.4 L4,62.3 C-0.2,64.6 -0.2,70.6 4,73 Z" id="Path" fill="#FFFFFF"></path>
                            <path d="M191.3,56 L86,116.8 C84.1,117.9 81.7,117.9 79.8,116.8 L4,73 C1.9,71.8 0.9,69.7 0.9,67.6 L0.9,73.3 C0.9,75.4 1.9,77.5 4,78.7 L79.8,122.5 C81.7,123.6 84.1,123.6 86,122.5 L191.2,61.7 C193.2,60.6 194.2,58.6 194.3,56.6 L194.3,56.6 L194.3,56.5 C194.3,56.4 194.3,56.2 194.3,56.1 L194.3,50.9 C194.3,52.9 193.3,54.9 191.3,56 Z" id="Shape" fill="url(#linearGradient-20)"></path>
                            <path d="M152,38.9 L61.6,91 C58.1,93 51.9,92.8 47.8,90.4 L20.6,74.7 C16.5,72.3 16.1,68.8 19.6,66.8 L110,14.6 C113.5,12.6 119.7,12.8 123.8,15.2 L151,30.9 C155.1,33.3 155.5,36.8 152,38.9 Z" id="Path" fill="#B8D0F6"></path>
                            <path d="M19.7,68.1 L110.1,15.9 C113.6,13.9 119.8,14.1 123.9,16.5 L151.1,32.2 C153,33.3 154.1,34.7 154.4,36.1 C154.8,34.4 153.6,32.4 151.1,31 L123.9,15.3 C119.8,12.9 113.7,12.7 110.1,14.7 L19.7,66.9 C17.9,68 17.1,69.4 17.4,71 C17.6,69.8 18.4,68.8 19.7,68.1 Z" id="Path" fill="#99B6E0"></path>
                            <path d="M92.6,38.5 L87.8,35.7 L83,38.5 L87.8,41.3 L92.6,38.5 Z M83.2,43.9 L78.4,41.1 L73.6,43.9 L78.4,46.7 L83.2,43.9 Z M102.1,33.1 L97.3,30.3 L92.5,33.1 L97.3,35.9 L102.1,33.1 Z M129.4,36 L139.4,30.2 L134.6,27.4 L124.6,33.2 L129.4,36 Z M131.3,25.5 L126.5,22.7 L121.7,25.5 L126.5,28.3 L131.3,25.5 Z M111.5,27.6 L106.7,24.8 L101.9,27.6 L106.7,30.4 L111.5,27.6 Z M73.8,49.4 L69,46.6 L64.2,49.4 L69,52.2 L73.8,49.4 Z M123,34.1 L40.4,81.8 L45.2,84.6 L127.8,36.9 L123,34.1 Z M64.4,54.8 L59.6,52 L54.8,54.8 L59.6,57.6 L64.4,54.8 Z M119.2,27 L32.3,77.2 L37.1,80 L124,29.8 L119.2,27 Z M142.7,32.1 L48.5,86.5 L53.3,89.3 L147.5,34.9 L142.7,32.1 Z M45.5,65.7 L40.7,62.9 L35.9,65.7 L40.7,68.5 L45.5,65.7 Z M54.9,60.3 L50.1,57.5 L45.3,60.3 L50.1,63.1 L54.9,60.3 Z" id="Shape" fill="#99B6E0"></path>
                            <path d="M92.6,37.7 L87.8,34.9 L83,37.7 L87.8,40.5 L92.6,37.7 Z M83.2,43.1 L78.4,40.3 L73.6,43.1 L78.4,45.9 L83.2,43.1 Z M102.1,32.2 L97.3,29.4 L92.5,32.2 L97.3,35 L102.1,32.2 Z M129.4,35.1 L139.4,29.3 L134.6,26.5 L124.6,32.3 L129.4,35.1 Z M131.3,24.7 L126.5,21.9 L121.7,24.7 L126.5,27.5 L131.3,24.7 Z M111.5,26.8 L106.7,24 L101.9,26.8 L106.7,29.6 L111.5,26.8 Z M73.8,48.5 L69,45.7 L64.2,48.5 L69,51.3 L73.8,48.5 Z M123,33.3 L40.4,81 L45.2,83.8 L127.8,36.1 L123,33.3 Z M64.4,54 L59.6,51.2 L54.8,54 L59.6,56.8 L64.4,54 Z M119.2,26.1 L32.3,76.3 L37.1,79.1 L124,28.9 L119.2,26.1 Z M142.7,31.3 L48.5,85.7 L53.3,88.5 L147.5,34.1 L142.7,31.3 Z M45.5,64.9 L40.7,62.1 L35.9,64.9 L40.7,67.7 L45.5,64.9 Z M54.9,59.4 L50.1,56.6 L45.3,59.4 L50.1,62.2 L54.9,59.4 Z" id="Shape" fill="#E4F2FF"></path>
                            <path d="M97.3,29.9 L101.7,32.5 L102.1,32.3 L97.3,29.5 L92.5,32.3 L92.9,32.5 L97.3,29.9 Z M106.7,24.4 L111.1,27 L111.5,26.8 L106.7,24 L101.9,26.8 L102.3,27 L106.7,24.4 Z M87.8,35.3 L92.2,37.9 L92.6,37.7 L87.8,34.9 L83,37.7 L83.4,37.9 L87.8,35.3 Z M125,32.6 L134.6,27 L139,29.6 L139.4,29.4 L134.6,26.6 L124.6,32.4 L125,32.6 Z M78.4,40.8 L82.8,43.4 L83.2,43.2 L78.4,40.4 L73.6,43.2 L74,43.4 L78.4,40.8 Z M126.5,22.3 L130.9,24.9 L131.3,24.7 L126.5,21.9 L121.7,24.7 L122.1,24.9 L126.5,22.3 Z M142.7,31.3 L48.5,85.7 L48.9,85.9 L142.8,31.7 L147.2,34.3 L147.6,34.1 L142.7,31.3 Z M123.6,29.1 L124,28.9 L119.2,26.1 L32.3,76.3 L32.7,76.5 L119.2,26.5 L123.6,29.1 Z M40.7,62.5 L45.1,65.1 L45.5,64.9 L40.7,62.1 L35.9,64.9 L36.3,65.1 L40.7,62.5 Z M127.4,36.3 L127.8,36.1 L123,33.3 L40.4,81 L40.8,81.2 L123,33.7 L127.4,36.3 Z M50.2,57.1 L54.6,59.7 L55,59.5 L50.2,56.7 L45.4,59.5 L45.8,59.7 L50.2,57.1 Z M69,46.2 L73.4,48.8 L73.8,48.6 L69,45.8 L64.2,48.6 L64.6,48.8 L69,46.2 Z M59.6,51.6 L64,54.2 L64.4,54 L59.6,51.2 L54.8,54 L55.2,54.2 L59.6,51.6 Z" id="Shape" fill="#FFFFFF"></path>
                            <path d="M144.6,69.5 L116.4,85.8 C114.7,86.8 111.6,86.7 109.6,85.5 L103.4,81.9 C101.4,80.7 101.2,79 102.9,77.9 L131.1,61.6 C132.8,60.6 135.9,60.7 137.9,61.9 L144.1,65.5 C146.1,66.7 146.4,68.5 144.6,69.5 Z" id="Path" fill="#B8D0F6"></path>
                            <path d="M102.9,78.8 L131.1,62.5 C132.8,61.5 135.9,61.6 137.9,62.8 L144.1,66.4 C145,66.9 145.5,67.6 145.7,68.2 C145.9,67.3 145.4,66.3 144.1,65.5 L137.9,61.9 C135.9,60.7 132.8,60.6 131.1,61.6 L102.9,78 C101.9,78.6 101.6,79.3 101.8,80.1 C102,79.6 102.3,79.1 102.9,78.8 Z" id="Path" fill="#99B6E0"></path>
                        </g>
                        <g transform="translate(21.000000, 28.000000)" id="Path">
                            <g>
                                <path d="M84.3,7 L84.3,3.8 C84.3,1 82.3,-0.1 79.9,1.3 L4.9,44.6 C2.5,46 0.5,49.4 0.5,52.2 L0.5,55.4 L84.3,7 Z" fill="#FFFFFF"></path>
                                <g transform="translate(4.000000, 38.000000)" fill="#FFFFFF">
                                    <path d="M4.3,8.8 C4.3,9.9 3.5,11.3 2.5,11.8 C1.5,12.4 0.7,11.9 0.7,10.8 C0.7,9.7 1.5,8.3 2.5,7.8 C3.6,7.2 4.3,7.6 4.3,8.8 Z"></path>
                                    <path d="M10.5,5.2 C10.5,6.3 9.7,7.7 8.7,8.2 C7.7,8.8 6.9,8.3 6.9,7.2 C6.9,6.1 7.7,4.7 8.7,4.2 C9.7,3.6 10.5,4.1 10.5,5.2 Z"></path>
                                    <path d="M16.7,1.6 C16.7,2.7 15.9,4.1 14.9,4.6 C13.9,5.2 13.1,4.7 13.1,3.6 C13.1,2.5 13.9,1.1 14.9,0.6 C15.9,0.1 16.7,0.5 16.7,1.6 Z"></path>
                                </g>
                                <polygon fill="#5FD9F9" points="13.9 63.4 0.6 71 0.6 59 13.9 51.3"></polygon>
                                <polygon fill="#5FD9F9" points="30.4 53.8 17.2 61.5 17.2 49.4 30.4 41.8"></polygon>
                                <polygon fill="#5FD9F9" points="47 44.2 33.7 51.9 33.7 39.8 47 32.2"></polygon>
                                <polygon fill="url(#linearGradient-21)" points="51.6 41.6 84.3 22.7 84.3 20.2 51.6 39.1"></polygon>
                                <polygon fill="url(#linearGradient-22)" points="51.6 36.9 84.3 17.9 84.3 15.4 51.6 34.3"></polygon>
                                <polygon fill="url(#linearGradient-23)" points="51.6 32.1 84.3 13.2 84.3 10.6 51.6 29.6"></polygon>
                                <path d="M81.4,50.2 L3.5,95.2 C1.9,96.1 0.6,95.1 0.6,93 L0.6,78.5 C0.6,76.4 1.9,73.9 3.5,73 L81.4,28 C83,27.1 84.3,28.1 84.3,30.2 L84.3,44.7 C84.3,46.9 83,49.3 81.4,50.2 Z" fill="#FFFFFF"></path>
                                <g transform="translate(24.000000, 43.000000)">
                                    <polygon fill="#FFEC00" points="10.8 30.9 0.7 36.8 0.7 24.2 10.8 18.3"></polygon>
                                    <polygon fill="#9CE3F0" points="23.6 23.6 13.4 29.4 13.4 18.9 23.6 13"></polygon>
                                    <polygon fill="#FF9100" points="36.3 16.2 26.1 22.1 26.1 6.7 36.3 0.8"></polygon>
                                </g>
                                <polygon fill="url(#linearGradient-24)" points="78.6 47.1 81.4 45.6 81.4 43 78.6 44.6"></polygon>
                                <polygon fill="url(#linearGradient-25)" points="78.6 42.4 81.4 40.8 81.4 38.3 78.6 39.8"></polygon>
                                <polygon fill="url(#linearGradient-26)" points="78.6 37.6 81.4 36 81.4 33.5 78.6 35.1"></polygon>
                                <polygon fill="url(#linearGradient-27)" points="63.2 56.1 77.3 47.9 77.3 45.4 63.2 53.5"></polygon>
                                <polygon fill="url(#linearGradient-28)" points="63.2 51.3 77.3 43.1 77.3 40.6 63.2 48.8"></polygon>
                                <polygon fill="url(#linearGradient-29)" points="63.2 46.5 77.3 38.4 77.3 35.8 63.2 44"></polygon>
                                <polygon fill="url(#linearGradient-30)" points="6.4 76.8 3.7 78.4 3.7 80.9 6.4 79.3"></polygon>
                                <polygon fill="url(#linearGradient-31)" points="6.4 81.6 3.7 83.1 3.7 85.7 6.4 84.1"></polygon>
                                <polygon fill="url(#linearGradient-32)" points="6.4 86.3 3.7 87.9 3.7 90.4 6.4 88.8"></polygon>
                                <polygon fill="url(#linearGradient-33)" points="21.9 67.9 7.7 76 7.7 78.6 21.9 70.4"></polygon>
                                <polygon fill="url(#linearGradient-34)" points="21.9 72.6 7.7 80.8 7.7 83.3 21.9 75.1"></polygon>
                                <polygon fill="url(#linearGradient-35)" points="21.9 77.4 7.7 85.5 7.7 88.1 21.9 79.9"></polygon>
                            </g>
                            <path d="M78.7,64.1 L7.4,105.3 C5.9,106.2 4.7,105.2 4.7,103.3 L4.7,103.3 C4.7,101.3 5.9,99 7.4,98.2 L78.7,57 C80.2,56.1 81.4,57.1 81.4,59 L81.4,59 C81.4,60.9 80.2,63.3 78.7,64.1 Z" fill="#FFFFFF"></path>
                        </g>
                    </g>
                    <g id="Group" transform="translate(104.000000, 82.000000)" fill-rule="nonzero">
                        <g transform="translate(0.000000, 84.000000)" id="Path">
                            <path d="M71.5,75.1 L3.9,114.1 C1.8,115.3 0.1,114 0.1,111.2 L0.1,47.3 C0.1,44.5 1.8,41.2 3.9,40 L71.5,1 C73.6,-0.2 75.3,1.1 75.3,3.9 L75.3,67.8 C75.3,70.7 73.6,73.9 71.5,75.1 Z" fill="url(#linearGradient-36)"></path>
                            <g transform="translate(5.000000, 25.000000)">
                                <polygon fill="url(#linearGradient-37)" points="64.4 43.6 0.9 80.2 0.9 75.5 64.4 38.8"></polygon>
                                <path d="M52.3,14.7 C52.3,27.2 43.5,42.4 32.7,48.7 C21.9,55 13.1,49.9 13.1,37.4 C13.1,24.9 21.9,9.7 32.7,3.4 C43.5,-2.9 52.3,2.2 52.3,14.7 Z" fill="url(#linearGradient-38)"></path>
                            </g>
                        </g>
                        <g transform="translate(138.000000, 0.000000)" id="Path">
                            <path d="M72.3,61.1 L4.7,100.1 C2.6,101.3 0.9,100 0.9,97.2 L0.9,47.3 C0.9,44.5 2.6,41.2 4.7,40 L72.3,1 C74.4,-0.2 76.1,1.1 76.1,3.9 L76.1,53.8 C76.1,56.7 74.4,59.9 72.3,61.1 Z" fill="url(#linearGradient-39)"></path>
                            <g transform="translate(6.000000, 12.000000)">
                                <polygon fill="url(#linearGradient-40)" points="64.2 40.7 0.8 77.4 0.8 72.6 64.2 36"></polygon>
                                <polygon fill="url(#linearGradient-41)" points="64.2 31 0.8 67.6 0.8 62.8 64.2 26.2"></polygon>
                                <g transform="translate(2.000000, 0.000000)">
                                    <polygon fill="url(#linearGradient-42)" points="17.1 45.6 0.1 55.5 0.1 35.8 17.1 26"></polygon>
                                    <polygon fill="url(#linearGradient-43)" points="39 33 22 42.8 22 23.1 39 13.3"></polygon>
                                    <polygon fill="url(#linearGradient-44)" points="61 20.3 43.9 30.2 43.9 10.5 61 0.6"></polygon>
                                </g>
                            </g>
                        </g>
                    </g>
                    <g id="Group" transform="translate(40.000000, 333.000000)" fill-rule="nonzero">
                        <path d="M84.1,28.3 L47.8,49.3 C45.2,50.8 40.5,50.6 37.4,48.9 L2.6,28.8 C-0.5,27 -0.8,24.3 1.9,22.8 L38.2,1.8 C40.8,0.3 45.5,0.5 48.6,2.2 L83.4,22.3 C86.4,24.1 86.8,26.8 84.1,28.3 Z" id="Path" fill="#E8F2FE"></path>
                        <g transform="translate(0.000000, 25.000000)" id="Path">
                            <path d="M85.8,67.3 L85.8,1.2 L85.8,1.2 L85.8,1.2 C85.6,2 85.1,2.7 84.1,3.3 L47.8,24.3 C46.5,25 44.8,25.4 43,25.3 L43,92.3 C44.8,92.3 46.5,92 47.8,91.3 L84.1,70.3 C85.5,69.5 86.1,68.4 85.8,67.3 Z" fill="url(#linearGradient-45)"></path>
                            <path d="M37.5,23.9 L2.7,3.8 C1.2,3 0.4,1.9 0.2,0.9 L0.2,67 C-0.1,68.3 0.8,69.8 2.7,70.9 L37.5,91 C39.1,91.9 41.1,92.4 43.1,92.4 L43.1,25.4 C41.1,25.3 39,24.8 37.5,23.9 Z" fill="url(#linearGradient-46)"></path>
                        </g>
                    </g>
                    <g id="Group-5" transform="translate(61.000000, 313.000000)" fill-rule="nonzero">
                        <path d="M22.4347826,1.57436402 C13.3913043,-3.12128815 4.86956522,4.18305968 4.86956522,4.18305968 C4.86956522,14.9656684 16.3478261,40.3569727 25.3913043,45.0526249 C25.3913043,45.0526249 38.6086957,40.5308858 38.6086957,29.7482771 C38.7826087,18.7917553 31.4782609,6.2700162 22.4347826,1.57436402" id="Path" fill="#51ADE6"></path>
                        <path d="M16.3478261,4.53088576 C7.30434783,-0.164766412 -2.14761542e-12,4.87871185 -2.14761542e-12,15.6613205 C-2.14761542e-12,26.4439292 7.30434783,38.9656684 16.173913,43.6613205 C25.2173913,48.3569727 32.5217391,43.3134945 32.5217391,32.5308858 C32.6956522,21.7482771 25.3913043,9.05262489 16.3478261,4.53088576" id="Path" fill="#5FD9F9"></path>
                        <path d="M18.0169641,14.7337818 L18.0548044,14.7563624 C18.8543363,15.2367194 19.6529962,15.929143 20.3693487,16.7850259 L24.5553345,21.7862143 C25.9993748,23.5110628 26.8888896,25.6379287 26.8888896,27.3649219 L26.8888896,27.7588353 C26.8888896,28.0554038 26.5788427,28.0556939 26.3307042,27.7595206 L18.471921,18.3704141 C18.032136,17.8446522 17.4631338,17.6844482 17.2444615,18.0412486 C17.0507257,18.3571203 17.2416712,18.9859848 17.6397805,19.461781 L26.5256538,30.0780432 C26.7504332,30.346551 26.8888896,30.6775133 26.8888896,30.9460819 L26.8888896,32.3761591 C26.8888896,32.6907841 26.8590713,32.9829187 26.8016947,33.2506617 C26.7376982,33.5498535 26.3643546,33.4923261 26.0769783,33.1488974 L10.7531717,14.8415348 C10.5221177,14.5653118 10.4870676,14.2135151 10.6830704,14.1428196 C10.9331318,14.052905 11.2103957,14.0056045 11.5120719,14.0051911 L15.7022465,14.000004 C16.4187734,13.99917 17.2174333,14.2599226 18.0169641,14.7337818 Z M9.12100443,15.6995555 C9.16285689,15.539158 9.32186117,15.5154611 9.49014662,15.6149901 C9.55318794,15.6522746 9.61728,15.7065365 9.6771693,15.7775467 L25.0876332,34.024814 C25.3856799,34.3777923 25.4172024,34.8190505 25.1567961,34.8958504 C24.9372101,34.9608403 24.698176,34.9943752 24.4414565,34.9946209 L20.2294179,35.0000007 C19.5114469,35.0008628 18.7106463,34.7416991 17.9094955,34.2712901 L17.8711454,34.2486087 C17.0699946,33.7713688 16.2691952,33.0832986 15.551223,32.2331769 L11.3390093,27.2454431 C9.89150998,25.5315344 9,23.4189662 9,21.7033372 L9,21.3310552 C9,21.0247441 9.32308693,21.0242033 9.5817317,21.3305085 L17.4526209,30.6503561 C17.5904362,30.8138346 17.7412107,30.9416563 17.8895324,31.0293781 C18.2313568,31.2315433 18.5623246,31.2218219 18.704343,30.9441385 C18.8693003,30.62214 18.6828037,30.0311626 18.3012282,29.579529 L9.38893025,19.0264656 C9.14832232,18.7416127 9,18.390183 9,18.1049037 L9,16.7103251 C9,16.3414575 9.0416773,16.0035281 9.12100443,15.6995555 Z" id="Clip-5" fill="#51ADE6"></path>
                        <path d="M16.0169641,15.7337818 L16.0548044,15.7563624 C16.8543363,16.2367194 17.6529962,16.929143 18.3693487,17.7850259 L22.5553345,22.7862143 C23.9993748,24.5110628 24.8888896,26.6379287 24.8888896,28.3649219 L24.8888896,28.7588353 C24.8888896,29.0554038 24.5788427,29.0556939 24.3307042,28.7595206 L16.471921,19.3704141 C16.032136,18.8446522 15.4631338,18.6844482 15.2444615,19.0412486 C15.0507257,19.3571203 15.2416712,19.9859848 15.6397805,20.461781 L24.5256538,31.0780432 C24.7504332,31.346551 24.8888896,31.6775133 24.8888896,31.9460819 L24.8888896,33.3761591 C24.8888896,33.6907841 24.8590713,33.9829187 24.8016947,34.2506617 C24.7376982,34.5498535 24.3643546,34.4923261 24.0769783,34.1488974 L8.75317173,15.8415348 C8.5221177,15.5653118 8.48706762,15.2135151 8.68307042,15.1428196 C8.9331318,15.052905 9.21039572,15.0056045 9.51207193,15.0051911 L13.7022465,15.000004 C14.4187734,14.99917 15.2174333,15.2599226 16.0169641,15.7337818 Z M7.12100443,16.6995555 C7.16285689,16.539158 7.32186117,16.5154611 7.49014662,16.6149901 C7.55318794,16.6522746 7.61728,16.7065365 7.6771693,16.7775467 L23.0876332,35.024814 C23.3856799,35.3777923 23.4172024,35.8190505 23.1567961,35.8958504 C22.9372101,35.9608403 22.698176,35.9943752 22.4414565,35.9946209 L18.2294179,36.0000007 C17.5114469,36.0008628 16.7106463,35.7416991 15.9094955,35.2712901 L15.8711454,35.2486087 C15.0699946,34.7713688 14.2691952,34.0832986 13.551223,33.2331769 L9.33900927,28.2454431 C7.89150998,26.5315344 7,24.4189662 7,22.7033372 L7,22.3310552 C7,22.0247441 7.32308693,22.0242033 7.5817317,22.3305085 L15.4526209,31.6503561 C15.5904362,31.8138346 15.7412107,31.9416563 15.8895324,32.0293781 C16.2313568,32.2315433 16.5623246,32.2218219 16.704343,31.9441385 C16.8693003,31.62214 16.6828037,31.0311626 16.3012282,30.579529 L7.38893025,20.0264656 C7.14832232,19.7416127 7,19.390183 7,19.1049037 L7,17.7103251 C7,17.3414575 7.0416773,17.0035281 7.12100443,16.6995555 Z" id="Clip-5" fill="#FFFFFF"></path>
                    </g>
                    <g id="Group-9" transform="translate(0.000000, 204.000000)">
                        <path d="M1,116 L1,116 C0.5,116 0,114.801034 0,113.002584 L0,2.99741602 C0,1.49870801 0.4,0 1,0 L1,0 C1.5,0 2,1.19896641 2,2.99741602 L2,113.002584 C2,114.501292 1.6,116 1,116 Z" id="Path" fill="url(#linearGradient-47)" opacity="0.1"></path>
                        <circle id="Oval" fill="#4C68EF" fill-rule="nonzero" cx="1" cy="1" r="1"></circle>
                    </g>
                    <g id="Group-9-Copy" transform="translate(475.000000, 182.000000)">
                        <path d="M1,116 L1,116 C0.5,116 0,114.801034 0,113.002584 L0,2.99741602 C0,1.49870801 0.4,0 1,0 L1,0 C1.5,0 2,1.19896641 2,2.99741602 L2,113.002584 C2,114.501292 1.6,116 1,116 Z" id="Path" fill="url(#linearGradient-47)" opacity="0.1"></path>
                        <circle id="Oval" fill="#4C68EF" fill-rule="nonzero" cx="1" cy="1" r="1"></circle>
                    </g>
                    <g id="Group-9-Copy-2" transform="translate(144.000000, 0.000000)">
                        <path d="M1,60 L1,60 C0.5,60 0,59.379845 0,58.4496124 L0,1.5503876 C0,0.775193798 0.4,0 1,0 L1,0 C1.5,0 2,0.620155039 2,1.5503876 L2,58.4496124 C2,59.2248062 1.6,60 1,60 Z" id="Path" fill="url(#linearGradient-48)" opacity="0.1"></path>
                        <circle id="Oval" fill="#4C68EF" fill-rule="nonzero" cx="1" cy="1" r="1"></circle>
                    </g>
                    <g id="Group-9" transform="translate(168.000000, 387.000000)">
                        <path d="M1,73 L1,73 C0.5,73 0,72.245478 0,71.1136951 L0,1.88630491 C0,0.943152455 0.4,0 1,0 L1,0 C1.5,0 2,0.754521964 2,1.88630491 L2,71.1136951 C2,72.0568475 1.6,73 1,73 Z" id="Path" fill="url(#linearGradient-49)" opacity="0.1"></path>
                        <circle id="Oval" fill="#4C68EF" fill-rule="nonzero" cx="1" cy="1" r="1"></circle>
                    </g>
                    <g id="Group-9" transform="translate(402.000000, 424.000000)">
                        <path d="M1,116 L1,116 C0.5,116 0,114.801034 0,113.002584 L0,2.99741602 C0,1.49870801 0.4,0 1,0 L1,0 C1.5,0 2,1.19896641 2,2.99741602 L2,113.002584 C2,114.501292 1.6,116 1,116 Z" id="Path" fill="url(#linearGradient-47)" opacity="0.1"></path>
                        <circle id="Oval" fill="#4C68EF" fill-rule="nonzero" cx="1" cy="1" r="1"></circle>
                    </g>
                    <path d="M61.593239,393.943434 L61.6418909,393.972466 C62.6698604,394.590068 63.6967089,395.480327 64.6177335,396.580747 L69.9997149,403.010846 C71.8563381,405.228509 73,407.963051 73,410.18347 L73,410.68993 C73,411.071233 72.6013683,411.071606 72.282333,410.690811 L62.1781836,398.619104 C61.6127458,397.943124 60.8811716,397.737147 60.6000214,398.195891 C60.3509326,398.602012 60.596434,399.410552 61.1082887,400.02229 L72.5329825,413.671769 C72.8219846,414.016993 73,414.442516 73,414.787819 L73,416.626489 C73,417.031007 72.9616621,417.406609 72.8878922,417.75085 C72.805611,418.135525 72.3255978,418.061561 71.9561141,417.62001 L52.2540778,394.081973 C51.9570084,393.726829 51.911944,393.274519 52.1639476,393.183625 C52.4854551,393.068021 52.8419372,393.007206 53.2298066,393.006674 L58.6171737,393.000005 C59.5384225,392.998933 60.565271,393.334186 61.593239,393.943434 Z M50.1555771,395.185143 C50.2093874,394.978917 50.4138215,394.94845 50.6301885,395.076416 C50.7112416,395.124353 50.7936457,395.194118 50.8706462,395.285417 L70.684099,418.746188 C71.0673018,419.200018 71.1078307,419.767349 70.7730227,419.866092 C70.4906978,419.949651 70.1833683,419.992767 69.8533004,419.993083 L64.4378224,420 C63.5147168,420.001108 62.4851162,419.667898 61.4550652,419.063086 L61.4057579,419.033924 C60.3757069,418.42033 59.3461077,417.535669 58.4230007,416.442655 L53.0072975,410.029855 C51.1462271,407.826258 50,405.110099 50,402.90429 L50,402.425642 C50,402.031813 50.4153975,402.031118 50.7479407,402.424939 L60.8676549,414.4076 C61.0448461,414.617786 61.2386991,414.782129 61.4293983,414.894914 C61.8688868,415.15484 62.2944169,415.142342 62.4770119,414.78532 C62.6890999,414.371322 62.4493186,413.611494 61.9587215,413.030822 L50.5000532,399.462598 C50.1907001,399.096359 50,398.644521 50,398.277733 L50,396.484704 C50,396.010445 50.0535851,395.575965 50.1555771,395.185143 Z" id="Clip-5" fill="#FFFFFF" fill-rule="nonzero"></path>
                    <path d="M345.593239,143.943434 L345.641891,143.972466 C346.66986,144.590068 347.696709,145.480327 348.617733,146.580747 L353.999715,153.010846 C355.856338,155.228509 357,157.963051 357,160.18347 L357,160.68993 C357,161.071233 356.601368,161.071606 356.282333,160.690811 L346.178184,148.619104 C345.612746,147.943124 344.881172,147.737147 344.600021,148.195891 C344.350933,148.602012 344.596434,149.410552 345.108289,150.02229 L356.532982,163.671769 C356.821985,164.016993 357,164.442516 357,164.787819 L357,166.626489 C357,167.031007 356.961662,167.406609 356.887892,167.75085 C356.805611,168.135525 356.325598,168.061561 355.956114,167.62001 L336.254078,144.081973 C335.957008,143.726829 335.911944,143.274519 336.163948,143.183625 C336.485455,143.068021 336.841937,143.007206 337.229807,143.006674 L342.617174,143.000005 C343.538422,142.998933 344.565271,143.334186 345.593239,143.943434 Z M334.155577,145.185143 C334.209387,144.978917 334.413821,144.94845 334.630188,145.076416 C334.711242,145.124353 334.793646,145.194118 334.870646,145.285417 L354.684099,168.746188 C355.067302,169.200018 355.107831,169.767349 354.773023,169.866092 C354.490698,169.949651 354.183368,169.992767 353.8533,169.993083 L348.437822,170 C347.514717,170.001108 346.485116,169.667898 345.455065,169.063086 L345.405758,169.033924 C344.375707,168.42033 343.346108,167.535669 342.423001,166.442655 L337.007298,160.029855 C335.146227,157.826258 334,155.110099 334,152.90429 L334,152.425642 C334,152.031813 334.415397,152.031118 334.747941,152.424939 L344.867655,164.4076 C345.044846,164.617786 345.238699,164.782129 345.429398,164.894914 C345.868887,165.15484 346.294417,165.142342 346.477012,164.78532 C346.6891,164.371322 346.449319,163.611494 345.958722,163.030822 L334.500053,149.462598 C334.1907,149.096359 334,148.644521 334,148.277733 L334,146.484704 C334,146.010445 334.053585,145.575965 334.155577,145.185143 Z" id="Clip-5" fill="#FFFFFF" fill-rule="nonzero"></path>
                    <g id="XMLID_3_" transform="translate(325.000000, 242.000000)" fill-rule="nonzero">
                        <path d="M41.9,25 C42.1,26.6 44.1,33.4 43.7,35.9 C43.3,38.3 36.5,42.7 36.5,42.7 L35.6,38.5 L38.5,35.7 C39,35.2 39.3,34.4 39.2,33.7 L38.4,28 L41.9,25 Z" id="XMLID_2492_" fill="#FFA8A7"></path>
                        <path d="M38.4,33.3 L35.6,20.8 C35.2,16.1 39.5,16.6 40.5,18.2 C41.5,19.8 43.5,30.5 43.6,31.5 C44,33.9 44,35.1 43.8,36.1 C43.6,37.1 41.2,39.9 36.6,42.7 L35.7,38.5 L38.4,33.3 Z" id="XMLID_2191_" fill="#6A89CE"></path>
                        <path d="M37.7,92.5 C37.7,92.5 37.8,93.2 38,94.1 C38.2,94.8 38.2,95.7 37.4,96 C36.6,96.3 35.7,96.2 35.2,95.5 C34.6,94.6 34.2,93.6 33.3,92.7 C32.4,91.9 31.3,91 31,89.7 C30.7,88.5 30.9,87.8 31.7,87.7 C32.7,87.6 34.3,88.4 35.1,89 C35.6,89.5 37.7,92.5 37.7,92.5 Z" id="XMLID_2176_" fill="#2D2979"></path>
                        <path d="M26.9,99.3 C26.9,99.3 27,100.2 27,101 C27.1,101.7 27.3,102.9 27.1,103.4 C26.9,103.9 25.7,104.3 24.2,104.3 C23.3,104.3 21.5,105 20.9,105.6 C20,106.4 17.9,106.7 16.7,106.3 C15.5,105.9 14.1,105.4 13.9,104.8 C13.7,104.2 14.3,104 17.3,102.6 C20.3,101.2 22.5,100.3 23.6,98.7 L26.9,99.3 Z" id="XMLID_15_" fill="#2D2979"></path>
                        <path d="M38.4,76.7 C37.9,72.8 37.1,70.5 37.1,70.5 C37.1,70.5 37.5,65.1 37.7,60.1 C37.9,54.6 38.2,47.7 38.3,46.4 L20.5,50.4 C20.5,50.4 21.6,71.7 21.8,74.5 C22,77.3 22.2,81.2 22.5,84.7 C22.9,89.2 23.3,99.3 23.3,99.3 C25.2,100.4 26.9,100 26.9,100 C26.9,100 28.4,87.5 28.7,84.3 C29,80 27.9,76.3 27.9,76.3 C27.9,76.3 28.4,70.8 28.8,66.2 C29.2,62.2 29.7,59.7 29.7,57.8 L30.1,57.6 C30.1,57.6 30.5,65.5 30.7,68.2 C30.9,71 31.3,73.7 32.1,78.8 C32.8,83.3 34.4,92.6 34.4,92.6 C36.3,93.7 37.6,92.7 37.6,92.7 C37.6,92.7 38.9,80.6 38.4,76.7 Z" id="XMLID_14_" fill="#C4D9FF"></path>
                        <path d="M29.8,57.5 C29.8,57.5 33.8,55.4 35.8,53.5 C35.8,53.5 33.9,56.3 31.5,57.6 C31.5,57.6 30.6,67.4 30.6,67.2 L30.1,57.6 L29.8,57.5 Z" id="XMLID_13_" fill="#AACAF9"></path>
                        <path d="M35.8,17.2 C34.4,17.3 33.4,17.6 33.3,17.2 C33.2,16.9 33,15.1 33,15.1 C33.2,14.7 33.3,14.3 33.3,14.3 C35,13.3 36.2,11.5 36.4,9.3 C36.8,5.6 34.1,2.4 30.5,2 C27.1,1.6 24.5,4.1 23.8,7.4 C23.4,9 23.1,12.3 23.9,15.2 C24.3,16.8 24.7,17.2 25.4,17.4 C25.6,17.5 27.2,17.6 27.7,17.6 L27.7,17.6 C27.7,17.6 27.9,18.6 28,19.3 C28.1,20 28.1,20.3 26.8,21.1 C25.5,21.9 28.8,23.5 30.9,23.4 C33,23.2 35.4,22 36.1,20.6 C36.8,18.9 36.7,17.1 35.8,17.2 Z" id="XMLID_12_" fill="#FFA8A7"></path>
                        <path d="M35.8,17.2 C34.4,17.3 33.4,17.6 33.3,17.2 C33.2,16.9 33,15.1 33,15.1 C33.2,14.7 33.3,14.3 33.3,14.3 C33.9,13.9 34.4,13.5 34.9,12.9 L30.4,14.4 L29.1,14.1 L28.6,13.8 L28.3,13.2 C28.3,13.3 28.1,15.3 27.7,15.9 C27.3,16.6 26.1,17.3 25.5,17.4 C25.5,17.4 25.5,17.4 25.6,17.4 C25.8,17.5 27.4,17.6 27.9,17.6 L27.9,17.6 C27.9,17.6 28.1,18.6 28.2,19.3 C28.3,19.9 28.3,20.2 27.3,20.9 L29.1,22.3 L34.6,22.2 C34.7,22.1 34.9,22 35,21.9 L36.6,19.4 C36.7,18.2 36.5,17.1 35.8,17.2 Z" id="XMLID_11_" fill="#F28F8F"></path>
                        <path d="M34,14.5 C35.7,13 36.2,11.5 36.4,9.3 C36.8,5.6 34.1,2.4 30.5,2 C28.1,1.8 26.2,2.8 25,4.6 C25,4.6 25.2,5.1 25.6,5.5 C25.6,5.5 25.3,6.3 25.8,7 C26.2,7.4 26.2,7.9 26.2,8.6 C26.2,9.2 26.1,10.3 26.2,11 C26.3,12 27.4,12.2 27.4,12.2 C27.4,12.2 27.5,10 27.6,9.8 C28,9 29.4,8.8 29.9,9.9 C30.3,10.8 30.1,11.7 29.8,12.6 C29.5,13.5 28.6,13.5 28.2,13.2 C28.2,13.6 28,15.1 29.5,15.6 C30.9,16 32.3,15.6 33,15.2 C33.4,14.9 34,14.5 34,14.5 Z" id="XMLID_10_" fill="#543354"></path>
                        <path d="M25.6,5.4 C25.6,5.4 23.9,5.6 22.3,3.8 C20.7,2 21.6,0.3 23.5,1.1 C25.4,1.9 28.6,1.4 30.2,1.3 C31.8,1.1 36.1,2 35.6,5.5 L25.6,5.4 Z" id="XMLID_9_" fill="#543354"></path>
                        <path d="M33.8,17.4 C34.2,18.3 33.2,19.5 30.7,20.3 C28.2,21.1 27.9,20.1 27.9,20.1 C27.9,20.1 24.2,21.8 22.9,22.7 C21.4,23.8 20.7,26.9 20.5,32.1 C20.3,38.1 19.8,50.1 20,51.6 C20,51.6 21.7,52.6 23.3,50.3 C24.2,51.8 25.9,53.1 28.1,53.7 C31.7,54.8 36.7,53.4 39.1,48.7 C39.1,43.4 37.6,39 38.4,35.9 C40.4,28.9 41.4,26.1 40.4,21.4 C39.6,17.6 38.5,17.1 37,17.1 C35.7,17.1 33.8,17.4 33.8,17.4 Z" id="XMLID_8_" fill="#7FA8E6"></path>
                        <path d="M33.1,16.3 C33.1,16.3 33.3,16.2 33.6,16.3 C33.9,16.5 34.6,17.2 34.6,17.2 C34.6,17.2 34.8,18.7 33,19.8 C31.2,20.9 29,21.5 26.8,20.4 C26.8,20.4 27.2,19 27.4,18.7 C27.5,18.4 27.8,18.4 27.8,18.4 C27.8,18.4 28.4,19.1 30.5,18.4 C32.7,17.7 33.1,16.6 33.1,16.6 L33.1,16.3 Z" id="XMLID_7_" fill="#6A89CE"></path>
                        <path d="M14.8,37.9 C17.8,38.7 18.5,36.8 18.9,35.2 C19.9,31.4 20.4,28 21.1,25.8 C21.9,23.3 22.8,22.9 24.1,22.4 C25.5,21.8 26.8,23 26.3,26.3 C25.7,30.1 25,32.8 23.6,37.3 C23.2,38.5 22.4,40.6 21.1,41.6 C19.6,42.9 17.2,42.8 13.7,41.9 C12.2,41.5 10.5,40.6 7.7,39.3 C6.9,38.9 6.3,38.7 4.9,38 C3.4,37.3 1.9,36.2 1.1,35.1 C0.3,34 0.2,33.5 0.4,33.2 C0.6,32.9 0.9,33 1.4,33.4 C1.8,33.9 2.4,34.7 3.6,35.4 C3.6,35.4 2.7,34.4 2.1,33.8 C1.6,33.2 1.2,32.5 1,31.9 C0.7,31.3 1.3,30.4 1.7,30.8 C2.1,31.3 2.3,31.7 3.1,32.7 C3.8,33.5 4.5,34 4.5,34 C4.5,34 3.7,32.9 3.2,31.9 C2.7,30.9 2.7,30.4 2.7,30 C2.7,29.7 3.2,29.3 3.6,29.9 C4,30.5 4.3,31.4 5.2,32.4 C5.9,33.1 6.5,33.5 6.5,33.3 C6.5,33.1 6.1,32.7 5.8,31.9 C5.6,31.1 5.8,30.2 6.3,30.1 C6.8,30 6.7,30 7,30.8 C7.4,31.6 7.9,32.1 8.4,33.3 C8.8,34.3 9,34.7 9.6,35.4 C10.3,36.3 12,37.2 14.8,37.9 Z" id="XMLID_4_" fill="#FFA8A7"></path>
                        <path d="M12.9,37.3 L11.2,36.5 C10.2,36.9 9.4,38.6 9.7,40.4 L11.7,41.2 L12.9,37.3 Z" id="XMLID_2_" fill="#F5FBFB"></path>
                        <path d="M24.3,21.8 C22.3,22 21.5,22.6 20.5,26.9 C19.6,31.2 19,35.4 18.2,36.3 C17.5,37.2 17.1,38.6 12.6,36.9 C12.6,36.9 10.5,37.7 10.7,41.2 C10.7,41.2 13.1,42.1 15.8,42.7 C18.5,43.2 21,43 22.7,39.6 C24.3,36.2 26.1,29.5 26.4,26.8 C26.8,24 26.1,21.6 24.3,21.8 Z" id="XMLID_1_" fill="#6A89CE"></path>
                    </g>
                </g>
            </g>
        </g>
    </g>
</svg>