<svg width="434" height="359" viewBox="0 0 434 359" xmlns="http://www.w3.org/2000/svg">
    <title>
        Illustration
    </title>
    <defs>
        <linearGradient x1="108.582%" y1="26.895%" x2="-6.838%" y2="73.037%" id="a">
            <stop stop-color="#E4F2FF" offset="0%"/>
            <stop stop-color="#E1EFFF" offset="5.554%"/>
            <stop stop-color="#C7D7FB" offset="64.78%"/>
            <stop stop-color="#BDCEFA" offset="99.93%"/>
        </linearGradient>
        <linearGradient x1="48.656%" y1="100%" x2="48.656%" y2=".024%" id="b">
            <stop stop-color="#4C68EF" stop-opacity="0" offset="0%"/>
            <stop stop-color="#4C68EF" offset="100%"/>
        </linearGradient>
    </defs>
    <g fill="none" fill-rule="evenodd">
        <g opacity=".3" fill="#BEDAFF" fill-rule="nonzero">
            <path d="M30.6 130l-3.7 2.1c-1.9 1.1-1.9 2.9 0 4l3.7 2.1c1.9 1.1 5.1 1.1 7 0l3.7-2.1c1.9-1.1 1.9-2.9 0-4l-3.7-2.1c-1.9-1.1-5-1.1-7 0z"/>
            <path d="M28.8 167.5c1.9 1.1 1.9 2.9 0 4l-2.6 1.5c-1.9 1.1-1.9 2.9 0 4l3.7 2.1c1.9 1.1 5.1 1.1 7 0l3.7-2.1c1.9-1.1 1.9-2.9 0-4l-2.8-1.6c-1.9-1.1-1.9-2.9 0-4l13.3-7.7c1.9-1.1 5.1-1.1 7 0l.9.5c1.9 1.1 5.1 1.1 7 0l3.7-2.1c1.9-1.1 1.9-2.9 0-4L66 152c-1.9-1.1-5.1-1.1-7 0l-2.4 1.4c-1.9 1.1-5.1 1.1-7 0l-13-7.5c-1.9-1.1-5.1-1.1-7 0l-5.1 2.9c-1.9 1.1-5.1 1.1-7 0l-3.4-2c-1.9-1.1-5.1-1.1-7 0l-3.7 2.1c-1.9 1.1-1.9 2.9 0 4l3.4 2c1.9 1.1 1.9 2.9 0 4L1.4 162c-1.9 1.1-1.9 2.9 0 4l7.9 4.6c1.9 1.1 5.1 1.1 7 0l5.4-3.1c2-1.1 5.1-1.1 7.1 0z"/>
            <path d="M361.6 115l-3.7 2.1c-1.9 1.1-1.9 2.9 0 4l3.7 2.1c1.9 1.1 5.1 1.1 7 0l3.7-2.1c1.9-1.1 1.9-2.9 0-4l-3.7-2.1c-1.9-1.1-5-1.1-7 0z"/>
            <path d="M359.8 152.5c1.9 1.1 1.9 2.9 0 4l-2.6 1.5c-1.9 1.1-1.9 2.9 0 4l3.7 2.1c1.9 1.1 5.1 1.1 7 0l3.7-2.1c1.9-1.1 1.9-2.9 0-4l-2.8-1.6c-1.9-1.1-1.9-2.9 0-4l13.3-7.7c1.9-1.1 5.1-1.1 7 0l.9.5c1.9 1.1 5.1 1.1 7 0l3.7-2.1c1.9-1.1 1.9-2.9 0-4L397 137c-1.9-1.1-5.1-1.1-7 0l-2.4 1.4c-1.9 1.1-5.1 1.1-7 0l-13-7.5c-1.9-1.1-5.1-1.1-7 0l-5.1 2.9c-1.9 1.1-5.1 1.1-7 0l-3.4-2c-1.9-1.1-5.1-1.1-7 0l-3.7 2.1c-1.9 1.1-1.9 2.9 0 4l3.4 2c1.9 1.1 1.9 2.9 0 4l-5.4 3.1c-1.9 1.1-1.9 2.9 0 4l7.9 4.6c1.9 1.1 5.1 1.1 7 0l5.4-3.1c2-1.1 5.1-1.1 7.1 0z"/>
            <g>
                <path d="M91.9 327.3l4-2.3c2.1-1.2 2.1-3.2 0-4.4l-4-2.3c-2.1-1.2-5.5-1.2-7.6 0l-4 2.3c-2.1 1.2-2.1 3.2 0 4.4l4 2.3c2.1 1.2 5.5 1.2 7.6 0z"/>
                <path d="M94 286.3c-2.1-1.2-2.1-3.2 0-4.4l2.9-1.6c2.1-1.2 2.1-3.2 0-4.4l-4-2.3c-2.1-1.2-5.5-1.2-7.6 0l-4 2.3c-2.1 1.2-2.1 3.2 0 4.4l3.1 1.8c2.1 1.2 2.1 3.2 0 4.4l-14.6 8.4c-2.1 1.2-5.5 1.2-7.6 0l-1-.6c-2.1-1.2-5.5-1.2-7.6 0l-4 2.3c-2.1 1.2-2.1 3.2 0 4.4l4 2.3c2.1 1.2 5.5 1.2 7.6 0l2.6-1.5c2.1-1.2 5.5-1.2 7.6 0l14.2 8.2c2.1 1.2 5.5 1.2 7.6 0l5.5-3.2c2.1-1.2 5.5-1.2 7.6 0l3.8 2.2c2.1 1.2 5.5 1.2 7.6 0l4-2.3c2.1-1.2 2.1-3.2 0-4.4l-3.8-2.2c-2.1-1.2-2.1-3.2 0-4.4l5.9-3.4c2.1-1.2 2.1-3.2 0-4.4l-8.6-5c-2.1-1.2-5.5-1.2-7.6 0l-5.9 3.4c-2.2 1.2-5.6 1.2-7.7 0z"/>
            </g>
        </g>
        <path d="M405.405 239.027c-1.217 0-2.38-.245-3.248-.747l-22.712-13.214c-1.916-1.106-1.676-3.04.537-4.317l21.648-12.612c1.21-.7 2.76-1.058 4.23-1.058 1.217 0 2.379.246 3.247.747l22.712 13.214c1.916 1.107 1.676 3.04-.537 4.317l-21.648 12.614c-1.21.698-2.76 1.056-4.23 1.056" fill="#EAF2FF"/>
        <path d="M433.102 210.273v-4.549l-24.162-.014.167-.006c-1.916-1.106-5.264-.968-7.477.311l.716-.299-24.184-.014v4.857c-.055.749.362 1.471 1.283 2.003l22.712 13.214c1.917 1.107 5.265.968 7.478-.31l21.647-12.612c1.276-.738 1.893-1.692 1.82-2.581" fill="#CDDCFC"/>
        <path d="M405.638 204.963c-1.403.034-2.86.388-4.008 1.052l.716-.299-24.184-.014v4.857c-.055.749.362 1.471 1.283 2.003l22.712 13.214c.92.532 2.173.773 3.47.742l.01-21.555" fill="#C3D4FA"/>
        <path d="M380.898 205.703l-2.736-.001v4.857c-.055.749.362 1.471 1.283 2.003l1.453.838v-7.697" fill="#C3D4FA"/>
        <path d="M402.639 226.012c1.652.708 4.043.669 5.977-.069v-6.357h-5.977v6.426" fill="#C3D4FA"/>
        <path d="M402.157 220.96l-22.712-13.215c-1.916-1.106-1.676-3.039.537-4.316l21.648-12.614c2.213-1.277 5.56-1.416 7.477-.309l22.712 13.214c1.916 1.106 1.676 3.04-.537 4.317l-21.647 12.612c-2.213 1.279-5.561 1.417-7.478.311" fill="#E8F2FE"/>
        <path d="M212.873 303.749c-2.507 0-4.901-.506-6.69-1.539L66.605 221.625c-3.948-2.28-3.453-6.262 1.106-8.895l95.043-54.854c2.493-1.439 5.686-2.177 8.714-2.177 2.507 0 4.9.506 6.69 1.539l139.578 80.585c3.948 2.28 3.453 6.262-1.106 8.894l-95.042 54.854c-2.494 1.44-5.687 2.178-8.715 2.178" fill="#EAF2FF"/>
        <path d="M353.533 90.038L211.216 7.871c-1.653-.954-3.332-1.101-4.823-.591l.009-.015-.26.097-.061.024-5.144 1.968 4.617 2.261-.067.251-23.181 105.519c-1.16 5.281 1.164 11.446 5.189 13.77l138.895 80.191-.496 5.885 5.62-2.178c1.89-.883 3.402-2.88 4.027-5.726l23.18-105.519c1.16-5.281-1.163-11.446-5.188-13.77" fill="#CCDCFC"/>
        <path d="M353.533 90.038L211.216 7.871c-1.653-.954-3.332-1.101-4.823-.591l.009-.015-.26.097-.061.024-5.144 1.968 4.617 2.261-.067.251-15.277 69.543 69.634 54.252 98.184-39.952c-.943-2.445-2.511-4.526-4.495-5.671" fill="#D2E1FD"/>
        <path d="M348.167 106.258L359 101.646c.198-4.196-1.54-8.531-4.39-10.849l-17.148 7.214 10.704 8.247" fill="#D2E1FD"/>
        <path d="M320.95 216.672l-142.317-82.167c-4.026-2.324-6.35-8.489-5.19-13.77l23.182-105.519c1.16-5.281 5.364-7.677 9.39-5.353L348.333 92.03c4.026 2.324 6.349 8.49 5.189 13.77l-23.18 105.519c-1.161 5.282-5.365 7.678-9.391 5.353" fill="#E8F2FE"/>
        <path d="M317.865 208.823l-133.847-77.238c-3.683-2.127-5.81-7.769-4.748-12.601l21.212-96.559c1.062-4.832 4.909-7.025 8.593-4.898l133.847 77.238c3.684 2.127 5.81 7.769 4.749 12.601l-21.213 96.559c-1.062 4.833-4.91 7.025-8.593 4.898" fill="#FFFFFE"/>
        <path d="M317.865 208.823l-133.847-77.238c-3.683-2.127-5.81-7.769-4.748-12.601l21.212-96.559c1.062-4.832 4.909-7.025 8.593-4.898l133.847 77.238c3.684 2.127 5.81 7.769 4.749 12.601l-21.213 96.559c-1.062 4.833-4.91 7.025-8.593 4.898" fill="#FFFFFE"/>
        <path d="M323.915 220.251l-19.454-2.569-125.578-72.503c-4.026-2.324-11.058-2.033-15.707.652l-88.984 51.356-11.763-1.553v6.674l.01.002c-.076 1.542.803 3.026 2.702 4.123l142.317 82.166c4.026 2.325 11.058 2.033 15.707-.651l96.907-55.93c2.615-1.51 3.919-3.455 3.843-5.283v-6.484" fill="url(#a)" fill-rule="nonzero" transform="translate(-1)"/>
        <path d="M228.559 174.438l-8.921-5.151h-98.09l-48.356 27.9-11.763-1.553v6.674l.01.002c-.076 1.542.803 3.026 2.702 4.123l142.317 82.166c2.128 1.228 5.095 1.719 8.106 1.519l13.995-115.68" fill="#C3D4FA"/>
        <path d="M207.89 289.265c3.817 1.447 9.273 1.132 13.347-.828v-14.888H207.89v15.716" fill="#CBDBFB"/>
        <path d="M66.649 196.323l-5.22-.689v6.674l.01.002c-.076 1.542.803 3.026 2.702 4.123l2.508 1.447v-11.557" fill="#C3D4FA"/>
        <path d="M206.458 281.933L64.14 199.766c-4.026-2.325-3.521-6.385 1.128-9.069l96.907-55.93c4.649-2.684 11.68-2.976 15.707-.652L320.2 216.282c4.026 2.324 3.522 6.385-1.128 9.069l-96.907 55.93c-4.65 2.685-11.681 2.976-15.707.652" fill="#E8F2FE" fill-rule="nonzero"/>
        <path d="M124.67 172.563l-6.44-3.717c-.516-.299-.451-.82.146-1.165l7.6-4.388c.597-.344 1.5-.382 2.018-.084l6.438 3.718c.518.299.453.82-.144 1.165l-7.601 4.388c-.596.345-1.5.382-2.016.083" fill="#B8D0F6"/>
        <path d="M134.614 178.305l-6.438-3.718c-.518-.298-.453-.819.144-1.164l7.6-4.388c.597-.345 1.5-.383 2.017-.084l6.44 3.718c.517.298.452.819-.145 1.164l-7.6 4.389c-.597.344-1.5.382-2.018.083" fill="#B8D0F6"/>
        <path d="M144.558 184.046l-6.44-3.718c-.516-.298-.451-.819.147-1.164l7.6-4.389c.597-.344 1.5-.381 2.017-.083l6.439 3.718c.518.298.452.819-.144 1.164l-7.601 4.389c-.598.345-1.5.382-2.018.083" fill="#B8D0F6"/>
        <path d="M158.312 179.305l-6.44-3.718c-.517-.298-.451-.819.145-1.164l6.38-3.684c.598-.345 1.5-.382 2.018-.084l6.439 3.718c.517.299.452.82-.144 1.164l-6.381 3.685c-.597.344-1.5.382-2.017.083" fill="#B8D0F6"/>
        <path d="M168.257 185.046l-6.44-3.718c-.517-.298-.452-.819.145-1.164l6.38-3.684c.597-.344 1.5-.382 2.017-.084l6.44 3.718c.516.299.452.821-.146 1.165l-6.38 3.684c-.596.345-1.5.382-2.016.083" fill="#B8D0F6"/>
        <path d="M178.2 190.787l-6.438-3.718c-.518-.298-.453-.819.144-1.164l6.38-3.683c.598-.345 1.5-.382 2.018-.084l6.439 3.717c.517.299.452.821-.145 1.166l-6.38 3.683c-.597.345-1.5.382-2.018.083" fill="#B8D0F6"/>
        <path d="M188.144 196.528l-6.44-3.717c-.516-.298-.451-.82.146-1.165l6.38-3.683c.597-.345 1.5-.382 2.018-.084l6.438 3.718c.518.299.453.82-.144 1.165l-6.38 3.683c-.598.345-1.5.382-2.018.083" fill="#B8D0F6"/>
        <path d="M198.089 202.27l-6.44-3.718c-.516-.298-.452-.82.146-1.164l6.38-3.684c.596-.345 1.5-.382 2.016-.084l6.44 3.718c.517.299.452.82-.145 1.165l-6.38 3.684c-.597.344-1.501.381-2.017.083" fill="#B8D0F6"/>
        <path d="M208.033 208.012l-6.44-3.718c-.516-.299-.452-.82.145-1.165l6.38-3.684c.598-.344 1.5-.382 2.018-.084l6.439 3.718c.518.299.452.82-.144 1.165l-6.381 3.684c-.597.344-1.5.382-2.017.084" fill="#B8D0F6"/>
        <path d="M217.977 213.753l-6.44-3.718c-.516-.299-.451-.82.145-1.165l6.38-3.683c.598-.345 1.5-.382 2.018-.084l6.439 3.717c.517.299.453.821-.144 1.165l-6.381 3.684c-.597.345-1.5.382-2.017.084" fill="#B8D0F6"/>
        <path d="M227.922 219.494l-6.44-3.718c-.517-.298-.452-.82.145-1.165l6.38-3.683c.597-.345 1.5-.382 2.017-.084l6.44 3.718c.516.298.452.82-.146 1.165l-6.38 3.683c-.596.345-1.5.382-2.016.084" fill="#B8D0F6"/>
        <path d="M237.865 225.235l-6.438-3.717c-.518-.299-.453-.821.144-1.165l6.38-3.684c.598-.345 1.5-.382 2.018-.083l6.439 3.718c.517.298.452.819-.145 1.164l-6.38 3.683c-.597.345-1.5.382-2.018.084" fill="#B8D0F6"/>
        <path d="M247.809 230.977l-6.44-3.718c-.516-.299-.451-.821.146-1.165l6.38-3.684c.597-.345 1.5-.382 2.018-.083l6.438 3.718c.518.298.454.819-.144 1.164l-6.38 3.684c-.598.344-1.5.381-2.018.084" fill="#B8D0F6"/>
        <path d="M172.964 176.587l-6.44-3.718c-.516-.299-.451-.82.146-1.165l6.38-3.683c.597-.345 1.5-.382 2.017-.084l6.44 3.718c.516.298.452.82-.146 1.164l-6.38 3.684c-.596.345-1.5.382-2.017.084" fill="#B8D0F6"/>
        <path d="M162.872 170.76l-6.44-3.718c-.517-.298-.452-.82.145-1.165l6.38-3.683c.598-.345 1.5-.382 2.017-.084l6.44 3.718c.517.298.452.82-.145 1.165l-6.38 3.683c-.597.345-1.5.382-2.017.084" fill="#B8D0F6"/>
        <path d="M152.763 164.923l-13.87-8.007c-.516-.298-.451-.82.146-1.165l6.38-3.683c.597-.345 1.5-.382 2.017-.084l13.869 8.007c.517.299.452.821-.145 1.165l-6.381 3.684c-.597.345-1.5.382-2.016.083" fill="#B8D0F6"/>
        <path d="M159.829 157.825l-11.255-6.497c-.518-.299-.452-.82.145-1.165l6.38-3.684c.597-.344 1.5-.382 2.017-.083l11.255 6.498c.517.298.452.819-.145 1.164l-6.38 3.684c-.597.344-1.5.382-2.017.083" fill="#B8D0F6"/>
        <path d="M182.908 182.328l-6.438-3.718c-.518-.298-.454-.82.144-1.165l6.38-3.683c.598-.345 1.5-.382 2.018-.083l6.439 3.717c.517.298.452.82-.145 1.165l-6.38 3.683c-.597.345-1.5.383-2.018.084" fill="#B8D0F6"/>
        <path d="M192.852 188.069l-6.44-3.717c-.516-.299-.451-.821.146-1.165l6.38-3.684c.597-.345 1.5-.382 2.018-.083l6.438 3.718c.518.298.453.819-.144 1.164l-6.38 3.683c-.598.345-1.5.383-2.018.084" fill="#B8D0F6"/>
        <path d="M202.797 193.811l-6.44-3.718c-.516-.299-.452-.821.145-1.164l6.38-3.685c.597-.344 1.5-.382 2.017-.083l6.44 3.718c.517.298.452.819-.145 1.164l-6.38 3.684c-.597.344-1.501.382-2.017.084" fill="#B8D0F6"/>
        <path d="M212.74 199.552l-6.438-3.718c-.517-.299-.453-.819.144-1.164l6.38-3.684c.598-.344 1.5-.382 2.018-.084l6.439 3.718c.517.299.452.819-.144 1.164l-6.381 3.684c-.597.345-1.5.383-2.017.084" fill="#B8D0F6"/>
        <path d="M222.685 205.293l-6.44-3.718c-.517-.298-.451-.819.145-1.164l6.38-3.683c.598-.345 1.5-.383 2.018-.084l6.439 3.717c.517.299.453.821-.144 1.164l-6.381 3.685c-.597.344-1.5.382-2.017.083" fill="#B8D0F6"/>
        <path d="M232.63 211.034l-6.44-3.718c-.517-.297-.452-.819.145-1.164l6.38-3.683c.597-.345 1.5-.383 2.017-.084l6.44 3.718c.516.298.452.82-.146 1.165l-6.38 3.683c-.596.345-1.5.382-2.016.083" fill="#B8D0F6"/>
        <path d="M242.573 216.775l-6.438-3.717c-.518-.298-.453-.82.144-1.164l6.38-3.684c.598-.345 1.5-.383 2.018-.084l6.439 3.718c.517.299.452.82-.145 1.165l-6.38 3.683c-.597.345-1.5.382-2.018.083" fill="#B8D0F6"/>
        <path d="M252.517 222.517l-6.44-3.718c-.516-.298-.451-.82.146-1.164l6.38-3.684c.597-.345 1.5-.382 2.018-.084l6.438 3.718c.518.299.453.82-.144 1.165l-6.38 3.684c-.598.344-1.5.381-2.018.083" fill="#B8D0F6"/>
        <path d="M262.462 228.258l-6.44-3.718c-.516-.298-.452-.819.146-1.164l6.38-3.684c.596-.344 1.5-.381 2.016-.084l6.44 3.718c.517.299.452.82-.145 1.165l-6.38 3.684c-.597.345-1.501.382-2.017.083" fill="#B8D0F6"/>
        <path d="M280.14 238.465l-14.05-8.111c-.517-.299-.451-.821.145-1.166l6.38-3.683c.598-.345 1.5-.382 2.018-.084l14.049 8.112c.518.299.453.82-.144 1.164l-6.381 3.684c-.597.345-1.5.383-2.017.084" fill="#B8D0F6"/>
        <path d="M299.5 227.287l-11.86-6.847c-.515-.297-.451-.819.147-1.164l6.38-3.683c.597-.345 1.5-.383 2.017-.084l11.859 6.846c.516.299.452.821-.145 1.166l-6.381 3.683c-.596.345-1.5.382-2.016.083" fill="#B8D0F6"/>
        <path d="M200.323 181.205l-6.44-3.718c-.517-.299-.452-.82.145-1.165l6.38-3.683c.598-.345 1.5-.382 2.018-.084l6.439 3.717c.517.299.452.821-.144 1.166l-6.381 3.683c-.597.345-1.5.382-2.017.084" fill="#B8D0F6"/>
        <path d="M190.132 175.32l-6.44-3.717c-.517-.299-.452-.82.145-1.165l6.38-3.684c.597-.344 1.5-.381 2.017-.083l6.44 3.718c.516.298.452.819-.146 1.164l-6.38 3.684c-.596.345-1.5.382-2.016.083" fill="#B8D0F6"/>
        <path d="M179.939 169.437l-6.438-3.718c-.518-.299-.452-.82.144-1.165l6.38-3.683c.598-.345 1.5-.383 2.018-.084l6.439 3.718c.517.298.452.82-.145 1.164l-6.38 3.684c-.597.345-1.5.382-2.018.084" fill="#B8D0F6"/>
        <path d="M169.748 163.552l-6.44-3.718c-.516-.298-.452-.819.146-1.164l6.38-3.684c.597-.344 1.5-.382 2.017-.083l6.439 3.718c.517.298.452.819-.145 1.164l-6.38 3.684c-.597.344-1.5.382-2.017.083" fill="#B8D0F6"/>
        <path d="M210.267 186.946l-6.44-3.717c-.517-.299-.451-.821.146-1.166l6.379-3.683c.598-.345 1.5-.382 2.018-.084l6.439 3.718c.517.299.453.82-.145 1.165l-6.38 3.683c-.597.345-1.5.382-2.017.084" fill="#B8D0F6"/>
        <path d="M220.21 192.688l-6.438-3.718c-.517-.299-.452-.821.145-1.165l6.38-3.684c.597-.345 1.5-.382 2.017-.083l6.44 3.718c.516.298.452.819-.146 1.164l-6.38 3.684c-.596.344-1.5.381-2.017.084" fill="#B8D0F6"/>
        <path d="M230.155 198.429l-6.44-3.718c-.516-.299-.451-.82.146-1.165l6.38-3.684c.597-.344 1.5-.382 2.018-.083l6.438 3.718c.518.298.452.819-.144 1.164l-6.38 3.684c-.598.344-1.5.382-2.018.084" fill="#B8D0F6"/>
        <path d="M240.099 204.17l-6.44-3.718c-.516-.299-.451-.82.147-1.165l6.379-3.683c.597-.345 1.5-.382 2.017-.083l6.439 3.717c.518.298.453.82-.144 1.164l-6.38 3.684c-.598.345-1.501.382-2.018.084" fill="#B8D0F6"/>
        <path d="M250.044 209.911l-6.44-3.718c-.516-.298-.452-.82.145-1.165l6.38-3.683c.597-.345 1.5-.382 2.017-.083l6.44 3.717c.517.298.452.82-.145 1.165l-6.381 3.683c-.596.345-1.5.383-2.016.084" fill="#B8D0F6"/>
        <path d="M259.988 215.652l-6.44-3.717c-.517-.299-.451-.821.145-1.164l6.38-3.685c.598-.344 1.5-.382 2.018-.083l6.439 3.718c.517.298.452.819-.144 1.164l-6.381 3.683c-.597.345-1.5.383-2.017.084" fill="#B8D0F6"/>
        <path d="M269.932 221.394l-6.44-3.718c-.517-.299-.451-.82.146-1.164l6.379-3.684c.598-.345 1.5-.383 2.018-.084l6.439 3.718c.517.299.453.819-.145 1.164l-6.38 3.684c-.597.344-1.5.382-2.017.084" fill="#B8D0F6"/>
        <path d="M279.876 227.135l-6.44-3.718c-.516-.299-.451-.819.146-1.164l6.38-3.684c.597-.344 1.5-.382 2.017-.084l6.44 3.718c.516.299.452.819-.146 1.164l-6.38 3.684c-.596.345-1.5.383-2.017.084" fill="#B8D0F6"/>
        <path d="M289.82 232.876l-6.44-3.718c-.516-.298-.451-.819.146-1.164l6.38-3.683c.597-.345 1.5-.383 2.018-.084l6.438 3.717c.518.299.452.821-.144 1.164l-6.38 3.685c-.598.344-1.5.382-2.018.083" fill="#B8D0F6"/>
        <path d="M195.087 167.004l-6.44-3.718c-.516-.298-.452-.82.145-1.164l6.38-3.684c.597-.345 1.5-.382 2.017-.084l6.44 3.718c.516.299.452.82-.145 1.165l-6.381 3.683c-.596.345-1.5.382-2.016.084" fill="#B8D0F6"/>
        <path d="M185.192 161.291l-6.44-3.717c-.517-.299-.451-.821.145-1.165l6.38-3.684c.598-.344 1.5-.382 2.018-.083l6.439 3.717c.517.299.452.82-.145 1.165l-6.38 3.684c-.597.344-1.5.382-2.017.083" fill="#B8D0F6"/>
        <path d="M175.297 155.579l-6.44-3.718c-.516-.298-.451-.82.146-1.165l6.38-3.683c.597-.345 1.5-.383 2.017-.084l6.44 3.717c.516.299.452.821-.146 1.166l-6.38 3.683c-.596.345-1.5.382-2.017.084" fill="#B8D0F6"/>
        <path d="M165.402 149.866l-6.44-3.718c-.516-.298-.451-.82.146-1.165l6.38-3.683c.597-.345 1.5-.382 2.018-.084l6.438 3.718c.518.298.452.82-.144 1.165l-6.38 3.683c-.598.345-1.5.383-2.018.084" fill="#B8D0F6"/>
        <path d="M175.577 143.991l-6.44-3.717c-.516-.299-.452-.82.146-1.165l2.108-1.217c.598-.345 1.5-.383 2.018-.084l6.439 3.717c.517.299.453.82-.145 1.165l-2.108 1.218c-.598.344-1.5.382-2.018.083" fill="#B8D0F6"/>
        <path d="M188.49 151.446l-6.44-3.717c-.517-.299-.452-.82.145-1.165l2.11-1.217c.596-.345 1.5-.383 2.016-.084l6.44 3.717c.517.299.452.82-.145 1.165l-2.11 1.218c-.596.345-1.5.382-2.016.083" fill="#B8D0F6"/>
        <path d="M198.344 157.135l-6.44-3.718c-.517-.298-.452-.819.145-1.164l2.109-1.217c.597-.345 1.5-.383 2.017-.084l6.439 3.717c.518.299.452.82-.144 1.165l-2.11 1.218c-.596.344-1.5.382-2.016.083" fill="#B8D0F6"/>
        <path d="M208.197 162.824l-6.44-3.718c-.517-.298-.451-.819.145-1.164l2.11-1.218c.596-.344 1.5-.382 2.016-.083l6.44 3.717c.517.299.452.82-.145 1.165l-2.11 1.218c-.596.344-1.5.382-2.016.083" fill="#B8D0F6"/>
        <path d="M218.05 168.513l-6.44-3.718c-.516-.298-.451-.819.146-1.164l2.109-1.218c.597-.345 1.5-.382 2.017-.083l6.439 3.717c.518.299.452.82-.144 1.165l-2.11 1.218c-.596.344-1.5.382-2.016.083" fill="#B8D0F6"/>
        <path d="M273.06 200.273l-6.44-3.717c-.516-.298-.451-.82.146-1.164l2.11-1.218c.597-.345 1.5-.383 2.016-.084l6.44 3.718c.516.298.452.82-.145 1.165l-2.11 1.216c-.597.345-1.5.383-2.017.084" fill="#B8D0F6"/>
        <path d="M282.914 205.963l-6.44-3.718c-.516-.299-.452-.82.146-1.165l2.109-1.218c.597-.344 1.5-.382 2.017-.083l6.439 3.717c.517.299.453.82-.144 1.165l-2.11 1.218c-.597.345-1.5.382-2.017.084" fill="#B8D0F6"/>
        <path d="M292.767 211.651l-6.44-3.717c-.516-.299-.451-.821.146-1.164l2.109-1.218c.598-.345 1.5-.383 2.017-.084l6.44 3.718c.517.298.452.819-.145 1.164l-2.11 1.217c-.597.345-1.5.383-2.017.084" fill="#B8D0F6"/>
        <path d="M302.62 217.34l-6.44-3.717c-.515-.299-.451-.82.147-1.165l2.108-1.218c.598-.344 1.5-.382 2.018-.084l6.439 3.718c.517.299.453.82-.145 1.165l-2.108 1.218c-.598.345-1.5.382-2.018.083" fill="#B8D0F6"/>
        <path d="M205.03 172.745l-6.438-3.718c-.518-.298-.452-.819.144-1.164l6.38-3.684c.598-.345 1.5-.382 2.018-.083l6.439 3.717c.517.299.452.82-.144 1.165l-6.381 3.684c-.597.344-1.5.382-2.017.083" fill="#B8D0F6"/>
        <path d="M214.974 178.486l-6.438-3.717c-.518-.298-.452-.82.145-1.165l6.379-3.684c.598-.344 1.5-.381 2.018-.083l6.439 3.718c.517.299.453.82-.145 1.165l-6.38 3.683c-.597.345-1.5.382-2.018.083" fill="#B8D0F6"/>
        <path d="M224.919 184.228l-6.44-3.718c-.516-.298-.452-.82.146-1.164l6.38-3.684c.596-.345 1.5-.383 2.017-.084l6.439 3.718c.517.299.453.82-.145 1.165l-6.38 3.684c-.597.344-1.5.381-2.017.083" fill="#B8D0F6"/>
        <path d="M234.863 189.969l-6.44-3.718c-.516-.298-.451-.819.146-1.164l6.38-3.684c.597-.344 1.5-.382 2.018-.084l6.438 3.718c.518.299.452.82-.144 1.165l-6.38 3.684c-.598.344-1.5.382-2.018.083" fill="#B8D0F6"/>
        <path d="M244.807 195.71l-6.44-3.718c-.516-.298-.451-.819.146-1.164l6.38-3.683c.597-.345 1.5-.382 2.017-.084l6.439 3.717c.518.299.453.821-.144 1.165l-6.381 3.684c-.597.345-1.5.382-2.017.083" fill="#B8D0F6"/>
        <path d="M254.752 201.451l-6.44-3.717c-.516-.298-.452-.82.145-1.165l6.38-3.683c.597-.345 1.5-.382 2.017-.084l6.44 3.718c.516.298.452.82-.145 1.165l-6.381 3.683c-.596.345-1.5.382-2.016.083" fill="#B8D0F6"/>
        <path d="M264.696 207.193l-6.44-3.717c-.517-.299-.451-.821.145-1.165l6.38-3.684c.598-.345 1.5-.382 2.018-.084l6.439 3.718c.517.299.452.82-.144 1.165l-6.381 3.683c-.597.345-1.5.382-2.017.084" fill="#B8D0F6"/>
        <path d="M274.64 212.935l-6.44-3.718c-.517-.299-.451-.821.146-1.165l6.379-3.684c.598-.345 1.5-.382 2.018-.084l6.439 3.718c.517.299.453.82-.145 1.165l-6.38 3.684c-.597.344-1.5.381-2.017.084" fill="#B8D0F6"/>
        <path d="M284.584 218.676l-6.44-3.718c-.516-.299-.451-.82.146-1.165l6.38-3.684c.597-.344 1.5-.381 2.017-.083l6.44 3.717c.516.299.452.82-.146 1.165l-6.38 3.684c-.596.345-1.5.382-2.017.084" fill="#B8D0F6"/>
        <path d="M148.179 173.454l-18.965-10.949c-.517-.298-.452-.82.144-1.165l6.38-3.683c.598-.345 1.5-.382 2.018-.084l18.965 10.949c.516.299.452.82-.145 1.165l-6.381 3.683c-.597.345-1.5.383-2.016.084" fill="#B8D0F6"/>
        <path d="M270.345 243.987l-18.964-10.949c-.518-.299-.452-.82.144-1.165l6.38-3.684c.598-.344 1.5-.381 2.018-.083l18.965 10.95c.516.298.452.819-.146 1.164l-6.38 3.683c-.597.345-1.5.382-2.017.084" fill="#B8D0F6"/>
        <path d="M230.577 233.709l-6.44-3.718c-.517-.299-.452-.82.145-1.165l7.6-4.388c.598-.344 1.5-.382 2.018-.084l6.44 3.718c.516.299.452.821-.146 1.165l-7.6 4.388c-.597.345-1.5.382-2.017.084" fill="#B8D0F6"/>
        <path d="M158.362 192.016l-10.3-5.947c-.515-.298-.451-.819.147-1.164l7.6-4.388c.597-.345 1.5-.382 2.017-.083l10.298 5.945c.517.299.453.82-.145 1.165l-7.6 4.388c-.597.344-1.5.381-2.017.084" fill="#B8D0F6"/>
        <path d="M220.995 228.177l-10.298-5.946c-.516-.298-.452-.82.145-1.165l7.6-4.387c.598-.345 1.5-.383 2.018-.084l10.298 5.946c.517.298.452.819-.145 1.164l-7.6 4.389c-.597.344-1.5.382-2.018.083" fill="#B8D0F6"/>
        <path d="M172.709 200.299l-10.298-5.945c-.517-.299-.452-.821.145-1.166l7.6-4.387c.598-.345 1.5-.383 2.018-.084l10.298 5.945c.517.299.452.82-.145 1.165l-7.601 4.388c-.596.345-1.5.383-2.017.084" fill="#B8D0F6"/>
        <path d="M172.243 188.757l44.773 25.85c.556.321.556.841 0 1.162l-7.75 4.474c-.555.321-1.456.321-2.011 0l-44.775-25.849 9.763-5.637" fill="#B8D0F6"/>
        <path d="M258.369 244.118l7.173 4.142c.424.244.37.672-.12.954l-3.108 1.795c-.49.283-1.23.313-1.653.068l-7.173-4.14c-.424-.246-.371-.672.118-.956l3.11-1.794c.489-.283 1.229-.313 1.653-.069" fill="#B8D0F6"/>
        <path d="M248.343 238.329l7.172 4.142c.424.244.37.672-.12.954l-3.108 1.795c-.49.283-1.23.313-1.653.069l-7.173-4.142c-.424-.244-.37-.671.119-.954l3.109-1.796c.49-.282 1.23-.312 1.654-.068" fill="#B8D0F6"/>
        <path d="M238.398 232.588l7.173 4.141c.424.245.37.672-.12.955l-3.108 1.795c-.49.283-1.23.313-1.654.069l-7.172-4.142c-.423-.244-.371-.672.119-.954l3.109-1.796c.489-.282 1.229-.312 1.653-.068" fill="#B8D0F6"/>
        <path d="M253.834 235.159l7.173 4.141c.424.245.37.672-.12.955l-3.108 1.795c-.49.282-1.23.313-1.654.068l-7.172-4.14c-.424-.246-.371-.673.118-.956l3.11-1.794c.489-.283 1.229-.314 1.653-.069" fill="#B8D0F6"/>
        <path d="M335.208 84.453l-46.114-26.624-41.613-18.14-7.95 33.265s-11.313 40.924 27.949 88.976c49.924 3.44 58.542-39.041 58.542-39.041l9.186-38.436" fill="#F1F7FF"/>
        <path fill="#ACC1EE" d="M323.354 77.611l11.85 6.843 5.402-1.877-16.203-9.355-76.925-33.531-1.392 5.829 77.268 32.091"/>
        <path fill="#D8E7FA" d="M335.205 84.454l-11.851-6.843-1.231 5.154 11.85 6.839 1.232-5.15"/>
        <path d="M237.33 59.482c-.216 0-.446-.062-.674-.194l-8.644-4.991c-.802-.463-1.275-1.609-1.055-2.56.157-.681.626-1.077 1.174-1.077.218 0 .448.063.676.194l8.644 4.991c.802.463 1.274 1.61 1.055 2.56-.158.681-.627 1.077-1.175 1.077" fill="#EBF5F8"/>
        <path d="M257.923 71.371c-.218 0-.447-.063-.675-.194l-12.747-7.36c-.802-.463-1.275-1.609-1.055-2.559.157-.681.627-1.077 1.175-1.077.217 0 .447.062.675.194l12.747 7.359c.802.463 1.273 1.609 1.055 2.56-.158.681-.627 1.077-1.175 1.077" fill="#D4EAF2"/>
        <path d="M222.262 99.833c-.217 0-.447-.062-.675-.193l-8.645-4.992c-.801-.462-1.274-1.608-1.054-2.56.157-.68.626-1.076 1.174-1.076.218 0 .447.062.675.194l8.645 4.991c.802.463 1.274 1.609 1.054 2.559-.156.681-.625 1.077-1.174 1.077" fill="#F1F7FF"/>
        <path d="M240.618 110.431c-.217 0-.447-.062-.675-.194l-12.747-7.359c-.802-.463-1.274-1.609-1.055-2.56.158-.681.627-1.077 1.175-1.077.218 0 .447.063.675.194l11.92 6.883c.268 1.335.568 2.701.904 4.096-.064.011-.13.017-.197.017" fill="#EBF5F8"/>
        <path d="M240.815 110.414a107.662 107.662 0 0 1-.903-4.096l.826.476c.802.464 1.274 1.61 1.055 2.561-.138.597-.517.975-.978 1.059" fill="#D4EAF2"/>
        <path d="M211.83 52.934c-.218 0-.447-.062-.675-.194l-5.4-3.118c-.802-.463-1.275-1.609-1.055-2.56.157-.681.626-1.076 1.174-1.076.218 0 .448.062.676.193l5.399 3.118c.803.463 1.274 1.609 1.056 2.56-.158.681-.627 1.077-1.175 1.077" fill="#D8E7FA"/>
        <path d="M228.474 70.718c-.218 0-.448-.062-.675-.194l-16.5-9.526c-.802-.463-1.275-1.609-1.055-2.56.157-.68.626-1.076 1.174-1.076.218 0 .448.062.676.193l16.499 9.526c.802.464 1.274 1.61 1.055 2.561-.157.68-.626 1.076-1.174 1.076" fill="#F1F7FF"/>
        <path d="M214.043 78.738c-.217 0-.447-.063-.675-.194l-5.4-3.118c-.802-.463-1.274-1.609-1.055-2.56.157-.681.627-1.077 1.175-1.077.217 0 .447.063.675.194l5.4 3.118c.803.463 1.274 1.609 1.055 2.56-.157.681-.626 1.077-1.175 1.077" fill="#F1F7FF"/>
        <path d="M243.396 128.386c-.217 0-.447-.062-.674-.194l-14.424-8.327c-.802-.464-1.275-1.61-1.055-2.56.157-.681.626-1.077 1.175-1.077.217 0 .447.062.675.193l14.423 8.328c.802.463 1.274 1.609 1.055 2.56-.157.681-.627 1.077-1.175 1.077" fill="#F1F7FF"/>
        <path d="M208.779 92.049c-.217 0-.447-.062-.675-.194l-3.466-2.001c-.802-.463-1.275-1.609-1.055-2.56.157-.681.627-1.077 1.175-1.077.217 0 .447.062.674.194l3.467 2.001c.802.463 1.274 1.609 1.055 2.56-.157.681-.627 1.077-1.175 1.077" fill="#F1F7FF"/>
        <path d="M206.287 106.961c-.218 0-.447-.062-.675-.194l-4.304-2.486c-.802-.463-1.275-1.609-1.055-2.559.157-.681.627-1.077 1.175-1.077.217 0 .447.062.674.193l4.305 2.486c.802.463 1.274 1.609 1.055 2.56-.158.681-.627 1.077-1.175 1.077" fill="#F1F7FF"/>
        <path d="M223.034 116.63c-.217 0-.447-.063-.675-.194l-11.35-6.553c-.801-.463-1.274-1.609-1.054-2.56.157-.681.626-1.077 1.174-1.077.218 0 .448.063.676.194l11.348 6.553c.803.463 1.275 1.609 1.056 2.56-.158.68-.627 1.077-1.175 1.077" fill="#F1F7FF"/>
        <path d="M208.478 116.4a1.35 1.35 0 0 1-.675-.193l-8.161-4.712c-.801-.463-1.274-1.609-1.054-2.559.156-.681.626-1.077 1.174-1.077.218 0 .448.062.675.193l8.16 4.712c.802.463 1.275 1.609 1.055 2.56-.157.68-.626 1.076-1.174 1.076" fill="#F1F7FF"/>
        <path d="M255.772 135.566c-.217 0-.447-.062-.675-.193l-5.241-3.026c-.801-.463-1.273-1.609-1.054-2.56.157-.681.626-1.077 1.174-1.077.218 0 .447.063.675.194l5.24 3.026c.803.463 1.275 1.609 1.056 2.56-.157.68-.626 1.076-1.175 1.076" fill="#D4EAF2"/>
        <path d="M234.13 90.336c-.216 0-.446-.062-.674-.194l-14.423-8.327c-.803-.464-1.274-1.61-1.055-2.561.157-.68.626-1.077 1.174-1.077.218 0 .447.063.675.194l14.424 8.328c.803.463 1.274 1.609 1.055 2.56-.157.681-.626 1.077-1.175 1.077" fill="#EBF5F8"/>
        <path d="M234.772 82.726l-25.138-14.514c-.803-.463-1.275-1.609-1.055-2.56.219-.95 1.047-1.346 1.85-.883l25.138 14.514c.802.463 1.274 1.61 1.055 2.56-.22.951-1.048 1.346-1.85.883" fill="#D8E7FA"/>
        <path d="M220.726 90.967l-14.423-8.327c-.802-.463-1.274-1.609-1.055-2.56.22-.951 1.048-1.346 1.85-.883l14.423 8.327c.802.464 1.275 1.61 1.055 2.56-.22.951-1.048 1.347-1.85.883" fill="#D8E7FA"/>
        <path d="M244.396 96.458l-5.241-3.025c-.802-.464-1.273-1.61-1.055-2.56.22-.951 1.048-1.347 1.85-.884l5.24 3.026c.803.463 1.276 1.61 1.056 2.56-.22.951-1.048 1.346-1.85.883" fill="#D4EAF2"/>
        <path d="M296.126 93.624l-31.033-17.917c-.802-.464-1.275-1.61-1.055-2.561.22-.95 1.048-1.346 1.85-.883l31.033 17.918c.802.463 1.274 1.609 1.054 2.56-.218.951-1.046 1.346-1.85.883" fill="#D4EAF2"/>
        <path d="M220.31 107.078l-17.337-10.011c-.802-.463-1.275-1.609-1.055-2.559.22-.951 1.048-1.346 1.849-.883l17.338 10.01c.803.463 1.275 1.609 1.055 2.56-.22.951-1.047 1.346-1.85.883" fill="#D8E7FA"/>
        <path d="M220.167 49.768l-12.747-7.36c-.802-.463-1.275-1.609-1.055-2.56.22-.951 1.047-1.346 1.85-.883l12.746 7.36c.803.463 1.274 1.609 1.055 2.56-.22.95-1.047 1.346-1.85.883" fill="#D8E7FA"/>
        <path d="M205.53 123.07l-14.763-8.523c-.801-.463-1.273-1.609-1.054-2.56.219-.951 1.048-1.346 1.849-.883l14.764 8.523c.802.463 1.273 1.61 1.055 2.561-.22.95-1.048 1.346-1.85.882" fill="#D8E7FA"/>
        <path d="M306.095 32.793c-12.052-8.653-24.566-15.878-37.33-21.552L243.479 0l-8.101 3.156s3.556 1.901 6.514 3.487l-12.004 50.235s-11.315 40.924 27.948 88.976c7.535.519 14.123-.013 19.887-1.282-.12.471-.198.795-.198.795l7.29-2.853c.679-.249 1.342-.51 1.992-.78l.155-.06-.011-.001c24.425-10.233 29.427-34.86 29.427-34.86l13.593-56.878-23.876-17.142" fill="#3A55CA"/>
        <path d="M268.765 11.241L243.479 0l-8.101 3.156s3.556 1.901 6.514 3.487l-4.356 18.228L282.61 54.18l39.258-1.089 8.103-3.156-23.876-17.142c-12.052-8.653-24.566-15.878-37.33-21.552" fill="#4863DA"/>
        <path d="M280.684 24.69l8.152-3.113c-6.6-3.866-13.3-7.326-20.071-10.336L243.479 0l-8.101 3.156s3.556 1.901 6.514 3.487l-.257 1.077c15.77 6.911 39.049 16.97 39.049 16.97" fill="#4863DA"/>
        <path d="M282.41 17.957l-15.178 5.687 12.713 7.34 15.067-5.645a213.84 213.84 0 0 0-12.602-7.382" fill="#4863DA"/>
        <path d="M308.276 109.969l13.592-56.878-23.875-17.142c-12.052-8.653-24.566-15.878-37.33-21.552L235.379 3.156l-13.593 56.878s-11.314 40.924 27.949 88.976c49.924 3.44 58.542-39.041 58.542-39.041" fill="#0382FF"/>
        <path d="M252.9 142.827c-17.74-22.523-23.663-43.028-25.484-56.432-2.035-14.98.462-24.605.479-24.672l11.876-49.677 18.317 8.143c12.346 5.489 24.529 12.523 36.208 20.909l20.418 14.66-12.604 52.738-.047.212c-.018.091-2.041 9.315-9.23 18.041-9.28 11.265-22.711 16.668-39.933 16.078" fill="#57ACFF"/>
        <path d="M316.497 180.453c-.398 1.221.137 2.704 1.193 3.315 1.057.61 2.237.116 2.635-1.105.398-1.221-.137-2.704-1.193-3.314-1.057-.611-2.237-.117-2.635 1.104" fill="#F1F7FF"/>
        <path d="M310.34 176.898c-.398 1.221.136 2.705 1.193 3.315 1.057.61 2.236.115 2.635-1.105.397-1.22-.137-2.705-1.194-3.314-1.056-.61-2.236-.116-2.634 1.104" fill="#F1F7FF"/>
        <path d="M304.182 173.344c-.397 1.219.137 2.704 1.194 3.314 1.056.611 2.236.115 2.635-1.104.397-1.221-.137-2.705-1.194-3.316-1.056-.609-2.236-.115-2.635 1.106" fill="#F1F7FF"/>
        <path d="M137.728 212.406c-2.715 1.569-7.12 1.569-9.835 0-2.715-1.567-2.715-4.109 0-5.677 2.716-1.568 7.12-1.568 9.834 0 2.716 1.568 2.716 4.11 0 5.677zm19.775-11.247c-10.56-6.096-27.68-6.096-38.24 0-10.56 6.097-10.56 15.981 0 22.077 10.56 6.098 27.68 6.098 38.24.001 10.56-6.096 10.56-15.981 0-22.078z" fill="#D4E4F7"/>
        <path d="M163.209 218.339c-1.411 1.403-3.153 2.726-5.234 3.928s-4.373 2.207-6.803 3.021l5.17 2.984 7.79.401 3.853 2.225-1.573.909 2.917 1.683 3.145-1.816 5.098 2.943-5.121 2.957 7.414 4.28 4.549-2.626 6.74 3.892-2.572 1.485 4.33 2.501 2.574-1.486 2.032 1.174-2.046 4.071 6.55 3.782h24.075l-62.888-36.308" fill="#D4E4F7"/>
        <path d="M137.636 205.287c-2.716 1.567-7.12 1.567-9.834 0-2.716-1.568-2.716-4.11 0-5.678 2.714-1.568 7.118-1.568 9.834 0 2.715 1.568 2.715 4.11 0 5.678zm27.787 4.765v-7.311l-2.155 1.216c-1.317-1.792-3.234-3.472-5.765-4.933-10.56-6.096-27.68-6.096-38.24 0-2.928 1.691-5.041 3.673-6.346 5.786l-1.573-2.069v7.31c-.005 4 2.634 8 7.92 11.052 10.559 6.096 27.68 6.096 38.24 0 5.285-3.052 7.925-7.052 7.919-11.051z" fill="#4AC9EA"/>
        <path d="M136.12 215.814l-11.67-5.751-10.368-6.849c-.441.521-.83 1.055-1.165 1.596l-1.573-2.069v7.31c-.005 4 2.634 8 7.92 11.052 4.703 2.714 10.709 4.217 16.856 4.514v-9.803" fill="#2FB7DA"/>
        <path d="M137.728 202.949c-2.715 1.569-7.12 1.569-9.835 0-2.715-1.567-2.715-4.109 0-5.678 2.716-1.567 7.12-1.567 9.834 0 2.716 1.569 2.716 4.111 0 5.678zm19.775-11.247c-10.56-6.097-27.68-6.097-38.24 0-10.56 6.097-10.56 15.981 0 22.077 10.56 6.098 27.68 6.098 38.24.001 10.56-6.096 10.56-15.981 0-22.078z" fill="#5FD9F9"/>
        <path d="M137.636 205.287c-2.716 1.567-7.12 1.567-9.834 0-2.716-1.568-2.716-4.11 0-5.678 2.714-1.568 7.118-1.568 9.834 0 2.715 1.568 2.715 4.11 0 5.678zm5.397-9.724h-14.676a37.081 37.081 0 0 0-3.906 1.12v12.436h18.582v-13.556z" fill="#2FB7DA"/>
        <path d="M137.728 202.949c-2.715 1.569-7.12 1.569-9.835 0-2.715-1.567-2.715-4.109 0-5.678 2.716-1.567 7.12-1.567 9.834 0 2.716 1.569 2.716 4.111 0 5.678zm17.508-9.938c-9.307-5.373-24.398-5.374-33.706 0-9.307 5.374-9.307 14.086 0 19.46 9.309 5.374 24.4 5.374 33.706 0 9.308-5.373 9.308-14.086 0-19.46z" fill="#86E6FF"/>
        <path d="M121.53 195.029c9.308-5.374 24.399-5.374 33.706 0 4.209 2.431 6.508 5.543 6.91 8.722.488-3.851-1.811-7.796-6.91-10.74-9.307-5.373-24.398-5.374-33.706 0-5.1 2.943-7.397 6.888-6.91 10.739.403-3.178 2.702-6.291 6.91-8.721" fill="#2FB7DA"/>
        <path d="M163.209 216.15c-1.411 1.404-3.153 2.727-5.234 3.928s-4.373 2.207-6.803 3.022l5.17 2.984 7.79.4 3.853 2.225-1.573.908 2.917 1.685 3.145-1.817 5.098 2.944-5.121 2.956 3.764 2.173 3.65 2.108 4.549-2.627 6.74 3.892-2.572 1.486 4.33 2.5 2.574-1.485 2.032 1.172-2.046 4.072 6.55 3.782h24.075l-62.888-36.308" fill="#2FB7DA"/>
        <path d="M163.209 210.867c-1.411 1.404-3.153 2.726-5.234 3.928-2.081 1.201-4.373 2.207-6.803 3.021l5.17 2.985 7.79.4 3.853 2.225-1.573.908 2.917 1.685 3.145-1.817 5.098 2.943-5.121 2.957 3.764 2.172 3.65 2.108 4.549-2.626 6.74 3.891-2.572 1.487 4.33 2.5 2.574-1.486 2.032 1.173-2.046 4.072 6.55 3.782h24.075l-62.888-36.308" fill="#5FD9F9"/>
        <path fill="#2FB7DA" d="M202.022 252.458h24.075v-5.283h-24.075z"/>
        <path fill="#3CC0E2" d="M192.913 244.917v-5.283l2.573-1.486v5.284l-2.573 1.485"/>
        <path fill="#4AC9EA" d="M188.582 237.134v5.283l4.33 2.5v-5.283l-4.33-2.5"/>
        <path fill="#3CC0E2" d="M184.414 231.756v5.283l-4.55 2.627v-5.284l4.55-2.626"/>
        <path fill="#4AC9EA" d="M172.45 230.102v5.283l7.415 4.281v-5.284l-7.414-4.28"/>
        <path fill="#4AC9EA" d="M195.486 243.432l-.014 5.244 6.55 3.782v-5.283l-6.536-3.743"/>
        <path fill="#4AC9EA" d="M169.329 226.019v5.283l-2.917-1.685v-5.283l2.917 1.685"/>
        <path fill="#4AC9EA" d="M156.342 220.801v5.283l7.79.4v-5.283l-7.79-.4"/>
        <path fill="#86E6FF" d="M209.668 243.432l-46.042-26.607 2.558-1.476 48.573 28.066-5.09.017"/>
        <path fill="#2FB7DA" d="M166.184 216.628l46.37 26.794 2.203-.007-48.573-28.066-2.558 1.476 1.107.641 1.45-.838"/>
        <path fill="#4AC9EA" d="M156.342 226.084v-5.283l-5.17-2.985v5.284l5.17 2.984"/>
        <path fill="#3CC0E2" d="M172.474 224.202v5.283l-3.145 1.817v-5.283l3.145-1.817"/>
        <path d="M155.236 193.011c-5.23-3.02-12.286-4.342-19.116-3.968v2.019c6.83-.374 13.886.948 19.116 3.967 4.209 2.431 6.508 5.543 6.91 8.721.488-3.85-1.811-7.795-6.91-10.739" fill="#2FB7DA"/>
        <path d="M177.157 358.137c-1.218 0-2.38-.246-3.248-.747l-22.711-13.214c-1.917-1.108-1.677-3.04.537-4.318l21.647-12.613c1.21-.698 2.76-1.056 4.23-1.056 1.218 0 2.38.245 3.248.747l22.71 13.213c1.918 1.107 1.678 3.04-.536 4.318l-21.646 12.612c-1.211.699-2.762 1.058-4.231 1.058" fill="#EAF2FF"/>
        <path d="M204.855 329.382v-4.55l-24.162-.013.167-.006c-1.917-1.106-5.264-.967-7.478.31l.716-.298-24.184-.013v4.856c-.055.749.363 1.472 1.284 2.003l22.71 13.214c1.918 1.107 5.266.969 7.48-.31l21.646-12.612c1.277-.737 1.893-1.692 1.82-2.581" fill="#CDDCFC"/>
        <path d="M177.39 324.072c-1.403.034-2.858.388-4.008 1.051l.716-.298-24.184-.013v4.856c-.055.749.363 1.472 1.284 2.003l22.71 13.214c.922.532 2.174.773 3.472.742l.01-21.555" fill="#C3D4FA"/>
        <path d="M152.65 324.813l-2.736-.001v4.856c-.055.749.363 1.472 1.284 2.003l1.453.839v-7.697" fill="#C3D4FA"/>
        <path d="M174.39 345.121c1.654.708 4.044.669 5.978-.068v-6.358h-5.978v6.426" fill="#C3D4FA"/>
        <path d="M173.909 340.069l-22.711-13.215c-1.917-1.106-1.677-3.039.537-4.317l21.647-12.612c2.214-1.278 5.56-1.417 7.478-.31l22.71 13.214c1.918 1.107 1.678 3.039-.536 4.317l-21.646 12.613c-2.214 1.278-5.562 1.417-7.48.31" fill="#E8F2FE"/>
        <path d="M71.263 91.012c-1.217 0-2.38-.246-3.248-.747L45.304 77.051c-1.917-1.107-1.677-3.04.537-4.318l21.647-12.612c1.21-.699 2.76-1.057 4.23-1.057 1.217 0 2.379.245 3.248.747l22.71 13.214c1.918 1.106 1.677 3.039-.536 4.317L75.493 89.955c-1.211.699-2.761 1.057-4.23 1.057" fill="#EAF2FF"/>
        <path d="M98.96 63.341v-4.55L74.8 58.777l.167-.005c-1.917-1.107-5.265-.968-7.478.31l.715-.299-24.183-.013v4.856c-.055.749.363 1.472 1.284 2.003l22.71 13.215c1.918 1.106 5.266.968 7.479-.31L97.14 65.921c1.277-.737 1.893-1.692 1.82-2.58" fill="#CDDCFC"/>
        <path d="M71.496 58.031c-1.402.033-2.858.387-4.008 1.051l.715-.299-24.183-.013v4.856c-.055.749.363 1.472 1.284 2.003l22.71 13.215c.922.531 2.174.773 3.472.741l.01-21.554" fill="#C3D4FA"/>
        <path d="M46.757 58.771l-2.737-.001v4.856c-.055.749.363 1.472 1.284 2.003l1.453.839v-7.697" fill="#C3D4FA"/>
        <path d="M68.496 79.079c1.653.709 4.045.669 5.978-.068v-6.357h-5.978v6.425" fill="#C3D4FA"/>
        <path d="M68.015 74.027L45.304 60.813c-1.917-1.107-1.677-3.039.537-4.317l21.647-12.613c2.213-1.278 5.56-1.416 7.478-.31l22.71 13.215c1.918 1.106 1.677 3.039-.536 4.317L75.493 73.717c-2.213 1.278-5.561 1.417-7.478.31" fill="#E8F2FE"/>
        <g transform="translate(368 273)">
            <path d="M1 60c-.5 0-1-.62-1-1.55V1.55C0 .775.4 0 1 0c.5 0 1 .62 1 1.55v56.9C2 59.225 1.6 60 1 60z" fill="url(#b)" opacity=".1"/>
            <circle fill="#4C68EF" fill-rule="nonzero" cx="1" cy="1" r="1"/>
        </g>
        <g transform="translate(33 220)">
            <path d="M1 60c-.5 0-1-.62-1-1.55V1.55C0 .775.4 0 1 0c.5 0 1 .62 1 1.55v56.9C2 59.225 1.6 60 1 60z" fill="url(#b)" opacity=".1"/>
            <circle fill="#4C68EF" fill-rule="nonzero" cx="1" cy="1" r="1"/>
        </g>
        <g transform="translate(142 16)">
            <path d="M1 60c-.5 0-1-.62-1-1.55V1.55C0 .775.4 0 1 0c.5 0 1 .62 1 1.55v56.9C2 59.225 1.6 60 1 60z" fill="url(#b)" opacity=".1"/>
            <circle fill="#4C68EF" fill-rule="nonzero" cx="1" cy="1" r="1"/>
        </g>
        <g fill-rule="nonzero">
            <path d="M314 313.4c.7-.8 1.4-4.2 1.4-4.2s.4-1.3.3-1.8c-.1-.5-.6-4.2-.6-4.2l3.6-.3s-.2 3-.2 4 .1 2.3.4 3.3c-.2.5-2.1 4.1-2.1 4.1l-2.1.5-1-.4.3-1z" fill="#FFA8A7"/>
            <path d="M313.5 315.4c-.5-.1-2.1-1.2-1.1-1.7.8-.4 1.5-.2 1.5-.2s-.2.4.1.4c.6-.1 1.1-2.9 1.1-3.8l1.8.6-.7 3.9-.8.5-1.4.3h-.5z" fill="#2D2979"/>
            <path d="M315.8 311.4c0 2.2-.4 2.5-.6 3-.4.7-.9.8-1.5.9.7.4 4.2.3 4.9-.3.4-.3.1-1.1.1-2.1s.3-2.1.3-2.6-3.2 1.1-3.2 1.1z" fill="#291D51"/>
            <path d="M317 308.1c-1.1 0-1.8 1.1-1.9 2-.1.9.9 1 1.6 2.8.4.9.5 2.4.5 3.7 0 0 .3.3.6 0 0 0 0-1.1.1-2.1 0-.6.2-1.8.3-2.1.3-1 .9-1.4.8-2.4 0-.5-.3-1.2-.6-1.5-.2-.2-.8-.4-1.4-.4z" fill="#2D2979"/>
            <path d="M310 320.8s.3.6 2.1-.2c.7-.3 1.1-.6 1.4-.9.2-.8.7-1.9.7-1.9s-.3-2.3-1.4-1.4c-1.1.9-2.8 4.4-2.8 4.4z" fill="#291D51"/>
            <path d="M314 308.5c.2 1.3.3 2.2.4 3 .1.5.2 1 .5 1.4.7 1 .8 1.6.8 1.6s-2.1.3-3.1 1.7-1 2.8-2 3.1c-1 .2-2.6-.9-2.6-.9s1 0 1.4-1.3c.4-1.3 1.4-4.1 1.5-4.8.1-1-.8-3.1-.8-3.1l3.9-.7z" fill="#FFA8A7"/>
            <path d="M314.3 312.9c-.9.1-2.3 1.5-2.7 2.5-.5 1-1.2 2.5-1.8 2.8-.6.3-1.6-.1-2.5-.2-.9 0-1.5.4-1.6 1 0 0 2.8 1.3 3.7 1.7.8.4 1.6.4 2.2-1.3.7-1.8 1.3-3.3 2.1-2 .7 1.1 1 3.2 1 3.2s.3.3.7-.2c0 0-.2-.7-.2-1.8 0-2.4.8-2.9.6-3.9-.2-1.3-.5-1.9-1.5-1.8z" fill="#2D2979"/>
            <g>
                <path d="M304.5 220.8s-2.3-1.4-2.1-3.4c.2-2 3.3-7 8.9-4.6 5.1 1.1-6.8 8-6.8 8z" fill="#543354"/>
                <path d="M317.7 229.7c1.6.5 2.5 2.2 3.9 6s2.9 9.3 2.7 10.7c-.5 3.6-2.7 6.6-6.5 9.1l-1.7-3.1s3.7-3 4.1-6.6c.2-2-2.4-8.8-2.4-9 0-.1-.1-7.1-.1-7.1z" fill="#FFA8A7"/>
                <path d="M319.4 291.1c-.5-4-.4-5.8-.4-5.8s.6-6 1.1-11.2c.7-7.6 2.2-9.4 1.4-14-.7-4-3.4-7.1-4.6-10l-12.4 1s-1.1 3.5-2.5 10.6c-1.4 7-.9 16.6.2 26.4.3 2.8 2.1 6.6 4.1 11.5 1.8 4.4 4.6 11.7 4.6 11.7 1.9 1.1 3.5-.8 3.5-.8s-1.4-9.6-2-12.8c-1-5.5-3.5-8.2-3.5-8.2s.6-4 1-7.5c.4-3.8 1.7-10.2 1.7-10.2s.1 9.9.3 12.7c.2 2.8.3 3.2 1.3 8.7.8 4.6 2.6 13.6 2.6 13.6 1.7.6 2.9-.1 2.9-.1s1.2-11.6.7-15.6z" fill="#7FA8E6"/>
                <path d="M318.9 264.7c-2.5 2.5-6.8 3.1-6.8 3.1l-.6 3.9c-.2 3.2.2 7 .2 10.6 0 0 .9-9.5 2.1-11.1 1.1-1.6 4.3-4.3 5.1-6.5z" fill="#597BC6"/>
                <path d="M317 229.7c-2.6-.2-2.9.3-3.1-.7-.1-.3-.2-2.7-.2-2.7.2-.2.7-1 .7-1 1.7-1.1 3-2.9 3.2-5.1.4-3.7-2.3-7.1-6.1-7.5-3.5-.4-6.1 2.1-6.8 5.5-.4 1.7-.8 5.1.3 7.8.6 1.6 1.1 2.6 2.5 2.6.3 0 .8-.1 1.4-.2.1.5.1 1.3.1 1.9 0 .7.1 1-1.2 1.8s2 2.5 4.2 2.3c2.2-.2 4.6-1.5 5.3-2.9.6-1.4.9-1.8-.3-1.8z" fill="#FFA8A7"/>
                <path d="M315.1 224.8l-2.3.1h-2.5l-.8-.9s-.2 2.9-.9 3.6c-.8.7-1.7 1.1-1.8 1.1.2.1.4.1.7.1.3 0 .8-.1 1.4-.2.1.5.1 1.3.1 1.9 0 .7.1 1-1.2 1.8s2 2.5 4.2 2.3c2.2-.2 4.6-1.5 5.3-2.9.7-1.6 1.1-2-.2-2-2.6-.2-2.9.3-3.1-.7-.1-.3-.2-2.7-.2-2.7.2-.2.7-1 .7-1 .1-.1.4-.3.6-.5z" fill="#F28F8F"/>
                <path d="M315.1 225.6c1.7-1.6 2.2-3.1 2.5-5.3.4-3.7-2.3-7.1-6.1-7.5-2.4-.3-5 .6-6.2 3.6 0 0 .2.4.8.5 0 0-.2.8.4 1.4.4.4.8 1.1.8 1.9 0 .6-.1 1.6.1 2.3.2.9 1.2.8 1.2.8l.2-2.8c.4-1 2.1-1.2 2.4.1.3 1.1 0 1.8-.4 2.6-.3.6-.8.9-1.3.7 0 1.7.6 2.4 2.1 2.8 1.5.4 1.6-.1 2.4-.5.5-.1 1.1-.6 1.1-.6z" fill="#543354"/>
                <path d="M314.4 229.6c.5.6.5 1.4-1.3 1.9-2.5.6-4.1-.3-4.1-.3s-2.5 1.1-4.3 2.3c-4.2 2.9-5.2 8-1 9.8.3 1.9.6 6.8.7 8 3.6 2.5 10.9 1.7 12.6-1 0-.9.2-2.4.3-2.7 1.7-6.4 3.1-8.1 2.6-12.9-.3-2.8-.5-4.1-2-4.9-1.1-.3-3-.2-3.5-.2z" fill="#F5FBFB"/>
                <path d="M309.6 224v16.7s1.7 1.2 4.8-.2c3-1.4 3.2-2.3 3.2-3.9v-17.1s-3.5 4.1-5.9 4.9c-2 .7-2.1-.4-2.1-.4z" fill="#543354"/>
                <path d="M278.7 250.2c.8.3 1.6.3 2.8.8 1 .5 1.6.7 2.6.9 1 .2 2.6-.4 5.2-1.6 3.2-1.5 6.6-4.4 7.9-5.9 2.8-3.2 5.9-8.1 6.9-9.8 1.2-2.1 2.6-2.7 3.9-2.2 1.5.5 1.7 2 0 4.9-1.7 2.9-4.6 7.1-7.9 10.3-1.6 1.5-4.1 3.8-8.2 5.8-2.8 1.4-3.8 1.7-6.9 2.4-.8.2-1.4.5-3 1.1-1.6.5-3.5.8-4.8.5-1.4-.3-1.8-.6-1.9-.9-.1-.4.2-.6.9-.5.6.1 1.7.2 3-.1 0 0-1.4 0-2.2-.1-.8-.1-1.6-.3-2.2-.5-.7-.3-.9-1.3-.2-1.3.6 0 1.1.2 2.4.4 1.1.1 2 0 2 0s-1.3-.2-2.4-.6c-1.1-.4-1.4-.8-1.7-1-.2-.3-.2-.9.6-.7.7.1 1.5.6 2.9.6 1 0 1.7-.1 1.6-.2-.1-.2-.7-.1-1.5-.6-.7-.4-1.2-1.2-.9-1.6.2-.7.3-.4 1.1-.1z" fill="#FFA8A7"/>
            </g>
        </g>
        <g fill-rule="nonzero">
            <path d="M139.1 84.6c-.8-.2-1.5-.7-2.7-.8-1.1-.2-1.7-.3-2.6-.7-.9-.4-2.9-3.2-4.4-5.7-1.8-2.9-3-6.9-3.1-8.8-.2-3.3-.1-9.8-.2-12-.2-2.3-1.1-3-2.3-3.5-1.4-.7-2.5-.4-2.7 2.9-.1 3.3-.2 9.6.7 13.9.5 2.1 1.5 5.4 3.8 9.2 1.6 2.6 3.3 4.4 5.4 6.6.6.6.9 1.2 1.9 2.5 1 1.3 2.4 2.5 3.7 3 1.3.5 1.8.5 2 .3.3-.3.1-.6-.4-.9-.5-.3-1.5-.7-2.4-1.7 0 0 1.2.7 1.9 1.1.7.4 1.5.6 2.1.7.7.1 1.4-.6.9-.9-.5-.3-1-.4-2.1-1-1-.5-1.6-1.1-1.6-1.1s1.2.5 2.3.8c1.1.3 1.6.1 1.9.1.3-.1.6-.6-.1-.9-.7-.3-1.6-.3-2.7-1-.8-.5-1.4-1-1.2-1.1.2-.1.7.3 1.5.3.8.1 1.7-.4 1.7-.8-.3-.6-.4-.3-1.3-.5z" fill="#FFA8A7"/>
            <path d="M121.8 52.7c-1.3 1-1.9 2.8-1.5 8.3.4 5.5 1.1 9.6 2.5 13.1 1.3 3.5 3.7 7.5 7.2 10.7 0 0 .5-1.8 2.7-3 0 0-3.8-5.2-5.1-8.6-1.3-3.3-1.3-8.7-1.3-11.7s.3-5.8-.9-7.5c-1.2-1.6-3.1-1.6-3.6-1.3z" fill="#E4F2F2"/>
            <path d="M119.9 133.8s-.1.9-.2 1.6c-.2.7-.3 1.9-.1 2.5.2.6 1.6 1.3 2.5 1.4.9.1 2.4 1 2.9 1.6.8.9 2.8 1.5 4.1 1.3 1.3-.2 2.7-.6 3-1.1.3-.5-.2-1.1-2.9-2.9-2.8-1.8-4.6-2.8-5.5-4.6l-3.8.2z" fill="#2D2979"/>
            <path d="M108.4 138c-.3.7-.8 1.1-.7 3 .1 1.9 0 2.6-.2 4.2-.2 1.5.6 3.7 1.3 4.6.7 1 2.8 1.2 3.4-.6.6-1.8.8-3.2.3-5-.4-1.8.1-3.1-.1-4.3-.3-1.2-.7-2-.7-2h-3.3v.1z" fill="#2D2979"/>
            <path d="M108.4 89.3c.1 2 .7 10.6 1 15.1.3 4.6.3 10.1.3 10.1s-.8 3.3-1.3 7.2c-.5 3.9 0 16.2 0 16.2s1.5 1.1 3.4 0c0 0 2.1-9.8 3.1-14.3 1-4.4 1.1-7 1.6-9.7.6-3.3 1.9-18.9 1.9-18.9h.5l1.4 17.5s-.5 1.4-.9 4c-.4 2.9.4 17.2.4 17.2s1.6 1.1 3.6-.1c0 0 3.5-19 3.5-21.9 0-1.9-.3-27.2-.3-27.2l-18.2 4.8z" fill="#7FA8E6"/>
            <path d="M118.4 95.1s3-1.2 4.6-2.4c0 0-1.6 1.7-2.4 2.2-.8.5-.6 14.2-.6 14.2l-1.1-13.9-.5-.1z" fill="#6795D6"/>
            <path d="M113.2 51s.2 4.3.1 4.7c-.1.4-2 1.6-2.5 2.1s3 3.9 4.7 4.7c1.7.8 7.2-1.3 7.3-4 .1-2.7-.9-4.9-1.8-5-.9-.1-7.8-2.5-7.8-2.5z" fill="#FFA8A7"/>
            <path d="M120.3 55.9c.6-.5-.1-1.6-.5-2.4-1.8-.5-6.6-2.5-6.6-2.5s0 1 .1 1.7c0 .8.5 1.6 1.2 2.1.5.4 1.1.8 1.9 1.1.7.3 2.6 1.2 3.9 0z" fill="#F28F8F"/>
            <path d="M112.7 56.4s3.1 4.7 7.5 5.1c1.4-1.4 1.5-6.2-.4-7.7 0 0 1.8-1.4 3-1.1 0 0 1.9 1 2.7 3.4.8 2.5 1.6 5.4 1.5 10-.1 4.6 0 18.6 0 18.6s-.6 3-4.6 5.2c-4 2.2-6.9 2.4-9.6 1.8-2.2-.5-4-1.3-4.8-2.9.2-3.2 1.6-11.6 1.1-15.6s-1.4-7.1-1.6-10.3c-.2-3.3.4-3.2 2.1-4.4 2.2-1.6 3.1-2.1 3.1-2.1z" fill="#F5FBFB"/>
            <path d="M110.5 95.3c-.7-.5-1.1-1.2-2.1-1.9-.9-.6-1.5-.9-2.1-1.7-.6-.9-1-3.9-1.3-6.8-.4-3.4.4-7.8 1-9.7 1.2-3.7 3.7-8.8 4.5-10.9.8-2.1.3-3.1-.6-4.2-1-1.2-2.7-1.1-4.3 1.8-1.5 2.9-3.7 8.3-4.7 12.6-.5 2.1-1 5.5-.5 9.9.3 3.1 1.1 5.4 2.1 8.3.3.8.3 1.5.6 3 .3 1.6 1.1 3.3 2 4.3.9 1 1.4 1.2 1.7 1.1.4-.1.4-.5 0-1s-1.1-1.3-1.5-2.6c0 0 .7 1.1 1.2 1.8.5.6 1.1 1.2 1.6 1.5.6.4 1.6.1 1.2-.5-.4-.5-.8-.8-1.5-1.8-.7-.9-1-1.7-1-1.7s.8 1 1.7 1.7c.9.7 1.4.8 1.7.9.3.1.8-.3.3-.9-.5-.5-1.3-1-2-2.1-.5-.8-.8-1.5-.6-1.5.2 0 .5.5 1.2 1 .7.4 1.7.4 1.9 0 .2-.1.2 0-.5-.6z" fill="#FFA8A7"/>
            <path d="M108.7 59c-1.6.3-3.2 2.1-5.3 7.1-2 5.1-3.2 9.2-3.5 12.9-.3 3.7.2 8.9 2.1 12.9 0 0 1.4-1.7 3.9-1.9 0 0-.9-6.4-.6-9.9.3-3.5 2.1-8.1 3.4-10.8 1.3-2.7 2.7-4.9 2.4-7.3-.3-2.2-1.8-3.1-2.4-3z" fill="#E4F2F2"/>
            <path d="M120.2 61.5s.4-2.1.4-3.2c-.1-1.5-1.2-3.5-1.2-3.5v-1.2s.9.1 1.6 1c.7.9 1.9 2.8 1.6 4.8-.1.1-.6 1.2-2.4 2.1z" fill="#E4F2F2"/>
            <path d="M120.2 61.5c.3-.6.9-2.7 1.2-3 .6-.2 1.1.9 1.1.9s0 1.2-.7 1.9c-.7.8-1.6.2-1.6.2z" fill="#F5FBFB"/>
            <path d="M121.4 58.5c-.3.3-.9 2.4-1.2 3 0 0 .3-.6.7-1 .3-.4.7-1.2 1.7-1.1-.1.1-.6-1-1.2-.9z" fill="#C8DBDA"/>
            <path d="M113.3 54.9c.1.7 3.6 3.3 4.4 3.6.8.3 2.4 3 2.4 3-1.3-.2-2.3.3-3.2 1.2 0 0-5-2.1-5.8-5.5 0 0 .9-1.8 1.1-2.3.1-.5.5-1 1-1l.1 1z" fill="#E4F2F2"/>
            <path d="M117 62.8s.4-2.6.9-2.8c.5-.2 2.3 1.6 2.3 1.6-.7.6-1.6 1.1-3.2 1.2z" fill="#F5FBFB"/>
            <path d="M117.9 60c-.5.2-.9 2.8-.9 2.8s1.4-1.3 1.8-1.4c.4-.1 1.4.2 1.4.2s-1.7-1.8-2.3-1.6z" fill="#C8DBDA"/>
            <path d="M123 44.6c-.5-3.4-2.9-5.9-6.4-5.7-3.7.2-6.5 3.4-6.3 7 .1 2.2 1.3 4 2.9 5.1 0 0 .3 1.2.5 1.5 1.2 1.4 4.9 2.3 6 2.2 1.4-.2 2.1-.8 2.8-2.3 1.1-2.7.7-6.2.5-7.8z" fill="#FFA8A7"/>
            <path d="M122.5 41.9c-1.4-2.2-4.1-3.5-6.9-2.9-1.7.4-3.2 1.4-4.2 2.9-1.3.5-1.3 2.4-1.3 3 .1 2.6 1.2 4.8 3.1 6.1-.1-.2-1.8-2.8 0-3.4.3.3.4.8.4 1.4 0 0 .9-.1.7-1.1-.1-.3-.1-.6-.2-.8-.2-.8 0-1.6.5-2.3.4-.6.7-1.3.5-2.2 0 0 2.2 1 5.1.4 1.1-.3 1.9-.8 2.3-1.1z" fill="#3A2C6D"/>
            <path d="M111.4 41.9s-.4-1.3 1.3-2.6c2-1.5 4.9-1.2 7.9 0 1.9.8 4.9-.2 4.3 2-.8 3.2-7.1 3.5-9.8 1.3-.2-.1-2.2-1.1-3.7-.7z" fill="#3A2C6D"/>
            <path d="M113.2 51s-.2.4-.8.4c-1.2.1-2.6-2.2-1.7-3.7.6-1 2-.6 2.4 0l.1 3.3z" fill="#FFA8A7"/>
        </g>
        <path d="M269.671 61.984l.06.059c1.256 1.256 2.413 2.904 3.343 4.816l5.432 11.172c1.874 3.853 2.538 8.194 1.742 11.386l-.182.728c-.136.548-.71.405-1.032-.256l-10.198-20.975c-.57-1.174-1.548-1.732-2.116-1.174-.504.495-.44 1.745.076 2.808l11.53 23.715c.292.6.395 1.276.272 1.772l-.66 2.643a7.955 7.955 0 0 1-.563 1.576c-.257.524-.92.245-1.293-.522l-19.885-40.896c-.3-.617-.203-1.284.192-1.324a4.664 4.664 0 0 1 1.596.128l7.746 1.92c1.325.33 2.681 1.18 3.94 2.424zm-16.886-2.315c.151-.277.456-.247.721.014.1.098.193.228.27.387l20.074 40.825c.388.79.243 1.62-.274 1.642a4.804 4.804 0 0 1-1.367-.147l-7.787-1.931c-1.328-.33-2.688-1.177-3.952-2.416l-.06-.06c-1.261-1.25-2.424-2.891-3.36-4.793l-5.486-11.16c-1.886-3.834-2.56-8.15-1.77-11.32l.172-.688c.141-.567.739-.419 1.076.267l10.252 20.851c.18.366.4.672.633.902.538.531 1.155.666 1.545.218.453-.519.38-1.697-.116-2.708l-11.609-23.61c-.313-.638-.426-1.356-.294-1.883l.643-2.577c.17-.682.402-1.287.689-1.813z" fill="#FFF" fill-rule="nonzero"/>
        <g fill-rule="nonzero">
            <path d="M178.435 285.574c-9.044-4.695-17.565 2.61-17.565 2.61 0 10.782 11.478 36.173 20.521 40.869 0 0 13.218-4.522 13.218-15.305.174-10.956-7.13-23.478-16.174-28.174" fill="#51ADE6"/>
            <path d="M172.348 288.53c-9.044-4.695-16.348.349-16.348 11.131 0 10.783 7.304 23.305 16.174 28 9.043 4.696 16.348-.348 16.348-11.13.174-10.783-7.13-23.478-16.174-28" fill="#5FD9F9"/>
            <path d="M174.017 298.734l.038.022c.8.48 1.598 1.173 2.314 2.029l4.186 5.001c1.444 1.725 2.334 3.852 2.334 5.579v.394c0 .296-.31.297-.558 0l-7.86-9.389c-.439-.525-1.008-.686-1.227-.329-.193.316-.002.945.396 1.42l8.886 10.617c.224.269.363.6.363.868v1.43c0 .315-.03.607-.087.875-.064.299-.438.241-.725-.102l-15.324-18.307c-.23-.277-.266-.628-.07-.7.25-.09.527-.136.83-.137l4.19-.005c.716 0 1.514.26 2.314.734zm-8.896.966c.042-.16.2-.185.37-.085a.746.746 0 0 1 .186.163l15.41 18.247c.299.353.33.794.07.87-.22.066-.459.1-.716.1l-4.212.005c-.718 0-1.518-.258-2.32-.729l-.038-.022c-.801-.478-1.602-1.166-2.32-2.016l-4.212-4.988c-1.447-1.713-2.339-3.826-2.339-5.542v-.372c0-.306.323-.307.582 0l7.87 9.32c.138.163.29.29.438.378.341.203.672.193.814-.085.165-.322-.021-.913-.403-1.364l-8.912-10.554c-.24-.284-.389-.636-.389-.921v-1.395c0-.369.042-.706.121-1.01z" fill="#51ADE6"/>
            <path d="M172.017 299.734l.038.022c.8.48 1.598 1.173 2.314 2.029l4.186 5.001c1.444 1.725 2.334 3.852 2.334 5.579v.394c0 .296-.31.297-.558 0l-7.86-9.389c-.439-.525-1.008-.686-1.227-.329-.193.316-.002.945.396 1.42l8.886 10.617c.224.269.363.6.363.868v1.43c0 .315-.03.607-.087.875-.064.299-.438.241-.725-.102l-15.324-18.307c-.23-.277-.266-.628-.07-.7.25-.09.527-.136.83-.137l4.19-.005c.716 0 1.514.26 2.314.734zm-8.896.966c.042-.16.2-.185.37-.085a.746.746 0 0 1 .186.163l15.41 18.247c.299.353.33.794.07.87-.22.066-.459.1-.716.1l-4.212.005c-.718 0-1.518-.258-2.32-.729l-.038-.022c-.801-.478-1.602-1.166-2.32-2.016l-4.212-4.988c-1.447-1.713-2.339-3.826-2.339-5.542v-.372c0-.306.323-.307.582 0l7.87 9.32c.138.163.29.29.438.378.341.203.672.193.814-.085.165-.322-.021-.913-.403-1.364l-8.912-10.554c-.24-.284-.389-.636-.389-.921v-1.395c0-.369.042-.706.121-1.01z" fill="#FFF"/>
        </g>
        <g fill-rule="nonzero">
            <path fill="#7AD9E9" d="M404.8 184.675l16.625-7.175L404.8 146z"/>
            <path fill="#42BCDC" d="M404.8 184.675v23.975l16.625-31.15z"/>
            <path fill="#5FD9F9" d="M388.175 178.025L404.8 208.65v-23.975z"/>
            <path fill="#ABF3FF" d="M404.8 146L388 177.5l.175.525 16.625 6.65z"/>
        </g>
        <g fill-rule="nonzero">
            <path d="M72.435 19.574c-9.044-4.695-17.565 2.61-17.565 2.61 0 10.782 11.478 36.173 20.521 40.869 0 0 13.218-4.522 13.218-15.305.174-10.956-7.13-23.478-16.174-28.174" fill="#51ADE6"/>
            <path d="M66.348 22.53C57.304 17.836 50 22.88 50 33.662c0 10.783 7.304 23.305 16.174 28 9.043 4.696 16.348-.348 16.348-11.13.174-10.783-7.13-23.478-16.174-28" fill="#5FD9F9"/>
            <path d="M73.304 46.53c-.521-1.217-1.565-2.434-2.608-3.303 1.913.695 2.956-.174 2.956-2.957v-.174c0-.87 0-1.739-.348-2.609-.174-.87-.521-1.739-.87-2.26-.347-.696-.869-1.218-1.39-1.914l-.87-.87v-1.738l-2.261-1.218v1.392c-.174-.174-.348-.348-.696-.348l-.87-.522v-1.391l-2.26-1.218v1.392l-1.565-.87-.522-.348-.174-.174-2.435-1.39v2.608l2.435 1.391-.174 18.261-2.435-1.391v2.608l2.435 1.392.696.521 1.565.87v1.391l2.26 1.218v-1.392l1.392.87v1.391l2.261 1.218V55.4c1.044.348 1.913.348 2.609 0C73.478 54.88 74 53.487 74 51.227v-.174c.348-1.74 0-3.305-.696-4.522zm-6.782-13.043l.695.348c1.74 1.044 2.61 2.435 2.61 4.348 0 1.044-.175 1.74-.523 2.087-.347.348-1.043.174-1.913-.348l-.87-.522v-5.913zm-.174 16.174v-6.956l.87.522c1.043.521 1.739 1.217 2.086 2.086.348.696.522 1.74.522 3.13 0 1.218-.174 1.914-.522 2.262-.347.348-1.043.174-2.087-.348l-.87-.696z" fill="#51ADE6"/>
            <path d="M71.391 47.922c-.521-1.217-1.565-2.435-2.608-3.304 1.913.695 2.956-.174 2.956-2.957v-.174c0-.87 0-1.739-.348-2.608-.174-.87-.521-1.74-.87-2.261-.347-.696-.869-1.218-1.39-1.913l-.87-.87v-1.739L66 30.88v1.391c-.174-.174-.348-.348-.696-.348l-.695-.522v-1.39l-2.261-1.218v1.391l-1.565-.87-.522-.347-.174-.174-2.435-1.392v2.61l2.435 1.39-.174 18.261-2.435-1.391v2.609l2.435 1.391.696.522 1.565.87v1.39l2.26 1.218v-1.391l1.392.87v1.39l2.261 1.218v-1.565c1.043.348 1.913.348 2.609 0 1.043-.522 1.565-1.913 1.565-4.174v-.174c.174-1.74-.174-3.304-.87-4.522zM64.61 34.88l.695.348c1.74 1.043 2.609 2.434 2.609 4.347 0 1.044-.174 1.74-.522 2.087-.348.348-1.043.174-1.913-.348l-.87-.521v-5.913zm-.174 16.174v-6.957l.87.522c1.043.522 1.738 1.217 2.086 2.087.348.695.522 1.739.522 3.13 0 1.218-.174 1.913-.522 2.261-.348.348-1.043.174-2.087-.348l-.87-.695z" fill="#FFF"/>
        </g>
    </g>
</svg>
