<svg width="60" height="60" viewBox="0 0 60 60" xmlns="http://www.w3.org/2000/svg">
    <title>
        pie-chart
    </title>
    <g fill="#3852CE" fill-rule="nonzero">
        <path d="M53.268 11.097l-.699-.86-10.652 10.651.467.684a14.918 14.918 0 0 1 2.593 8.43 14.91 14.91 0 0 1-2.593 8.428l-.467.684 10.651 10.651.699-.86a30.065 30.065 0 0 0 6.709-18.903 30.07 30.07 0 0 0-6.708-18.905zm-.869 35.67l-7.91-7.91A16.908 16.908 0 0 0 46.977 30c0-3.147-.858-6.19-2.488-8.855l7.91-7.91a28.07 28.07 0 0 1 5.578 16.766 28.066 28.066 0 0 1-5.578 16.764z"/>
        <path d="M38.406 42.407A14.91 14.91 0 0 1 29.977 45c-7.192 0-13.386-5.125-14.727-12.187L15.096 32H.023l.113 1.103C1.712 48.437 14.541 60 29.977 60a30.065 30.065 0 0 0 18.903-6.709l.86-.699L39.089 41.94l-.683.467zM29.977 58C15.942 58 4.216 47.76 2.261 34H13.46c1.826 7.581 8.644 13 16.517 13 3.147 0 6.191-.858 8.855-2.488l7.91 7.91A28.07 28.07 0 0 1 29.977 58z"/>
        <path d="M15.25 27.187C16.591 20.125 22.785 15 29.977 15c3.022 0 5.937.896 8.429 2.593l.684.467L49.741 7.408l-.86-.699A30.07 30.07 0 0 0 29.977 0C14.541 0 1.712 11.563.136 26.897L.023 28h15.073l.154-.813zM8.977 26a1 1 0 0 0-2 0h-4a.994.994 0 0 0-.568-.893 27.92 27.92 0 0 1 2.276-7.166c.094.029.188.059.292.059a1 1 0 0 0 1-1 .98.98 0 0 0-.403-.781 27.9 27.9 0 0 1 1.407-2.24c0 .008-.004.014-.004.022a1 1 0 1 0 1-1c-.119 0-.23.03-.336.068a27.934 27.934 0 0 1 5.402-5.399 1 1 0 0 0-.066.33 1 1 0 1 0 1-1c-.006 0-.011.003-.016.003.722-.502 1.468-.97 2.237-1.403.183.237.456.4.779.4a1 1 0 0 0 1-1c0-.104-.03-.199-.059-.294a27.938 27.938 0 0 1 7.164-2.279.992.992 0 0 0 .895.573.986.986 0 0 0 .966-.832A28.431 28.431 0 0 1 29.977 2c.337 0 .672.029 1.008.041a.996.996 0 0 0 .992.959.987.987 0 0 0 .964-.822c2.623.281 5.189.925 7.62 1.918A.997.997 0 0 0 40.977 6a1 1 0 0 0 1-1 .974.974 0 0 0-.06-.296 27.87 27.87 0 0 1 4.825 2.874l-7.91 7.91a17.667 17.667 0 0 0-.867-.491l.012.002a1 1 0 1 0-1-1c0 .241.096.453.238.626a16.834 16.834 0 0 0-4.669-1.426.98.98 0 0 0-.569-.2.99.99 0 0 0-.397.084A17.431 17.431 0 0 0 29.977 13c-1.116 0-2.207.12-3.269.329a.985.985 0 0 0-.731-.329.987.987 0 0 0-.95.752c-5.344 1.632-9.635 5.832-11.294 11.297a.986.986 0 0 0-.756.951h-4z"/>
        <path d="M22.977 6a1 1 0 1 0 0-2 1 1 0 0 0 0 2z"/>
        <path d="M28.977 6a1 1 0 1 0 0-2 1 1 0 0 0 0 2z"/>
        <path d="M34.977 6a1 1 0 1 0 0-2 1 1 0 0 0 0 2z"/>
        <path d="M22.977 12a1 1 0 1 0 0-2 1 1 0 0 0 0 2z"/>
        <path d="M25.977 9a1 1 0 1 0 0-2 1 1 0 0 0 0 2z"/>
        <path d="M28.977 12a1 1 0 1 0 0-2 1 1 0 0 0 0 2z"/>
        <path d="M16.977 12a1 1 0 1 0 0-2 1 1 0 0 0 0 2z"/>
        <path d="M19.977 9a1 1 0 1 0 0-2 1 1 0 0 0 0 2z"/>
        <path d="M19.977 15a1 1 0 1 0 0-2 1 1 0 0 0 0 2z"/>
        <path d="M10.977 12a1 1 0 1 0 0-2 1 1 0 0 0 0 2z"/>
        <path d="M13.977 15a1 1 0 1 0 0-2 1 1 0 0 0 0 2z"/>
        <path d="M31.977 9a1 1 0 1 0 0-2 1 1 0 0 0 0 2z"/>
        <path d="M34.977 12a1 1 0 1 0 0-2 1 1 0 0 0 0 2z"/>
        <path d="M40.977 12a1 1 0 1 0 0-2 1 1 0 0 0 0 2z"/>
        <path d="M16.977 18a1 1 0 1 0 0-2 1 1 0 0 0 0 2z"/>
        <path d="M10.977 18a1 1 0 1 0 0-2 1 1 0 0 0 0 2z"/>
        <path d="M37.977 9a1 1 0 1 0 0-2 1 1 0 0 0 0 2z"/>
        <path d="M43.977 9a1 1 0 1 0 0-2 1 1 0 0 0 0 2z"/>
        <path d="M4.977 24a1 1 0 1 0 0-2 1 1 0 0 0 0 2z"/>
        <path d="M10.977 24a1 1 0 1 0 0-2 1 1 0 0 0 0 2z"/>
        <path d="M7.977 21a1 1 0 1 0 0-2 1 1 0 0 0 0 2z"/>
        <path d="M13.977 21a1 1 0 1 0 0-2 1 1 0 0 0 0 2z"/>
    </g>
</svg>
