<svg width="60" height="60" viewBox="0 0 60 60" xmlns="http://www.w3.org/2000/svg">
    <title>
        Smile
    </title>
    <g fill="#3852CE" fill-rule="nonzero">
        <path d="M42.61 36.854a1.304 1.304 0 0 0-1.843.102c-2.72 3.04-6.644 4.783-10.767 4.783-4.122 0-8.047-1.742-10.767-4.783a1.304 1.304 0 1 0-1.944 1.74c3.215 3.592 7.848 5.652 12.711 5.652 4.864 0 9.497-2.061 12.71-5.652a1.305 1.305 0 0 0-.1-1.842z"/>
        <path d="M30 0C13.458 0 0 13.458 0 30s13.458 30 30 30 30-13.458 30-30S46.542 0 30 0zm0 57.391C14.896 57.391 2.609 45.104 2.609 30 2.609 14.896 14.896 2.609 30 2.609c15.104 0 27.391 12.287 27.391 27.391 0 15.104-12.287 27.391-27.391 27.391z"/>
        <path d="M40.435 20.87a6.53 6.53 0 0 0-6.522 6.521 1.305 1.305 0 0 0 2.609 0 3.918 3.918 0 0 1 3.913-3.913 3.918 3.918 0 0 1 3.913 3.913 1.305 1.305 0 0 0 2.608 0 6.53 6.53 0 0 0-6.521-6.521z"/>
        <path d="M23.478 27.391a1.305 1.305 0 0 0 2.609 0 6.53 6.53 0 0 0-6.522-6.521 6.53 6.53 0 0 0-6.522 6.521 1.305 1.305 0 0 0 2.61 0 3.918 3.918 0 0 1 3.912-3.913 3.918 3.918 0 0 1 3.913 3.913z"/>
    </g>
</svg>
