<svg width="30" height="30" viewBox="0 0 30 30" xmlns="http://www.w3.org/2000/svg">
    <title>
        btc
    </title>
    <g fill="none" fill-rule="evenodd">
        <circle fill="#F7931A" cx="15" cy="15" r="15"/>
        <path d="M21.614 13.332c.298-1.996-1.222-3.07-3.3-3.785l.675-2.704-1.647-.41-.656 2.633c-.432-.108-.876-.21-1.318-.31l.66-2.65-1.644-.41-.674 2.702c-.359-.081-.71-.162-1.051-.247l.001-.008-2.27-.567-.437 1.758s1.221.28 1.195.297c.667.166.788.607.767.957l-.768 3.08c.046.012.106.029.171.055l-.173-.043-1.077 4.315c-.081.202-.288.506-.754.39.016.025-1.196-.298-1.196-.298L7.3 19.972l2.142.533c.398.1.789.205 1.173.303l-.681 2.735 1.644.41.675-2.705c.448.122.884.234 1.31.34l-.672 2.693 1.646.41.681-2.73c2.807.532 4.918.318 5.805-2.22.716-2.044-.035-3.223-1.512-3.992 1.075-.249 1.885-.956 2.102-2.417zm-3.76 5.273c-.51 2.043-3.95.94-5.067.662l.904-3.623c1.116.278 4.693.83 4.163 2.96zm.508-5.303c-.464 1.86-3.328.915-4.258.683l.82-3.286c.93.232 3.922.664 3.438 2.603z" fill="#FFF" fill-rule="nonzero"/>
    </g>
</svg>
