<svg width="82" height="82" viewBox="0 0 82 82" xmlns="http://www.w3.org/2000/svg">
    <title>
        piggy-bank
    </title>
    <g fill="#3852CE" fill-rule="nonzero">
        <path d="M67.666 43.34c-.659 0-1.193.535-1.193 1.194 0 .835-.68 1.515-1.515 1.515-.835 0-1.515-.68-1.515-1.515a1.193 1.193 0 1 0-2.387 0 3.906 3.906 0 0 0 3.902 3.901 3.906 3.906 0 0 0 3.902-3.901c0-.66-.534-1.194-1.194-1.194z"/>
        <path d="M78.868 43.535l-3.359-1.076a1.405 1.405 0 0 1-.907-.918 21.658 21.658 0 0 0-3.175-6.28 23.053 23.053 0 0 0-2.12-2.503c.495-2.174.764-4.634.73-6.76-.05-3.04-.658-4.823-1.858-5.452-.647-.339-2.613-1.368-13.258 3.505a3.868 3.868 0 0 0-.706.42 46.113 46.113 0 0 0-2.189-.531c-.089-.02-.18-.037-.27-.056a16.258 16.258 0 0 0 1.46-6.044 1.193 1.193 0 1 0-2.383-.107 13.864 13.864 0 0 1-4.058 9.204 13.815 13.815 0 0 1-5.027 3.211 34.608 34.608 0 0 0-9.606 0 13.814 13.814 0 0 1-5.027-3.21 13.81 13.81 0 0 1-4.071-9.83 13.81 13.81 0 0 1 4.071-9.83 13.81 13.81 0 0 1 9.83-4.072 13.81 13.81 0 0 1 9.83 4.072 13.896 13.896 0 0 1 2.591 3.578 1.193 1.193 0 1 0 2.132-1.073 16.27 16.27 0 0 0-3.035-4.193A16.182 16.182 0 0 0 36.945.82c-4.35 0-8.44 1.693-11.517 4.77a16.182 16.182 0 0 0-4.77 11.517c0 4.35 1.693 8.441 4.77 11.518a16.28 16.28 0 0 0 2.874 2.29c-.741.192-1.478.409-2.206.652a1.193 1.193 0 0 0 .757 2.264 32.026 32.026 0 0 1 20.185 0 1.191 1.191 0 0 0 1.51-.753 1.193 1.193 0 0 0-.754-1.51 33.63 33.63 0 0 0-2.206-.654 16.272 16.272 0 0 0 4.955-4.843 45.907 45.907 0 0 1 2.255.499c-.013.052-.027.103-.038.156-.582 2.762-.544 5.205.112 7.26.59 1.847 1.655 3.344 3.165 4.449 1.78 1.301 3.928 1.864 5.874 1.864 1.464 0 2.815-.319 3.806-.88 1.122-.636 2.062-1.975 2.806-3.985.344.402.67.813.977 1.234a19.268 19.268 0 0 1 2.826 5.589 3.795 3.795 0 0 0 2.455 2.476l3.36 1.075a2.113 2.113 0 0 1 1.473 2.02v5.569c0 .925-.592 1.736-1.474 2.019l-5.411 1.733a3.687 3.687 0 0 0-2.063 1.676c-2.126 3.674-5.47 6.715-9.936 9.037a1.87 1.87 0 0 0-.981 1.318l-1.733 9.177a.536.536 0 0 1-.527.437h-5.636a.537.537 0 0 1-.526-.436l-.96-5.073a1.875 1.875 0 0 0-2.133-1.508 49.883 49.883 0 0 1-7.434.553c-1.864 0-3.704-.104-5.47-.309a1.89 1.89 0 0 0-2.067 1.517l-.912 4.82a.536.536 0 0 1-.527.436h-5.635a.537.537 0 0 1-.528-.44l-1.669-8.668a1.873 1.873 0 0 0-.963-1.303c-7.614-4.065-11.639-10.856-11.639-19.64 0-4.437.971-8.361 2.886-11.663 1.787-3.081 4.396-5.629 7.756-7.572a1.194 1.194 0 0 0-1.195-2.066C14.322 31.21 10.393 37.025 9.311 44.41c-.115-.01-.23-.02-.345-.033.021-.797-.123-1.6-.437-2.38-.692-1.722-2.114-2.964-3.623-3.165-1.19-.16-2.32.345-3.106 1.383-1.139 1.504-.953 2.695-.597 3.429.601 1.238 2.146 2.114 4.71 2.665-.07.106-.148.212-.233.318-1.515 1.9-3.3 2.32-4.458 2.36A1.253 1.253 0 0 0 0 50.233v.006c0 .67.528 1.216 1.197 1.246.086.004.176.006.269.006 1.466 0 3.82-.54 6.08-3.376.358-.447.649-.92.872-1.407a32.638 32.638 0 0 0 .65.065c-.042.647-.064 1.303-.064 1.97 0 4.97 1.184 9.4 3.52 13.17 2.155 3.476 5.239 6.321 9.17 8.461l1.623 8.427a2.925 2.925 0 0 0 2.872 2.38h5.635c1.403 0 2.61-1.001 2.872-2.38l.825-4.357c1.713.181 3.486.273 5.28.273 2.46 0 4.916-.171 7.31-.51l.87 4.594a2.925 2.925 0 0 0 2.872 2.38h5.636c1.403 0 2.61-1.001 2.872-2.38l1.687-8.936c4.768-2.52 8.361-5.832 10.683-9.845.168-.29.425-.502.726-.598l5.411-1.733A4.493 4.493 0 0 0 82 53.397v-5.57a4.492 4.492 0 0 0-3.132-4.292zM67.47 29.352c-.459 3.928-1.691 7.288-2.93 7.99-1.406.797-4.655.95-7.094-.834-2.442-1.786-3.255-4.999-2.351-9.29a1.44 1.44 0 0 1 .82-.997c5.974-2.735 9.418-3.63 10.698-3.63.193 0 .337.021.432.058.385.41.889 2.739.425 6.703zM3.35 42.602c-.123-.255.169-.703.353-.947.293-.387.563-.466.767-.466a.89.89 0 0 1 .12.008c.549.074 1.318.677 1.725 1.69.096.238.22.633.25 1.125-1.652-.342-2.936-.836-3.214-1.41z"/>
        <path d="M38.104 15.74v-4.27c1.473.104 2.02.778 2.525.778.63 0 .925-.8.925-1.2 0-1.03-2.02-1.472-3.45-1.514v-.568c0-.253-.316-.484-.631-.484-.358 0-.61.231-.61.484v.61c-1.999.21-3.998 1.262-3.998 3.913 0 2.692 2.104 3.45 3.998 4.123v4.944c-2.146-.168-2.714-1.641-3.408-1.641-.526 0-.968.694-.968 1.2 0 1.03 1.767 2.44 4.376 2.482v.652c0 .252.252.484.61.484.316 0 .631-.232.631-.484v-.715c2.272-.316 3.829-1.747 3.829-4.334 0-2.861-1.999-3.787-3.829-4.46zm-1.115-.4c-1.115-.42-2.02-.862-2.02-2.062 0-1.094.842-1.62 2.02-1.767v3.83zm.989 7.174v-4.44c1.03.443 1.85 1.032 1.85 2.357 0 1.2-.714 1.872-1.85 2.083z"/>
    </g>
</svg>
