<svg width="30" height="30" viewBox="0 0 30 30" xmlns="http://www.w3.org/2000/svg">
    <title>
        XRP
    </title>
    <g fill="none" fill-rule="evenodd">
        <circle fill="#0D98CF" cx="15" cy="15" r="15"/>
        <path d="M16.577 7.465a3.653 3.653 0 0 0-1.81 3.145c0 .668.268 1.34.604 1.941.268.536.4 1.472-.536 1.94-.668.4-1.542.134-1.941-.535-.4-.537-.869-1.073-1.472-1.472a3.51 3.51 0 0 0-3.614 0A3.656 3.656 0 0 0 6 15.632c0 1.272.668 2.477 1.808 3.146a3.51 3.51 0 0 0 3.613 0c.604-.335 1.073-.868 1.405-1.472.268-.469 1.005-1.072 1.941-.536.668.4.868 1.273.536 1.94-.335.605-.536 1.274-.536 1.942a3.64 3.64 0 0 0 1.81 3.145 3.51 3.51 0 0 0 3.613 0A3.653 3.653 0 0 0 22 20.652a3.65 3.65 0 0 0-1.81-3.147c-.603-.335-1.273-.469-2.008-.469-.604 0-1.405-.4-1.405-1.404 0-.805.604-1.405 1.405-1.405.668 0 1.405-.133 2.009-.469A3.653 3.653 0 0 0 22 10.614c0-1.272-.67-2.477-1.81-3.145C19.655 7.133 18.987 7 18.384 7c-.6-.003-1.273.133-1.806.465" fill="#FFF" fill-rule="nonzero"/>
    </g>
</svg>
