<?xml version="1.0" encoding="UTF-8"?><!DOCTYPE svg PUBLIC "-//W3C//DTD SVG 1.1//EN" "http://www.w3.org/Graphics/SVG/1.1/DTD/svg11.dtd"><svg xmlns="http://www.w3.org/2000/svg"><symbol id="icon-facebook" viewBox="0 0 18 18">
    <title>
        facebook
    </title>
    <path d="M9.61 17.993v-6.968H7.266V8.31H9.61V6.307c0-2.324 1.42-3.59 3.493-3.59.993 0 1.847.074 2.095.108v2.428H13.76c-1.127 0-1.345.537-1.345 1.323V8.31h2.689l-.35 2.715h-2.34v6.968H.994A.993.993 0 0 1 0 17V.993C0 .445.444 0 .993 0H17c.548 0 .993.444.993.993V17a.993.993 0 0 1-.993.993H9.61z" fill-rule="evenodd" opacity=".3"/>
</symbol><symbol id="icon-telegram" viewBox="0 0 19 16">
    <title>
        telegram
    </title>
    <path d="M19 1.018l-.75 3.575c-.018.09-.04.177-.06.265l-.237 1.11c-.244 1.16-.49 2.322-.736 3.482-.093.41-.185.824-.279 1.235-.146.75-.292 1.499-.44 2.25l-.484 2.258c-.381.892-.932 1.044-1.719.46-1.055-.784-2.104-1.575-3.156-2.362l-.195-.135-.462.457-1.167 1.158c-.045.044-.095.1-.15.161-.032.034-.062.07-.096.105a.967.967 0 0 1-.145.131 2.801 2.801 0 0 0-.125.105c-.256.22-.686.59-1.355.59-.04 0-.08 0-.12-.002-.04.002-.082.004-.12.004-.261 0-1.136-.084-1.46-1.171-.15-.502-.313-1.014-.47-1.51l-.195-.612-.555-1.78-.421-1.357a1.055 1.055 0 0 1-.046-.368L.58 7.99c-.043-.014-.094-.023-.124-.052C.29 7.78.02 7.627 0 7.45c-.02-.175.172-.45.347-.556.393-.238.83-.41 1.257-.586.486-.203.981-.383 1.473-.574l6.56-2.536c1.061-.412 2.124-.82 3.184-1.235.423-.167.84-.35 1.26-.525.687-.249 1.376-.49 2.058-.749.412-.154.813-.334 1.22-.502.108-.03.217-.053.324-.09.727-.249 1.133-.024 1.287.72.013.065.02.134.029.2zM8.63 11.482c-.06.784-.117 1.568-.174 2.351l-.024.324c.045-.048.088-.097.134-.145l1.483-1.468-1.42-1.062zm3.886-6.905c-2.403 1.521-4.806 3.046-7.21 4.566-.049.03-.102.055-.156.08.314 1.01.63 2.02.943 3.03.224.712.457 1.421.67 2.136.087.296.239.454.559.398.089-1.208.174-2.416.265-3.625.01-.141.027-.285.044-.426-.136-.078-.076-.228-.03-.277l.25-.26.089-.083.123-.13c.2-.186.397-.375.596-.562a124.74 124.74 0 0 1 1.273-1.187c.798-.728 1.612-1.44 2.412-2.165 1.02-.925 2.037-1.854 3.047-2.79.074-.103.122-.236.187-.35-.181.024-.393-.006-.537.079-.85.508-1.687 1.037-2.525 1.566z" fill-rule="nonzero" opacity=".3"/>
</symbol><symbol id="icon-twitter" viewBox="0 0 20 16">
    <title>
        twitter
    </title>
    <path d="M13.363.004V0h.938l.343.067c.228.044.436.102.622.173.186.07.367.154.541.248.174.095.332.192.474.29.141.097.267.2.38.309.11.11.282.138.517.085.234-.053.487-.127.757-.222s.538-.201.803-.32c.264-.118.425-.193.483-.225a6.95 6.95 0 0 0 .09-.053l.004-.006.018-.009.018-.008.018-.01.018-.008.003-.006.006-.003.005-.004.004-.005.018-.005.018-.004-.004.027-.005.026-.01.027-.008.027-.01.017-.008.018-.01.027a.61.61 0 0 0-.017.07c-.006.03-.063.149-.172.356a4.433 4.433 0 0 1-.405.63 3.116 3.116 0 0 1-.437.483c-.13.11-.216.187-.258.231a.772.772 0 0 1-.153.125l-.09.058-.018.01-.018.008-.004.005-.005.004-.006.003-.003.006-.018.009-.018.008-.004.006-.005.003-.006.004-.003.005-.004.006-.005.003-.006.004-.003.005h.09l.505-.107c.336-.07.658-.156.965-.257l.487-.16.054-.018.027-.008.018-.01.018-.008.018-.01.018-.008.036-.005L20 1.9v.036l-.009.003-.009.006-.004.005-.005.003-.005.004-.004.005-.004.006-.005.003-.005.004-.004.005-.004.005-.005.004-.01.018-.008.017-.006.004-.229.302c-.15.199-.231.3-.243.302-.012.003-.029.021-.05.053-.021.033-.148.165-.383.396-.234.23-.464.436-.689.616-.226.181-.34.404-.342.668-.004.263-.018.56-.042.891-.024.332-.069.69-.135 1.075s-.168.82-.307 1.305c-.138.485-.306.959-.505 1.42a11 11 0 0 1-.622 1.244 12.009 12.009 0 0 1-1.145 1.651 10.66 10.66 0 0 1-.707.76c-.286.28-.442.435-.469.462-.028.026-.145.123-.353.291-.207.17-.43.339-.668.508a7.732 7.732 0 0 1-.652.42c-.199.113-.438.242-.718.386-.28.146-.581.28-.906.405-.324.124-.667.24-1.028.346-.36.107-.709.19-1.046.249-.336.06-.718.11-1.145.151l-.64.062V16H5.717v-.009l-.153-.009a8.347 8.347 0 0 1-.253-.018 30.552 30.552 0 0 1-.748-.097c-.433-.06-.773-.119-1.02-.178-.246-.059-.612-.171-1.1-.337a10.799 10.799 0 0 1-1.25-.503 50.247 50.247 0 0 1-.648-.32 4.629 4.629 0 0 1-.293-.163L.09 14.27l-.003-.006-.006-.003-.005-.004-.004-.005-.018-.009-.018-.009-.004-.005-.005-.004-.005-.003-.004-.006-.004-.005-.005-.004H0v-.035l.018.003.018.006.081.009c.054.006.202.014.442.026a8.263 8.263 0 0 0 2.597-.293c.385-.1.738-.22 1.06-.358.321-.14.55-.244.686-.313.134-.067.34-.193.616-.376l.415-.276.004-.005.005-.004.006-.003.003-.005.004-.006.005-.003.006-.004.003-.005.018-.006.018-.003.004-.018.005-.018.006-.003.003-.005-.144-.01-.28-.017a2.749 2.749 0 0 1-.423-.08 4.11 4.11 0 0 1-.622-.213 4.823 4.823 0 0 1-.65-.338 3.193 3.193 0 0 1-.456-.324 7.85 7.85 0 0 1-.36-.363 3.6 3.6 0 0 1-.383-.485 4.334 4.334 0 0 1-.31-.573l-.15-.323-.009-.027-.009-.027-.005-.017-.004-.018.027.003.027.006.199.026c.132.018.34.024.622.018.282-.006.478-.018.586-.035a3.84 3.84 0 0 0 .198-.036l.036-.009.046-.009.045-.009.003-.005.006-.003.005-.004.004-.005-.036-.01-.036-.008-.037-.009-.036-.009-.036-.009a3.354 3.354 0 0 1-.126-.035 6.98 6.98 0 0 1-.487-.196 3.743 3.743 0 0 1-.631-.328 4.349 4.349 0 0 1-.447-.35 5.056 5.056 0 0 1-.464-.494 3.545 3.545 0 0 1-.45-.701 4.226 4.226 0 0 1-.298-.764 4.065 4.065 0 0 1-.13-.737l-.033-.372.019.003.018.005.018.01.018.008.018.01.018.008.28.124c.186.083.417.154.694.213.276.06.441.092.495.098l.082.009h.162l-.004-.005-.005-.004-.005-.004-.004-.005-.004-.005-.005-.004-.006-.003-.003-.006-.018-.009-.018-.008-.004-.006-.005-.003-.006-.004-.003-.005-.018-.009-.018-.009-.004-.005-.155-.114a2.35 2.35 0 0 1-.31-.29 10.493 10.493 0 0 1-.325-.372 2.878 2.878 0 0 1-.288-.418 5.024 5.024 0 0 1-.267-.564A3.963 3.963 0 0 1 .83 2.877 4.24 4.24 0 0 1 .848 2.3c.018-.16.054-.34.108-.542.054-.201.132-.414.234-.64l.154-.337.009-.026.009-.027.005-.003.004-.006.003-.005L1.38.71l.005.004.004.005.003.006.006.003.005.004.004.005.003.005.006.004.009.018.009.017.005.004.004.005.243.267c.163.177.355.375.577.594.223.22.346.333.37.341.024.01.054.037.09.082.036.044.156.149.36.314.205.166.473.359.803.578.331.219.698.435 1.1.648.403.213.836.405 1.299.577.463.172.787.284.974.337.186.054.505.122.956.205.45.082.79.136 1.019.16.228.023.384.037.468.04l.127.004-.004-.027-.005-.027-.036-.222a4.11 4.11 0 0 1-.036-.621c0-.266.02-.512.063-.737.042-.225.105-.453.189-.684.084-.23.167-.416.247-.556.082-.138.189-.296.321-.474.132-.177.304-.36.514-.55.21-.19.45-.358.721-.506.27-.148.52-.26.749-.338.228-.077.42-.127.577-.15.156-.024.234-.038.234-.041z" fill-rule="evenodd" opacity=".3"/>
</symbol></svg>