<svg width="30" height="30" viewBox="0 0 30 30" xmlns="http://www.w3.org/2000/svg">
    <title>
        btc
    </title>
    <g fill="none" fill-rule="evenodd">
        <circle fill="#4C68EF" cx="15" cy="15" r="15"/>
        <path d="M14.983 6h.034a4.207 4.207 0 0 1 2.092.566l3.782 2.188A4.226 4.226 0 0 1 23 12.414v.343c0 .26-.28.422-.504.292l-7.102-4.108a.787.787 0 0 0-1.11.353c-.174.377-.002.827.358 1.035l8.03 4.645a.658.658 0 0 1 .328.57v1.25a4.2 4.2 0 0 1-.079.81.441.441 0 0 1-.655.288L8.42 9.883a.36.36 0 0 1-.063-.574 4.2 4.2 0 0 1 .749-.553l3.786-2.19A4.208 4.208 0 0 1 14.983 6zm-7.874 5.458a.342.342 0 0 1 .332-.266c.057 0 .114.014.168.045l13.868 8.021a.448.448 0 0 1 .062.73 4.173 4.173 0 0 1-.644.458l-3.79 2.192a4.202 4.202 0 0 1-2.088.565h-.034a4.202 4.202 0 0 1-2.088-.565l-3.79-2.192A4.219 4.219 0 0 1 7 16.793v-.327c0-.269.29-.437.523-.302l7.083 4.097a.788.788 0 0 0 1.126-.392c.149-.37-.019-.791-.362-.99l-8.02-4.638a.702.702 0 0 1-.35-.608v-1.225c0-.324.038-.642.109-.95z" fill="#FFF" fill-rule="nonzero"/>
    </g>
</svg>
