<svg width="477" height="540" viewBox="0 0 477 540" xmlns="http://www.w3.org/2000/svg">
    <title>
        Illustration01
    </title>
    <defs>
        <linearGradient x1="72.247%" y1="-15.492%" x2="34.186%" y2="96.382%" id="a">
            <stop stop-color="#E4F2FF" offset="0%"/>
            <stop stop-color="#D7E6FD" stop-opacity=".692" offset="30.75%"/>
            <stop stop-color="#BDCEFA" stop-opacity="0" offset="99.93%"/>
        </linearGradient>
        <linearGradient x1="42.45%" y1="7.681%" x2="55.933%" y2="83.176%" id="b">
            <stop stop-color="#E4F2FF" offset="0%"/>
            <stop stop-color="#D7E6FD" stop-opacity=".692" offset="30.75%"/>
            <stop stop-color="#BDCEFA" stop-opacity="0" offset="99.93%"/>
        </linearGradient>
        <linearGradient x1="51.168%" y1="-31.59%" x2="49.72%" y2="71.481%" id="c">
            <stop stop-color="#E4F2FF" offset="0%"/>
            <stop stop-color="#D7E6FD" stop-opacity=".692" offset="30.75%"/>
            <stop stop-color="#BDCEFA" stop-opacity="0" offset="99.93%"/>
        </linearGradient>
        <linearGradient x1="59.092%" y1="-42.528%" x2="46.031%" y2="90.731%" id="d">
            <stop stop-color="#E4F2FF" offset="0%"/>
            <stop stop-color="#D7E6FD" stop-opacity=".692" offset="30.75%"/>
            <stop stop-color="#BDCEFA" stop-opacity="0" offset="99.93%"/>
        </linearGradient>
        <linearGradient x1="55.785%" y1="8.192%" x2="43.271%" y2="98.635%" id="e">
            <stop stop-color="#E4F2FF" offset="0%"/>
            <stop stop-color="#E1EFFF" offset="5.554%"/>
            <stop stop-color="#C7D7FB" offset="64.78%"/>
            <stop stop-color="#BDCEFA" offset="99.93%"/>
        </linearGradient>
        <linearGradient x1="65.946%" y1="-36.402%" x2="45.784%" y2="72.789%" id="f">
            <stop stop-color="#E4F2FF" offset="0%"/>
            <stop stop-color="#E1EFFF" offset="5.554%"/>
            <stop stop-color="#C7D7FB" offset="64.78%"/>
            <stop stop-color="#BDCEFA" offset="99.93%"/>
        </linearGradient>
        <linearGradient x1="54.68%" y1="9366.36%" x2="54.68%" y2="-7642.59%" id="g">
            <stop stop-color="#DEEBFE" offset="0%"/>
            <stop stop-color="#C7D7FB" offset="60.04%"/>
            <stop stop-color="#BDCEFA" offset="99.93%"/>
        </linearGradient>
        <linearGradient x1="99.868%" y1="25.196%" x2="-105.162%" y2="128.631%" id="h">
            <stop stop-color="#E4F2FF" offset="0%"/>
            <stop stop-color="#E1EFFF" offset="5.554%"/>
            <stop stop-color="#C7D7FB" offset="64.78%"/>
            <stop stop-color="#BDCEFA" offset="99.93%"/>
        </linearGradient>
        <linearGradient x1="192.474%" y1="-56.071%" x2="20.345%" y2="72.102%" id="i">
            <stop stop-color="#E4F2FF" offset="0%"/>
            <stop stop-color="#E1EFFF" offset="5.554%"/>
            <stop stop-color="#C7D7FB" offset="64.78%"/>
            <stop stop-color="#BDCEFA" offset="99.93%"/>
        </linearGradient>
        <linearGradient x1="94.886%" y1="29.704%" x2="-97.458%" y2="118.518%" id="j">
            <stop stop-color="#E4F2FF" offset="0%"/>
            <stop stop-color="#E1EFFF" offset="5.554%"/>
            <stop stop-color="#C7D7FB" offset="64.78%"/>
            <stop stop-color="#BDCEFA" offset="99.93%"/>
        </linearGradient>
        <linearGradient x1="252.081%" y1="-54.697%" x2="37.568%" y2="56.76%" id="k">
            <stop stop-color="#E4F2FF" offset="0%"/>
            <stop stop-color="#E1EFFF" offset="5.554%"/>
            <stop stop-color="#C7D7FB" offset="64.78%"/>
            <stop stop-color="#BDCEFA" offset="99.93%"/>
        </linearGradient>
        <linearGradient x1="108.582%" y1="23.077%" x2="-6.838%" y2="76.845%" id="l">
            <stop stop-color="#E4F2FF" offset="0%"/>
            <stop stop-color="#E1EFFF" offset="5.554%"/>
            <stop stop-color="#C7D7FB" offset="64.78%"/>
            <stop stop-color="#BDCEFA" offset="99.93%"/>
        </linearGradient>
        <linearGradient x1="162.807%" y1="60.014%" x2="94.723%" y2="53.976%" id="m">
            <stop stop-color="#E4F2FF" offset="0%"/>
            <stop stop-color="#E1EFFF" offset="5.554%"/>
            <stop stop-color="#C7D7FB" offset="64.78%"/>
            <stop stop-color="#BDCEFA" offset="99.93%"/>
        </linearGradient>
        <linearGradient x1="96.222%" y1="4.702%" x2="-203.536%" y2="298.662%" id="n">
            <stop stop-color="#E4F2FF" offset="0%"/>
            <stop stop-color="#E1EFFF" offset="5.554%"/>
            <stop stop-color="#C7D7FB" offset="64.78%"/>
            <stop stop-color="#BDCEFA" offset="99.93%"/>
        </linearGradient>
        <linearGradient x1="197.325%" y1="81.704%" x2="19.675%" y2="43.477%" id="o">
            <stop stop-color="#E4F2FF" offset="0%"/>
            <stop stop-color="#E1EFFF" offset="5.554%"/>
            <stop stop-color="#C7D7FB" offset="64.78%"/>
            <stop stop-color="#BDCEFA" offset="99.93%"/>
        </linearGradient>
        <linearGradient x1="136.484%" y1="47.753%" x2="1.179%" y2="50.445%" id="p">
            <stop stop-color="#E4F2FF" offset="0%"/>
            <stop stop-color="#E1EFFF" offset="5.554%"/>
            <stop stop-color="#C7D7FB" offset="64.78%"/>
            <stop stop-color="#BDCEFA" offset="99.93%"/>
        </linearGradient>
        <linearGradient x1="100.739%" y1="65.291%" x2="11.568%" y2="33.592%" id="q">
            <stop stop-color="#E4F2FF" offset="0%"/>
            <stop stop-color="#E1EFFF" offset="5.554%"/>
            <stop stop-color="#C7D7FB" offset="64.78%"/>
            <stop stop-color="#BDCEFA" offset="99.93%"/>
        </linearGradient>
        <linearGradient x1="7.777%" y1="145.281%" x2="86.783%" y2="-33.034%" id="r">
            <stop stop-color="#0F123B" offset="0%"/>
            <stop stop-color="#141754" offset="7.442%"/>
            <stop stop-color="#1B1F7A" offset="20.81%"/>
            <stop stop-color="#212599" offset="34.74%"/>
            <stop stop-color="#262AB2" offset="49.15%"/>
            <stop stop-color="#292DC3" offset="64.26%"/>
            <stop stop-color="#2B2FCE" offset="80.51%"/>
            <stop stop-color="#2C30D1" offset="99.93%"/>
        </linearGradient>
        <linearGradient x1="71.557%" y1="-6.27%" x2="18.794%" y2="80.241%" id="s">
            <stop stop-color="#E4F2FF" offset="0%"/>
            <stop stop-color="#E1EFFF" offset="5.554%"/>
            <stop stop-color="#C7D7FB" offset="64.78%"/>
            <stop stop-color="#BDCEFA" offset="99.93%"/>
        </linearGradient>
        <linearGradient x1="115.372%" y1="47.066%" x2="21.807%" y2="51.631%" id="t">
            <stop stop-color="#E4F2FF" offset="0%"/>
            <stop stop-color="#E1EFFF" offset="5.554%"/>
            <stop stop-color="#C7D7FB" offset="64.78%"/>
            <stop stop-color="#BDCEFA" offset="99.93%"/>
        </linearGradient>
        <linearGradient x1="-.124%" y1="49.905%" x2="99.718%" y2="49.905%" id="u">
            <stop stop-color="#FCFDFF" stop-opacity="0" offset="0%"/>
            <stop stop-color="#FCFAD7" stop-opacity=".121" offset="12.09%"/>
            <stop stop-color="#FDF58C" stop-opacity=".366" offset="36.61%"/>
            <stop stop-color="#FEF150" stop-opacity=".586" offset="58.53%"/>
            <stop stop-color="#FFEE24" stop-opacity=".771" offset="77.04%"/>
            <stop stop-color="#FFED0A" stop-opacity=".915" offset="91.43%"/>
            <stop stop-color="#FFEC00" offset="99.93%"/>
        </linearGradient>
        <linearGradient x1="-.124%" y1="49.905%" x2="99.858%" y2="49.905%" id="v">
            <stop stop-color="#FCFDFF" stop-opacity="0" offset="0%"/>
            <stop stop-color="#FCFAD7" stop-opacity=".121" offset="12.09%"/>
            <stop stop-color="#FDF58C" stop-opacity=".366" offset="36.61%"/>
            <stop stop-color="#FEF150" stop-opacity=".586" offset="58.53%"/>
            <stop stop-color="#FFEE24" stop-opacity=".771" offset="77.04%"/>
            <stop stop-color="#FFED0A" stop-opacity=".915" offset="91.43%"/>
            <stop stop-color="#FFEC00" offset="99.93%"/>
        </linearGradient>
        <linearGradient x1="-.124%" y1="50.093%" x2="100.069%" y2="50.093%" id="w">
            <stop stop-color="#FCFDFF" stop-opacity="0" offset="0%"/>
            <stop stop-color="#FCFAD7" stop-opacity=".121" offset="12.09%"/>
            <stop stop-color="#FDF58C" stop-opacity=".366" offset="36.61%"/>
            <stop stop-color="#FEF150" stop-opacity=".586" offset="58.53%"/>
            <stop stop-color="#FFEE24" stop-opacity=".771" offset="77.04%"/>
            <stop stop-color="#FFED0A" stop-opacity=".915" offset="91.43%"/>
            <stop stop-color="#FFEC00" offset="99.93%"/>
        </linearGradient>
        <linearGradient x1="-249.51%" y1="320.4%" x2="165.783%" y2="-53.334%" id="x">
            <stop stop-color="#FCFDFF" stop-opacity="0" offset="0%"/>
            <stop stop-color="#FDB2C9" stop-opacity=".277" offset="27.68%"/>
            <stop stop-color="#FE779D" stop-opacity=".527" offset="52.68%"/>
            <stop stop-color="#FE4B7E" stop-opacity=".739" offset="73.81%"/>
            <stop stop-color="#FF316A" stop-opacity=".903" offset="90.23%"/>
            <stop stop-color="#FF2763" offset="99.93%"/>
        </linearGradient>
        <linearGradient x1="-284.876%" y1="350.776%" x2="130.419%" y2="-22.959%" id="y">
            <stop stop-color="#FCFDFF" stop-opacity="0" offset="0%"/>
            <stop stop-color="#FDB2C9" stop-opacity=".277" offset="27.68%"/>
            <stop stop-color="#FE779D" stop-opacity=".527" offset="52.68%"/>
            <stop stop-color="#FE4B7E" stop-opacity=".739" offset="73.81%"/>
            <stop stop-color="#FF316A" stop-opacity=".903" offset="90.23%"/>
            <stop stop-color="#FF2763" offset="99.93%"/>
        </linearGradient>
        <linearGradient x1="-320.24%" y1="383.588%" x2="95.053%" y2="9.854%" id="z">
            <stop stop-color="#FCFDFF" stop-opacity="0" offset="0%"/>
            <stop stop-color="#FDB2C9" stop-opacity=".277" offset="27.68%"/>
            <stop stop-color="#FE779D" stop-opacity=".527" offset="52.68%"/>
            <stop stop-color="#FE4B7E" stop-opacity=".739" offset="73.81%"/>
            <stop stop-color="#FF316A" stop-opacity=".903" offset="90.23%"/>
            <stop stop-color="#FF2763" offset="99.93%"/>
        </linearGradient>
        <linearGradient x1="-9.529%" y1="77.569%" x2="167.297%" y2="-4.9%" id="A">
            <stop stop-color="#FCFDFF" stop-opacity="0" offset="0%"/>
            <stop stop-color="#FDB2C9" stop-opacity=".277" offset="27.68%"/>
            <stop stop-color="#FE779D" stop-opacity=".527" offset="52.68%"/>
            <stop stop-color="#FE4B7E" stop-opacity=".739" offset="73.81%"/>
            <stop stop-color="#FF316A" stop-opacity=".903" offset="90.23%"/>
            <stop stop-color="#FF2763" offset="99.93%"/>
        </linearGradient>
        <linearGradient x1="-24.587%" y1="84.81%" x2="152.24%" y2="2.341%" id="B">
            <stop stop-color="#FCFDFF" stop-opacity="0" offset="0%"/>
            <stop stop-color="#FDB2C9" stop-opacity=".277" offset="27.68%"/>
            <stop stop-color="#FE779D" stop-opacity=".527" offset="52.68%"/>
            <stop stop-color="#FE4B7E" stop-opacity=".739" offset="73.81%"/>
            <stop stop-color="#FF316A" stop-opacity=".903" offset="90.23%"/>
            <stop stop-color="#FF2763" offset="99.93%"/>
        </linearGradient>
        <linearGradient x1="-39.645%" y1="92.051%" x2="137.182%" y2="9.582%" id="C">
            <stop stop-color="#FCFDFF" stop-opacity="0" offset="0%"/>
            <stop stop-color="#FDB2C9" stop-opacity=".277" offset="27.68%"/>
            <stop stop-color="#FE779D" stop-opacity=".527" offset="52.68%"/>
            <stop stop-color="#FE4B7E" stop-opacity=".739" offset="73.81%"/>
            <stop stop-color="#FF316A" stop-opacity=".903" offset="90.23%"/>
            <stop stop-color="#FF2763" offset="99.93%"/>
        </linearGradient>
        <linearGradient x1="364.65%" y1="-274.268%" x2="-88.317%" y2="192.061%" id="D">
            <stop stop-color="#FCFDFF" stop-opacity="0" offset="0%"/>
            <stop stop-color="#FCFAD7" stop-opacity=".121" offset="12.09%"/>
            <stop stop-color="#FDF58C" stop-opacity=".366" offset="36.61%"/>
            <stop stop-color="#FEF150" stop-opacity=".586" offset="58.53%"/>
            <stop stop-color="#FFEE24" stop-opacity=".771" offset="77.04%"/>
            <stop stop-color="#FFED0A" stop-opacity=".915" offset="91.43%"/>
            <stop stop-color="#FFEC00" offset="99.93%"/>
        </linearGradient>
        <linearGradient x1="400.157%" y1="-311.812%" x2="-52.809%" y2="154.517%" id="E">
            <stop stop-color="#FCFDFF" stop-opacity="0" offset="0%"/>
            <stop stop-color="#FCFAD7" stop-opacity=".121" offset="12.09%"/>
            <stop stop-color="#FDF58C" stop-opacity=".366" offset="36.61%"/>
            <stop stop-color="#FEF150" stop-opacity=".586" offset="58.53%"/>
            <stop stop-color="#FFEE24" stop-opacity=".771" offset="77.04%"/>
            <stop stop-color="#FFED0A" stop-opacity=".915" offset="91.43%"/>
            <stop stop-color="#FFEC00" offset="99.93%"/>
        </linearGradient>
        <linearGradient x1="435.665%" y1="-346.917%" x2="-17.301%" y2="119.415%" id="F">
            <stop stop-color="#FCFDFF" stop-opacity="0" offset="0%"/>
            <stop stop-color="#FCFAD7" stop-opacity=".121" offset="12.09%"/>
            <stop stop-color="#FDF58C" stop-opacity=".366" offset="36.61%"/>
            <stop stop-color="#FEF150" stop-opacity=".586" offset="58.53%"/>
            <stop stop-color="#FFEE24" stop-opacity=".771" offset="77.04%"/>
            <stop stop-color="#FFED0A" stop-opacity=".915" offset="91.43%"/>
            <stop stop-color="#FFEC00" offset="99.93%"/>
        </linearGradient>
        <linearGradient x1="122.509%" y1="12.739%" x2="-76.092%" y2="114.196%" id="G">
            <stop stop-color="#FCFDFF" stop-opacity="0" offset="0%"/>
            <stop stop-color="#FCFAD7" stop-opacity=".121" offset="12.09%"/>
            <stop stop-color="#FDF58C" stop-opacity=".366" offset="36.61%"/>
            <stop stop-color="#FEF150" stop-opacity=".586" offset="58.53%"/>
            <stop stop-color="#FFEE24" stop-opacity=".771" offset="77.04%"/>
            <stop stop-color="#FFED0A" stop-opacity=".915" offset="91.43%"/>
            <stop stop-color="#FFEC00" offset="99.93%"/>
        </linearGradient>
        <linearGradient x1="138.077%" y1="5.102%" x2="-60.523%" y2="106.559%" id="H">
            <stop stop-color="#FCFDFF" stop-opacity="0" offset="0%"/>
            <stop stop-color="#FCFAD7" stop-opacity=".121" offset="12.09%"/>
            <stop stop-color="#FDF58C" stop-opacity=".366" offset="36.61%"/>
            <stop stop-color="#FEF150" stop-opacity=".586" offset="58.53%"/>
            <stop stop-color="#FFEE24" stop-opacity=".771" offset="77.04%"/>
            <stop stop-color="#FFED0A" stop-opacity=".915" offset="91.43%"/>
            <stop stop-color="#FFEC00" offset="99.93%"/>
        </linearGradient>
        <linearGradient x1="153.646%" y1="-3.066%" x2="-44.956%" y2="98.391%" id="I">
            <stop stop-color="#FCFDFF" stop-opacity="0" offset="0%"/>
            <stop stop-color="#FCFAD7" stop-opacity=".121" offset="12.09%"/>
            <stop stop-color="#FDF58C" stop-opacity=".366" offset="36.61%"/>
            <stop stop-color="#FEF150" stop-opacity=".586" offset="58.53%"/>
            <stop stop-color="#FFEE24" stop-opacity=".771" offset="77.04%"/>
            <stop stop-color="#FFED0A" stop-opacity=".915" offset="91.43%"/>
            <stop stop-color="#FFEC00" offset="99.93%"/>
        </linearGradient>
        <linearGradient x1="73.431%" y1="-12.467%" x2="29.398%" y2="104.934%" id="J">
            <stop stop-color="#E4F2FF" offset="0%"/>
            <stop stop-color="#D7E6FD" stop-opacity=".692" offset="30.75%"/>
            <stop stop-color="#BDCEFA" stop-opacity="0" offset="99.93%"/>
        </linearGradient>
        <linearGradient x1="123.09%" y1="-31.734%" x2="38.273%" y2="63.164%" id="K">
            <stop stop-color="#E4F2FF" offset="0%"/>
            <stop stop-color="#E1EFFF" offset="5.554%"/>
            <stop stop-color="#C7D7FB" offset="64.78%"/>
            <stop stop-color="#BDCEFA" offset="99.93%"/>
        </linearGradient>
        <linearGradient x1="98.458%" y1="-57.787%" x2="16.339%" y2="124.5%" id="L">
            <stop stop-color="#E4F2FF" offset="0%"/>
            <stop stop-color="#E1EFFF" offset="5.554%"/>
            <stop stop-color="#C7D7FB" offset="64.78%"/>
            <stop stop-color="#BDCEFA" offset="99.93%"/>
        </linearGradient>
        <linearGradient x1="76.522%" y1="-23.252%" x2="30.05%" y2="105.319%" id="M">
            <stop stop-color="#E4F2FF" offset="0%"/>
            <stop stop-color="#D7E6FD" stop-opacity=".692" offset="30.75%"/>
            <stop stop-color="#BDCEFA" stop-opacity="0" offset="99.93%"/>
        </linearGradient>
        <linearGradient x1="125.116%" y1="6.654%" x2="-4.861%" y2="81.597%" id="N">
            <stop stop-color="#E4F2FF" offset="0%"/>
            <stop stop-color="#E1EFFF" offset="5.554%"/>
            <stop stop-color="#C7D7FB" offset="64.78%"/>
            <stop stop-color="#BDCEFA" offset="99.93%"/>
        </linearGradient>
        <linearGradient x1="117.487%" y1="11.105%" x2="-12.49%" y2="86.048%" id="O">
            <stop stop-color="#E4F2FF" offset="0%"/>
            <stop stop-color="#E1EFFF" offset="5.554%"/>
            <stop stop-color="#C7D7FB" offset="64.78%"/>
            <stop stop-color="#BDCEFA" offset="99.93%"/>
        </linearGradient>
        <linearGradient x1="151.606%" y1="-105.818%" x2="-9.37%" y2="140.834%" id="P">
            <stop stop-color="#E4F2FF" offset="0%"/>
            <stop stop-color="#E1EFFF" offset="5.554%"/>
            <stop stop-color="#C7D7FB" offset="64.78%"/>
            <stop stop-color="#BDCEFA" offset="99.93%"/>
        </linearGradient>
        <linearGradient x1="115.319%" y1="-50.004%" x2="-45.657%" y2="196.647%" id="Q">
            <stop stop-color="#E4F2FF" offset="0%"/>
            <stop stop-color="#E1EFFF" offset="5.554%"/>
            <stop stop-color="#C7D7FB" offset="64.78%"/>
            <stop stop-color="#BDCEFA" offset="99.93%"/>
        </linearGradient>
        <linearGradient x1="78.909%" y1="5.79%" x2="-81.922%" y2="251.608%" id="R">
            <stop stop-color="#E4F2FF" offset="0%"/>
            <stop stop-color="#E1EFFF" offset="5.554%"/>
            <stop stop-color="#C7D7FB" offset="64.78%"/>
            <stop stop-color="#BDCEFA" offset="99.93%"/>
        </linearGradient>
        <linearGradient x1="62.123%" y1="-1.84%" x2="19.034%" y2="182.707%" id="S">
            <stop stop-color="#E4F2FF" offset="0%"/>
            <stop stop-color="#E1EFFF" offset="5.554%"/>
            <stop stop-color="#C7D7FB" offset="64.78%"/>
            <stop stop-color="#BDCEFA" offset="99.93%"/>
        </linearGradient>
        <linearGradient x1="78.804%" y1="-37.066%" x2="40.036%" y2="79.918%" id="T">
            <stop stop-color="#E4F2FF" offset="0%"/>
            <stop stop-color="#E1EFFF" offset="5.554%"/>
            <stop stop-color="#C7D7FB" offset="64.78%"/>
            <stop stop-color="#BDCEFA" offset="99.93%"/>
        </linearGradient>
        <linearGradient x1="48.656%" y1="100%" x2="48.656%" y2=".024%" id="U">
            <stop stop-color="#4C68EF" stop-opacity="0" offset="0%"/>
            <stop stop-color="#4C68EF" offset="100%"/>
        </linearGradient>
        <linearGradient x1="48.656%" y1="100%" x2="48.656%" y2=".024%" id="V">
            <stop stop-color="#4C68EF" stop-opacity="0" offset="0%"/>
            <stop stop-color="#4C68EF" offset="100%"/>
        </linearGradient>
        <linearGradient x1="48.656%" y1="100%" x2="48.656%" y2=".024%" id="W">
            <stop stop-color="#4C68EF" stop-opacity="0" offset="0%"/>
            <stop stop-color="#4C68EF" offset="100%"/>
        </linearGradient>
    </defs>
    <g fill="none" fill-rule="evenodd">
        <g opacity=".15" fill="#BDCEFA" fill-rule="nonzero">
            <path d="M436.8 399.1l-66.5 37.2c-2.9 1.7-8.1 1.5-11.5-.5l-22.1-13.2c-3.4-2-3.8-5-.8-6.7l66.2-38c2.9-1.7 8.1-1.5 11.5.5l22.4 13.9c3.4 2.1 3.8 5.1.8 6.8z"/>
            <path d="M409.2 366.6l-66.5 37.2c-2.9 1.7-8.1 1.5-11.5-.5l-22.1-13.2c-3.4-2-3.8-5-.8-6.7l66.2-38c2.9-1.7 8.1-1.5 11.5.5l22.4 13.9c3.3 2.1 3.7 5.1.8 6.8z"/>
            <path d="M425.1 311.6L224.5 423.5c-8.9 5.1-24.5 4.5-34.8-1.4L72.8 354.6c-10.3-5.9-11.4-15-2.5-20.1l200.6-111.9c8.9-5.1 24.5-4.5 34.8 1.4l116.9 67.5c10.2 6 11.4 15 2.5 20.1z"/>
        </g>
        <g fill-rule="nonzero">
            <path d="M3.1 150.3c-1.1 0-2.4-.9-2.4-2.4V97.8c0-.8.5-1.6 1.2-2L62.2 61c.4-.2.8-.3 1.2-.3 1.1 0 2.4.9 2.4 2.4v50.1c0 .8-.5 1.6-1.2 2L4.3 150c-.4.2-.8.3-1.2.3z" fill="url(#a)" transform="translate(35 11)"/>
            <path d="M48.1 223.1c-2.4 0-5.1-1.9-5.1-5.1V110.8c0-1.8 1-3.5 2.5-4.4l129-74.4c.8-.5 1.6-.7 2.5-.7 2.4 0 5.1 1.9 5.1 5.1v107.3c0 1.8-1 3.5-2.5 4.4l-129 74.3c-.8.5-1.6.7-2.5.7z" fill="url(#b)" transform="translate(35 11)"/>
            <path d="M149.7 79.8c-1 0-2.1-.8-2.1-2.1V33.3c0-.7.4-1.4 1-1.8L202 .6c.3-.2.7-.3 1-.3 1 0 2.1.8 2.1 2.1v44.4c0 .7-.4 1.4-1 1.8l-53.4 30.8c-.3.3-.7.4-1 .4z" fill="url(#c)" transform="translate(35 11)"/>
            <path d="M25.1 256.4c-1 0-2.1-.8-2.1-2.1v-44.4c0-.7.4-1.4 1-1.8l53.4-30.8c.3-.2.7-.3 1-.3 1 0 2.1.8 2.1 2.1v44.4c0 .7-.4 1.4-1 1.8l-53.4 30.8c-.3.2-.7.3-1 .3z" fill="url(#d)" transform="translate(35 11)"/>
            <g fill="#BDCEFA">
                <g transform="translate(200 81)">
                    <ellipse transform="rotate(-58.957 5.12 18.727)" cx="5.12" cy="18.727" rx="4.8" ry="2.8"/>
                    <path d="M20.5 9.8c0 2.1-1.5 4.8-3.4 5.8-1.9 1.1-3.4.2-3.4-1.9s1.5-4.8 3.4-5.8c1.9-1.1 3.4-.2 3.4 1.9z"/>
                    <path d="M32.6 2.9c0 2.1-1.5 4.8-3.4 5.8s-3.4.2-3.4-1.9S27.3 2 29.2 1C31-.1 32.6.7 32.6 2.9z"/>
                </g>
                <path d="M120.7 155.4c-2.5 2.8-4.7 4.5-7.7 6.2-7 4.1-13.2 1.8-13.2-7.8 0-10 6.3-22.2 15.8-27.8 7.4-4.3 12.8-1.5 12.8 6.7 0 7.1-3.5 13.6-8 16.3-2 1.1-3.4.8-3.6-1.7h-.1c-1.3 3.2-3.2 5.6-5.5 6.9-2.8 1.6-4.7.4-4.7-3.6 0-6 3.8-13.6 9.9-17.1 1.9-1.1 4-1.8 5-1.7l-1.3 9.8c-.4 3.1-.1 4.3 1.1 3.6 1.8-1 4.1-5 4.1-10.6 0-6.4-3.6-9.2-10.1-5.4-6.5 3.7-12.1 12.9-12.1 22.2 0 8.2 4.5 10.2 10.8 6.5 2.2-1.2 4.4-3.1 6.1-5.1l.7 2.6zm-3.8-18c-.3.1-.8.2-1.3.6-2.8 1.6-5 6.1-5 9.8 0 1.9.7 2.6 2.1 1.8 1.6-.9 3.2-4.2 3.6-7.2l.6-5z"/>
                <path d="M139 93.8l14.8 4.1c.5.1 1.2-.3 1.6-.9l14.8-21.1L139 93.8z"/>
                <path d="M149.5 98.2l-10.3 17c-.2-.2-.3-.5-.3-.9v-19l10.6 2.9z"/>
                <path d="M158.8 93.7l10.4 5.2c-.3.3-.6.6-1 .8l-27 15.6c-.3.2-.6.3-.9.3l10.3-17.1 4.1 1.1 4.1-5.9z"/>
                <path d="M170.3 77.2v19c0 .4-.1.8-.3 1.2l-10.2-5.2 10.5-15z"/>
            </g>
            <g fill="#BDCEFA">
                <path d="M273.8 102.8c-.1 0-.2-.1-.2-.2V29.1L173.5 87c-.1.1-.3 0-.3-.1-.1-.1 0-.3.1-.3l100.8-58.3v74.4s-.1.1-.3.1z"/>
                <path d="M280.5 103.1c-.3 0-.5-.2-.5-.5v-.1c0-.3.2-.5.5-.5s.5.2.5.5c0 .4-.2.6-.5.6z"/>
                <path d="M280.5 99.3c-.3 0-.5-.2-.5-.5v-.1c0-.3.2-.5.5-.5s.5.2.5.5-.2.6-.5.6zm0-3.9c-.3 0-.5-.2-.5-.5v-.1c0-.3.2-.5.5-.5s.5.2.5.5-.2.6-.5.6zm0-3.9c-.3 0-.5-.2-.5-.5s.2-.5.5-.5.5.2.5.5c0 .2-.2.5-.5.5zm0-3.9c-.3 0-.5-.2-.5-.5V87c0-.3.2-.5.5-.5s.5.2.5.5c0 .4-.2.6-.5.6zm0-3.8c-.3 0-.5-.2-.5-.5v-.1c0-.3.2-.5.5-.5s.5.2.5.5-.2.6-.5.6zm0-3.9c-.3 0-.5-.2-.5-.5v-.1c0-.3.2-.5.5-.5s.5.2.5.5-.2.6-.5.6zm0-3.9c-.3 0-.5-.2-.5-.5v-.1c0-.3.2-.5.5-.5s.5.2.5.5-.2.6-.5.6z"/>
                <path d="M280.5 72.2c-.2 0-.3-.1-.4-.2v-.1c-.1-.2-.1-.5.2-.7.2-.1.4-.1.5 0 .2.1.3.2.3.4-.1.3-.3.6-.6.6z"/>
                <path d="M137.4 152c-.2 0-.3-.1-.4-.3-.1-.2 0-.5.2-.7h.1c.2-.1.5 0 .7.2.1.2 0 .5-.2.7h-.1c-.1.1-.2.1-.3.1zm3.6-2c-.2 0-.3-.1-.4-.3-.1-.2 0-.5.2-.7h.1c.2-.1.5 0 .7.2.1.2 0 .5-.2.7h-.1c-.1.1-.2.1-.3.1zm3.6-2c-.2 0-.3-.1-.4-.3-.1-.2 0-.5.2-.7.2-.1.6-.1.7.2.1.2.1.5-.1.7h-.1c-.1.1-.2.1-.3.1zm3.6-2c-.2 0-.3-.1-.4-.3-.1-.2 0-.5.2-.7h.1c.2-.1.5 0 .7.2.1.2 0 .5-.2.7h-.1c-.2.1-.2.1-.3.1zm3.6-2c-.2 0-.3-.1-.4-.3-.1-.2 0-.5.2-.7h.1c.2-.1.5 0 .7.2.1.2 0 .5-.2.7h-.1c-.2.1-.3.1-.3.1zm3.5-2c-.2 0-.3-.1-.4-.3-.1-.2 0-.5.2-.7.2-.1.6-.1.7.2.1.2.1.5-.1.7h-.1c-.1.1-.2.1-.3.1zm3.6-2c-.2 0-.3-.1-.4-.3-.1-.2 0-.5.2-.7.2-.1.6-.1.7.2.1.2.1.5-.1.7h-.1c-.1.1-.2.1-.3.1zm3.6-2c-.2 0-.3-.1-.4-.3-.1-.2 0-.5.2-.7h.1c.2-.1.5 0 .7.2.1.2 0 .5-.2.7h-.1c-.2.1-.2.1-.3.1zm3.6-2c-.2 0-.3-.1-.4-.3-.1-.2 0-.5.2-.7h.1c.2-.1.5 0 .7.2.1.2 0 .5-.2.7h-.1c-.2.1-.3.1-.3.1zm3.5-2c-.2 0-.3-.1-.4-.3-.1-.2 0-.5.2-.7.2-.1.6-.1.7.2.1.2.1.5-.2.7h-.1c0 .1-.1.1-.2.1zm3.6-2c-.2 0-.3-.1-.4-.3-.1-.2 0-.5.2-.7.2-.1.6-.1.7.2.1.2.1.5-.2.7h-.1c0 .1-.1.1-.2.1zm3.6-2c-.2 0-.3-.1-.4-.3-.1-.2 0-.5.2-.7.2-.1.6-.1.7.2.1.2.1.5-.2.7h-.1c-.1.1-.1.1-.2.1zm3.6-2c-.2 0-.3-.1-.4-.3-.1-.2 0-.5.2-.7.2-.1.6-.1.7.2.1.2.1.5-.2.7h-.1c-.1.1-.2.1-.2.1zm3.5-1.9c-.2 0-.3-.1-.4-.3-.1-.2 0-.5.2-.7.2-.1.6-.1.7.2.1.2.1.5-.2.7h-.1s-.1.1-.2.1zm3.6-2c-.2 0-.3-.1-.4-.3-.1-.2 0-.5.2-.7.2-.1.6-.1.7.2.1.2.1.5-.2.7h-.1s-.1.1-.2.1zm3.6-2c-.2 0-.3-.1-.4-.3-.1-.2 0-.5.2-.7h.1c.2-.1.5 0 .7.2.1.2 0 .5-.2.7h-.1c-.2 0-.2.1-.3.1zm3.6-2c-.2 0-.3-.1-.4-.3-.1-.2 0-.5.2-.7.2-.1.6-.1.7.2.1.2.1.5-.1.7h-.1c-.2 0-.3.1-.3.1zm3.5-2c-.2 0-.3-.1-.4-.3-.1-.2 0-.5.2-.7h.1c.2-.1.5 0 .7.2.1.2 0 .5-.2.7h-.1c-.1 0-.2.1-.3.1zm3.6-2c-.2 0-.3-.1-.4-.3-.1-.2 0-.5.2-.7h.1c.2-.1.5 0 .7.2.1.2 0 .5-.2.7h-.1c-.1.1-.2.1-.3.1zm3.6-2c-.2 0-.3-.1-.4-.3-.1-.2 0-.5.2-.7.2-.1.6-.1.7.2.1.2.1.5-.1.7h-.1c-.1.1-.2.1-.3.1zm3.6-2c-.2 0-.3-.1-.4-.3-.1-.2 0-.5.2-.7.2-.1.6-.1.7.2.1.2.1.5-.1.7h-.1c-.2.1-.3.1-.3.1zm3.5-2c-.2 0-.3-.1-.4-.3-.1-.2 0-.5.2-.7h.1c.2-.1.5 0 .7.2.1.2 0 .5-.2.7h-.1c-.1.1-.2.1-.3.1zm3.6-2c-.2 0-.3-.1-.4-.3-.1-.2 0-.5.2-.7h.1c.2-.1.5 0 .7.2.1.2 0 .5-.2.7h-.1c-.1.1-.2.1-.3.1zm3.6-2c-.2 0-.3-.1-.4-.3-.1-.2 0-.5.2-.7.2-.1.6-.1.7.2.1.2.1.5-.1.7h-.1c-.1.1-.2.1-.3.1zm3.6-2c-.2 0-.3-.1-.4-.3-.1-.2 0-.5.2-.7.2-.1.6-.1.7.2.1.2.1.5-.1.7h-.1c-.2.1-.3.1-.3.1zm3.5-2c-.2 0-.3-.1-.4-.3-.1-.2 0-.5.2-.7h.1c.2-.1.5 0 .7.2.1.2 0 .5-.2.7h-.1c-.1.1-.2.1-.3.1zm3.6-2c-.2 0-.3-.1-.4-.3-.1-.2 0-.5.2-.7h.1c.2-.1.5 0 .7.2.1.2 0 .5-.2.7h-.1c-.1.1-.2.1-.3.1zm3.6-2c-.2 0-.3-.1-.4-.3-.1-.2 0-.5.2-.7.2-.1.6-.1.7.2.1.2.1.5-.1.7h-.1c-.1.1-.2.1-.3.1zm3.6-2c-.2 0-.3-.1-.4-.3-.1-.2 0-.5.2-.7.2-.1.6-.1.7.2.1.2.1.5-.1.7h-.1c-.2.1-.3.1-.3.1zm3.5-2c-.2 0-.3-.1-.4-.3-.1-.2 0-.5.2-.7.2-.1.6-.1.7.2.1.2.1.5-.2.7h-.1c0 .1-.1.1-.2.1zm3.6-2c-.2 0-.3-.1-.4-.3-.1-.2 0-.5.2-.7h.1c.2-.1.5 0 .7.2.1.2 0 .5-.2.7h-.1c-.1.1-.2.1-.3.1zm3.6-2c-.2 0-.3-.1-.4-.3-.1-.2 0-.5.2-.7.2-.1.6-.1.7.2.1.2.1.5-.2.7h-.1c0 .1-.1.1-.2.1zm3.6-2c-.2 0-.3-.1-.4-.3-.1-.2 0-.5.2-.7.2-.1.6-.1.7.2.1.2.1.5-.2.7h-.1c-.1.1-.2.1-.2.1zm3.5-2c-.2 0-.3-.1-.4-.3-.1-.2 0-.5.2-.7.2-.1.6-.1.7.2.1.2.1.5-.2.7h-.1c0 .1-.1.1-.2.1zm3.6-2c-.2 0-.3-.1-.4-.3-.1-.2 0-.5.2-.7.2-.1.6-.1.7.2.1.2.1.5-.2.7h-.1c0 .1-.1.1-.2.1zm3.6-2c-.2 0-.3-.1-.4-.3-.1-.2 0-.5.2-.7h.1c.2-.1.5 0 .7.2.1.2 0 .5-.2.7h-.1c-.1.1-.2.1-.3.1zm3.6-2c-.2 0-.3-.1-.4-.3-.1-.2 0-.5.2-.7.2-.1.6-.1.7.2.1.2.1.5-.1.7h-.1c-.2.1-.2.1-.3.1zm3.5-2c-.2 0-.3-.1-.4-.3-.1-.2 0-.5.2-.7.2-.1.6-.1.7.2.1.2.1.5-.1.7h-.1c-.1.1-.2.1-.3.1zm3.6-1.9c-.2 0-.3-.1-.4-.3-.1-.2 0-.5.2-.7h.1c.2-.1.5 0 .7.2.1.2 0 .5-.2.7h-.1c-.1 0-.2.1-.3.1zm3.6-2c-.2 0-.3-.1-.4-.3-.1-.2 0-.5.2-.7.2-.1.6-.1.7.2.1.2.1.5-.1.7h-.1c-.1 0-.2.1-.3.1z"/>
                <path d="M133.9 154c-.3 0-.5-.2-.5-.5 0-.2.1-.4.3-.5.2-.1.6-.1.7.2.1.2.1.5-.1.6-.1.1-.2.2-.4.2z"/>
                <path d="M133.9 183.8c-.3 0-.5-.2-.5-.5v-.1c0-.3.2-.5.5-.5s.5.2.5.5v.1c0 .2-.2.5-.5.5zm0-4.3c-.3 0-.5-.2-.5-.5v-.1c0-.3.2-.5.5-.5s.5.2.5.5v.1c0 .3-.2.5-.5.5zm0-4.2c-.3 0-.5-.2-.5-.5v-.1c0-.3.2-.5.5-.5s.5.2.5.5v.1c0 .2-.2.5-.5.5zm0-4.3c-.3 0-.5-.2-.5-.5v-.1c0-.3.2-.5.5-.5s.5.2.5.5v.1c0 .3-.2.5-.5.5zm0-4.2c-.3 0-.5-.2-.5-.5v-.1c0-.3.2-.5.5-.5s.5.2.5.5v.1c0 .2-.2.5-.5.5zm0-4.3c-.3 0-.5-.2-.5-.5v-.1c0-.3.2-.5.5-.5s.5.2.5.5v.1c0 .3-.2.5-.5.5zm0-4.2c-.3 0-.5-.2-.5-.5v-.1c0-.3.2-.5.5-.5s.5.2.5.5v.1c0 .2-.2.5-.5.5z"/>
                <path d="M133.9 188c-.3 0-.5-.2-.5-.5s.2-.5.5-.5.5.2.5.5c0 .2-.2.5-.5.5z"/>
                <path d="M71.3 207.7c-.1 0-.2-.1-.2-.2v-40l.1-.1L94.7 155c.1-.1.3 0 .3.1.1.1 0 .3-.1.3l-23.3 12.4v39.7c-.1.1-.2.2-.3.2z"/>
                <path d="M88.2 272c-.3 0-.5-.2-.5-.5v-.1c0-.3.2-.5.5-.5s.5.2.5.5-.3.6-.5.6zm0-4.1c-.3 0-.5-.2-.5-.5v-.1c0-.3.2-.5.5-.5s.5.2.5.5v.1c0 .3-.3.5-.5.5zm0-4.1c-.3 0-.5-.2-.5-.5v-.1c0-.3.2-.5.5-.5s.5.2.5.5-.3.6-.5.6zm0-4.1c-.3 0-.5-.2-.5-.5v-.1c0-.3.2-.5.5-.5s.5.2.5.5v.1c0 .3-.3.5-.5.5zm0-4.1c-.3 0-.5-.2-.5-.5v-.1c0-.3.2-.5.5-.5s.5.2.5.5-.3.6-.5.6zm0-4.1c-.3 0-.5-.2-.5-.5v-.1c0-.3.2-.5.5-.5s.5.2.5.5-.3.6-.5.6zm0-4.1c-.3 0-.5-.2-.5-.5v-.1c0-.3.2-.5.5-.5s.5.2.5.5v.1c0 .3-.3.5-.5.5zm0-4.1c-.3 0-.5-.2-.5-.5v-.1c0-.3.2-.5.5-.5s.5.2.5.5-.3.6-.5.6zm0-4.1c-.3 0-.5-.2-.5-.5v-.1c0-.3.2-.5.5-.5s.5.2.5.5v.1c0 .3-.3.5-.5.5zm0-4.1c-.3 0-.5-.2-.5-.5v-.1c0-.3.2-.5.5-.5s.5.2.5.5-.3.6-.5.6zm0-4.1c-.3 0-.5-.2-.5-.5v-.1c0-.3.2-.5.5-.5s.5.2.5.5v.1c0 .3-.3.5-.5.5zm0-4.1c-.3 0-.5-.2-.5-.5v-.1c0-.3.2-.5.5-.5s.5.2.5.5v.1c0 .3-.3.5-.5.5zm0-4.1c-.3 0-.5-.2-.5-.5v-.1c0-.3.2-.5.5-.5s.5.2.5.5-.3.6-.5.6zm0-4.1c-.3 0-.5-.2-.5-.5v-.1c0-.3.2-.5.5-.5s.5.2.5.5v.1c0 .3-.3.5-.5.5zm0-4.1c-.3 0-.5-.2-.5-.5v-.1c0-.3.2-.5.5-.5s.5.2.5.5v.1c0 .3-.3.5-.5.5zm0-4.1c-.3 0-.5-.2-.5-.5v-.1c0-.3.2-.5.5-.5s.5.2.5.5v.1c0 .3-.3.5-.5.5zm0-4.1c-.3 0-.5-.2-.5-.5v-.1c0-.3.2-.5.5-.5s.5.2.5.5v.1c0 .3-.3.5-.5.5zm0-4.1c-.3 0-.5-.2-.5-.5v-.1c0-.3.2-.5.5-.5s.5.2.5.5-.3.6-.5.6zm0-4.1c-.3 0-.5-.2-.5-.5v-.1c0-.3.2-.5.5-.5s.5.2.5.5v.1c0 .3-.3.5-.5.5zm0-4.1c-.3 0-.5-.2-.5-.5v-.1c0-.3.2-.5.5-.5s.5.2.5.5v.1c0 .3-.3.5-.5.5zm0-4.1c-.3 0-.5-.2-.5-.5v-.1c0-.3.2-.5.5-.5s.5.2.5.5v.1c0 .3-.3.5-.5.5zm0-4.1c-.3 0-.5-.2-.5-.5v-.1c0-.3.2-.5.5-.5s.5.2.5.5v.1c0 .3-.3.5-.5.5zm0-4.1c-.3 0-.5-.2-.5-.5v-.1c0-.3.2-.5.5-.5s.5.2.5.5-.3.6-.5.6zm0-4.1c-.3 0-.5-.2-.5-.5v-.1c0-.3.2-.5.5-.5s.5.2.5.5v.1c0 .3-.3.5-.5.5zm0-4.1c-.3 0-.5-.2-.5-.5v-.1c0-.3.2-.5.5-.5s.5.2.5.5v.1c0 .3-.3.5-.5.5zm0-4.1c-.3 0-.5-.2-.5-.5v-.1c0-.3.2-.5.5-.5s.5.2.5.5v.1c0 .3-.3.5-.5.5zm0-4.1c-.3 0-.5-.2-.5-.5v-.1c0-.3.2-.5.5-.5s.5.2.5.5v.1c0 .3-.3.5-.5.5zm0-4.1c-.3 0-.5-.2-.5-.5v-.1c0-.3.2-.5.5-.5s.5.2.5.5-.3.6-.5.6zm0-4.1c-.3 0-.5-.2-.5-.5v-.1c0-.3.2-.5.5-.5s.5.2.5.5v.1c0 .3-.3.5-.5.5zm0-4.1c-.3 0-.5-.2-.5-.5v-.1c0-.3.2-.5.5-.5s.5.2.5.5v.1c0 .3-.3.5-.5.5zm0-4.1c-.3 0-.5-.2-.5-.5v-.1c0-.3.2-.5.5-.5s.5.2.5.5v.1c0 .3-.3.5-.5.5zm0-4.1c-.3 0-.5-.2-.5-.5v-.1c0-.3.2-.5.5-.5s.5.2.5.5v.1c0 .3-.3.5-.5.5zm0-4.1c-.3 0-.5-.2-.5-.5v-.1c0-.3.2-.5.5-.5s.5.2.5.5-.3.6-.5.6zm0-4.1c-.3 0-.5-.2-.5-.5v-.1c0-.3.2-.5.5-.5s.5.2.5.5v.1c0 .3-.3.5-.5.5zm0-4.1c-.3 0-.5-.2-.5-.5v-.1c0-.3.2-.5.5-.5s.5.2.5.5v.1c0 .3-.3.5-.5.5zm0-4.1c-.3 0-.5-.2-.5-.5v-.1c0-.3.2-.5.5-.5s.5.2.5.5v.1c0 .3-.3.5-.5.5zm0-4.1c-.3 0-.5-.2-.5-.5v-.1c0-.3.2-.5.5-.5s.5.2.5.5v.1c0 .3-.3.5-.5.5zm1.9-2.9c-.2 0-.3-.1-.4-.3-.1-.2-.1-.5.2-.7h.1c.2-.1.5-.1.7.2.1.2.1.5-.2.7h-.1c-.1 0-.2.1-.3.1zm3.6-2.1c-.2 0-.4-.1-.4-.2-.1-.2-.1-.5.1-.7h.1c.2-.1.5-.1.7.2.1.2.1.5-.2.7h-.3zm3.6-2c-.2 0-.4-.1-.4-.2-.1-.2-.1-.5.1-.7h.1c.2-.1.5-.1.7.2.1.2.1.5-.2.7-.1-.1-.2 0-.3 0zm3.5-2c-.2 0-.3-.1-.4-.3-.1-.2-.1-.5.2-.7h.1c.2-.1.5-.1.7.2.1.2.1.5-.2.7h-.1c-.2 0-.2.1-.3.1zm3.6-2.1c-.2 0-.4-.1-.4-.2-.1-.2-.1-.5.1-.7h.1c.2-.1.5-.1.7.2.1.2.1.5-.2.7h-.3zm3.5-2c-.2 0-.4-.1-.4-.2-.1-.2-.1-.5.1-.7h.1c.2-.1.5-.1.7.2.1.2.1.5-.2.7-.1-.1-.2 0-.3 0zm3.6-2c-.2 0-.3-.1-.4-.3-.1-.2-.1-.5.2-.7h.1c.2-.1.5-.1.7.2.1.2.1.5-.2.7h-.1c-.2.1-.3.1-.3.1zm3.6-2.1c-.2 0-.4-.1-.4-.2-.1-.2-.1-.5.1-.7h.1c.2-.1.5-.1.7.2.1.2.1.5-.2.7h-.3zm3.5-2c-.2 0-.4-.1-.4-.2-.1-.2-.1-.5.1-.7h.1c.2-.1.5-.1.7.2.1.2.1.5-.2.7-.1-.1-.2 0-.3 0zm3.5-2c-.2 0-.3-.1-.4-.3-.1-.2-.1-.5.2-.7h.1c.2-.1.5-.1.7.2.1.2.1.5-.2.7h-.1c-.1.1-.2.1-.3.1zm3.7-2.1c-.2 0-.4-.1-.4-.2-.1-.2-.1-.5.1-.7h.1c.2-.1.5-.1.7.2.1.2.1.5-.2.7h-.3zm3.5-2c-.2 0-.4-.1-.4-.2-.1-.2-.1-.5.1-.7h.1c.2-.1.5-.1.7.2.1.2.1.5-.2.7-.1-.1-.2 0-.3 0zm3.5-2c-.2 0-.3-.1-.4-.3-.1-.2-.1-.5.2-.7h.1c.2-.1.5-.1.7.2.1.2.1.5-.2.7h-.1c-.1.1-.2.1-.3.1z"/>
                <path d="M159.5 126.3c-.2 0-.4-.1-.4-.2-.1-.2-.1-.5.1-.7h.1c.2-.1.5-.1.7.2.1.2.1.5-.2.7h-.3zm-1.7-1.2c-.3 0-.5-.2-.5-.5v-.1c0-.3.2-.5.5-.5s.5.2.5.5v.1c0 .3-.2.5-.5.5zm5.2-.9c-.2 0-.4-.1-.4-.2-.1-.2-.1-.5.1-.7h.1c.2-.1.5-.1.7.2.1.2.1.5-.2.7h-.3zm3.6-2c-.2 0-.4-.1-.4-.2-.1-.2-.1-.5.1-.7h.1c.2-.1.5-.1.7.2.1.2.1.5-.2.7h-.3zm-8.8-1.2c-.3 0-.5-.2-.5-.5v-.1c0-.3.2-.5.5-.5s.5.2.5.5v.1c0 .3-.2.5-.5.5zm12.3-.9c-.2 0-.4-.1-.4-.2-.1-.2-.1-.5.1-.7h.1c.2-.1.5-.1.7.2.1.2.1.5-.2.7h-.3zm3.5-2c-.2 0-.3-.1-.4-.2-.1-.2-.1-.5.2-.7l.1-.1c.2-.1.5-.1.7.2.1.2.1.5-.2.7l-.1.1h-.3zm-15.8-1.2c-.3 0-.5-.2-.5-.5s.2-.5.5-.5.5.2.5.5v.1c0 .2-.2.4-.5.4zm19.4-.9c-.2 0-.4-.1-.4-.2-.1-.2-.1-.5.1-.7l.1-.1c.2-.1.5-.1.7.2.1.2.1.5-.2.7-.1.1-.2.1-.3.1zm3.6-2c-.2 0-.4-.1-.4-.2-.1-.2-.1-.5.1-.7l.1-.1c.2-.1.5-.1.7.2.1.2.1.5-.2.7-.1 0-.2.1-.3.1zm-23-1.2c-.3 0-.5-.2-.5-.5v-.1c0-.3.2-.5.5-.5s.5.2.5.5v.1c0 .3-.2.5-.5.5zm26.5-.8c-.2 0-.3-.1-.4-.2-.1-.2-.1-.5.2-.7l.1-.1c.2-.1.5-.1.7.2.1.2.1.5-.2.7l-.1.1c-.1-.1-.2 0-.3 0zm3.6-2.1c-.2 0-.4-.1-.4-.2-.1-.2-.1-.5.1-.7l.1-.1c.2-.1.5-.1.7.2.1.2.1.5-.2.7-.1 0-.2.1-.3.1zm-30.1-1.2c-.3 0-.5-.2-.5-.5v-.1c0-.3.2-.5.5-.5s.5.2.5.5v.1c0 .3-.2.5-.5.5zm33.6-.9c-.2 0-.4-.1-.4-.2-.1-.2-.1-.5.1-.7h.1c.2-.1.5-.1.7.2.1.2.1.5-.2.7h-.3zm3.5-2c-.2 0-.3-.1-.4-.3-.1-.2-.1-.5.2-.7h.1c.2-.1.5-.1.7.2.1.2.1.5-.2.7h-.1c-.1.1-.2.1-.3.1zm3.6-2.1c-.2 0-.4-.1-.4-.2-.1-.2-.1-.5.1-.7h.1c.2-.1.5-.1.7.2.1.2.1.5-.2.7h-.3z"/>
            </g>
        </g>
        <g fill-rule="nonzero">
            <path d="M408.7 103.2l-36.3 21c-2.6 1.5-7.3 1.3-10.4-.4l-34.8-20.1c-3.1-1.8-3.4-4.5-.7-6l36.3-21c2.6-1.5 7.3-1.3 10.4.4L408 97.2c3.1 1.8 3.4 4.5.7 6z" fill="#E8F2FE"/>
            <path d="M86.5 132V1.1c-.2.8-.7 1.5-1.7 2.1l-36.3 21c-1.3.7-3 1.1-4.8 1V157c1.8 0 3.5-.3 4.8-1l36.3-21c1.3-.7 1.9-1.8 1.7-3z" fill="url(#e)" transform="translate(324 100)"/>
            <path d="M362.1 123.8l-34.8-20.1c-1.5-.8-2.3-1.9-2.5-2.9v130.9c-.3 1.3.6 2.8 2.5 3.9l34.8 20.1c1.6.9 3.6 1.4 5.6 1.4V125.2c-2 0-4-.5-5.6-1.4z" fill="#DDD"/>
            <path d="M38.1 23.8L3.3 3.7C1.8 2.9 1 1.8.8.8v130.9c-.3 1.3.6 2.8 2.5 3.9l34.8 20.1c1.6.9 3.6 1.4 5.6 1.4V25.2c-2 0-4-.5-5.6-1.4z" fill="url(#f)" transform="translate(324 100)"/>
            <g>
                <path d="M397.8 115.5c0 7.4-3.9 11.5-9.5 11-1.3.1-2.7-.2-4.3-1.1l-46.4-26.8c-.4-.2-.8-.5-1.1-.7-7.8-5.4-13.9-16.6-13.9-25.8 0-9 5.8-13.1 13.3-10 1.1-6.4 6.5-8.7 12.9-4.9 2.1 1.2 4.2 3 6 5.1 3.4-2.9 8.6-3 14.5.4 8.8 5.1 16.1 16.3 18.1 26.9 2.7 1.9 4.7 5.7 4.8 8.9 3.4 5.1 5.6 11.4 5.6 17z" fill="#5FD9F9"/>
                <path d="M402.1 92.6c-.1-3.2-2.1-7-4.8-8.9-2-10.6-9.3-21.9-18.1-26.9-5.1-3-9.8-3.2-13.2-1.3l-1.4.8c-1.8-2-3.7-3.8-5.9-5-3.6-2.1-6.9-2.3-9.3-.9l-8.4 4.8c-1.4 0-2.6.3-3.7.9l-9.9 5.7c2.3-1.2 5.2-1.2 8.5.1 1.1-6.4 6.5-8.7 12.9-4.9 2.1 1.2 4.2 3 6 5.1 3.4-2.9 8.6-3 14.5.4 8.8 5.1 16.1 16.3 18.1 26.9 2.7 1.9 4.7 5.7 4.8 8.9 3.5 5.3 5.7 11.5 5.7 17.1 0 5.1-1.8 8.6-4.8 10.1l9.9-5.7c3-1.5 4.9-5.1 4.9-10.2-.1-5.4-2.3-11.7-5.8-17z" fill="#51ADE6"/>
            </g>
        </g>
        <path d="M288.9 467.2h-.1.1z" fill="url(#g)" fill-rule="nonzero"/>
        <g fill-rule="nonzero">
            <path d="M409.2 329.3l-66.5 37.2c-2.9 1.7-8.1 1.5-11.5-.5l-22.1-13.2c-3.4-2-3.8-5-.8-6.7l66.2-38c2.9-1.7 8.1-1.5 11.5.5l22.4 13.9c3.3 2.1 3.7 5.1.8 6.8z" fill="#E8F2FE"/>
            <path d="M105.1 6.5V0c-.2.9-.8 1.7-1.9 2.4L36.7 39.6c-1.4.8-3.4 1.2-5.4 1.1v7.6c2 0 3.9-.3 5.4-1.1L103.2 10c1.5-1 2.1-2.3 1.9-3.5z" fill="url(#h)" transform="translate(306 327)"/>
            <path d="M25.2 39.1L3.1 25.9C1.5 25 .6 23.8.3 22.6v6.5c-.3 1.5.6 3.1 2.8 4.3l22.1 13.2c1.8 1 4 1.6 6.2 1.6v-7.6c-2.2 0-4.5-.5-6.2-1.5z" fill="url(#i)" transform="translate(306 327)"/>
        </g>
        <g fill-rule="nonzero">
            <path d="M436.8 370.3l-66.5 37.2c-2.9 1.7-8.1 1.5-11.5-.5l-22.1-13.2c-3.4-2-3.8-5-.8-6.7l66.2-38c2.9-1.7 8.1-1.5 11.5.5l22.4 13.9c3.4 2.1 3.8 5.1.8 6.8z" fill="#E8F2FE"/>
            <path d="M105.8 7.4V.9c-.2.9-.8 1.7-1.9 2.4L37.4 40.5c-1.4.8-3.4 1.2-5.4 1.1v7.6c2 0 3.9-.3 5.4-1.1l66.5-37.2c1.5-1 2.1-2.2 1.9-3.5z" fill="url(#j)" transform="translate(333 367)"/>
            <path d="M25.8 40L3.7 26.8c-1.6-.9-2.5-2.1-2.8-3.3V30c-.3 1.5.6 3.1 2.8 4.3l22.1 13.2c1.8 1 4 1.6 6.2 1.6v-7.6c-2.2.1-4.4-.5-6.2-1.5z" fill="url(#k)" transform="translate(333 367)"/>
        </g>
        <g fill-rule="nonzero">
            <path d="M425.1 264.9L227.9 378.5c-8.9 5.1-24.5 4.5-34.8-1.4L72.8 307.9c-10.3-5.9-11.4-15-2.5-20.1l200.6-111.9c8.9-5.1 24.5-4.5 34.8 1.4l116.9 67.5c10.2 5.9 11.4 15 2.5 20.1z" fill="#E8F2FE"/>
            <path d="M366.9 6.2V.8c-.5 2.7-2.5 5.2-5.8 7.1L163.9 121.5c-4.3 2.5-10.1 3.6-16.2 3.4v8.6c6 .1 11.9-.9 16.2-3.4L361.1 16.5c4.6-2.7 6.5-6.5 5.8-10.3z" fill="url(#l)" transform="translate(64 257)"/>
            <path d="M193.1 377L72.8 307.9c-4.9-2.8-7.7-6.4-8.3-9.8v5.4c-.9 4.4 1.9 9.3 8.3 13l120.3 69.2c5.3 3.1 12.1 4.7 18.6 4.9V382c-6.5-.3-13.3-1.9-18.6-5z" fill="#C9C9C9"/>
            <path d="M129.1 120L8.8 50.9c-4.9-2.8-7.7-6.4-8.3-9.8v5.4c-.9 4.4 1.9 9.3 8.3 13l120.3 69.2c5.3 3.1 12.1 4.7 18.6 4.9V125c-6.5-.3-13.3-1.9-18.6-5z" fill="url(#m)" transform="translate(64 257)"/>
            <g>
                <path fill="#FFF" d="M239.9 327.4l-41.2 23.8L94 290.7l41.1-23.8z"/>
                <path fill="url(#n)" d="M145.9 61.4v17.1l-41.2 23.8V85.2z" transform="translate(94 266)"/>
                <path fill="url(#o)" d="M0 24.7v17.1l104.7 60.5V85.2z" transform="translate(94 266)"/>
                <g>
                    <path d="M154.4 285.2l-18.1 10.4c-1.3.8-3.6.7-5.2-.2l-17.3-10c-1.5-.9-1.7-2.2-.4-3l18.1-10.4c1.3-.8 3.6-.7 5.2.2l17.3 10c1.5.9 1.7 2.3.4 3z" fill="#5FD9F9"/>
                    <path d="M155.2 292.1v-8c-.1.4-.4.8-.9 1.1l-18.1 10.4c-.6.4-1.5.5-2.4.5v8.4c.9 0 1.8-.1 2.4-.5l18.1-10.4c.8-.3 1-.9.9-1.5z" fill="#63C1FB"/>
                    <path d="M131.2 295.5l-17.3-10c-.7-.4-1.1-.9-1.2-1.5v8c-.1.7.3 1.4 1.2 1.9l17.3 10c.8.5 1.8.7 2.8.7v-8.4c-1.1 0-2.1-.3-2.8-.7z" fill="#51ADE6"/>
                    <g>
                        <path d="M186.2 303.7l-18.1 10.4c-1.3.8-3.6.7-5.2-.2l-17.3-10c-1.5-.9-1.7-2.2-.4-3l18.1-10.4c1.3-.8 3.6-.7 5.2.2l17.3 10c1.6.9 1.8 2.2.4 3z" fill="#52A3F6"/>
                        <path d="M187.1 310.6v-8c-.1.4-.4.8-.9 1.1l-18.1 10.4c-.6.4-1.5.5-2.4.5v8.4c.9 0 1.8-.1 2.4-.5l18.1-10.4c.7-.4 1-.9.9-1.5z" fill="#1F98F5"/>
                        <path d="M163 313.9l-17.3-10c-.7-.4-1.1-.9-1.2-1.5v8c-.1.7.3 1.4 1.2 1.9l17.3 10c.8.5 1.8.7 2.8.7v-8.4c-1 0-2-.2-2.8-.7z" fill="#0084E9"/>
                    </g>
                    <g>
                        <path d="M218.8 322.4l-18.1 10.4c-1.3.8-3.6.7-5.2-.2l-17.3-10c-1.5-.9-1.7-2.2-.4-3l18.1-10.4c1.3-.8 3.6-.7 5.2.2l17.3 10c1.5.9 1.7 2.3.4 3z" fill="#5FD9F9"/>
                        <path d="M219.6 329.3v-8c-.1.4-.4.8-.9 1.1l-18.1 10.4c-.6.4-1.5.5-2.4.5v8.4c.9 0 1.8-.1 2.4-.5l18.1-10.4c.8-.4 1-.9.9-1.5z" fill="#63C1FB"/>
                        <path d="M195.5 332.6l-17.3-10c-.7-.4-1.1-.9-1.2-1.5v8c-.1.7.3 1.4 1.2 1.9l17.3 10c.8.5 1.8.7 2.8.7v-8.4c-1 0-2-.2-2.8-.7z" fill="#51ADE6"/>
                    </g>
                </g>
            </g>
            <g>
                <g transform="translate(361 219)">
                    <ellipse fill="#FFF" cx="28.5" cy="16.2" rx="27.9" ry="16.1"/>
                    <path d="M48.2 27.6c-10.9 6.3-28.5 6.3-39.4 0C3.4 24.5.7 20.4.6 16.3v17.3c0 4.1 2.7 8.3 8.2 11.5 10.9 6.3 28.5 6.3 39.4 0 5.5-3.2 8.2-7.3 8.2-11.5V16.3c-.1 4.1-2.8 8.2-8.2 11.3z" fill="url(#p)"/>
                </g>
                <path d="M389.5 223l17 9.8c-9.3 5.4-24.7 5.4-34 0s-9.3-14.3 0-19.6c5.2-3 12.5-4.5 19.9-4l-2.9 13.8z" fill="#76B5CE"/>
                <path d="M372.4 232.8c-4.6-2.7-7-6.2-7-9.8v9.9c0 3.6 2.3 7.2 7 9.9 9.3 5.4 24.7 5.4 34 0v-10c-9.3 5.4-24.6 5.4-34 0z" fill="#51ADE6"/>
                <path d="M389.5 223l17 9.8c-9.3 5.4-24.7 5.4-34 0s-9.3-14.3 0-19.6c5.2-3 12.5-4.5 19.9-4l-2.9 13.8z" fill="#5FD9F9"/>
                <path d="M389.5 212.8l2.8-13.8c5.4.4 10.3 1.8 14.2 4 9.3 5.4 9.3 14.3 0 19.6l-17-9.8z" fill="#52A3F6"/>
                <path fill="#0084E9" d="M389.5 212.8V223l17 9.8v-10.2z"/>
                <path d="M413.5 232.8v-20c0 3.5-2.4 7.1-7 9.7v20.2c4.7-2.6 7-6.3 7-9.9z" fill="#3E99F8"/>
            </g>
            <g>
                <path d="M332.2 207.6l-39.6-22.9c-4.7-2.7-4.1-7.4 1.3-10.5 5.4-3.1 13.6-3.5 18.3-.8l39.6 22.9c4.7 2.7 4.1 7.4-1.3 10.5-5.5 3.1-13.7 3.5-18.3.8z" fill="#FFF"/>
                <path d="M61.4 35.8c-5.4 3.1-13.6 3.5-18.3.8L3.5 13.7C1.5 12.5.4 11 .3 9.3V21.1c0 1.7 1.1 3.3 3.2 4.5l39.6 22.9c4.7 2.7 12.9 2.4 18.3-.8 3.1-1.8 4.6-4 4.5-6.2V29.7c0 2.2-1.5 4.4-4.5 6.1z" fill="url(#q)" transform="translate(289 171)"/>
                <g fill="#BDCEFA">
                    <path d="M309.4 181.3c-2 1.2-5.3 1.2-7.4 0-2-1.2-2-3.1 0-4.2 2-1.2 5.3-1.2 7.4 0 2.1 1.1 2.1 3 0 4.2z"/>
                    <path d="M320.9 187.9c-2 1.2-5.3 1.2-7.4 0-2-1.2-2-3.1 0-4.2 2-1.2 5.3-1.2 7.4 0 2 1.1 2 3 0 4.2z"/>
                    <path d="M332.4 194.5c-2 1.2-5.3 1.2-7.4 0-2-1.2-2-3.1 0-4.2 2-1.2 5.3-1.2 7.4 0 2 1.2 2 3.1 0 4.2z"/>
                    <path d="M343.9 201.2c-2 1.2-5.3 1.2-7.4 0-2-1.2-2-3.1 0-4.2 2-1.2 5.3-1.2 7.4 0 2 1.1 2 3 0 4.2z"/>
                </g>
            </g>
        </g>
        <g fill-rule="nonzero">
            <path d="M154.6 252.9v-87.6c0-2.2 1.2-4.3 3.1-5.4L263 99.2c4.1-2.4 9.3.6 9.3 5.4v87.6c0 2.2-1.2 4.3-3.1 5.4L164 258.3c-4.2 2.3-9.4-.6-9.4-5.4z" fill="#FFF"/>
            <path d="M10.9 161c-2 0-4.1-1.6-4.1-4.1V69.3c0-1.5.8-2.8 2.1-3.6L114 5c.6-.4 1.3-.6 2.1-.6 2 0 4.1 1.6 4.1 4.1v87.6c0 1.5-.8 2.8-2.1 3.6L12.9 160.5c-.6.3-1.3.5-2 .5z" fill="url(#r)" transform="translate(150 96)"/>
            <path d="M4.6 156.9V69.3c0-2.2 1.2-4.3 3.1-5.4L113 3.2c1.7-1 3.7-1.1 5.3-.4l-2.5-1.3c-1.9-1.4-4.5-1.7-6.8-.4L3.8 61.9C1.9 63 .7 65.1.7 67.3v87.6c0 2.1 1 3.9 2.6 5h.1c.4.3.9.5 1.3.7l2.8 1.5c-1.7-1.2-2.9-3-2.9-5.2z" fill="url(#s)" transform="translate(150 96)"/>
            <g>
                <path d="M164 269l75.8 43.8c1.9 1.1 4.3 1.1 6.2 0L351.3 252c4.1-2.4 4.1-8.4 0-10.8l-75.8-43.8c-1.9-1.1-4.3-1.1-6.2 0L164 258.3c-4.2 2.3-4.2 8.3 0 10.7z" fill="#FFF"/>
                <path d="M191.3 56L86 116.8c-1.9 1.1-4.3 1.1-6.2 0L4 73C1.9 71.8.9 69.7.9 67.6v5.7c0 2.1 1 4.2 3.1 5.4l75.8 43.8c1.9 1.1 4.3 1.1 6.2 0l105.2-60.8c2-1.1 3-3.1 3.1-5.1v-.1V50.9c0 2-1 4-3 5.1z" fill="url(#t)" transform="translate(160 196)"/>
                <path d="M312 234.9L221.6 287c-3.5 2-9.7 1.8-13.8-.6l-27.2-15.7c-4.1-2.4-4.5-5.9-1-7.9l90.4-52.2c3.5-2 9.7-1.8 13.8.6l27.2 15.7c4.1 2.4 4.5 5.9 1 8z" fill="#B8D0F6"/>
                <path d="M179.7 264.1l90.4-52.2c3.5-2 9.7-1.8 13.8.6l27.2 15.7c1.9 1.1 3 2.5 3.3 3.9.4-1.7-.8-3.7-3.3-5.1l-27.2-15.7c-4.1-2.4-10.2-2.6-13.8-.6l-90.4 52.2c-1.8 1.1-2.6 2.5-2.3 4.1.2-1.2 1-2.2 2.3-2.9z" fill="#99B6E0"/>
                <path d="M252.6 234.5l-4.8-2.8-4.8 2.8 4.8 2.8 4.8-2.8zm-9.4 5.4l-4.8-2.8-4.8 2.8 4.8 2.8 4.8-2.8zm18.9-10.8l-4.8-2.8-4.8 2.8 4.8 2.8 4.8-2.8zm27.3 2.9l10-5.8-4.8-2.8-10 5.8 4.8 2.8zm1.9-10.5l-4.8-2.8-4.8 2.8 4.8 2.8 4.8-2.8zm-19.8 2.1l-4.8-2.8-4.8 2.8 4.8 2.8 4.8-2.8zm-37.7 21.8l-4.8-2.8-4.8 2.8 4.8 2.8 4.8-2.8zm49.2-15.3l-82.6 47.7 4.8 2.8 82.6-47.7-4.8-2.8zm-58.6 20.7l-4.8-2.8-4.8 2.8 4.8 2.8 4.8-2.8zm54.8-27.8l-86.9 50.2 4.8 2.8 86.9-50.2-4.8-2.8zm23.5 5.1l-94.2 54.4 4.8 2.8 94.2-54.4-4.8-2.8zm-97.2 33.6l-4.8-2.8-4.8 2.8 4.8 2.8 4.8-2.8zm9.4-5.4l-4.8-2.8-4.8 2.8 4.8 2.8 4.8-2.8z" fill="#99B6E0"/>
                <path d="M252.6 233.7l-4.8-2.8-4.8 2.8 4.8 2.8 4.8-2.8zm-9.4 5.4l-4.8-2.8-4.8 2.8 4.8 2.8 4.8-2.8zm18.9-10.9l-4.8-2.8-4.8 2.8 4.8 2.8 4.8-2.8zm27.3 2.9l10-5.8-4.8-2.8-10 5.8 4.8 2.8zm1.9-10.4l-4.8-2.8-4.8 2.8 4.8 2.8 4.8-2.8zm-19.8 2.1l-4.8-2.8-4.8 2.8 4.8 2.8 4.8-2.8zm-37.7 21.7l-4.8-2.8-4.8 2.8 4.8 2.8 4.8-2.8zm49.2-15.2L200.4 277l4.8 2.8 82.6-47.7-4.8-2.8zM224.4 250l-4.8-2.8-4.8 2.8 4.8 2.8 4.8-2.8zm54.8-27.9l-86.9 50.2 4.8 2.8 86.9-50.2-4.8-2.8zm23.5 5.2l-94.2 54.4 4.8 2.8 94.2-54.4-4.8-2.8zm-97.2 33.6l-4.8-2.8-4.8 2.8 4.8 2.8 4.8-2.8zm9.4-5.5l-4.8-2.8-4.8 2.8 4.8 2.8 4.8-2.8z" fill="#E4F2FF"/>
                <path d="M257.3 225.9l4.4 2.6.4-.2-4.8-2.8-4.8 2.8.4.2 4.4-2.6zm9.4-5.5l4.4 2.6.4-.2-4.8-2.8-4.8 2.8.4.2 4.4-2.6zm-18.9 10.9l4.4 2.6.4-.2-4.8-2.8-4.8 2.8.4.2 4.4-2.6zm37.2-2.7l9.6-5.6 4.4 2.6.4-.2-4.8-2.8-10 5.8.4.2zm-46.6 8.2l4.4 2.6.4-.2-4.8-2.8-4.8 2.8.4.2 4.4-2.6zm48.1-18.5l4.4 2.6.4-.2-4.8-2.8-4.8 2.8.4.2 4.4-2.6zm16.2 9l-94.2 54.4.4.2 93.9-54.2 4.4 2.6.4-.2-4.9-2.8zm-19.1-2.2l.4-.2-4.8-2.8-86.9 50.2.4.2 86.5-50 4.4 2.6zm-82.9 33.4l4.4 2.6.4-.2-4.8-2.8-4.8 2.8.4.2 4.4-2.6zm86.7-26.2l.4-.2-4.8-2.8-82.6 47.7.4.2 82.2-47.5 4.4 2.6zm-77.2 20.8l4.4 2.6.4-.2-4.8-2.8-4.8 2.8.4.2 4.4-2.6zm18.8-10.9l4.4 2.6.4-.2-4.8-2.8-4.8 2.8.4.2 4.4-2.6zm-9.4 5.4l4.4 2.6.4-.2-4.8-2.8-4.8 2.8.4.2 4.4-2.6z" fill="#FFF"/>
                <path d="M304.6 265.5l-28.2 16.3c-1.7 1-4.8.9-6.8-.3l-6.2-3.6c-2-1.2-2.2-2.9-.5-4l28.2-16.3c1.7-1 4.8-.9 6.8.3l6.2 3.6c2 1.2 2.3 3 .5 4z" fill="#B8D0F6"/>
                <path d="M262.9 274.8l28.2-16.3c1.7-1 4.8-.9 6.8.3l6.2 3.6c.9.5 1.4 1.2 1.6 1.8.2-.9-.3-1.9-1.6-2.7l-6.2-3.6c-2-1.2-5.1-1.3-6.8-.3L262.9 274c-1 .6-1.3 1.3-1.1 2.1.2-.5.5-1 1.1-1.3z" fill="#99B6E0"/>
            </g>
            <g>
                <path d="M255.3 131v-3.2c0-2.8-2-3.9-4.4-2.5l-75 43.3c-2.4 1.4-4.4 4.8-4.4 7.6v3.2l83.8-48.4z" fill="#FFF"/>
                <g fill="#FFF">
                    <path d="M179.3 170.8c0 1.1-.8 2.5-1.8 3-1 .6-1.8.1-1.8-1s.8-2.5 1.8-3c1.1-.6 1.8-.2 1.8 1z"/>
                    <path d="M185.5 167.2c0 1.1-.8 2.5-1.8 3-1 .6-1.8.1-1.8-1s.8-2.5 1.8-3c1-.6 1.8-.1 1.8 1z"/>
                    <path d="M191.7 163.6c0 1.1-.8 2.5-1.8 3-1 .6-1.8.1-1.8-1s.8-2.5 1.8-3 1.8-.1 1.8 1z"/>
                </g>
                <path fill="#5FD9F9" d="M184.9 187.4l-13.3 7.6v-12l13.3-7.7z"/>
                <path fill="#5FD9F9" d="M201.4 177.8l-13.2 7.7v-12.1l13.2-7.6z"/>
                <path fill="#5FD9F9" d="M218 168.2l-13.3 7.7v-12.1l13.3-7.6z"/>
                <path fill="url(#u)" d="M51.6 41.6l32.7-18.9v-2.5L51.6 39.1z" transform="translate(171 124)"/>
                <path fill="url(#v)" d="M51.6 36.9l32.7-19v-2.5L51.6 34.3z" transform="translate(171 124)"/>
                <path fill="url(#w)" d="M51.6 32.1l32.7-18.9v-2.6l-32.7 19z" transform="translate(171 124)"/>
                <path d="M252.4 174.2l-77.9 45c-1.6.9-2.9-.1-2.9-2.2v-14.5c0-2.1 1.3-4.6 2.9-5.5l77.9-45c1.6-.9 2.9.1 2.9 2.2v14.5c0 2.2-1.3 4.6-2.9 5.5z" fill="#FFF"/>
                <path fill="#FFEC00" d="M205.8 197.9l-10.1 5.9v-12.6l10.1-5.9z"/>
                <path fill="#9CE3F0" d="M218.6 190.6l-10.2 5.8v-10.5l10.2-5.9z"/>
                <path fill="#FF9100" d="M231.3 183.2l-10.2 5.9v-15.4l10.2-5.9z"/>
                <path fill="url(#x)" d="M78.6 47.1l2.8-1.5V43l-2.8 1.6z" transform="translate(171 124)"/>
                <path fill="url(#y)" d="M78.6 42.4l2.8-1.6v-2.5l-2.8 1.5z" transform="translate(171 124)"/>
                <path fill="url(#z)" d="M78.6 37.6l2.8-1.6v-2.5l-2.8 1.6z" transform="translate(171 124)"/>
                <path fill="url(#A)" d="M63.2 56.1l14.1-8.2v-2.5l-14.1 8.1z" transform="translate(171 124)"/>
                <path fill="url(#B)" d="M63.2 51.3l14.1-8.2v-2.5l-14.1 8.2z" transform="translate(171 124)"/>
                <path fill="url(#C)" d="M63.2 46.5l14.1-8.1v-2.6L63.2 44z" transform="translate(171 124)"/>
                <path fill="url(#D)" d="M6.4 76.8l-2.7 1.6v2.5l2.7-1.6z" transform="translate(171 124)"/>
                <path fill="url(#E)" d="M6.4 81.6l-2.7 1.5v2.6l2.7-1.6z" transform="translate(171 124)"/>
                <path fill="url(#F)" d="M6.4 86.3l-2.7 1.6v2.5l2.7-1.6z" transform="translate(171 124)"/>
                <path fill="url(#G)" d="M21.9 67.9L7.7 76v2.6l14.2-8.2z" transform="translate(171 124)"/>
                <path fill="url(#H)" d="M21.9 72.6L7.7 80.8v2.5l14.2-8.2z" transform="translate(171 124)"/>
                <path fill="url(#I)" d="M21.9 77.4L7.7 85.5v2.6l14.2-8.2z" transform="translate(171 124)"/>
                <path d="M249.7 188.1l-71.3 41.2c-1.5.9-2.7-.1-2.7-2 0-2 1.2-4.3 2.7-5.1l71.3-41.2c1.5-.9 2.7.1 2.7 2s-1.2 4.3-2.7 5.1z" fill="#FFF"/>
            </g>
        </g>
        <g fill-rule="nonzero">
            <path d="M71.5 75.1l-67.6 39c-2.1 1.2-3.8-.1-3.8-2.9V47.3c0-2.8 1.7-6.1 3.8-7.3L71.5 1c2.1-1.2 3.8.1 3.8 2.9v63.9c0 2.9-1.7 6.1-3.8 7.3z" fill="url(#J)" transform="translate(104 166)"/>
            <path fill="url(#K)" d="M64.4 43.6L.9 80.2v-4.7l63.5-36.7z" transform="translate(109 191)"/>
            <path d="M52.3 14.7c0 12.5-8.8 27.7-19.6 34-10.8 6.3-19.6 1.2-19.6-11.3s8.8-27.7 19.6-34c10.8-6.3 19.6-1.2 19.6 11.3z" fill="url(#L)" transform="translate(109 191)"/>
            <g>
                <path d="M72.3 61.1l-67.6 39c-2.1 1.2-3.8-.1-3.8-2.9V47.3c0-2.8 1.7-6.1 3.8-7.3L72.3 1c2.1-1.2 3.8.1 3.8 2.9v49.9c0 2.9-1.7 6.1-3.8 7.3z" fill="url(#M)" transform="translate(242 82)"/>
                <path fill="url(#N)" d="M64.2 40.7L.8 77.4v-4.8L64.2 36z" transform="translate(248 94)"/>
                <path fill="url(#O)" d="M64.2 31L.8 67.6v-4.8l63.4-36.6z" transform="translate(248 94)"/>
                <path fill="url(#P)" d="M17.1 45.6l-17 9.9V35.8l17-9.8z" transform="translate(250 94)"/>
                <path fill="url(#Q)" d="M39 33l-17 9.8V23.1l17-9.8z" transform="translate(250 94)"/>
                <path fill="url(#R)" d="M61 20.3l-17.1 9.9V10.5L61 .6z" transform="translate(250 94)"/>
            </g>
        </g>
        <g fill-rule="nonzero">
            <path d="M124.1 361.3l-36.3 21c-2.6 1.5-7.3 1.3-10.4-.4l-34.8-20.1c-3.1-1.8-3.4-4.5-.7-6l36.3-21c2.6-1.5 7.3-1.3 10.4.4l34.8 20.1c3 1.8 3.4 4.5.7 6z" fill="#E8F2FE"/>
            <path d="M85.8 67.3V1.2c-.2.8-.7 1.5-1.7 2.1l-36.3 21c-1.3.7-3 1.1-4.8 1v67c1.8 0 3.5-.3 4.8-1l36.3-21c1.4-.8 2-1.9 1.7-3z" fill="url(#S)" transform="translate(40 358)"/>
            <path d="M37.5 23.9L2.7 3.8C1.2 3 .4 1.9.2.9V67c-.3 1.3.6 2.8 2.5 3.9L37.5 91c1.6.9 3.6 1.4 5.6 1.4v-67c-2-.1-4.1-.6-5.6-1.5z" fill="url(#T)" transform="translate(40 358)"/>
        </g>
        <g fill-rule="nonzero">
            <path d="M83.435 314.574c-9.044-4.695-17.565 2.61-17.565 2.61 0 10.782 11.478 36.173 20.521 40.869 0 0 13.218-4.522 13.218-15.305.174-10.956-7.13-23.478-16.174-28.174" fill="#51ADE6"/>
            <path d="M77.348 317.53C68.304 312.836 61 317.88 61 328.662c0 10.783 7.304 23.305 16.174 28 9.043 4.696 16.348-.348 16.348-11.13.174-10.783-7.13-23.478-16.174-28" fill="#5FD9F9"/>
            <path d="M79.017 327.734l.038.022c.8.48 1.598 1.173 2.314 2.029l4.186 5.001c1.444 1.725 2.334 3.852 2.334 5.579v.394c0 .296-.31.297-.558 0l-7.86-9.389c-.439-.525-1.008-.686-1.227-.329-.193.316-.002.945.396 1.42l8.886 10.617c.224.269.363.6.363.868v1.43c0 .315-.03.607-.087.875-.064.299-.438.241-.725-.102l-15.324-18.307c-.23-.277-.266-.628-.07-.7.25-.09.527-.136.83-.137l4.19-.005c.716 0 1.514.26 2.314.734zm-8.896.966c.042-.16.2-.185.37-.085a.746.746 0 0 1 .186.163l15.41 18.247c.299.353.33.794.07.87-.22.066-.459.1-.716.1L81.23 348c-.718 0-1.518-.258-2.32-.729l-.038-.022c-.801-.478-1.602-1.166-2.32-2.016l-4.212-4.988C70.892 338.532 70 336.42 70 334.703v-.372c0-.306.323-.307.582 0l7.87 9.32c.138.163.29.29.438.378.341.203.672.193.814-.085.165-.322-.021-.913-.403-1.364l-8.912-10.554c-.24-.284-.389-.636-.389-.921v-1.395c0-.369.042-.706.121-1.01z" fill="#51ADE6"/>
            <path d="M77.017 328.734l.038.022c.8.48 1.598 1.173 2.314 2.029l4.186 5.001c1.444 1.725 2.334 3.852 2.334 5.579v.394c0 .296-.31.297-.558 0l-7.86-9.389c-.439-.525-1.008-.686-1.227-.329-.193.316-.002.945.396 1.42l8.886 10.617c.224.269.363.6.363.868v1.43c0 .315-.03.607-.087.875-.064.299-.438.241-.725-.102l-15.324-18.307c-.23-.277-.266-.628-.07-.7.25-.09.527-.136.83-.137l4.19-.005c.716 0 1.514.26 2.314.734zm-8.896.966c.042-.16.2-.185.37-.085a.746.746 0 0 1 .186.163l15.41 18.247c.299.353.33.794.07.87-.22.066-.459.1-.716.1L79.23 349c-.718 0-1.518-.258-2.32-.729l-.038-.022c-.801-.478-1.602-1.166-2.32-2.016l-4.212-4.988C68.892 339.532 68 337.42 68 335.703v-.372c0-.306.323-.307.582 0l7.87 9.32c.138.163.29.29.438.378.341.203.672.193.814-.085.165-.322-.021-.913-.403-1.364l-8.912-10.554c-.24-.284-.389-.636-.389-.921v-1.395c0-.369.042-.706.121-1.01z" fill="#FFF"/>
        </g>
        <g transform="translate(0 204)">
            <path d="M1 116c-.5 0-1-1.199-1-2.997V2.997C0 1.5.4 0 1 0c.5 0 1 1.199 1 2.997v110.006C2 114.5 1.6 116 1 116z" fill="url(#U)" opacity=".1"/>
            <circle fill="#4C68EF" fill-rule="nonzero" cx="1" cy="1" r="1"/>
        </g>
        <g transform="translate(475 182)">
            <path d="M1 116c-.5 0-1-1.199-1-2.997V2.997C0 1.5.4 0 1 0c.5 0 1 1.199 1 2.997v110.006C2 114.5 1.6 116 1 116z" fill="url(#U)" opacity=".1"/>
            <circle fill="#4C68EF" fill-rule="nonzero" cx="1" cy="1" r="1"/>
        </g>
        <g transform="translate(144)">
            <path d="M1 60c-.5 0-1-.62-1-1.55V1.55C0 .775.4 0 1 0c.5 0 1 .62 1 1.55v56.9C2 59.225 1.6 60 1 60z" fill="url(#V)" opacity=".1"/>
            <circle fill="#4C68EF" fill-rule="nonzero" cx="1" cy="1" r="1"/>
        </g>
        <g transform="translate(168 387)">
            <path d="M1 73c-.5 0-1-.755-1-1.886V1.886C0 .943.4 0 1 0c.5 0 1 .755 1 1.886v69.228C2 72.057 1.6 73 1 73z" fill="url(#W)" opacity=".1"/>
            <circle fill="#4C68EF" fill-rule="nonzero" cx="1" cy="1" r="1"/>
        </g>
        <g transform="translate(402 424)">
            <path d="M1 116c-.5 0-1-1.199-1-2.997V2.997C0 1.5.4 0 1 0c.5 0 1 1.199 1 2.997v110.006C2 114.5 1.6 116 1 116z" fill="url(#U)" opacity=".1"/>
            <circle fill="#4C68EF" fill-rule="nonzero" cx="1" cy="1" r="1"/>
        </g>
        <path d="M61.593 393.943l.049.03c1.028.617 2.055 1.507 2.976 2.608L70 403.01c1.856 2.218 3 4.952 3 7.172v.507c0 .381-.399.382-.718 0l-10.104-12.07c-.565-.677-1.297-.883-1.578-.424-.25.406-.004 1.215.508 1.826l11.425 13.65c.289.345.467.77.467 1.116v1.838c0 .405-.038.78-.112 1.125-.082.385-.562.31-.932-.131l-19.702-23.538c-.297-.355-.342-.807-.09-.898a3.148 3.148 0 0 1 1.066-.177l5.387-.007c.921-.001 1.948.334 2.976.943zm-11.437 1.242c.053-.206.258-.237.474-.109a.96.96 0 0 1 .24.21l19.814 23.46c.383.454.424 1.021.089 1.12-.282.084-.59.127-.92.127l-5.415.007c-.923.001-1.953-.332-2.983-.937l-.05-.03c-1.03-.613-2.059-1.497-2.982-2.59l-5.416-6.413c-1.86-2.204-3.007-4.92-3.007-7.126v-.478c0-.394.415-.395.748-.001l10.12 11.983c.177.21.37.374.561.487.44.26.865.247 1.048-.11.212-.414-.028-1.174-.518-1.754L50.5 399.463c-.31-.367-.5-.818-.5-1.185v-1.793c0-.475.054-.909.156-1.3z" fill="#FFF" fill-rule="nonzero"/>
        <path d="M345.593 143.943l.049.03c1.028.617 2.055 1.507 2.976 2.608l5.382 6.43c1.856 2.218 3 4.952 3 7.172v.507c0 .381-.399.382-.718 0l-10.104-12.07c-.565-.677-1.297-.883-1.578-.424-.25.406-.004 1.215.508 1.826l11.425 13.65c.289.345.467.77.467 1.116v1.838c0 .405-.038.78-.112 1.125-.082.385-.562.31-.932-.131l-19.702-23.538c-.297-.355-.342-.807-.09-.898a3.148 3.148 0 0 1 1.066-.177l5.387-.007c.921-.001 1.948.334 2.976.943zm-11.437 1.242c.053-.206.258-.237.474-.109a.96.96 0 0 1 .24.21l19.814 23.46c.383.454.424 1.021.089 1.12-.282.084-.59.127-.92.127l-5.415.007c-.923.001-1.953-.332-2.983-.937l-.05-.03c-1.03-.613-2.059-1.497-2.982-2.59l-5.416-6.413c-1.86-2.204-3.007-4.92-3.007-7.126v-.478c0-.394.415-.395.748-.001l10.12 11.983c.177.21.37.374.561.487.44.26.865.247 1.048-.11.212-.414-.028-1.174-.518-1.754L334.5 149.463c-.31-.367-.5-.818-.5-1.185v-1.793c0-.475.054-.909.156-1.3z" fill="#FFF" fill-rule="nonzero"/>
        <g fill-rule="nonzero">
            <path d="M366.9 267c.2 1.6 2.2 8.4 1.8 10.9-.4 2.4-7.2 6.8-7.2 6.8l-.9-4.2 2.9-2.8c.5-.5.8-1.3.7-2l-.8-5.7 3.5-3z" fill="#FFA8A7"/>
            <path d="M363.4 275.3l-2.8-12.5c-.4-4.7 3.9-4.2 4.9-2.6 1 1.6 3 12.3 3.1 13.3.4 2.4.4 3.6.2 4.6-.2 1-2.6 3.8-7.2 6.6l-.9-4.2 2.7-5.2z" fill="#6A89CE"/>
            <path d="M362.7 334.5s.1.7.3 1.6c.2.7.2 1.6-.6 1.9-.8.3-1.7.2-2.2-.5-.6-.9-1-1.9-1.9-2.8-.9-.8-2-1.7-2.3-3-.3-1.2-.1-1.9.7-2 1-.1 2.6.7 3.4 1.3.5.5 2.6 3.5 2.6 3.5z" fill="#2D2979"/>
            <path d="M351.9 341.3s.1.9.1 1.7c.1.7.3 1.9.1 2.4-.2.5-1.4.9-2.9.9-.9 0-2.7.7-3.3 1.3-.9.8-3 1.1-4.2.7-1.2-.4-2.6-.9-2.8-1.5-.2-.6.4-.8 3.4-2.2 3-1.4 5.2-2.3 6.3-3.9l3.3.6z" fill="#2D2979"/>
            <path d="M363.4 318.7c-.5-3.9-1.3-6.2-1.3-6.2s.4-5.4.6-10.4c.2-5.5.5-12.4.6-13.7l-17.8 4s1.1 21.3 1.3 24.1c.2 2.8.4 6.7.7 10.2.4 4.5.8 14.6.8 14.6 1.9 1.1 3.6.7 3.6.7s1.5-12.5 1.8-15.7c.3-4.3-.8-8-.8-8s.5-5.5.9-10.1c.4-4 .9-6.5.9-8.4l.4-.2s.4 7.9.6 10.6c.2 2.8.6 5.5 1.4 10.6.7 4.5 2.3 13.8 2.3 13.8 1.9 1.1 3.2.1 3.2.1s1.3-12.1.8-16z" fill="#C4D9FF"/>
            <path d="M354.8 299.5s4-2.1 6-4c0 0-1.9 2.8-4.3 4.1 0 0-.9 9.8-.9 9.6l-.5-9.6-.3-.1z" fill="#AACAF9"/>
            <path d="M360.8 259.2c-1.4.1-2.4.4-2.5 0-.1-.3-.3-2.1-.3-2.1.2-.4.3-.8.3-.8 1.7-1 2.9-2.8 3.1-5 .4-3.7-2.3-6.9-5.9-7.3-3.4-.4-6 2.1-6.7 5.4-.4 1.6-.7 4.9.1 7.8.4 1.6.8 2 1.5 2.2.2.1 1.8.2 2.3.2 0 0 .2 1 .3 1.7.1.7.1 1-1.2 1.8s2 2.4 4.1 2.3c2.1-.2 4.5-1.4 5.2-2.8.7-1.7.6-3.5-.3-3.4z" fill="#FFA8A7"/>
            <path d="M360.8 259.2c-1.4.1-2.4.4-2.5 0-.1-.3-.3-2.1-.3-2.1.2-.4.3-.8.3-.8.6-.4 1.1-.8 1.6-1.4l-4.5 1.5-1.3-.3-.5-.3-.3-.6c0 .1-.2 2.1-.6 2.7-.4.7-1.6 1.4-2.2 1.5h.1c.2.1 1.8.2 2.3.2 0 0 .2 1 .3 1.7.1.6.1.9-.9 1.6l1.8 1.4 5.5-.1c.1-.1.3-.2.4-.3l1.6-2.5c.1-1.2-.1-2.3-.8-2.2z" fill="#F28F8F"/>
            <path d="M359 256.5c1.7-1.5 2.2-3 2.4-5.2.4-3.7-2.3-6.9-5.9-7.3-2.4-.2-4.3.8-5.5 2.6 0 0 .2.5.6.9 0 0-.3.8.2 1.5.4.4.4.9.4 1.6 0 .6-.1 1.7 0 2.4.1 1 1.2 1.2 1.2 1.2s.1-2.2.2-2.4c.4-.8 1.8-1 2.3.1.4.9.2 1.8-.1 2.7-.3.9-1.2.9-1.6.6 0 .4-.2 1.9 1.3 2.4 1.4.4 2.8 0 3.5-.4.4-.3 1-.7 1-.7z" fill="#543354"/>
            <path d="M350.6 247.4s-1.7.2-3.3-1.6c-1.6-1.8-.7-3.5 1.2-2.7 1.9.8 5.1.3 6.7.2 1.6-.2 5.9.7 5.4 4.2l-10-.1z" fill="#543354"/>
            <path d="M358.8 259.4c.4.9-.6 2.1-3.1 2.9-2.5.8-2.8-.2-2.8-.2s-3.7 1.7-5 2.6c-1.5 1.1-2.2 4.2-2.4 9.4-.2 6-.7 18-.5 19.5 0 0 1.7 1 3.3-1.3.9 1.5 2.6 2.8 4.8 3.4 3.6 1.1 8.6-.3 11-5 0-5.3-1.5-9.7-.7-12.8 2-7 3-9.8 2-14.5-.8-3.8-1.9-4.3-3.4-4.3-1.3 0-3.2.3-3.2.3z" fill="#7FA8E6"/>
            <path d="M358.1 258.3s.2-.1.5 0c.3.2 1 .9 1 .9s.2 1.5-1.6 2.6-4 1.7-6.2.6c0 0 .4-1.4.6-1.7.1-.3.4-.3.4-.3s.6.7 2.7 0c2.2-.7 2.6-1.8 2.6-1.8v-.3z" fill="#6A89CE"/>
            <path d="M339.8 279.9c3 .8 3.7-1.1 4.1-2.7 1-3.8 1.5-7.2 2.2-9.4.8-2.5 1.7-2.9 3-3.4 1.4-.6 2.7.6 2.2 3.9-.6 3.8-1.3 6.5-2.7 11-.4 1.2-1.2 3.3-2.5 4.3-1.5 1.3-3.9 1.2-7.4.3-1.5-.4-3.2-1.3-6-2.6-.8-.4-1.4-.6-2.8-1.3-1.5-.7-3-1.8-3.8-2.9-.8-1.1-.9-1.6-.7-1.9.2-.3.5-.2 1 .2.4.5 1 1.3 2.2 2 0 0-.9-1-1.5-1.6-.5-.6-.9-1.3-1.1-1.9-.3-.6.3-1.5.7-1.1.4.5.6.9 1.4 1.9.7.8 1.4 1.3 1.4 1.3s-.8-1.1-1.3-2.1-.5-1.5-.5-1.9c0-.3.5-.7.9-.1s.7 1.5 1.6 2.5c.7.7 1.3 1.1 1.3.9 0-.2-.4-.6-.7-1.4-.2-.8 0-1.7.5-1.8.5-.1.4-.1.7.7.4.8.9 1.3 1.4 2.5.4 1 .6 1.4 1.2 2.1.7.9 2.4 1.8 5.2 2.5z" fill="#FFA8A7"/>
            <path d="M337.9 279.3l-1.7-.8c-1 .4-1.8 2.1-1.5 3.9l2 .8 1.2-3.9z" fill="#F5FBFB"/>
            <path d="M349.3 263.8c-2 .2-2.8.8-3.8 5.1-.9 4.3-1.5 8.5-2.3 9.4-.7.9-1.1 2.3-5.6.6 0 0-2.1.8-1.9 4.3 0 0 2.4.9 5.1 1.5 2.7.5 5.2.3 6.9-3.1 1.6-3.4 3.4-10.1 3.7-12.8.4-2.8-.3-5.2-2.1-5z" fill="#6A89CE"/>
        </g>
    </g>
</svg>
